<?xml version="1.0" encoding="utf-8" standalone="no"?>
<!DOCTYPE svg PUBLIC "-//W3C//DTD SVG 1.1//EN"
  "http://www.w3.org/Graphics/SVG/1.1/DTD/svg11.dtd">
<svg xmlns:xlink="http://www.w3.org/1999/xlink" width="1080pt" height="720pt" viewBox="0 0 1080 720" xmlns="http://www.w3.org/2000/svg" version="1.1">
 <metadata>
  <rdf:RDF xmlns:dc="http://purl.org/dc/elements/1.1/" xmlns:cc="http://creativecommons.org/ns#" xmlns:rdf="http://www.w3.org/1999/02/22-rdf-syntax-ns#">
   <cc:Work>
    <dc:type rdf:resource="http://purl.org/dc/dcmitype/StillImage"/>
    <dc:date>2024-03-28T00:26:57.635749</dc:date>
    <dc:format>image/svg+xml</dc:format>
    <dc:creator>
     <cc:Agent>
      <dc:title>Matplotlib v3.8.3, https://matplotlib.org/</dc:title>
     </cc:Agent>
    </dc:creator>
   </cc:Work>
  </rdf:RDF>
 </metadata>
 <defs>
  <style type="text/css">*{stroke-linejoin: round; stroke-linecap: butt}</style>
 </defs>
 <g id="figure_1">
  <g id="patch_1">
   <path d="M 0 720 
L 1080 720 
L 1080 0 
L 0 0 
z
" style="fill: #ffffff"/>
  </g>
  <g id="axes_1">
   <g id="patch_2">
    <path d="M 48.17 674.44 
L 827.763455 674.44 
L 827.763455 10.8 
L 48.17 10.8 
z
" style="fill: #ffffff"/>
   </g>
   <g id="matplotlib.axis_1">
    <g id="xtick_1">
     <g id="line2d_1">
      <defs>
       <path id="m50a938f2d0" d="M 0 0 
L 0 3.5 
" style="stroke: #000000; stroke-width: 0.8"/>
      </defs>
      <g>
       <use xlink:href="#m50a938f2d0" x="83.606066" y="674.44" style="stroke: #000000; stroke-width: 0.8"/>
      </g>
     </g>
     <g id="text_1">
      <!-- 2021-09-16 -->
      <g transform="translate(54.548254 689.038437) scale(0.1 -0.1)">
       <defs>
        <path id="DejaVuSans-32" d="M 1228 531 
L 3431 531 
L 3431 0 
L 469 0 
L 469 531 
Q 828 903 1448 1529 
Q 2069 2156 2228 2338 
Q 2531 2678 2651 2914 
Q 2772 3150 2772 3378 
Q 2772 3750 2511 3984 
Q 2250 4219 1831 4219 
Q 1534 4219 1204 4116 
Q 875 4013 500 3803 
L 500 4441 
Q 881 4594 1212 4672 
Q 1544 4750 1819 4750 
Q 2544 4750 2975 4387 
Q 3406 4025 3406 3419 
Q 3406 3131 3298 2873 
Q 3191 2616 2906 2266 
Q 2828 2175 2409 1742 
Q 1991 1309 1228 531 
z
" transform="scale(0.015625)"/>
        <path id="DejaVuSans-30" d="M 2034 4250 
Q 1547 4250 1301 3770 
Q 1056 3291 1056 2328 
Q 1056 1369 1301 889 
Q 1547 409 2034 409 
Q 2525 409 2770 889 
Q 3016 1369 3016 2328 
Q 3016 3291 2770 3770 
Q 2525 4250 2034 4250 
z
M 2034 4750 
Q 2819 4750 3233 4129 
Q 3647 3509 3647 2328 
Q 3647 1150 3233 529 
Q 2819 -91 2034 -91 
Q 1250 -91 836 529 
Q 422 1150 422 2328 
Q 422 3509 836 4129 
Q 1250 4750 2034 4750 
z
" transform="scale(0.015625)"/>
        <path id="DejaVuSans-31" d="M 794 531 
L 1825 531 
L 1825 4091 
L 703 3866 
L 703 4441 
L 1819 4666 
L 2450 4666 
L 2450 531 
L 3481 531 
L 3481 0 
L 794 0 
L 794 531 
z
" transform="scale(0.015625)"/>
        <path id="DejaVuSans-2d" d="M 313 2009 
L 1997 2009 
L 1997 1497 
L 313 1497 
L 313 2009 
z
" transform="scale(0.015625)"/>
        <path id="DejaVuSans-39" d="M 703 97 
L 703 672 
Q 941 559 1184 500 
Q 1428 441 1663 441 
Q 2288 441 2617 861 
Q 2947 1281 2994 2138 
Q 2813 1869 2534 1725 
Q 2256 1581 1919 1581 
Q 1219 1581 811 2004 
Q 403 2428 403 3163 
Q 403 3881 828 4315 
Q 1253 4750 1959 4750 
Q 2769 4750 3195 4129 
Q 3622 3509 3622 2328 
Q 3622 1225 3098 567 
Q 2575 -91 1691 -91 
Q 1453 -91 1209 -44 
Q 966 3 703 97 
z
M 1959 2075 
Q 2384 2075 2632 2365 
Q 2881 2656 2881 3163 
Q 2881 3666 2632 3958 
Q 2384 4250 1959 4250 
Q 1534 4250 1286 3958 
Q 1038 3666 1038 3163 
Q 1038 2656 1286 2365 
Q 1534 2075 1959 2075 
z
" transform="scale(0.015625)"/>
        <path id="DejaVuSans-36" d="M 2113 2584 
Q 1688 2584 1439 2293 
Q 1191 2003 1191 1497 
Q 1191 994 1439 701 
Q 1688 409 2113 409 
Q 2538 409 2786 701 
Q 3034 994 3034 1497 
Q 3034 2003 2786 2293 
Q 2538 2584 2113 2584 
z
M 3366 4563 
L 3366 3988 
Q 3128 4100 2886 4159 
Q 2644 4219 2406 4219 
Q 1781 4219 1451 3797 
Q 1122 3375 1075 2522 
Q 1259 2794 1537 2939 
Q 1816 3084 2150 3084 
Q 2853 3084 3261 2657 
Q 3669 2231 3669 1497 
Q 3669 778 3244 343 
Q 2819 -91 2113 -91 
Q 1303 -91 875 529 
Q 447 1150 447 2328 
Q 447 3434 972 4092 
Q 1497 4750 2381 4750 
Q 2619 4750 2861 4703 
Q 3103 4656 3366 4563 
z
" transform="scale(0.015625)"/>
       </defs>
       <use xlink:href="#DejaVuSans-32"/>
       <use xlink:href="#DejaVuSans-30" x="63.623047"/>
       <use xlink:href="#DejaVuSans-32" x="127.246094"/>
       <use xlink:href="#DejaVuSans-31" x="190.869141"/>
       <use xlink:href="#DejaVuSans-2d" x="254.492188"/>
       <use xlink:href="#DejaVuSans-30" x="290.576172"/>
       <use xlink:href="#DejaVuSans-39" x="354.199219"/>
       <use xlink:href="#DejaVuSans-2d" x="417.822266"/>
       <use xlink:href="#DejaVuSans-31" x="453.90625"/>
       <use xlink:href="#DejaVuSans-36" x="517.529297"/>
      </g>
     </g>
    </g>
    <g id="xtick_2">
     <g id="line2d_2">
      <g>
       <use xlink:href="#m50a938f2d0" x="156.254038" y="674.44" style="stroke: #000000; stroke-width: 0.8"/>
      </g>
     </g>
     <g id="text_2">
      <!-- 2021-12-27 -->
      <g transform="translate(127.196225 689.038437) scale(0.1 -0.1)">
       <defs>
        <path id="DejaVuSans-37" d="M 525 4666 
L 3525 4666 
L 3525 4397 
L 1831 0 
L 1172 0 
L 2766 4134 
L 525 4134 
L 525 4666 
z
" transform="scale(0.015625)"/>
       </defs>
       <use xlink:href="#DejaVuSans-32"/>
       <use xlink:href="#DejaVuSans-30" x="63.623047"/>
       <use xlink:href="#DejaVuSans-32" x="127.246094"/>
       <use xlink:href="#DejaVuSans-31" x="190.869141"/>
       <use xlink:href="#DejaVuSans-2d" x="254.492188"/>
       <use xlink:href="#DejaVuSans-31" x="290.576172"/>
       <use xlink:href="#DejaVuSans-32" x="354.199219"/>
       <use xlink:href="#DejaVuSans-2d" x="417.822266"/>
       <use xlink:href="#DejaVuSans-32" x="453.90625"/>
       <use xlink:href="#DejaVuSans-37" x="517.529297"/>
      </g>
     </g>
    </g>
    <g id="xtick_3">
     <g id="line2d_3">
      <g>
       <use xlink:href="#m50a938f2d0" x="229.709209" y="674.44" style="stroke: #000000; stroke-width: 0.8"/>
      </g>
     </g>
     <g id="text_3">
      <!-- 2022-03-28 -->
      <g transform="translate(200.651396 689.038437) scale(0.1 -0.1)">
       <defs>
        <path id="DejaVuSans-33" d="M 2597 2516 
Q 3050 2419 3304 2112 
Q 3559 1806 3559 1356 
Q 3559 666 3084 287 
Q 2609 -91 1734 -91 
Q 1441 -91 1130 -33 
Q 819 25 488 141 
L 488 750 
Q 750 597 1062 519 
Q 1375 441 1716 441 
Q 2309 441 2620 675 
Q 2931 909 2931 1356 
Q 2931 1769 2642 2001 
Q 2353 2234 1838 2234 
L 1294 2234 
L 1294 2753 
L 1863 2753 
Q 2328 2753 2575 2939 
Q 2822 3125 2822 3475 
Q 2822 3834 2567 4026 
Q 2313 4219 1838 4219 
Q 1578 4219 1281 4162 
Q 984 4106 628 3988 
L 628 4550 
Q 988 4650 1302 4700 
Q 1616 4750 1894 4750 
Q 2613 4750 3031 4423 
Q 3450 4097 3450 3541 
Q 3450 3153 3228 2886 
Q 3006 2619 2597 2516 
z
" transform="scale(0.015625)"/>
        <path id="DejaVuSans-38" d="M 2034 2216 
Q 1584 2216 1326 1975 
Q 1069 1734 1069 1313 
Q 1069 891 1326 650 
Q 1584 409 2034 409 
Q 2484 409 2743 651 
Q 3003 894 3003 1313 
Q 3003 1734 2745 1975 
Q 2488 2216 2034 2216 
z
M 1403 2484 
Q 997 2584 770 2862 
Q 544 3141 544 3541 
Q 544 4100 942 4425 
Q 1341 4750 2034 4750 
Q 2731 4750 3128 4425 
Q 3525 4100 3525 3541 
Q 3525 3141 3298 2862 
Q 3072 2584 2669 2484 
Q 3125 2378 3379 2068 
Q 3634 1759 3634 1313 
Q 3634 634 3220 271 
Q 2806 -91 2034 -91 
Q 1263 -91 848 271 
Q 434 634 434 1313 
Q 434 1759 690 2068 
Q 947 2378 1403 2484 
z
M 1172 3481 
Q 1172 3119 1398 2916 
Q 1625 2713 2034 2713 
Q 2441 2713 2670 2916 
Q 2900 3119 2900 3481 
Q 2900 3844 2670 4047 
Q 2441 4250 2034 4250 
Q 1625 4250 1398 4047 
Q 1172 3844 1172 3481 
z
" transform="scale(0.015625)"/>
       </defs>
       <use xlink:href="#DejaVuSans-32"/>
       <use xlink:href="#DejaVuSans-30" x="63.623047"/>
       <use xlink:href="#DejaVuSans-32" x="127.246094"/>
       <use xlink:href="#DejaVuSans-32" x="190.869141"/>
       <use xlink:href="#DejaVuSans-2d" x="254.492188"/>
       <use xlink:href="#DejaVuSans-30" x="290.576172"/>
       <use xlink:href="#DejaVuSans-33" x="354.199219"/>
       <use xlink:href="#DejaVuSans-2d" x="417.822266"/>
       <use xlink:href="#DejaVuSans-32" x="453.90625"/>
       <use xlink:href="#DejaVuSans-38" x="517.529297"/>
      </g>
     </g>
    </g>
    <g id="xtick_4">
     <g id="line2d_4">
      <g>
       <use xlink:href="#m50a938f2d0" x="303.97158" y="674.44" style="stroke: #000000; stroke-width: 0.8"/>
      </g>
     </g>
     <g id="text_4">
      <!-- 2022-06-28 -->
      <g transform="translate(274.913767 689.038437) scale(0.1 -0.1)">
       <use xlink:href="#DejaVuSans-32"/>
       <use xlink:href="#DejaVuSans-30" x="63.623047"/>
       <use xlink:href="#DejaVuSans-32" x="127.246094"/>
       <use xlink:href="#DejaVuSans-32" x="190.869141"/>
       <use xlink:href="#DejaVuSans-2d" x="254.492188"/>
       <use xlink:href="#DejaVuSans-30" x="290.576172"/>
       <use xlink:href="#DejaVuSans-36" x="354.199219"/>
       <use xlink:href="#DejaVuSans-2d" x="417.822266"/>
       <use xlink:href="#DejaVuSans-32" x="453.90625"/>
       <use xlink:href="#DejaVuSans-38" x="517.529297"/>
      </g>
     </g>
    </g>
    <g id="xtick_5">
     <g id="line2d_5">
      <g>
       <use xlink:href="#m50a938f2d0" x="378.233951" y="674.44" style="stroke: #000000; stroke-width: 0.8"/>
      </g>
     </g>
     <g id="text_5">
      <!-- 2022-10-04 -->
      <g transform="translate(349.176138 689.038437) scale(0.1 -0.1)">
       <defs>
        <path id="DejaVuSans-34" d="M 2419 4116 
L 825 1625 
L 2419 1625 
L 2419 4116 
z
M 2253 4666 
L 3047 4666 
L 3047 1625 
L 3713 1625 
L 3713 1100 
L 3047 1100 
L 3047 0 
L 2419 0 
L 2419 1100 
L 313 1100 
L 313 1709 
L 2253 4666 
z
" transform="scale(0.015625)"/>
       </defs>
       <use xlink:href="#DejaVuSans-32"/>
       <use xlink:href="#DejaVuSans-30" x="63.623047"/>
       <use xlink:href="#DejaVuSans-32" x="127.246094"/>
       <use xlink:href="#DejaVuSans-32" x="190.869141"/>
       <use xlink:href="#DejaVuSans-2d" x="254.492188"/>
       <use xlink:href="#DejaVuSans-31" x="290.576172"/>
       <use xlink:href="#DejaVuSans-30" x="354.199219"/>
       <use xlink:href="#DejaVuSans-2d" x="417.822266"/>
       <use xlink:href="#DejaVuSans-30" x="453.90625"/>
       <use xlink:href="#DejaVuSans-34" x="517.529297"/>
      </g>
     </g>
    </g>
    <g id="xtick_6">
     <g id="line2d_6">
      <g>
       <use xlink:href="#m50a938f2d0" x="450.881922" y="674.44" style="stroke: #000000; stroke-width: 0.8"/>
      </g>
     </g>
     <g id="text_6">
      <!-- 2023-01-02 -->
      <g transform="translate(421.82411 689.038437) scale(0.1 -0.1)">
       <use xlink:href="#DejaVuSans-32"/>
       <use xlink:href="#DejaVuSans-30" x="63.623047"/>
       <use xlink:href="#DejaVuSans-32" x="127.246094"/>
       <use xlink:href="#DejaVuSans-33" x="190.869141"/>
       <use xlink:href="#DejaVuSans-2d" x="254.492188"/>
       <use xlink:href="#DejaVuSans-30" x="290.576172"/>
       <use xlink:href="#DejaVuSans-31" x="354.199219"/>
       <use xlink:href="#DejaVuSans-2d" x="417.822266"/>
       <use xlink:href="#DejaVuSans-30" x="453.90625"/>
       <use xlink:href="#DejaVuSans-32" x="517.529297"/>
      </g>
     </g>
    </g>
    <g id="xtick_7">
     <g id="line2d_7">
      <g>
       <use xlink:href="#m50a938f2d0" x="524.337093" y="674.44" style="stroke: #000000; stroke-width: 0.8"/>
      </g>
     </g>
     <g id="text_7">
      <!-- 2023-04-03 -->
      <g transform="translate(495.279281 689.038437) scale(0.1 -0.1)">
       <use xlink:href="#DejaVuSans-32"/>
       <use xlink:href="#DejaVuSans-30" x="63.623047"/>
       <use xlink:href="#DejaVuSans-32" x="127.246094"/>
       <use xlink:href="#DejaVuSans-33" x="190.869141"/>
       <use xlink:href="#DejaVuSans-2d" x="254.492188"/>
       <use xlink:href="#DejaVuSans-30" x="290.576172"/>
       <use xlink:href="#DejaVuSans-34" x="354.199219"/>
       <use xlink:href="#DejaVuSans-2d" x="417.822266"/>
       <use xlink:href="#DejaVuSans-30" x="453.90625"/>
       <use xlink:href="#DejaVuSans-33" x="517.529297"/>
      </g>
     </g>
    </g>
    <g id="xtick_8">
     <g id="line2d_8">
      <g>
       <use xlink:href="#m50a938f2d0" x="598.599464" y="674.44" style="stroke: #000000; stroke-width: 0.8"/>
      </g>
     </g>
     <g id="text_8">
      <!-- 2023-07-04 -->
      <g transform="translate(569.541652 689.038437) scale(0.1 -0.1)">
       <use xlink:href="#DejaVuSans-32"/>
       <use xlink:href="#DejaVuSans-30" x="63.623047"/>
       <use xlink:href="#DejaVuSans-32" x="127.246094"/>
       <use xlink:href="#DejaVuSans-33" x="190.869141"/>
       <use xlink:href="#DejaVuSans-2d" x="254.492188"/>
       <use xlink:href="#DejaVuSans-30" x="290.576172"/>
       <use xlink:href="#DejaVuSans-37" x="354.199219"/>
       <use xlink:href="#DejaVuSans-2d" x="417.822266"/>
       <use xlink:href="#DejaVuSans-30" x="453.90625"/>
       <use xlink:href="#DejaVuSans-34" x="517.529297"/>
      </g>
     </g>
    </g>
    <g id="xtick_9">
     <g id="line2d_9">
      <g>
       <use xlink:href="#m50a938f2d0" x="672.861835" y="674.44" style="stroke: #000000; stroke-width: 0.8"/>
      </g>
     </g>
     <g id="text_9">
      <!-- 2023-11-01 -->
      <g transform="translate(643.804023 689.038437) scale(0.1 -0.1)">
       <use xlink:href="#DejaVuSans-32"/>
       <use xlink:href="#DejaVuSans-30" x="63.623047"/>
       <use xlink:href="#DejaVuSans-32" x="127.246094"/>
       <use xlink:href="#DejaVuSans-33" x="190.869141"/>
       <use xlink:href="#DejaVuSans-2d" x="254.492188"/>
       <use xlink:href="#DejaVuSans-31" x="290.576172"/>
       <use xlink:href="#DejaVuSans-31" x="354.199219"/>
       <use xlink:href="#DejaVuSans-2d" x="417.822266"/>
       <use xlink:href="#DejaVuSans-30" x="453.90625"/>
       <use xlink:href="#DejaVuSans-31" x="517.529297"/>
      </g>
     </g>
    </g>
    <g id="xtick_10">
     <g id="line2d_10">
      <g>
       <use xlink:href="#m50a938f2d0" x="746.317006" y="674.44" style="stroke: #000000; stroke-width: 0.8"/>
      </g>
     </g>
     <g id="text_10">
      <!-- 2024-01-31 -->
      <g transform="translate(717.259194 689.038437) scale(0.1 -0.1)">
       <use xlink:href="#DejaVuSans-32"/>
       <use xlink:href="#DejaVuSans-30" x="63.623047"/>
       <use xlink:href="#DejaVuSans-32" x="127.246094"/>
       <use xlink:href="#DejaVuSans-34" x="190.869141"/>
       <use xlink:href="#DejaVuSans-2d" x="254.492188"/>
       <use xlink:href="#DejaVuSans-30" x="290.576172"/>
       <use xlink:href="#DejaVuSans-31" x="354.199219"/>
       <use xlink:href="#DejaVuSans-2d" x="417.822266"/>
       <use xlink:href="#DejaVuSans-33" x="453.90625"/>
       <use xlink:href="#DejaVuSans-31" x="517.529297"/>
      </g>
     </g>
    </g>
    <g id="xtick_11">
     <g id="line2d_11">
      <g>
       <use xlink:href="#m50a938f2d0" x="819.772178" y="674.44" style="stroke: #000000; stroke-width: 0.8"/>
      </g>
     </g>
    </g>
    <g id="text_11">
     <!-- Date -->
     <g transform="translate(421.235634 705.755937) scale(0.14 -0.14)">
      <defs>
       <path id="DejaVuSans-44" d="M 1259 4147 
L 1259 519 
L 2022 519 
Q 2988 519 3436 956 
Q 3884 1394 3884 2338 
Q 3884 3275 3436 3711 
Q 2988 4147 2022 4147 
L 1259 4147 
z
M 628 4666 
L 1925 4666 
Q 3281 4666 3915 4102 
Q 4550 3538 4550 2338 
Q 4550 1131 3912 565 
Q 3275 0 1925 0 
L 628 0 
L 628 4666 
z
" transform="scale(0.015625)"/>
       <path id="DejaVuSans-61" d="M 2194 1759 
Q 1497 1759 1228 1600 
Q 959 1441 959 1056 
Q 959 750 1161 570 
Q 1363 391 1709 391 
Q 2188 391 2477 730 
Q 2766 1069 2766 1631 
L 2766 1759 
L 2194 1759 
z
M 3341 1997 
L 3341 0 
L 2766 0 
L 2766 531 
Q 2569 213 2275 61 
Q 1981 -91 1556 -91 
Q 1019 -91 701 211 
Q 384 513 384 1019 
Q 384 1609 779 1909 
Q 1175 2209 1959 2209 
L 2766 2209 
L 2766 2266 
Q 2766 2663 2505 2880 
Q 2244 3097 1772 3097 
Q 1472 3097 1187 3025 
Q 903 2953 641 2809 
L 641 3341 
Q 956 3463 1253 3523 
Q 1550 3584 1831 3584 
Q 2591 3584 2966 3190 
Q 3341 2797 3341 1997 
z
" transform="scale(0.015625)"/>
       <path id="DejaVuSans-74" d="M 1172 4494 
L 1172 3500 
L 2356 3500 
L 2356 3053 
L 1172 3053 
L 1172 1153 
Q 1172 725 1289 603 
Q 1406 481 1766 481 
L 2356 481 
L 2356 0 
L 1766 0 
Q 1100 0 847 248 
Q 594 497 594 1153 
L 594 3053 
L 172 3053 
L 172 3500 
L 594 3500 
L 594 4494 
L 1172 4494 
z
" transform="scale(0.015625)"/>
       <path id="DejaVuSans-65" d="M 3597 1894 
L 3597 1613 
L 953 1613 
Q 991 1019 1311 708 
Q 1631 397 2203 397 
Q 2534 397 2845 478 
Q 3156 559 3463 722 
L 3463 178 
Q 3153 47 2828 -22 
Q 2503 -91 2169 -91 
Q 1331 -91 842 396 
Q 353 884 353 1716 
Q 353 2575 817 3079 
Q 1281 3584 2069 3584 
Q 2775 3584 3186 3129 
Q 3597 2675 3597 1894 
z
M 3022 2063 
Q 3016 2534 2758 2815 
Q 2500 3097 2075 3097 
Q 1594 3097 1305 2825 
Q 1016 2553 972 2059 
L 3022 2063 
z
" transform="scale(0.015625)"/>
      </defs>
      <use xlink:href="#DejaVuSans-44"/>
      <use xlink:href="#DejaVuSans-61" x="77.001953"/>
      <use xlink:href="#DejaVuSans-74" x="138.28125"/>
      <use xlink:href="#DejaVuSans-65" x="177.490234"/>
     </g>
    </g>
   </g>
   <g id="matplotlib.axis_2">
    <g id="ytick_1">
     <g id="line2d_12">
      <defs>
       <path id="mb068db4811" d="M 0 0 
L -3.5 0 
" style="stroke: #000000; stroke-width: 0.8"/>
      </defs>
      <g>
       <use xlink:href="#mb068db4811" x="48.17" y="644.274545" style="stroke: #000000; stroke-width: 0.8"/>
      </g>
     </g>
     <g id="text_12">
      <!-- 0 -->
      <g transform="translate(34.8075 648.073764) scale(0.1 -0.1)">
       <use xlink:href="#DejaVuSans-30"/>
      </g>
     </g>
    </g>
    <g id="ytick_2">
     <g id="line2d_13">
      <g>
       <use xlink:href="#mb068db4811" x="48.17" y="568.860909" style="stroke: #000000; stroke-width: 0.8"/>
      </g>
     </g>
     <g id="text_13">
      <!-- 10 -->
      <g transform="translate(28.445 572.660128) scale(0.1 -0.1)">
       <use xlink:href="#DejaVuSans-31"/>
       <use xlink:href="#DejaVuSans-30" x="63.623047"/>
      </g>
     </g>
    </g>
    <g id="ytick_3">
     <g id="line2d_14">
      <g>
       <use xlink:href="#mb068db4811" x="48.17" y="493.447273" style="stroke: #000000; stroke-width: 0.8"/>
      </g>
     </g>
     <g id="text_14">
      <!-- 20 -->
      <g transform="translate(28.445 497.246491) scale(0.1 -0.1)">
       <use xlink:href="#DejaVuSans-32"/>
       <use xlink:href="#DejaVuSans-30" x="63.623047"/>
      </g>
     </g>
    </g>
    <g id="ytick_4">
     <g id="line2d_15">
      <g>
       <use xlink:href="#mb068db4811" x="48.17" y="418.033636" style="stroke: #000000; stroke-width: 0.8"/>
      </g>
     </g>
     <g id="text_15">
      <!-- 30 -->
      <g transform="translate(28.445 421.832855) scale(0.1 -0.1)">
       <use xlink:href="#DejaVuSans-33"/>
       <use xlink:href="#DejaVuSans-30" x="63.623047"/>
      </g>
     </g>
    </g>
    <g id="ytick_5">
     <g id="line2d_16">
      <g>
       <use xlink:href="#mb068db4811" x="48.17" y="342.62" style="stroke: #000000; stroke-width: 0.8"/>
      </g>
     </g>
     <g id="text_16">
      <!-- 40 -->
      <g transform="translate(28.445 346.419219) scale(0.1 -0.1)">
       <use xlink:href="#DejaVuSans-34"/>
       <use xlink:href="#DejaVuSans-30" x="63.623047"/>
      </g>
     </g>
    </g>
    <g id="ytick_6">
     <g id="line2d_17">
      <g>
       <use xlink:href="#mb068db4811" x="48.17" y="267.206364" style="stroke: #000000; stroke-width: 0.8"/>
      </g>
     </g>
     <g id="text_17">
      <!-- 50 -->
      <g transform="translate(28.445 271.005582) scale(0.1 -0.1)">
       <defs>
        <path id="DejaVuSans-35" d="M 691 4666 
L 3169 4666 
L 3169 4134 
L 1269 4134 
L 1269 2991 
Q 1406 3038 1543 3061 
Q 1681 3084 1819 3084 
Q 2600 3084 3056 2656 
Q 3513 2228 3513 1497 
Q 3513 744 3044 326 
Q 2575 -91 1722 -91 
Q 1428 -91 1123 -41 
Q 819 9 494 109 
L 494 744 
Q 775 591 1075 516 
Q 1375 441 1709 441 
Q 2250 441 2565 725 
Q 2881 1009 2881 1497 
Q 2881 1984 2565 2268 
Q 2250 2553 1709 2553 
Q 1456 2553 1204 2497 
Q 953 2441 691 2322 
L 691 4666 
z
" transform="scale(0.015625)"/>
       </defs>
       <use xlink:href="#DejaVuSans-35"/>
       <use xlink:href="#DejaVuSans-30" x="63.623047"/>
      </g>
     </g>
    </g>
    <g id="ytick_7">
     <g id="line2d_18">
      <g>
       <use xlink:href="#mb068db4811" x="48.17" y="191.792727" style="stroke: #000000; stroke-width: 0.8"/>
      </g>
     </g>
     <g id="text_18">
      <!-- 60 -->
      <g transform="translate(28.445 195.591946) scale(0.1 -0.1)">
       <use xlink:href="#DejaVuSans-36"/>
       <use xlink:href="#DejaVuSans-30" x="63.623047"/>
      </g>
     </g>
    </g>
    <g id="ytick_8">
     <g id="line2d_19">
      <g>
       <use xlink:href="#mb068db4811" x="48.17" y="116.379091" style="stroke: #000000; stroke-width: 0.8"/>
      </g>
     </g>
     <g id="text_19">
      <!-- 70 -->
      <g transform="translate(28.445 120.17831) scale(0.1 -0.1)">
       <use xlink:href="#DejaVuSans-37"/>
       <use xlink:href="#DejaVuSans-30" x="63.623047"/>
      </g>
     </g>
    </g>
    <g id="ytick_9">
     <g id="line2d_20">
      <g>
       <use xlink:href="#mb068db4811" x="48.17" y="40.965455" style="stroke: #000000; stroke-width: 0.8"/>
      </g>
     </g>
     <g id="text_20">
      <!-- 80 -->
      <g transform="translate(28.445 44.764673) scale(0.1 -0.1)">
       <use xlink:href="#DejaVuSans-38"/>
       <use xlink:href="#DejaVuSans-30" x="63.623047"/>
      </g>
     </g>
    </g>
    <g id="text_21">
     <!-- Number of forks -->
     <g transform="translate(21.533438 399.262031) rotate(-90) scale(0.14 -0.14)">
      <defs>
       <path id="DejaVuSans-4e" d="M 628 4666 
L 1478 4666 
L 3547 763 
L 3547 4666 
L 4159 4666 
L 4159 0 
L 3309 0 
L 1241 3903 
L 1241 0 
L 628 0 
L 628 4666 
z
" transform="scale(0.015625)"/>
       <path id="DejaVuSans-75" d="M 544 1381 
L 544 3500 
L 1119 3500 
L 1119 1403 
Q 1119 906 1312 657 
Q 1506 409 1894 409 
Q 2359 409 2629 706 
Q 2900 1003 2900 1516 
L 2900 3500 
L 3475 3500 
L 3475 0 
L 2900 0 
L 2900 538 
Q 2691 219 2414 64 
Q 2138 -91 1772 -91 
Q 1169 -91 856 284 
Q 544 659 544 1381 
z
M 1991 3584 
L 1991 3584 
z
" transform="scale(0.015625)"/>
       <path id="DejaVuSans-6d" d="M 3328 2828 
Q 3544 3216 3844 3400 
Q 4144 3584 4550 3584 
Q 5097 3584 5394 3201 
Q 5691 2819 5691 2113 
L 5691 0 
L 5113 0 
L 5113 2094 
Q 5113 2597 4934 2840 
Q 4756 3084 4391 3084 
Q 3944 3084 3684 2787 
Q 3425 2491 3425 1978 
L 3425 0 
L 2847 0 
L 2847 2094 
Q 2847 2600 2669 2842 
Q 2491 3084 2119 3084 
Q 1678 3084 1418 2786 
Q 1159 2488 1159 1978 
L 1159 0 
L 581 0 
L 581 3500 
L 1159 3500 
L 1159 2956 
Q 1356 3278 1631 3431 
Q 1906 3584 2284 3584 
Q 2666 3584 2933 3390 
Q 3200 3197 3328 2828 
z
" transform="scale(0.015625)"/>
       <path id="DejaVuSans-62" d="M 3116 1747 
Q 3116 2381 2855 2742 
Q 2594 3103 2138 3103 
Q 1681 3103 1420 2742 
Q 1159 2381 1159 1747 
Q 1159 1113 1420 752 
Q 1681 391 2138 391 
Q 2594 391 2855 752 
Q 3116 1113 3116 1747 
z
M 1159 2969 
Q 1341 3281 1617 3432 
Q 1894 3584 2278 3584 
Q 2916 3584 3314 3078 
Q 3713 2572 3713 1747 
Q 3713 922 3314 415 
Q 2916 -91 2278 -91 
Q 1894 -91 1617 61 
Q 1341 213 1159 525 
L 1159 0 
L 581 0 
L 581 4863 
L 1159 4863 
L 1159 2969 
z
" transform="scale(0.015625)"/>
       <path id="DejaVuSans-72" d="M 2631 2963 
Q 2534 3019 2420 3045 
Q 2306 3072 2169 3072 
Q 1681 3072 1420 2755 
Q 1159 2438 1159 1844 
L 1159 0 
L 581 0 
L 581 3500 
L 1159 3500 
L 1159 2956 
Q 1341 3275 1631 3429 
Q 1922 3584 2338 3584 
Q 2397 3584 2469 3576 
Q 2541 3569 2628 3553 
L 2631 2963 
z
" transform="scale(0.015625)"/>
       <path id="DejaVuSans-20" transform="scale(0.015625)"/>
       <path id="DejaVuSans-6f" d="M 1959 3097 
Q 1497 3097 1228 2736 
Q 959 2375 959 1747 
Q 959 1119 1226 758 
Q 1494 397 1959 397 
Q 2419 397 2687 759 
Q 2956 1122 2956 1747 
Q 2956 2369 2687 2733 
Q 2419 3097 1959 3097 
z
M 1959 3584 
Q 2709 3584 3137 3096 
Q 3566 2609 3566 1747 
Q 3566 888 3137 398 
Q 2709 -91 1959 -91 
Q 1206 -91 779 398 
Q 353 888 353 1747 
Q 353 2609 779 3096 
Q 1206 3584 1959 3584 
z
" transform="scale(0.015625)"/>
       <path id="DejaVuSans-66" d="M 2375 4863 
L 2375 4384 
L 1825 4384 
Q 1516 4384 1395 4259 
Q 1275 4134 1275 3809 
L 1275 3500 
L 2222 3500 
L 2222 3053 
L 1275 3053 
L 1275 0 
L 697 0 
L 697 3053 
L 147 3053 
L 147 3500 
L 697 3500 
L 697 3744 
Q 697 4328 969 4595 
Q 1241 4863 1831 4863 
L 2375 4863 
z
" transform="scale(0.015625)"/>
       <path id="DejaVuSans-6b" d="M 581 4863 
L 1159 4863 
L 1159 1991 
L 2875 3500 
L 3609 3500 
L 1753 1863 
L 3688 0 
L 2938 0 
L 1159 1709 
L 1159 0 
L 581 0 
L 581 4863 
z
" transform="scale(0.015625)"/>
       <path id="DejaVuSans-73" d="M 2834 3397 
L 2834 2853 
Q 2591 2978 2328 3040 
Q 2066 3103 1784 3103 
Q 1356 3103 1142 2972 
Q 928 2841 928 2578 
Q 928 2378 1081 2264 
Q 1234 2150 1697 2047 
L 1894 2003 
Q 2506 1872 2764 1633 
Q 3022 1394 3022 966 
Q 3022 478 2636 193 
Q 2250 -91 1575 -91 
Q 1294 -91 989 -36 
Q 684 19 347 128 
L 347 722 
Q 666 556 975 473 
Q 1284 391 1588 391 
Q 1994 391 2212 530 
Q 2431 669 2431 922 
Q 2431 1156 2273 1281 
Q 2116 1406 1581 1522 
L 1381 1569 
Q 847 1681 609 1914 
Q 372 2147 372 2553 
Q 372 3047 722 3315 
Q 1072 3584 1716 3584 
Q 2034 3584 2315 3537 
Q 2597 3491 2834 3397 
z
" transform="scale(0.015625)"/>
      </defs>
      <use xlink:href="#DejaVuSans-4e"/>
      <use xlink:href="#DejaVuSans-75" x="74.804688"/>
      <use xlink:href="#DejaVuSans-6d" x="138.183594"/>
      <use xlink:href="#DejaVuSans-62" x="235.595703"/>
      <use xlink:href="#DejaVuSans-65" x="299.072266"/>
      <use xlink:href="#DejaVuSans-72" x="360.595703"/>
      <use xlink:href="#DejaVuSans-20" x="401.708984"/>
      <use xlink:href="#DejaVuSans-6f" x="433.496094"/>
      <use xlink:href="#DejaVuSans-66" x="494.677734"/>
      <use xlink:href="#DejaVuSans-20" x="529.882812"/>
      <use xlink:href="#DejaVuSans-66" x="561.669922"/>
      <use xlink:href="#DejaVuSans-6f" x="596.875"/>
      <use xlink:href="#DejaVuSans-72" x="658.056641"/>
      <use xlink:href="#DejaVuSans-6b" x="699.169922"/>
      <use xlink:href="#DejaVuSans-73" x="757.080078"/>
     </g>
    </g>
   </g>
   <g id="line2d_21">
    <path d="M 83.606066 357.702727 
L 85.220465 357.702727 
L 86.027665 350.161364 
L 90.063664 350.161364 
L 90.870863 342.62 
L 122.351651 342.62 
L 123.158851 335.078636 
L 147.374841 335.078636 
L 148.182041 312.454545 
L 148.98924 304.913182 
L 169.976432 304.913182 
L 170.783632 297.371818 
L 194.999622 297.371818 
L 195.806822 289.830455 
L 196.614022 289.830455 
L 197.421222 282.289091 
L 214.372415 282.289091 
L 215.179615 274.747727 
L 241.817204 274.747727 
L 242.624404 267.206364 
L 243.431603 267.206364 
L 244.238803 259.665 
L 265.225995 259.665 
L 266.033195 252.123636 
L 278.14119 252.123636 
L 278.94839 244.582273 
L 281.369989 244.582273 
L 282.177188 237.040909 
L 298.321182 237.040909 
L 299.935581 221.958182 
L 300.742781 229.499545 
L 314.465176 229.499545 
L 315.272375 221.958182 
L 320.115573 221.958182 
L 320.922773 214.416818 
L 324.958772 214.416818 
L 325.765971 206.875455 
L 331.416369 206.875455 
L 332.223569 199.334091 
L 339.488366 199.334091 
L 340.295566 191.792727 
L 359.668358 191.792727 
L 360.475558 184.251364 
L 413.750737 184.251364 
L 414.557936 176.71 
L 420.208334 176.71 
L 421.015534 169.168636 
L 436.352328 169.168636 
L 437.159528 161.627273 
L 446.845924 161.627273 
L 447.653123 154.085909 
L 454.917921 154.085909 
L 455.72512 146.544545 
L 459.761119 146.544545 
L 460.568318 139.003182 
L 475.905112 139.003182 
L 476.712312 131.461818 
L 525.144293 131.461818 
L 525.951493 123.920455 
L 531.601891 123.920455 
L 532.40909 116.379091 
L 536.445089 116.379091 
L 537.252288 108.837727 
L 544.517086 108.837727 
L 545.324285 101.296364 
L 555.010681 101.296364 
L 555.817881 93.755 
L 575.190674 93.755 
L 575.997873 101.296364 
L 592.949067 101.296364 
L 593.756266 93.755 
L 654.296243 93.755 
L 655.103442 86.213636 
L 676.090634 86.213636 
L 676.897834 78.672273 
L 694.656227 78.672273 
L 695.463426 71.130909 
L 707.571422 71.130909 
L 708.378621 63.589545 
L 736.63061 63.589545 
L 737.43781 56.048182 
L 750.353005 56.048182 
L 751.160205 63.589545 
L 751.967404 63.589545 
L 752.774604 56.048182 
L 756.810602 56.048182 
L 757.617802 48.506818 
L 779.412193 48.506818 
L 780.219393 40.965455 
L 792.327388 40.965455 
L 792.327388 40.965455 
" clip-path="url(#pb342c533f3)" style="fill: none; stroke: #1f77b4; stroke-width: 3; stroke-linecap: square"/>
   </g>
   <g id="line2d_22">
    <path d="M 83.606066 191.792727 
L 90.063664 191.792727 
L 90.870863 184.251364 
L 94.099662 184.251364 
L 94.906862 169.168636 
L 101.364459 169.168636 
L 102.171659 176.71 
L 107.014857 176.71 
L 107.822057 169.168636 
L 109.436456 169.168636 
L 110.243656 176.71 
L 112.665255 176.71 
L 113.472454 184.251364 
L 115.086854 184.251364 
L 115.894053 176.71 
L 147.374841 176.71 
L 148.182041 169.168636 
L 190.156424 169.168636 
L 190.963624 161.627273 
L 237.781206 161.627273 
L 238.588405 169.168636 
L 274.912391 169.168636 
L 275.719591 161.627273 
L 291.863585 161.627273 
L 292.670784 154.085909 
L 328.18757 154.085909 
L 329.80197 139.003182 
L 395.992344 139.003182 
L 396.799543 131.461818 
L 416.172336 131.461818 
L 416.979535 123.920455 
L 479.941111 123.920455 
L 480.748311 116.379091 
L 496.892304 116.379091 
L 497.699504 108.837727 
L 522.722694 108.837727 
L 523.529894 101.296364 
L 524.337093 108.837727 
L 575.190674 108.837727 
L 575.997873 116.379091 
L 576.805073 108.837727 
L 580.841071 108.837727 
L 581.648271 101.296364 
L 583.26267 101.296364 
L 584.06987 108.837727 
L 615.550658 108.837727 
L 616.357857 101.296364 
L 619.586656 101.296364 
L 620.393856 93.755 
L 630.887452 93.755 
L 631.694651 86.213636 
L 654.296243 86.213636 
L 655.103442 78.672273 
L 695.463426 78.672273 
L 696.270626 71.130909 
L 701.921024 71.130909 
L 702.728224 63.589545 
L 728.558613 63.589545 
L 729.365813 56.048182 
L 792.327388 56.048182 
L 792.327388 56.048182 
" clip-path="url(#pb342c533f3)" style="fill: none; stroke: #ff7f0e; stroke-width: 3; stroke-linecap: square"/>
   </g>
   <g id="line2d_23">
    <path d="M 83.606066 116.379091 
L 115.894053 116.379091 
L 116.701253 108.837727 
L 119.122852 108.837727 
L 119.930052 116.379091 
L 174.012431 116.379091 
L 174.81963 123.920455 
L 197.421222 123.920455 
L 198.228421 116.379091 
L 252.3108 116.379091 
L 253.118 123.920455 
L 324.151572 123.920455 
L 324.958772 116.379091 
L 357.246759 116.379091 
L 358.053959 123.920455 
L 367.740355 123.920455 
L 368.547554 131.461818 
L 442.809925 131.461818 
L 443.617125 139.003182 
L 483.977109 139.003182 
L 484.784309 146.544545 
L 489.627507 146.544545 
L 490.434707 139.003182 
L 792.327388 139.003182 
L 792.327388 139.003182 
" clip-path="url(#pb342c533f3)" style="fill: none; stroke: #2ca02c; stroke-width: 3; stroke-linecap: square"/>
   </g>
   <g id="line2d_24">
    <path d="M 83.606066 387.868182 
L 85.220465 387.868182 
L 86.027665 380.326818 
L 89.256464 380.326818 
L 90.063664 387.868182 
L 106.207657 387.868182 
L 107.014857 380.326818 
L 111.050855 380.326818 
L 111.858055 372.785455 
L 116.701253 372.785455 
L 117.508453 365.244091 
L 123.96605 365.244091 
L 124.77325 357.702727 
L 128.809248 357.702727 
L 129.616448 350.161364 
L 145.760442 350.161364 
L 146.567641 342.62 
L 201.45722 342.62 
L 202.26442 335.078636 
L 221.637212 335.078636 
L 222.444412 327.537273 
L 236.166806 327.537273 
L 236.974006 319.995909 
L 269.261993 319.995909 
L 270.069193 312.454545 
L 287.020386 312.454545 
L 287.827586 304.913182 
L 303.16438 304.913182 
L 303.97158 297.371818 
L 316.079575 297.371818 
L 316.886775 289.830455 
L 317.693974 289.830455 
L 318.501174 282.289091 
L 320.115573 282.289091 
L 320.922773 274.747727 
L 333.030768 274.747727 
L 333.837968 267.206364 
L 338.681166 267.206364 
L 339.488366 259.665 
L 343.524364 259.665 
L 345.138764 244.582273 
L 350.789161 244.582273 
L 351.596361 237.040909 
L 360.475558 237.040909 
L 361.282757 229.499545 
L 393.570745 229.499545 
L 394.377944 221.958182 
L 400.835542 221.958182 
L 401.642742 214.416818 
L 407.293139 214.416818 
L 408.100339 221.958182 
L 486.398708 221.958182 
L 487.205908 229.499545 
L 488.013108 229.499545 
L 488.820307 221.958182 
L 531.601891 221.958182 
L 532.40909 214.416818 
L 562.275479 214.416818 
L 563.082678 206.875455 
L 576.805073 206.875455 
L 577.612273 199.334091 
L 588.913068 199.334091 
L 589.720268 191.792727 
L 629.273052 191.792727 
L 630.080252 176.71 
L 661.56104 176.71 
L 662.368239 169.168636 
L 690.620228 169.168636 
L 691.427428 161.627273 
L 695.463426 161.627273 
L 696.270626 169.168636 
L 701.921024 169.168636 
L 702.728224 176.71 
L 728.558613 176.71 
L 729.365813 169.168636 
L 750.353005 169.168636 
L 751.160205 176.71 
L 751.967404 176.71 
L 752.774604 169.168636 
L 759.232201 169.168636 
L 760.039401 161.627273 
L 776.990594 161.627273 
L 777.797794 154.085909 
L 781.833793 154.085909 
L 782.640992 146.544545 
L 787.48419 146.544545 
L 788.29139 139.003182 
L 790.712989 139.003182 
L 791.520189 131.461818 
L 792.327388 131.461818 
L 792.327388 131.461818 
" clip-path="url(#pb342c533f3)" style="fill: none; stroke: #d62728; stroke-width: 3; stroke-linecap: square"/>
   </g>
   <g id="line2d_25">
    <path d="M 83.606066 440.657727 
L 100.557259 440.657727 
L 101.364459 433.116364 
L 103.786058 433.116364 
L 104.593258 440.657727 
L 106.207657 440.657727 
L 107.014857 433.116364 
L 147.374841 433.116364 
L 148.182041 418.033636 
L 169.169233 418.033636 
L 169.976432 410.492273 
L 174.81963 410.492273 
L 175.62683 402.950909 
L 196.614022 402.950909 
L 197.421222 395.409545 
L 198.228421 395.409545 
L 199.035621 387.868182 
L 223.251611 387.868182 
L 224.058811 380.326818 
L 231.323608 380.326818 
L 232.130808 372.785455 
L 266.033195 372.785455 
L 266.840394 365.244091 
L 275.719591 365.244091 
L 276.526791 357.702727 
L 282.177188 357.702727 
L 282.984388 350.161364 
L 317.693974 350.161364 
L 318.501174 357.702727 
L 341.909965 357.702727 
L 342.717165 350.161364 
L 347.560363 350.161364 
L 348.367562 342.62 
L 349.981962 342.62 
L 350.789161 335.078636 
L 373.390753 335.078636 
L 374.197952 327.537273 
L 375.005152 327.537273 
L 375.812352 319.995909 
L 385.498748 319.995909 
L 386.305948 327.537273 
L 406.48594 327.537273 
L 407.293139 319.995909 
L 429.89473 319.995909 
L 430.70193 312.454545 
L 487.205908 312.454545 
L 488.013108 304.913182 
L 497.699504 304.913182 
L 498.506704 297.371818 
L 508.1931 297.371818 
L 509.000299 289.830455 
L 510.614699 289.830455 
L 511.421898 282.289091 
L 513.036298 282.289091 
L 513.843498 274.747727 
L 524.337093 274.747727 
L 525.144293 267.206364 
L 538.059488 267.206364 
L 538.866688 259.665 
L 542.095486 259.665 
L 542.902686 252.123636 
L 561.468279 252.123636 
L 562.275479 244.582273 
L 564.697078 244.582273 
L 565.504277 237.040909 
L 605.057062 237.040909 
L 605.864261 229.499545 
L 637.345049 229.499545 
L 638.152249 221.958182 
L 654.296243 221.958182 
L 655.103442 214.416818 
L 752.774604 214.416818 
L 753.581804 206.875455 
L 761.6538 206.875455 
L 762.461 191.792727 
L 767.304198 191.792727 
L 768.111398 199.334091 
L 792.327388 199.334091 
L 792.327388 199.334091 
" clip-path="url(#pb342c533f3)" style="fill: none; stroke: #9467bd; stroke-width: 3; stroke-linecap: square"/>
   </g>
   <g id="line2d_26">
    <path d="M 83.606066 372.785455 
L 122.351651 372.785455 
L 123.158851 365.244091 
L 171.590832 365.244091 
L 172.398031 372.785455 
L 187.734825 372.785455 
L 188.542025 365.244091 
L 300.742781 365.244091 
L 301.549981 357.702727 
L 309.621978 357.702727 
L 310.429177 350.161364 
L 320.922773 350.161364 
L 321.729973 342.62 
L 354.82516 342.62 
L 355.63236 335.078636 
L 362.089957 335.078636 
L 362.897157 342.62 
L 434.737929 342.62 
L 435.545128 335.078636 
L 437.159528 335.078636 
L 437.966727 327.537273 
L 498.506704 327.537273 
L 500.121103 312.454545 
L 547.745884 312.454545 
L 548.553084 319.995909 
L 654.296243 319.995909 
L 655.103442 304.913182 
L 693.849027 304.913182 
L 694.656227 297.371818 
L 727.751414 297.371818 
L 728.558613 289.830455 
L 757.617802 289.830455 
L 758.425002 282.289091 
L 768.918598 282.289091 
L 769.725797 274.747727 
L 770.532997 274.747727 
L 771.340197 282.289091 
L 792.327388 282.289091 
L 792.327388 282.289091 
" clip-path="url(#pb342c533f3)" style="fill: none; stroke: #8c564b; stroke-width: 3; stroke-linecap: square"/>
   </g>
   <g id="line2d_27">
    <path d="M 83.606066 621.650455 
L 111.858055 621.650455 
L 112.665255 614.109091 
L 155.446838 614.109091 
L 156.254038 606.567727 
L 200.65002 606.567727 
L 201.45722 599.026364 
L 281.369989 599.026364 
L 282.177188 591.485 
L 283.791588 591.485 
L 284.598787 583.943636 
L 287.827586 583.943636 
L 288.634786 576.402273 
L 308.814778 576.402273 
L 309.621978 568.860909 
L 311.236377 568.860909 
L 312.043577 561.319545 
L 340.295566 561.319545 
L 341.102765 553.778182 
L 342.717165 553.778182 
L 343.524364 546.236818 
L 409.714738 546.236818 
L 410.521938 538.695455 
L 433.930729 538.695455 
L 434.737929 531.154091 
L 559.85388 531.154091 
L 560.661079 523.612727 
L 564.697078 523.612727 
L 565.504277 508.53 
L 566.311477 508.53 
L 567.925876 493.447273 
L 596.985065 493.447273 
L 597.792265 485.905909 
L 605.864261 485.905909 
L 606.671461 478.364545 
L 610.70746 478.364545 
L 611.514659 470.823182 
L 612.321859 470.823182 
L 613.129059 463.281818 
L 626.044254 463.281818 
L 626.851453 455.740455 
L 627.658653 455.740455 
L 628.465853 448.199091 
L 637.345049 448.199091 
L 638.152249 440.657727 
L 651.067444 440.657727 
L 652.681843 425.575 
L 654.296243 425.575 
L 655.103442 410.492273 
L 672.054636 410.492273 
L 673.669035 395.409545 
L 674.476235 402.950909 
L 675.283434 395.409545 
L 677.705033 395.409545 
L 678.512233 387.868182 
L 695.463426 387.868182 
L 697.077826 372.785455 
L 701.113824 372.785455 
L 701.921024 365.244091 
L 708.378621 365.244091 
L 709.185821 357.702727 
L 712.41462 357.702727 
L 713.221819 365.244091 
L 730.980212 365.244091 
L 731.787412 357.702727 
L 736.63061 357.702727 
L 737.43781 350.161364 
L 747.124206 350.161364 
L 747.931406 342.62 
L 752.774604 342.62 
L 753.581804 335.078636 
L 755.196203 335.078636 
L 756.003403 327.537273 
L 760.039401 327.537273 
L 760.846601 319.995909 
L 768.918598 319.995909 
L 769.725797 312.454545 
L 781.026593 312.454545 
L 782.640992 297.371818 
L 792.327388 297.371818 
L 792.327388 297.371818 
" clip-path="url(#pb342c533f3)" style="fill: none; stroke: #e377c2; stroke-width: 3; stroke-linecap: square"/>
   </g>
   <g id="line2d_28">
    <path d="M 83.606066 433.116364 
L 88.449264 433.116364 
L 89.256464 425.575 
L 144.146042 425.575 
L 144.953242 418.033636 
L 147.374841 418.033636 
L 148.182041 410.492273 
L 170.783632 410.492273 
L 171.590832 402.950909 
L 300.742781 402.950909 
L 301.549981 395.409545 
L 337.066767 395.409545 
L 337.873966 387.868182 
L 349.981962 387.868182 
L 350.789161 380.326818 
L 360.475558 380.326818 
L 361.282757 372.785455 
L 398.413943 372.785455 
L 399.221142 365.244091 
L 458.146719 365.244091 
L 458.953919 357.702727 
L 495.277905 357.702727 
L 496.085105 350.161364 
L 526.758692 350.161364 
L 527.565892 342.62 
L 571.961875 342.62 
L 572.769074 350.161364 
L 575.190674 350.161364 
L 575.997873 357.702727 
L 625.237054 357.702727 
L 626.044254 350.161364 
L 632.501851 350.161364 
L 633.309051 357.702727 
L 634.11625 350.161364 
L 663.175439 350.161364 
L 663.982639 342.62 
L 674.476235 342.62 
L 675.283434 335.078636 
L 677.705033 335.078636 
L 678.512233 327.537273 
L 792.327388 327.537273 
L 792.327388 327.537273 
" clip-path="url(#pb342c533f3)" style="fill: none; stroke: #7f7f7f; stroke-width: 3; stroke-linecap: square"/>
   </g>
   <g id="line2d_29">
    <path d="M 83.606066 387.868182 
L 147.374841 387.868182 
L 148.182041 380.326818 
L 356.439559 380.326818 
L 357.246759 387.868182 
L 391.956345 387.868182 
L 392.763545 380.326818 
L 419.401135 380.326818 
L 420.208334 372.785455 
L 473.483513 372.785455 
L 474.290713 365.244091 
L 490.434707 365.244091 
L 491.241906 357.702727 
L 542.095486 357.702727 
L 542.902686 350.161364 
L 689.005829 350.161364 
L 689.813029 335.078636 
L 792.327388 335.078636 
L 792.327388 335.078636 
" clip-path="url(#pb342c533f3)" style="fill: none; stroke: #bcbd22; stroke-width: 3; stroke-linecap: square"/>
   </g>
   <g id="line2d_30">
    <path d="M 83.606066 365.244091 
L 197.421222 365.244091 
L 198.228421 357.702727 
L 516.265097 357.702727 
L 517.072296 350.161364 
L 792.327388 350.161364 
L 792.327388 350.161364 
" clip-path="url(#pb342c533f3)" style="fill: none; stroke: #17becf; stroke-width: 3; stroke-linecap: square"/>
   </g>
   <g id="line2d_31">
    <path d="M 83.606066 576.402273 
L 122.351651 576.402273 
L 123.158851 568.860909 
L 131.230847 568.860909 
L 132.038047 576.402273 
L 199.035621 576.402273 
L 199.842821 568.860909 
L 220.022813 568.860909 
L 220.830012 561.319545 
L 249.889201 561.319545 
L 250.696401 553.778182 
L 267.647594 553.778182 
L 268.454794 546.236818 
L 347.560363 546.236818 
L 348.367562 538.695455 
L 368.547554 538.695455 
L 369.354754 531.154091 
L 379.84835 531.154091 
L 380.65555 523.612727 
L 383.077149 523.612727 
L 384.691548 508.53 
L 391.956345 508.53 
L 392.763545 500.988636 
L 396.799543 500.988636 
L 397.606743 493.447273 
L 458.146719 493.447273 
L 458.953919 500.988636 
L 623.622655 500.988636 
L 624.429854 493.447273 
L 653.489043 493.447273 
L 655.103442 478.364545 
L 660.75384 478.364545 
L 661.56104 470.823182 
L 760.039401 470.823182 
L 760.846601 478.364545 
L 792.327388 478.364545 
L 792.327388 478.364545 
" clip-path="url(#pb342c533f3)" style="fill: none; stroke: #1f77b4; stroke-width: 3; stroke-linecap: square"/>
   </g>
   <g id="line2d_32">
    <path d="M 83.606066 538.695455 
L 116.701253 538.695455 
L 117.508453 531.154091 
L 123.158851 531.154091 
L 123.96605 523.612727 
L 165.133234 523.612727 
L 165.940434 531.154091 
L 229.709209 531.154091 
L 230.516409 523.612727 
L 263.611596 523.612727 
L 264.418795 516.071364 
L 383.884348 516.071364 
L 384.691548 508.53 
L 493.663505 508.53 
L 494.470705 500.988636 
L 553.396282 500.988636 
L 554.203482 493.447273 
L 609.90026 493.447273 
L 610.70746 485.905909 
L 626.851453 485.905909 
L 627.658653 478.364545 
L 738.24501 478.364545 
L 739.052209 470.823182 
L 792.327388 470.823182 
L 792.327388 470.823182 
" clip-path="url(#pb342c533f3)" style="fill: none; stroke: #ff7f0e; stroke-width: 3; stroke-linecap: square"/>
   </g>
   <g id="line2d_33">
    <path d="M 83.606066 561.319545 
L 120.737252 561.319545 
L 121.544451 553.778182 
L 129.616448 553.778182 
L 130.423648 546.236818 
L 294.285184 546.236818 
L 295.092383 538.695455 
L 391.956345 538.695455 
L 392.763545 531.154091 
L 456.53232 531.154091 
L 457.33952 523.612727 
L 474.290713 523.612727 
L 475.097913 516.071364 
L 480.748311 516.071364 
L 481.55551 508.53 
L 576.805073 508.53 
L 577.612273 493.447273 
L 598.599464 493.447273 
L 599.406664 485.905909 
L 665.597038 485.905909 
L 666.404238 478.364545 
L 689.813029 478.364545 
L 690.620228 470.823182 
L 792.327388 470.823182 
L 792.327388 470.823182 
" clip-path="url(#pb342c533f3)" style="fill: none; stroke: #2ca02c; stroke-width: 3; stroke-linecap: square"/>
   </g>
   <g id="line2d_34">
    <path d="M 83.606066 546.236818 
L 88.449264 546.236818 
L 89.256464 538.695455 
L 479.941111 538.695455 
L 480.748311 531.154091 
L 541.288287 531.154091 
L 542.095486 523.612727 
L 563.889878 523.612727 
L 564.697078 516.071364 
L 576.805073 516.071364 
L 577.612273 508.53 
L 589.720268 508.53 
L 590.527467 500.988636 
L 602.635463 500.988636 
L 603.442662 493.447273 
L 792.327388 493.447273 
L 792.327388 493.447273 
" clip-path="url(#pb342c533f3)" style="fill: none; stroke: #d62728; stroke-width: 3; stroke-linecap: square"/>
   </g>
   <g id="line2d_35">
    <path d="M 83.606066 538.695455 
L 173.205231 538.695455 
L 174.012431 531.154091 
L 215.179615 531.154091 
L 215.986814 523.612727 
L 238.588405 523.612727 
L 239.395605 516.071364 
L 281.369989 516.071364 
L 282.177188 523.612727 
L 291.056385 523.612727 
L 291.863585 531.154091 
L 299.935581 531.154091 
L 300.742781 523.612727 
L 316.886775 523.612727 
L 317.693974 516.071364 
L 366.125955 516.071364 
L 366.933155 508.53 
L 544.517086 508.53 
L 545.324285 500.988636 
L 653.489043 500.988636 
L 654.296243 493.447273 
L 655.103442 500.988636 
L 734.209011 500.988636 
L 735.016211 493.447273 
L 792.327388 493.447273 
L 792.327388 493.447273 
" clip-path="url(#pb342c533f3)" style="fill: none; stroke: #9467bd; stroke-width: 3; stroke-linecap: square"/>
   </g>
   <g id="line2d_36">
    <path d="M 85.220465 599.026364 
L 187.734825 599.026364 
L 188.542025 591.485 
L 288.634786 591.485 
L 289.441985 583.943636 
L 296.706783 583.943636 
L 297.513982 576.402273 
L 307.200379 576.402273 
L 308.007578 568.860909 
L 340.295566 568.860909 
L 341.102765 561.319545 
L 380.65555 561.319545 
L 381.462749 553.778182 
L 393.570745 553.778182 
L 394.377944 561.319545 
L 416.172336 561.319545 
L 416.979535 553.778182 
L 515.457897 553.778182 
L 516.265097 546.236818 
L 570.347475 546.236818 
L 571.154675 538.695455 
L 590.527467 538.695455 
L 591.334667 531.154091 
L 689.813029 531.154091 
L 690.620228 523.612727 
L 696.270626 523.612727 
L 697.077826 516.071364 
L 697.885025 523.612727 
L 792.327388 523.612727 
L 792.327388 523.612727 
" clip-path="url(#pb342c533f3)" style="fill: none; stroke: #000000; stroke-width: 3; stroke-linecap: square"/>
   </g>
   <g id="line2d_37">
    <path d="M 83.606066 591.485 
L 94.099662 591.485 
L 94.906862 583.943636 
L 123.158851 583.943636 
L 123.96605 576.402273 
L 186.120426 576.402273 
L 187.734825 561.319545 
L 241.010004 561.319545 
L 241.817204 553.778182 
L 251.5036 553.778182 
L 252.3108 546.236818 
L 310.429177 546.236818 
L 311.236377 538.695455 
L 360.475558 538.695455 
L 361.282757 546.236818 
L 366.125955 546.236818 
L 366.933155 538.695455 
L 367.740355 538.695455 
L 368.547554 546.236818 
L 575.997873 546.236818 
L 576.805073 538.695455 
L 792.327388 538.695455 
L 792.327388 538.695455 
" clip-path="url(#pb342c533f3)" style="fill: none; stroke: #000000; stroke-width: 3; stroke-linecap: square"/>
   </g>
   <g id="line2d_38">
    <path d="M 83.606066 621.650455 
L 281.369989 621.650455 
L 282.177188 614.109091 
L 283.791588 614.109091 
L 284.598787 606.567727 
L 289.441985 606.567727 
L 290.249185 599.026364 
L 383.077149 599.026364 
L 383.884348 591.485 
L 385.498748 591.485 
L 386.305948 583.943636 
L 394.377944 583.943636 
L 395.185144 576.402273 
L 405.67874 576.402273 
L 406.48594 568.860909 
L 544.517086 568.860909 
L 545.324285 561.319545 
L 792.327388 561.319545 
L 792.327388 561.319545 
" clip-path="url(#pb342c533f3)" style="fill: none; stroke: #000000; stroke-width: 3; stroke-linecap: square"/>
   </g>
   <g id="line2d_39">
    <path d="M 83.606066 599.026364 
L 408.100339 599.026364 
L 408.907539 591.485 
L 567.925876 591.485 
L 568.733076 583.943636 
L 581.648271 583.943636 
L 582.455471 576.402273 
L 792.327388 576.402273 
L 792.327388 576.402273 
" clip-path="url(#pb342c533f3)" style="fill: none; stroke: #000000; stroke-width: 3; stroke-linecap: square"/>
   </g>
   <g id="line2d_40">
    <path d="M 83.606066 606.567727 
L 88.449264 606.567727 
L 89.256464 599.026364 
L 170.783632 599.026364 
L 171.590832 591.485 
L 759.232201 591.485 
L 760.039401 583.943636 
L 792.327388 583.943636 
L 792.327388 583.943636 
" clip-path="url(#pb342c533f3)" style="fill: none; stroke: #000000; stroke-width: 3; stroke-linecap: square"/>
   </g>
   <g id="line2d_41">
    <path d="M 83.606066 621.650455 
L 320.115573 621.650455 
L 320.922773 614.109091 
L 337.873966 614.109091 
L 338.681166 606.567727 
L 792.327388 606.567727 
L 792.327388 606.567727 
" clip-path="url(#pb342c533f3)" style="fill: none; stroke: #000000; stroke-width: 3; stroke-linecap: square"/>
   </g>
   <g id="line2d_42">
    <path d="M 83.606066 636.733182 
L 253.118 636.733182 
L 253.925199 629.191818 
L 494.470705 629.191818 
L 495.277905 621.650455 
L 531.601891 621.650455 
L 532.40909 614.109091 
L 792.327388 614.109091 
L 792.327388 614.109091 
" clip-path="url(#pb342c533f3)" style="fill: none; stroke: #000000; stroke-width: 3; stroke-linecap: square"/>
   </g>
   <g id="line2d_43">
    <path d="M 83.606066 614.109091 
L 792.327388 614.109091 
L 792.327388 614.109091 
" clip-path="url(#pb342c533f3)" style="fill: none; stroke: #000000; stroke-width: 3; stroke-linecap: square"/>
   </g>
   <g id="line2d_44">
    <path d="M 83.606066 636.733182 
L 461.375518 636.733182 
L 462.182718 629.191818 
L 494.470705 629.191818 
L 495.277905 621.650455 
L 784.255392 621.650455 
L 785.062591 614.109091 
L 792.327388 614.109091 
L 792.327388 614.109091 
" clip-path="url(#pb342c533f3)" style="fill: none; stroke: #000000; stroke-width: 3; stroke-linecap: square"/>
   </g>
   <g id="line2d_45">
    <path d="M 83.606066 629.191818 
L 255.539599 629.191818 
L 256.346798 621.650455 
L 792.327388 621.650455 
L 792.327388 621.650455 
" clip-path="url(#pb342c533f3)" style="fill: none; stroke: #000000; stroke-width: 3; stroke-linecap: square"/>
   </g>
   <g id="line2d_46">
    <path d="M 83.606066 629.191818 
L 494.470705 629.191818 
L 495.277905 621.650455 
L 792.327388 621.650455 
L 792.327388 621.650455 
" clip-path="url(#pb342c533f3)" style="fill: none; stroke: #000000; stroke-width: 3; stroke-linecap: square"/>
   </g>
   <g id="line2d_47">
    <path d="M 83.606066 644.274545 
L 792.327388 644.274545 
L 792.327388 644.274545 
" clip-path="url(#pb342c533f3)" style="fill: none; stroke: #000000; stroke-width: 3; stroke-linecap: square"/>
   </g>
   <g id="line2d_48">
    <path d="M 83.606066 644.274545 
L 792.327388 644.274545 
L 792.327388 644.274545 
" clip-path="url(#pb342c533f3)" style="fill: none; stroke: #000000; stroke-width: 3; stroke-linecap: square"/>
   </g>
   <g id="patch_3">
    <path d="M 48.17 674.44 
L 48.17 10.8 
" style="fill: none; stroke: #000000; stroke-width: 0.8; stroke-linejoin: miter; stroke-linecap: square"/>
   </g>
   <g id="patch_4">
    <path d="M 827.763455 674.44 
L 827.763455 10.8 
" style="fill: none; stroke: #000000; stroke-width: 0.8; stroke-linejoin: miter; stroke-linecap: square"/>
   </g>
   <g id="patch_5">
    <path d="M 48.17 674.44 
L 827.763455 674.44 
" style="fill: none; stroke: #000000; stroke-width: 0.8; stroke-linejoin: miter; stroke-linecap: square"/>
   </g>
   <g id="patch_6">
    <path d="M 48.17 10.8 
L 827.763455 10.8 
" style="fill: none; stroke: #000000; stroke-width: 0.8; stroke-linejoin: miter; stroke-linecap: square"/>
   </g>
  </g>
  <g id="axes_2">
   <g id="legend_1">
    <g id="patch_7">
     <path d="M 883.021875 426.178125 
L 1067.2 426.178125 
Q 1069.2 426.178125 1069.2 424.178125 
L 1069.2 12.8 
Q 1069.2 10.8 1067.2 10.8 
L 883.021875 10.8 
Q 881.021875 10.8 881.021875 12.8 
L 881.021875 424.178125 
Q 881.021875 426.178125 883.021875 426.178125 
z
" style="fill: #ffffff; opacity: 0.8; stroke: #cccccc; stroke-linejoin: miter"/>
    </g>
    <g id="line2d_49">
     <path d="M 885.021875 18.898437 
L 895.021875 18.898437 
L 905.021875 18.898437 
" style="fill: none; stroke: #1f77b4; stroke-width: 3; stroke-linecap: square"/>
    </g>
    <g id="text_22">
     <!-- scikit-hep/awkward-1.0 -->
     <g transform="translate(913.021875 22.398437) scale(0.1 -0.1)">
      <defs>
       <path id="DejaVuSans-63" d="M 3122 3366 
L 3122 2828 
Q 2878 2963 2633 3030 
Q 2388 3097 2138 3097 
Q 1578 3097 1268 2742 
Q 959 2388 959 1747 
Q 959 1106 1268 751 
Q 1578 397 2138 397 
Q 2388 397 2633 464 
Q 2878 531 3122 666 
L 3122 134 
Q 2881 22 2623 -34 
Q 2366 -91 2075 -91 
Q 1284 -91 818 406 
Q 353 903 353 1747 
Q 353 2603 823 3093 
Q 1294 3584 2113 3584 
Q 2378 3584 2631 3529 
Q 2884 3475 3122 3366 
z
" transform="scale(0.015625)"/>
       <path id="DejaVuSans-69" d="M 603 3500 
L 1178 3500 
L 1178 0 
L 603 0 
L 603 3500 
z
M 603 4863 
L 1178 4863 
L 1178 4134 
L 603 4134 
L 603 4863 
z
" transform="scale(0.015625)"/>
       <path id="DejaVuSans-68" d="M 3513 2113 
L 3513 0 
L 2938 0 
L 2938 2094 
Q 2938 2591 2744 2837 
Q 2550 3084 2163 3084 
Q 1697 3084 1428 2787 
Q 1159 2491 1159 1978 
L 1159 0 
L 581 0 
L 581 4863 
L 1159 4863 
L 1159 2956 
Q 1366 3272 1645 3428 
Q 1925 3584 2291 3584 
Q 2894 3584 3203 3211 
Q 3513 2838 3513 2113 
z
" transform="scale(0.015625)"/>
       <path id="DejaVuSans-70" d="M 1159 525 
L 1159 -1331 
L 581 -1331 
L 581 3500 
L 1159 3500 
L 1159 2969 
Q 1341 3281 1617 3432 
Q 1894 3584 2278 3584 
Q 2916 3584 3314 3078 
Q 3713 2572 3713 1747 
Q 3713 922 3314 415 
Q 2916 -91 2278 -91 
Q 1894 -91 1617 61 
Q 1341 213 1159 525 
z
M 3116 1747 
Q 3116 2381 2855 2742 
Q 2594 3103 2138 3103 
Q 1681 3103 1420 2742 
Q 1159 2381 1159 1747 
Q 1159 1113 1420 752 
Q 1681 391 2138 391 
Q 2594 391 2855 752 
Q 3116 1113 3116 1747 
z
" transform="scale(0.015625)"/>
       <path id="DejaVuSans-2f" d="M 1625 4666 
L 2156 4666 
L 531 -594 
L 0 -594 
L 1625 4666 
z
" transform="scale(0.015625)"/>
       <path id="DejaVuSans-77" d="M 269 3500 
L 844 3500 
L 1563 769 
L 2278 3500 
L 2956 3500 
L 3675 769 
L 4391 3500 
L 4966 3500 
L 4050 0 
L 3372 0 
L 2619 2869 
L 1863 0 
L 1184 0 
L 269 3500 
z
" transform="scale(0.015625)"/>
       <path id="DejaVuSans-64" d="M 2906 2969 
L 2906 4863 
L 3481 4863 
L 3481 0 
L 2906 0 
L 2906 525 
Q 2725 213 2448 61 
Q 2172 -91 1784 -91 
Q 1150 -91 751 415 
Q 353 922 353 1747 
Q 353 2572 751 3078 
Q 1150 3584 1784 3584 
Q 2172 3584 2448 3432 
Q 2725 3281 2906 2969 
z
M 947 1747 
Q 947 1113 1208 752 
Q 1469 391 1925 391 
Q 2381 391 2643 752 
Q 2906 1113 2906 1747 
Q 2906 2381 2643 2742 
Q 2381 3103 1925 3103 
Q 1469 3103 1208 2742 
Q 947 2381 947 1747 
z
" transform="scale(0.015625)"/>
       <path id="DejaVuSans-2e" d="M 684 794 
L 1344 794 
L 1344 0 
L 684 0 
L 684 794 
z
" transform="scale(0.015625)"/>
      </defs>
      <use xlink:href="#DejaVuSans-73"/>
      <use xlink:href="#DejaVuSans-63" x="52.099609"/>
      <use xlink:href="#DejaVuSans-69" x="107.080078"/>
      <use xlink:href="#DejaVuSans-6b" x="134.863281"/>
      <use xlink:href="#DejaVuSans-69" x="192.773438"/>
      <use xlink:href="#DejaVuSans-74" x="220.556641"/>
      <use xlink:href="#DejaVuSans-2d" x="259.765625"/>
      <use xlink:href="#DejaVuSans-68" x="295.849609"/>
      <use xlink:href="#DejaVuSans-65" x="359.228516"/>
      <use xlink:href="#DejaVuSans-70" x="420.751953"/>
      <use xlink:href="#DejaVuSans-2f" x="484.228516"/>
      <use xlink:href="#DejaVuSans-61" x="517.919922"/>
      <use xlink:href="#DejaVuSans-77" x="579.199219"/>
      <use xlink:href="#DejaVuSans-6b" x="660.986328"/>
      <use xlink:href="#DejaVuSans-77" x="718.896484"/>
      <use xlink:href="#DejaVuSans-61" x="800.683594"/>
      <use xlink:href="#DejaVuSans-72" x="861.962891"/>
      <use xlink:href="#DejaVuSans-64" x="901.326172"/>
      <use xlink:href="#DejaVuSans-2d" x="964.802734"/>
      <use xlink:href="#DejaVuSans-31" x="1000.886719"/>
      <use xlink:href="#DejaVuSans-2e" x="1064.509766"/>
      <use xlink:href="#DejaVuSans-30" x="1096.296875"/>
     </g>
    </g>
    <g id="line2d_50">
     <path d="M 885.021875 33.576562 
L 895.021875 33.576562 
L 905.021875 33.576562 
" style="fill: none; stroke: #ff7f0e; stroke-width: 3; stroke-linecap: square"/>
    </g>
    <g id="text_23">
     <!-- scikit-hep/pyhf -->
     <g transform="translate(913.021875 37.076562) scale(0.1 -0.1)">
      <defs>
       <path id="DejaVuSans-79" d="M 2059 -325 
Q 1816 -950 1584 -1140 
Q 1353 -1331 966 -1331 
L 506 -1331 
L 506 -850 
L 844 -850 
Q 1081 -850 1212 -737 
Q 1344 -625 1503 -206 
L 1606 56 
L 191 3500 
L 800 3500 
L 1894 763 
L 2988 3500 
L 3597 3500 
L 2059 -325 
z
" transform="scale(0.015625)"/>
      </defs>
      <use xlink:href="#DejaVuSans-73"/>
      <use xlink:href="#DejaVuSans-63" x="52.099609"/>
      <use xlink:href="#DejaVuSans-69" x="107.080078"/>
      <use xlink:href="#DejaVuSans-6b" x="134.863281"/>
      <use xlink:href="#DejaVuSans-69" x="192.773438"/>
      <use xlink:href="#DejaVuSans-74" x="220.556641"/>
      <use xlink:href="#DejaVuSans-2d" x="259.765625"/>
      <use xlink:href="#DejaVuSans-68" x="295.849609"/>
      <use xlink:href="#DejaVuSans-65" x="359.228516"/>
      <use xlink:href="#DejaVuSans-70" x="420.751953"/>
      <use xlink:href="#DejaVuSans-2f" x="484.228516"/>
      <use xlink:href="#DejaVuSans-70" x="517.919922"/>
      <use xlink:href="#DejaVuSans-79" x="581.396484"/>
      <use xlink:href="#DejaVuSans-68" x="640.576172"/>
      <use xlink:href="#DejaVuSans-66" x="703.955078"/>
     </g>
    </g>
    <g id="line2d_51">
     <path d="M 885.021875 48.254687 
L 895.021875 48.254687 
L 905.021875 48.254687 
" style="fill: none; stroke: #2ca02c; stroke-width: 3; stroke-linecap: square"/>
    </g>
    <g id="text_24">
     <!-- scikit-hep/uproot3 -->
     <g transform="translate(913.021875 51.754687) scale(0.1 -0.1)">
      <use xlink:href="#DejaVuSans-73"/>
      <use xlink:href="#DejaVuSans-63" x="52.099609"/>
      <use xlink:href="#DejaVuSans-69" x="107.080078"/>
      <use xlink:href="#DejaVuSans-6b" x="134.863281"/>
      <use xlink:href="#DejaVuSans-69" x="192.773438"/>
      <use xlink:href="#DejaVuSans-74" x="220.556641"/>
      <use xlink:href="#DejaVuSans-2d" x="259.765625"/>
      <use xlink:href="#DejaVuSans-68" x="295.849609"/>
      <use xlink:href="#DejaVuSans-65" x="359.228516"/>
      <use xlink:href="#DejaVuSans-70" x="420.751953"/>
      <use xlink:href="#DejaVuSans-2f" x="484.228516"/>
      <use xlink:href="#DejaVuSans-75" x="517.919922"/>
      <use xlink:href="#DejaVuSans-70" x="581.298828"/>
      <use xlink:href="#DejaVuSans-72" x="644.775391"/>
      <use xlink:href="#DejaVuSans-6f" x="683.638672"/>
      <use xlink:href="#DejaVuSans-6f" x="744.820312"/>
      <use xlink:href="#DejaVuSans-74" x="806.001953"/>
      <use xlink:href="#DejaVuSans-33" x="845.210938"/>
     </g>
    </g>
    <g id="line2d_52">
     <path d="M 885.021875 62.932812 
L 895.021875 62.932812 
L 905.021875 62.932812 
" style="fill: none; stroke: #d62728; stroke-width: 3; stroke-linecap: square"/>
    </g>
    <g id="text_25">
     <!-- scikit-hep/uproot4 -->
     <g transform="translate(913.021875 66.432812) scale(0.1 -0.1)">
      <use xlink:href="#DejaVuSans-73"/>
      <use xlink:href="#DejaVuSans-63" x="52.099609"/>
      <use xlink:href="#DejaVuSans-69" x="107.080078"/>
      <use xlink:href="#DejaVuSans-6b" x="134.863281"/>
      <use xlink:href="#DejaVuSans-69" x="192.773438"/>
      <use xlink:href="#DejaVuSans-74" x="220.556641"/>
      <use xlink:href="#DejaVuSans-2d" x="259.765625"/>
      <use xlink:href="#DejaVuSans-68" x="295.849609"/>
      <use xlink:href="#DejaVuSans-65" x="359.228516"/>
      <use xlink:href="#DejaVuSans-70" x="420.751953"/>
      <use xlink:href="#DejaVuSans-2f" x="484.228516"/>
      <use xlink:href="#DejaVuSans-75" x="517.919922"/>
      <use xlink:href="#DejaVuSans-70" x="581.298828"/>
      <use xlink:href="#DejaVuSans-72" x="644.775391"/>
      <use xlink:href="#DejaVuSans-6f" x="683.638672"/>
      <use xlink:href="#DejaVuSans-6f" x="744.820312"/>
      <use xlink:href="#DejaVuSans-74" x="806.001953"/>
      <use xlink:href="#DejaVuSans-34" x="845.210938"/>
     </g>
    </g>
    <g id="line2d_53">
     <path d="M 885.021875 77.610937 
L 895.021875 77.610937 
L 905.021875 77.610937 
" style="fill: none; stroke: #9467bd; stroke-width: 3; stroke-linecap: square"/>
    </g>
    <g id="text_26">
     <!-- scikit-hep/mplhep -->
     <g transform="translate(913.021875 81.110937) scale(0.1 -0.1)">
      <defs>
       <path id="DejaVuSans-6c" d="M 603 4863 
L 1178 4863 
L 1178 0 
L 603 0 
L 603 4863 
z
" transform="scale(0.015625)"/>
      </defs>
      <use xlink:href="#DejaVuSans-73"/>
      <use xlink:href="#DejaVuSans-63" x="52.099609"/>
      <use xlink:href="#DejaVuSans-69" x="107.080078"/>
      <use xlink:href="#DejaVuSans-6b" x="134.863281"/>
      <use xlink:href="#DejaVuSans-69" x="192.773438"/>
      <use xlink:href="#DejaVuSans-74" x="220.556641"/>
      <use xlink:href="#DejaVuSans-2d" x="259.765625"/>
      <use xlink:href="#DejaVuSans-68" x="295.849609"/>
      <use xlink:href="#DejaVuSans-65" x="359.228516"/>
      <use xlink:href="#DejaVuSans-70" x="420.751953"/>
      <use xlink:href="#DejaVuSans-2f" x="484.228516"/>
      <use xlink:href="#DejaVuSans-6d" x="517.919922"/>
      <use xlink:href="#DejaVuSans-70" x="615.332031"/>
      <use xlink:href="#DejaVuSans-6c" x="678.808594"/>
      <use xlink:href="#DejaVuSans-68" x="706.591797"/>
      <use xlink:href="#DejaVuSans-65" x="769.970703"/>
      <use xlink:href="#DejaVuSans-70" x="831.494141"/>
     </g>
    </g>
    <g id="line2d_54">
     <path d="M 885.021875 92.289062 
L 895.021875 92.289062 
L 905.021875 92.289062 
" style="fill: none; stroke: #8c564b; stroke-width: 3; stroke-linecap: square"/>
    </g>
    <g id="text_27">
     <!-- reanahub/reana -->
     <g transform="translate(913.021875 95.789062) scale(0.1 -0.1)">
      <defs>
       <path id="DejaVuSans-6e" d="M 3513 2113 
L 3513 0 
L 2938 0 
L 2938 2094 
Q 2938 2591 2744 2837 
Q 2550 3084 2163 3084 
Q 1697 3084 1428 2787 
Q 1159 2491 1159 1978 
L 1159 0 
L 581 0 
L 581 3500 
L 1159 3500 
L 1159 2956 
Q 1366 3272 1645 3428 
Q 1925 3584 2291 3584 
Q 2894 3584 3203 3211 
Q 3513 2838 3513 2113 
z
" transform="scale(0.015625)"/>
      </defs>
      <use xlink:href="#DejaVuSans-72"/>
      <use xlink:href="#DejaVuSans-65" x="38.863281"/>
      <use xlink:href="#DejaVuSans-61" x="100.386719"/>
      <use xlink:href="#DejaVuSans-6e" x="161.666016"/>
      <use xlink:href="#DejaVuSans-61" x="225.044922"/>
      <use xlink:href="#DejaVuSans-68" x="286.324219"/>
      <use xlink:href="#DejaVuSans-75" x="349.703125"/>
      <use xlink:href="#DejaVuSans-62" x="413.082031"/>
      <use xlink:href="#DejaVuSans-2f" x="476.558594"/>
      <use xlink:href="#DejaVuSans-72" x="510.25"/>
      <use xlink:href="#DejaVuSans-65" x="549.113281"/>
      <use xlink:href="#DejaVuSans-61" x="610.636719"/>
      <use xlink:href="#DejaVuSans-6e" x="671.916016"/>
      <use xlink:href="#DejaVuSans-61" x="735.294922"/>
     </g>
    </g>
    <g id="line2d_55">
     <path d="M 885.021875 106.967187 
L 895.021875 106.967187 
L 905.021875 106.967187 
" style="fill: none; stroke: #e377c2; stroke-width: 3; stroke-linecap: square"/>
    </g>
    <g id="text_28">
     <!-- scikit-hep/cookie -->
     <g transform="translate(913.021875 110.467187) scale(0.1 -0.1)">
      <use xlink:href="#DejaVuSans-73"/>
      <use xlink:href="#DejaVuSans-63" x="52.099609"/>
      <use xlink:href="#DejaVuSans-69" x="107.080078"/>
      <use xlink:href="#DejaVuSans-6b" x="134.863281"/>
      <use xlink:href="#DejaVuSans-69" x="192.773438"/>
      <use xlink:href="#DejaVuSans-74" x="220.556641"/>
      <use xlink:href="#DejaVuSans-2d" x="259.765625"/>
      <use xlink:href="#DejaVuSans-68" x="295.849609"/>
      <use xlink:href="#DejaVuSans-65" x="359.228516"/>
      <use xlink:href="#DejaVuSans-70" x="420.751953"/>
      <use xlink:href="#DejaVuSans-2f" x="484.228516"/>
      <use xlink:href="#DejaVuSans-63" x="517.919922"/>
      <use xlink:href="#DejaVuSans-6f" x="572.900391"/>
      <use xlink:href="#DejaVuSans-6f" x="634.082031"/>
      <use xlink:href="#DejaVuSans-6b" x="695.263672"/>
      <use xlink:href="#DejaVuSans-69" x="753.173828"/>
      <use xlink:href="#DejaVuSans-65" x="780.957031"/>
     </g>
    </g>
    <g id="line2d_56">
     <path d="M 885.021875 121.645312 
L 895.021875 121.645312 
L 905.021875 121.645312 
" style="fill: none; stroke: #7f7f7f; stroke-width: 3; stroke-linecap: square"/>
    </g>
    <g id="text_29">
     <!-- diana-hep/madminer -->
     <g transform="translate(913.021875 125.145312) scale(0.1 -0.1)">
      <use xlink:href="#DejaVuSans-64"/>
      <use xlink:href="#DejaVuSans-69" x="63.476562"/>
      <use xlink:href="#DejaVuSans-61" x="91.259766"/>
      <use xlink:href="#DejaVuSans-6e" x="152.539062"/>
      <use xlink:href="#DejaVuSans-61" x="215.917969"/>
      <use xlink:href="#DejaVuSans-2d" x="277.197266"/>
      <use xlink:href="#DejaVuSans-68" x="313.28125"/>
      <use xlink:href="#DejaVuSans-65" x="376.660156"/>
      <use xlink:href="#DejaVuSans-70" x="438.183594"/>
      <use xlink:href="#DejaVuSans-2f" x="501.660156"/>
      <use xlink:href="#DejaVuSans-6d" x="535.351562"/>
      <use xlink:href="#DejaVuSans-61" x="632.763672"/>
      <use xlink:href="#DejaVuSans-64" x="694.042969"/>
      <use xlink:href="#DejaVuSans-6d" x="757.519531"/>
      <use xlink:href="#DejaVuSans-69" x="854.931641"/>
      <use xlink:href="#DejaVuSans-6e" x="882.714844"/>
      <use xlink:href="#DejaVuSans-65" x="946.09375"/>
      <use xlink:href="#DejaVuSans-72" x="1007.617188"/>
     </g>
    </g>
    <g id="line2d_57">
     <path d="M 885.021875 136.323437 
L 895.021875 136.323437 
L 905.021875 136.323437 
" style="fill: none; stroke: #bcbd22; stroke-width: 3; stroke-linecap: square"/>
    </g>
    <g id="text_30">
     <!-- GooFit/GooFit -->
     <g transform="translate(913.021875 139.823437) scale(0.1 -0.1)">
      <defs>
       <path id="DejaVuSans-47" d="M 3809 666 
L 3809 1919 
L 2778 1919 
L 2778 2438 
L 4434 2438 
L 4434 434 
Q 4069 175 3628 42 
Q 3188 -91 2688 -91 
Q 1594 -91 976 548 
Q 359 1188 359 2328 
Q 359 3472 976 4111 
Q 1594 4750 2688 4750 
Q 3144 4750 3555 4637 
Q 3966 4525 4313 4306 
L 4313 3634 
Q 3963 3931 3569 4081 
Q 3175 4231 2741 4231 
Q 1884 4231 1454 3753 
Q 1025 3275 1025 2328 
Q 1025 1384 1454 906 
Q 1884 428 2741 428 
Q 3075 428 3337 486 
Q 3600 544 3809 666 
z
" transform="scale(0.015625)"/>
       <path id="DejaVuSans-46" d="M 628 4666 
L 3309 4666 
L 3309 4134 
L 1259 4134 
L 1259 2759 
L 3109 2759 
L 3109 2228 
L 1259 2228 
L 1259 0 
L 628 0 
L 628 4666 
z
" transform="scale(0.015625)"/>
      </defs>
      <use xlink:href="#DejaVuSans-47"/>
      <use xlink:href="#DejaVuSans-6f" x="77.490234"/>
      <use xlink:href="#DejaVuSans-6f" x="138.671875"/>
      <use xlink:href="#DejaVuSans-46" x="199.853516"/>
      <use xlink:href="#DejaVuSans-69" x="250.123047"/>
      <use xlink:href="#DejaVuSans-74" x="277.90625"/>
      <use xlink:href="#DejaVuSans-2f" x="317.115234"/>
      <use xlink:href="#DejaVuSans-47" x="350.806641"/>
      <use xlink:href="#DejaVuSans-6f" x="428.296875"/>
      <use xlink:href="#DejaVuSans-6f" x="489.478516"/>
      <use xlink:href="#DejaVuSans-46" x="550.660156"/>
      <use xlink:href="#DejaVuSans-69" x="600.929688"/>
      <use xlink:href="#DejaVuSans-74" x="628.712891"/>
     </g>
    </g>
    <g id="line2d_58">
     <path d="M 885.021875 151.001562 
L 895.021875 151.001562 
L 905.021875 151.001562 
" style="fill: none; stroke: #17becf; stroke-width: 3; stroke-linecap: square"/>
    </g>
    <g id="text_31">
     <!-- scikit-hep/awkward-0.x -->
     <g transform="translate(913.021875 154.501562) scale(0.1 -0.1)">
      <defs>
       <path id="DejaVuSans-78" d="M 3513 3500 
L 2247 1797 
L 3578 0 
L 2900 0 
L 1881 1375 
L 863 0 
L 184 0 
L 1544 1831 
L 300 3500 
L 978 3500 
L 1906 2253 
L 2834 3500 
L 3513 3500 
z
" transform="scale(0.015625)"/>
      </defs>
      <use xlink:href="#DejaVuSans-73"/>
      <use xlink:href="#DejaVuSans-63" x="52.099609"/>
      <use xlink:href="#DejaVuSans-69" x="107.080078"/>
      <use xlink:href="#DejaVuSans-6b" x="134.863281"/>
      <use xlink:href="#DejaVuSans-69" x="192.773438"/>
      <use xlink:href="#DejaVuSans-74" x="220.556641"/>
      <use xlink:href="#DejaVuSans-2d" x="259.765625"/>
      <use xlink:href="#DejaVuSans-68" x="295.849609"/>
      <use xlink:href="#DejaVuSans-65" x="359.228516"/>
      <use xlink:href="#DejaVuSans-70" x="420.751953"/>
      <use xlink:href="#DejaVuSans-2f" x="484.228516"/>
      <use xlink:href="#DejaVuSans-61" x="517.919922"/>
      <use xlink:href="#DejaVuSans-77" x="579.199219"/>
      <use xlink:href="#DejaVuSans-6b" x="660.986328"/>
      <use xlink:href="#DejaVuSans-77" x="718.896484"/>
      <use xlink:href="#DejaVuSans-61" x="800.683594"/>
      <use xlink:href="#DejaVuSans-72" x="861.962891"/>
      <use xlink:href="#DejaVuSans-64" x="901.326172"/>
      <use xlink:href="#DejaVuSans-2d" x="964.802734"/>
      <use xlink:href="#DejaVuSans-30" x="1000.886719"/>
      <use xlink:href="#DejaVuSans-2e" x="1064.509766"/>
      <use xlink:href="#DejaVuSans-78" x="1096.296875"/>
     </g>
    </g>
    <g id="line2d_59">
     <path d="M 885.021875 165.679687 
L 895.021875 165.679687 
L 905.021875 165.679687 
" style="fill: none; stroke: #1f77b4; stroke-width: 3; stroke-linecap: square"/>
    </g>
    <g id="text_32">
     <!-- scikit-hep/vector -->
     <g transform="translate(913.021875 169.179687) scale(0.1 -0.1)">
      <defs>
       <path id="DejaVuSans-76" d="M 191 3500 
L 800 3500 
L 1894 563 
L 2988 3500 
L 3597 3500 
L 2284 0 
L 1503 0 
L 191 3500 
z
" transform="scale(0.015625)"/>
      </defs>
      <use xlink:href="#DejaVuSans-73"/>
      <use xlink:href="#DejaVuSans-63" x="52.099609"/>
      <use xlink:href="#DejaVuSans-69" x="107.080078"/>
      <use xlink:href="#DejaVuSans-6b" x="134.863281"/>
      <use xlink:href="#DejaVuSans-69" x="192.773438"/>
      <use xlink:href="#DejaVuSans-74" x="220.556641"/>
      <use xlink:href="#DejaVuSans-2d" x="259.765625"/>
      <use xlink:href="#DejaVuSans-68" x="295.849609"/>
      <use xlink:href="#DejaVuSans-65" x="359.228516"/>
      <use xlink:href="#DejaVuSans-70" x="420.751953"/>
      <use xlink:href="#DejaVuSans-2f" x="484.228516"/>
      <use xlink:href="#DejaVuSans-76" x="517.919922"/>
      <use xlink:href="#DejaVuSans-65" x="577.099609"/>
      <use xlink:href="#DejaVuSans-63" x="638.623047"/>
      <use xlink:href="#DejaVuSans-74" x="693.603516"/>
      <use xlink:href="#DejaVuSans-6f" x="732.8125"/>
      <use xlink:href="#DejaVuSans-72" x="793.994141"/>
     </g>
    </g>
    <g id="line2d_60">
     <path d="M 885.021875 180.357812 
L 895.021875 180.357812 
L 905.021875 180.357812 
" style="fill: none; stroke: #ff7f0e; stroke-width: 3; stroke-linecap: square"/>
    </g>
    <g id="text_33">
     <!-- scikit-hep/particle -->
     <g transform="translate(913.021875 183.857812) scale(0.1 -0.1)">
      <use xlink:href="#DejaVuSans-73"/>
      <use xlink:href="#DejaVuSans-63" x="52.099609"/>
      <use xlink:href="#DejaVuSans-69" x="107.080078"/>
      <use xlink:href="#DejaVuSans-6b" x="134.863281"/>
      <use xlink:href="#DejaVuSans-69" x="192.773438"/>
      <use xlink:href="#DejaVuSans-74" x="220.556641"/>
      <use xlink:href="#DejaVuSans-2d" x="259.765625"/>
      <use xlink:href="#DejaVuSans-68" x="295.849609"/>
      <use xlink:href="#DejaVuSans-65" x="359.228516"/>
      <use xlink:href="#DejaVuSans-70" x="420.751953"/>
      <use xlink:href="#DejaVuSans-2f" x="484.228516"/>
      <use xlink:href="#DejaVuSans-70" x="517.919922"/>
      <use xlink:href="#DejaVuSans-61" x="581.396484"/>
      <use xlink:href="#DejaVuSans-72" x="642.675781"/>
      <use xlink:href="#DejaVuSans-74" x="683.789062"/>
      <use xlink:href="#DejaVuSans-69" x="722.998047"/>
      <use xlink:href="#DejaVuSans-63" x="750.78125"/>
      <use xlink:href="#DejaVuSans-6c" x="805.761719"/>
      <use xlink:href="#DejaVuSans-65" x="833.544922"/>
     </g>
    </g>
    <g id="line2d_61">
     <path d="M 885.021875 195.035937 
L 895.021875 195.035937 
L 905.021875 195.035937 
" style="fill: none; stroke: #2ca02c; stroke-width: 3; stroke-linecap: square"/>
    </g>
    <g id="text_34">
     <!-- scikit-hep/hist -->
     <g transform="translate(913.021875 198.535937) scale(0.1 -0.1)">
      <use xlink:href="#DejaVuSans-73"/>
      <use xlink:href="#DejaVuSans-63" x="52.099609"/>
      <use xlink:href="#DejaVuSans-69" x="107.080078"/>
      <use xlink:href="#DejaVuSans-6b" x="134.863281"/>
      <use xlink:href="#DejaVuSans-69" x="192.773438"/>
      <use xlink:href="#DejaVuSans-74" x="220.556641"/>
      <use xlink:href="#DejaVuSans-2d" x="259.765625"/>
      <use xlink:href="#DejaVuSans-68" x="295.849609"/>
      <use xlink:href="#DejaVuSans-65" x="359.228516"/>
      <use xlink:href="#DejaVuSans-70" x="420.751953"/>
      <use xlink:href="#DejaVuSans-2f" x="484.228516"/>
      <use xlink:href="#DejaVuSans-68" x="517.919922"/>
      <use xlink:href="#DejaVuSans-69" x="581.298828"/>
      <use xlink:href="#DejaVuSans-73" x="609.082031"/>
      <use xlink:href="#DejaVuSans-74" x="661.181641"/>
     </g>
    </g>
    <g id="line2d_62">
     <path d="M 885.021875 209.714062 
L 895.021875 209.714062 
L 905.021875 209.714062 
" style="fill: none; stroke: #d62728; stroke-width: 3; stroke-linecap: square"/>
    </g>
    <g id="text_35">
     <!-- GooFit/AmpGen -->
     <g transform="translate(913.021875 213.214062) scale(0.1 -0.1)">
      <defs>
       <path id="DejaVuSans-41" d="M 2188 4044 
L 1331 1722 
L 3047 1722 
L 2188 4044 
z
M 1831 4666 
L 2547 4666 
L 4325 0 
L 3669 0 
L 3244 1197 
L 1141 1197 
L 716 0 
L 50 0 
L 1831 4666 
z
" transform="scale(0.015625)"/>
      </defs>
      <use xlink:href="#DejaVuSans-47"/>
      <use xlink:href="#DejaVuSans-6f" x="77.490234"/>
      <use xlink:href="#DejaVuSans-6f" x="138.671875"/>
      <use xlink:href="#DejaVuSans-46" x="199.853516"/>
      <use xlink:href="#DejaVuSans-69" x="250.123047"/>
      <use xlink:href="#DejaVuSans-74" x="277.90625"/>
      <use xlink:href="#DejaVuSans-2f" x="317.115234"/>
      <use xlink:href="#DejaVuSans-41" x="350.806641"/>
      <use xlink:href="#DejaVuSans-6d" x="419.214844"/>
      <use xlink:href="#DejaVuSans-70" x="516.626953"/>
      <use xlink:href="#DejaVuSans-47" x="580.103516"/>
      <use xlink:href="#DejaVuSans-65" x="657.59375"/>
      <use xlink:href="#DejaVuSans-6e" x="719.117188"/>
     </g>
    </g>
    <g id="line2d_63">
     <path d="M 885.021875 224.392187 
L 895.021875 224.392187 
L 905.021875 224.392187 
" style="fill: none; stroke: #9467bd; stroke-width: 3; stroke-linecap: square"/>
    </g>
    <g id="text_36">
     <!-- scikit-hep/boost-histogram -->
     <g transform="translate(913.021875 227.892187) scale(0.1 -0.1)">
      <defs>
       <path id="DejaVuSans-67" d="M 2906 1791 
Q 2906 2416 2648 2759 
Q 2391 3103 1925 3103 
Q 1463 3103 1205 2759 
Q 947 2416 947 1791 
Q 947 1169 1205 825 
Q 1463 481 1925 481 
Q 2391 481 2648 825 
Q 2906 1169 2906 1791 
z
M 3481 434 
Q 3481 -459 3084 -895 
Q 2688 -1331 1869 -1331 
Q 1566 -1331 1297 -1286 
Q 1028 -1241 775 -1147 
L 775 -588 
Q 1028 -725 1275 -790 
Q 1522 -856 1778 -856 
Q 2344 -856 2625 -561 
Q 2906 -266 2906 331 
L 2906 616 
Q 2728 306 2450 153 
Q 2172 0 1784 0 
Q 1141 0 747 490 
Q 353 981 353 1791 
Q 353 2603 747 3093 
Q 1141 3584 1784 3584 
Q 2172 3584 2450 3431 
Q 2728 3278 2906 2969 
L 2906 3500 
L 3481 3500 
L 3481 434 
z
" transform="scale(0.015625)"/>
      </defs>
      <use xlink:href="#DejaVuSans-73"/>
      <use xlink:href="#DejaVuSans-63" x="52.099609"/>
      <use xlink:href="#DejaVuSans-69" x="107.080078"/>
      <use xlink:href="#DejaVuSans-6b" x="134.863281"/>
      <use xlink:href="#DejaVuSans-69" x="192.773438"/>
      <use xlink:href="#DejaVuSans-74" x="220.556641"/>
      <use xlink:href="#DejaVuSans-2d" x="259.765625"/>
      <use xlink:href="#DejaVuSans-68" x="295.849609"/>
      <use xlink:href="#DejaVuSans-65" x="359.228516"/>
      <use xlink:href="#DejaVuSans-70" x="420.751953"/>
      <use xlink:href="#DejaVuSans-2f" x="484.228516"/>
      <use xlink:href="#DejaVuSans-62" x="517.919922"/>
      <use xlink:href="#DejaVuSans-6f" x="581.396484"/>
      <use xlink:href="#DejaVuSans-6f" x="642.578125"/>
      <use xlink:href="#DejaVuSans-73" x="703.759766"/>
      <use xlink:href="#DejaVuSans-74" x="755.859375"/>
      <use xlink:href="#DejaVuSans-2d" x="795.068359"/>
      <use xlink:href="#DejaVuSans-68" x="831.152344"/>
      <use xlink:href="#DejaVuSans-69" x="894.53125"/>
      <use xlink:href="#DejaVuSans-73" x="922.314453"/>
      <use xlink:href="#DejaVuSans-74" x="974.414062"/>
      <use xlink:href="#DejaVuSans-6f" x="1013.623047"/>
      <use xlink:href="#DejaVuSans-67" x="1074.804688"/>
      <use xlink:href="#DejaVuSans-72" x="1138.28125"/>
      <use xlink:href="#DejaVuSans-61" x="1179.394531"/>
      <use xlink:href="#DejaVuSans-6d" x="1240.673828"/>
     </g>
    </g>
    <g id="line2d_64">
     <path d="M 885.021875 239.070312 
L 895.021875 239.070312 
L 905.021875 239.070312 
" style="fill: none; stroke: #000000; stroke-width: 3; stroke-linecap: square"/>
    </g>
    <g id="text_37">
     <!-- scikit-hep/cabinetry -->
     <g transform="translate(913.021875 242.570312) scale(0.1 -0.1)">
      <use xlink:href="#DejaVuSans-73"/>
      <use xlink:href="#DejaVuSans-63" x="52.099609"/>
      <use xlink:href="#DejaVuSans-69" x="107.080078"/>
      <use xlink:href="#DejaVuSans-6b" x="134.863281"/>
      <use xlink:href="#DejaVuSans-69" x="192.773438"/>
      <use xlink:href="#DejaVuSans-74" x="220.556641"/>
      <use xlink:href="#DejaVuSans-2d" x="259.765625"/>
      <use xlink:href="#DejaVuSans-68" x="295.849609"/>
      <use xlink:href="#DejaVuSans-65" x="359.228516"/>
      <use xlink:href="#DejaVuSans-70" x="420.751953"/>
      <use xlink:href="#DejaVuSans-2f" x="484.228516"/>
      <use xlink:href="#DejaVuSans-63" x="517.919922"/>
      <use xlink:href="#DejaVuSans-61" x="572.900391"/>
      <use xlink:href="#DejaVuSans-62" x="634.179688"/>
      <use xlink:href="#DejaVuSans-69" x="697.65625"/>
      <use xlink:href="#DejaVuSans-6e" x="725.439453"/>
      <use xlink:href="#DejaVuSans-65" x="788.818359"/>
      <use xlink:href="#DejaVuSans-74" x="850.341797"/>
      <use xlink:href="#DejaVuSans-72" x="889.550781"/>
      <use xlink:href="#DejaVuSans-79" x="930.664062"/>
     </g>
    </g>
    <g id="line2d_65">
     <path d="M 885.021875 253.748437 
L 895.021875 253.748437 
L 905.021875 253.748437 
" style="fill: none; stroke: #000000; stroke-width: 3; stroke-linecap: square"/>
    </g>
    <g id="text_38">
     <!-- scikit-hep/decaylanguage -->
     <g transform="translate(913.021875 257.248437) scale(0.1 -0.1)">
      <use xlink:href="#DejaVuSans-73"/>
      <use xlink:href="#DejaVuSans-63" x="52.099609"/>
      <use xlink:href="#DejaVuSans-69" x="107.080078"/>
      <use xlink:href="#DejaVuSans-6b" x="134.863281"/>
      <use xlink:href="#DejaVuSans-69" x="192.773438"/>
      <use xlink:href="#DejaVuSans-74" x="220.556641"/>
      <use xlink:href="#DejaVuSans-2d" x="259.765625"/>
      <use xlink:href="#DejaVuSans-68" x="295.849609"/>
      <use xlink:href="#DejaVuSans-65" x="359.228516"/>
      <use xlink:href="#DejaVuSans-70" x="420.751953"/>
      <use xlink:href="#DejaVuSans-2f" x="484.228516"/>
      <use xlink:href="#DejaVuSans-64" x="517.919922"/>
      <use xlink:href="#DejaVuSans-65" x="581.396484"/>
      <use xlink:href="#DejaVuSans-63" x="642.919922"/>
      <use xlink:href="#DejaVuSans-61" x="697.900391"/>
      <use xlink:href="#DejaVuSans-79" x="759.179688"/>
      <use xlink:href="#DejaVuSans-6c" x="818.359375"/>
      <use xlink:href="#DejaVuSans-61" x="846.142578"/>
      <use xlink:href="#DejaVuSans-6e" x="907.421875"/>
      <use xlink:href="#DejaVuSans-67" x="970.800781"/>
      <use xlink:href="#DejaVuSans-75" x="1034.277344"/>
      <use xlink:href="#DejaVuSans-61" x="1097.65625"/>
      <use xlink:href="#DejaVuSans-67" x="1158.935547"/>
      <use xlink:href="#DejaVuSans-65" x="1222.412109"/>
     </g>
    </g>
    <g id="line2d_66">
     <path d="M 885.021875 268.426562 
L 895.021875 268.426562 
L 905.021875 268.426562 
" style="fill: none; stroke: #000000; stroke-width: 3; stroke-linecap: square"/>
    </g>
    <g id="text_39">
     <!-- scikit-hep/fastjet -->
     <g transform="translate(913.021875 271.926562) scale(0.1 -0.1)">
      <defs>
       <path id="DejaVuSans-6a" d="M 603 3500 
L 1178 3500 
L 1178 -63 
Q 1178 -731 923 -1031 
Q 669 -1331 103 -1331 
L -116 -1331 
L -116 -844 
L 38 -844 
Q 366 -844 484 -692 
Q 603 -541 603 -63 
L 603 3500 
z
M 603 4863 
L 1178 4863 
L 1178 4134 
L 603 4134 
L 603 4863 
z
" transform="scale(0.015625)"/>
      </defs>
      <use xlink:href="#DejaVuSans-73"/>
      <use xlink:href="#DejaVuSans-63" x="52.099609"/>
      <use xlink:href="#DejaVuSans-69" x="107.080078"/>
      <use xlink:href="#DejaVuSans-6b" x="134.863281"/>
      <use xlink:href="#DejaVuSans-69" x="192.773438"/>
      <use xlink:href="#DejaVuSans-74" x="220.556641"/>
      <use xlink:href="#DejaVuSans-2d" x="259.765625"/>
      <use xlink:href="#DejaVuSans-68" x="295.849609"/>
      <use xlink:href="#DejaVuSans-65" x="359.228516"/>
      <use xlink:href="#DejaVuSans-70" x="420.751953"/>
      <use xlink:href="#DejaVuSans-2f" x="484.228516"/>
      <use xlink:href="#DejaVuSans-66" x="517.919922"/>
      <use xlink:href="#DejaVuSans-61" x="553.125"/>
      <use xlink:href="#DejaVuSans-73" x="614.404297"/>
      <use xlink:href="#DejaVuSans-74" x="666.503906"/>
      <use xlink:href="#DejaVuSans-6a" x="705.712891"/>
      <use xlink:href="#DejaVuSans-65" x="733.496094"/>
      <use xlink:href="#DejaVuSans-74" x="795.019531"/>
     </g>
    </g>
    <g id="line2d_67">
     <path d="M 885.021875 283.104687 
L 895.021875 283.104687 
L 905.021875 283.104687 
" style="fill: none; stroke: #000000; stroke-width: 3; stroke-linecap: square"/>
    </g>
    <g id="text_40">
     <!-- iris-hep/adl-benchmarks-index -->
     <g transform="translate(913.021875 286.604687) scale(0.1 -0.1)">
      <use xlink:href="#DejaVuSans-69"/>
      <use xlink:href="#DejaVuSans-72" x="27.783203"/>
      <use xlink:href="#DejaVuSans-69" x="68.896484"/>
      <use xlink:href="#DejaVuSans-73" x="96.679688"/>
      <use xlink:href="#DejaVuSans-2d" x="148.779297"/>
      <use xlink:href="#DejaVuSans-68" x="184.863281"/>
      <use xlink:href="#DejaVuSans-65" x="248.242188"/>
      <use xlink:href="#DejaVuSans-70" x="309.765625"/>
      <use xlink:href="#DejaVuSans-2f" x="373.242188"/>
      <use xlink:href="#DejaVuSans-61" x="406.933594"/>
      <use xlink:href="#DejaVuSans-64" x="468.212891"/>
      <use xlink:href="#DejaVuSans-6c" x="531.689453"/>
      <use xlink:href="#DejaVuSans-2d" x="559.472656"/>
      <use xlink:href="#DejaVuSans-62" x="595.556641"/>
      <use xlink:href="#DejaVuSans-65" x="659.033203"/>
      <use xlink:href="#DejaVuSans-6e" x="720.556641"/>
      <use xlink:href="#DejaVuSans-63" x="783.935547"/>
      <use xlink:href="#DejaVuSans-68" x="838.916016"/>
      <use xlink:href="#DejaVuSans-6d" x="902.294922"/>
      <use xlink:href="#DejaVuSans-61" x="999.707031"/>
      <use xlink:href="#DejaVuSans-72" x="1060.986328"/>
      <use xlink:href="#DejaVuSans-6b" x="1102.099609"/>
      <use xlink:href="#DejaVuSans-73" x="1160.009766"/>
      <use xlink:href="#DejaVuSans-2d" x="1212.109375"/>
      <use xlink:href="#DejaVuSans-69" x="1248.193359"/>
      <use xlink:href="#DejaVuSans-6e" x="1275.976562"/>
      <use xlink:href="#DejaVuSans-64" x="1339.355469"/>
      <use xlink:href="#DejaVuSans-65" x="1402.832031"/>
      <use xlink:href="#DejaVuSans-78" x="1462.605469"/>
     </g>
    </g>
    <g id="line2d_68">
     <path d="M 885.021875 297.782812 
L 895.021875 297.782812 
L 905.021875 297.782812 
" style="fill: none; stroke: #000000; stroke-width: 3; stroke-linecap: square"/>
    </g>
    <g id="text_41">
     <!-- diana-hep/excursion -->
     <g transform="translate(913.021875 301.282812) scale(0.1 -0.1)">
      <use xlink:href="#DejaVuSans-64"/>
      <use xlink:href="#DejaVuSans-69" x="63.476562"/>
      <use xlink:href="#DejaVuSans-61" x="91.259766"/>
      <use xlink:href="#DejaVuSans-6e" x="152.539062"/>
      <use xlink:href="#DejaVuSans-61" x="215.917969"/>
      <use xlink:href="#DejaVuSans-2d" x="277.197266"/>
      <use xlink:href="#DejaVuSans-68" x="313.28125"/>
      <use xlink:href="#DejaVuSans-65" x="376.660156"/>
      <use xlink:href="#DejaVuSans-70" x="438.183594"/>
      <use xlink:href="#DejaVuSans-2f" x="501.660156"/>
      <use xlink:href="#DejaVuSans-65" x="535.351562"/>
      <use xlink:href="#DejaVuSans-78" x="595.125"/>
      <use xlink:href="#DejaVuSans-63" x="652.554688"/>
      <use xlink:href="#DejaVuSans-75" x="707.535156"/>
      <use xlink:href="#DejaVuSans-72" x="770.914062"/>
      <use xlink:href="#DejaVuSans-73" x="812.027344"/>
      <use xlink:href="#DejaVuSans-69" x="864.126953"/>
      <use xlink:href="#DejaVuSans-6f" x="891.910156"/>
      <use xlink:href="#DejaVuSans-6e" x="953.091797"/>
     </g>
    </g>
    <g id="line2d_69">
     <path d="M 885.021875 312.460937 
L 895.021875 312.460937 
L 905.021875 312.460937 
" style="fill: none; stroke: #000000; stroke-width: 3; stroke-linecap: square"/>
    </g>
    <g id="text_42">
     <!-- iris-hep/func_adl_xAOD -->
     <g transform="translate(913.021875 315.960937) scale(0.1 -0.1)">
      <defs>
       <path id="DejaVuSans-5f" d="M 3263 -1063 
L 3263 -1509 
L -63 -1509 
L -63 -1063 
L 3263 -1063 
z
" transform="scale(0.015625)"/>
       <path id="DejaVuSans-4f" d="M 2522 4238 
Q 1834 4238 1429 3725 
Q 1025 3213 1025 2328 
Q 1025 1447 1429 934 
Q 1834 422 2522 422 
Q 3209 422 3611 934 
Q 4013 1447 4013 2328 
Q 4013 3213 3611 3725 
Q 3209 4238 2522 4238 
z
M 2522 4750 
Q 3503 4750 4090 4092 
Q 4678 3434 4678 2328 
Q 4678 1225 4090 567 
Q 3503 -91 2522 -91 
Q 1538 -91 948 565 
Q 359 1222 359 2328 
Q 359 3434 948 4092 
Q 1538 4750 2522 4750 
z
" transform="scale(0.015625)"/>
      </defs>
      <use xlink:href="#DejaVuSans-69"/>
      <use xlink:href="#DejaVuSans-72" x="27.783203"/>
      <use xlink:href="#DejaVuSans-69" x="68.896484"/>
      <use xlink:href="#DejaVuSans-73" x="96.679688"/>
      <use xlink:href="#DejaVuSans-2d" x="148.779297"/>
      <use xlink:href="#DejaVuSans-68" x="184.863281"/>
      <use xlink:href="#DejaVuSans-65" x="248.242188"/>
      <use xlink:href="#DejaVuSans-70" x="309.765625"/>
      <use xlink:href="#DejaVuSans-2f" x="373.242188"/>
      <use xlink:href="#DejaVuSans-66" x="406.933594"/>
      <use xlink:href="#DejaVuSans-75" x="442.138672"/>
      <use xlink:href="#DejaVuSans-6e" x="505.517578"/>
      <use xlink:href="#DejaVuSans-63" x="568.896484"/>
      <use xlink:href="#DejaVuSans-5f" x="623.876953"/>
      <use xlink:href="#DejaVuSans-61" x="673.876953"/>
      <use xlink:href="#DejaVuSans-64" x="735.15625"/>
      <use xlink:href="#DejaVuSans-6c" x="798.632812"/>
      <use xlink:href="#DejaVuSans-5f" x="826.416016"/>
      <use xlink:href="#DejaVuSans-78" x="876.416016"/>
      <use xlink:href="#DejaVuSans-41" x="935.595703"/>
      <use xlink:href="#DejaVuSans-4f" x="1002.253906"/>
      <use xlink:href="#DejaVuSans-44" x="1080.964844"/>
     </g>
    </g>
    <g id="line2d_70">
     <path d="M 885.021875 327.417187 
L 895.021875 327.417187 
L 905.021875 327.417187 
" style="fill: none; stroke: #000000; stroke-width: 3; stroke-linecap: square"/>
    </g>
    <g id="text_43">
     <!-- iris-hep/func_adl_servicex -->
     <g transform="translate(913.021875 330.917187) scale(0.1 -0.1)">
      <use xlink:href="#DejaVuSans-69"/>
      <use xlink:href="#DejaVuSans-72" x="27.783203"/>
      <use xlink:href="#DejaVuSans-69" x="68.896484"/>
      <use xlink:href="#DejaVuSans-73" x="96.679688"/>
      <use xlink:href="#DejaVuSans-2d" x="148.779297"/>
      <use xlink:href="#DejaVuSans-68" x="184.863281"/>
      <use xlink:href="#DejaVuSans-65" x="248.242188"/>
      <use xlink:href="#DejaVuSans-70" x="309.765625"/>
      <use xlink:href="#DejaVuSans-2f" x="373.242188"/>
      <use xlink:href="#DejaVuSans-66" x="406.933594"/>
      <use xlink:href="#DejaVuSans-75" x="442.138672"/>
      <use xlink:href="#DejaVuSans-6e" x="505.517578"/>
      <use xlink:href="#DejaVuSans-63" x="568.896484"/>
      <use xlink:href="#DejaVuSans-5f" x="623.876953"/>
      <use xlink:href="#DejaVuSans-61" x="673.876953"/>
      <use xlink:href="#DejaVuSans-64" x="735.15625"/>
      <use xlink:href="#DejaVuSans-6c" x="798.632812"/>
      <use xlink:href="#DejaVuSans-5f" x="826.416016"/>
      <use xlink:href="#DejaVuSans-73" x="876.416016"/>
      <use xlink:href="#DejaVuSans-65" x="928.515625"/>
      <use xlink:href="#DejaVuSans-72" x="990.039062"/>
      <use xlink:href="#DejaVuSans-76" x="1031.152344"/>
      <use xlink:href="#DejaVuSans-69" x="1090.332031"/>
      <use xlink:href="#DejaVuSans-63" x="1118.115234"/>
      <use xlink:href="#DejaVuSans-65" x="1173.095703"/>
      <use xlink:href="#DejaVuSans-78" x="1232.869141"/>
     </g>
    </g>
    <g id="line2d_71">
     <path d="M 885.021875 342.373437 
L 895.021875 342.373437 
L 905.021875 342.373437 
" style="fill: none; stroke: #000000; stroke-width: 3; stroke-linecap: square"/>
    </g>
    <g id="text_44">
     <!-- scailfin/madminer-workflow -->
     <g transform="translate(913.021875 345.873437) scale(0.1 -0.1)">
      <use xlink:href="#DejaVuSans-73"/>
      <use xlink:href="#DejaVuSans-63" x="52.099609"/>
      <use xlink:href="#DejaVuSans-61" x="107.080078"/>
      <use xlink:href="#DejaVuSans-69" x="168.359375"/>
      <use xlink:href="#DejaVuSans-6c" x="196.142578"/>
      <use xlink:href="#DejaVuSans-66" x="223.925781"/>
      <use xlink:href="#DejaVuSans-69" x="259.130859"/>
      <use xlink:href="#DejaVuSans-6e" x="286.914062"/>
      <use xlink:href="#DejaVuSans-2f" x="350.292969"/>
      <use xlink:href="#DejaVuSans-6d" x="383.984375"/>
      <use xlink:href="#DejaVuSans-61" x="481.396484"/>
      <use xlink:href="#DejaVuSans-64" x="542.675781"/>
      <use xlink:href="#DejaVuSans-6d" x="606.152344"/>
      <use xlink:href="#DejaVuSans-69" x="703.564453"/>
      <use xlink:href="#DejaVuSans-6e" x="731.347656"/>
      <use xlink:href="#DejaVuSans-65" x="794.726562"/>
      <use xlink:href="#DejaVuSans-72" x="856.25"/>
      <use xlink:href="#DejaVuSans-2d" x="890.988281"/>
      <use xlink:href="#DejaVuSans-77" x="927.072266"/>
      <use xlink:href="#DejaVuSans-6f" x="1008.859375"/>
      <use xlink:href="#DejaVuSans-72" x="1070.041016"/>
      <use xlink:href="#DejaVuSans-6b" x="1111.154297"/>
      <use xlink:href="#DejaVuSans-66" x="1169.064453"/>
      <use xlink:href="#DejaVuSans-6c" x="1204.269531"/>
      <use xlink:href="#DejaVuSans-6f" x="1232.052734"/>
      <use xlink:href="#DejaVuSans-77" x="1293.234375"/>
     </g>
    </g>
    <g id="line2d_72">
     <path d="M 885.021875 357.051562 
L 895.021875 357.051562 
L 905.021875 357.051562 
" style="fill: none; stroke: #000000; stroke-width: 3; stroke-linecap: square"/>
    </g>
    <g id="text_45">
     <!-- iris-hep/qastle -->
     <g transform="translate(913.021875 360.551562) scale(0.1 -0.1)">
      <defs>
       <path id="DejaVuSans-71" d="M 947 1747 
Q 947 1113 1208 752 
Q 1469 391 1925 391 
Q 2381 391 2643 752 
Q 2906 1113 2906 1747 
Q 2906 2381 2643 2742 
Q 2381 3103 1925 3103 
Q 1469 3103 1208 2742 
Q 947 2381 947 1747 
z
M 2906 525 
Q 2725 213 2448 61 
Q 2172 -91 1784 -91 
Q 1150 -91 751 415 
Q 353 922 353 1747 
Q 353 2572 751 3078 
Q 1150 3584 1784 3584 
Q 2172 3584 2448 3432 
Q 2725 3281 2906 2969 
L 2906 3500 
L 3481 3500 
L 3481 -1331 
L 2906 -1331 
L 2906 525 
z
" transform="scale(0.015625)"/>
      </defs>
      <use xlink:href="#DejaVuSans-69"/>
      <use xlink:href="#DejaVuSans-72" x="27.783203"/>
      <use xlink:href="#DejaVuSans-69" x="68.896484"/>
      <use xlink:href="#DejaVuSans-73" x="96.679688"/>
      <use xlink:href="#DejaVuSans-2d" x="148.779297"/>
      <use xlink:href="#DejaVuSans-68" x="184.863281"/>
      <use xlink:href="#DejaVuSans-65" x="248.242188"/>
      <use xlink:href="#DejaVuSans-70" x="309.765625"/>
      <use xlink:href="#DejaVuSans-2f" x="373.242188"/>
      <use xlink:href="#DejaVuSans-71" x="406.933594"/>
      <use xlink:href="#DejaVuSans-61" x="470.410156"/>
      <use xlink:href="#DejaVuSans-73" x="531.689453"/>
      <use xlink:href="#DejaVuSans-74" x="583.789062"/>
      <use xlink:href="#DejaVuSans-6c" x="622.998047"/>
      <use xlink:href="#DejaVuSans-65" x="650.78125"/>
     </g>
    </g>
    <g id="line2d_73">
     <path d="M 885.021875 371.729687 
L 895.021875 371.729687 
L 905.021875 371.729687 
" style="fill: none; stroke: #000000; stroke-width: 3; stroke-linecap: square"/>
    </g>
    <g id="text_46">
     <!-- scikit-hep/uhi -->
     <g transform="translate(913.021875 375.229687) scale(0.1 -0.1)">
      <use xlink:href="#DejaVuSans-73"/>
      <use xlink:href="#DejaVuSans-63" x="52.099609"/>
      <use xlink:href="#DejaVuSans-69" x="107.080078"/>
      <use xlink:href="#DejaVuSans-6b" x="134.863281"/>
      <use xlink:href="#DejaVuSans-69" x="192.773438"/>
      <use xlink:href="#DejaVuSans-74" x="220.556641"/>
      <use xlink:href="#DejaVuSans-2d" x="259.765625"/>
      <use xlink:href="#DejaVuSans-68" x="295.849609"/>
      <use xlink:href="#DejaVuSans-65" x="359.228516"/>
      <use xlink:href="#DejaVuSans-70" x="420.751953"/>
      <use xlink:href="#DejaVuSans-2f" x="484.228516"/>
      <use xlink:href="#DejaVuSans-75" x="517.919922"/>
      <use xlink:href="#DejaVuSans-68" x="581.298828"/>
      <use xlink:href="#DejaVuSans-69" x="644.677734"/>
     </g>
    </g>
    <g id="line2d_74">
     <path d="M 885.021875 386.407812 
L 895.021875 386.407812 
L 905.021875 386.407812 
" style="fill: none; stroke: #000000; stroke-width: 3; stroke-linecap: square"/>
    </g>
    <g id="text_47">
     <!-- iris-hep/func_adl -->
     <g transform="translate(913.021875 389.907812) scale(0.1 -0.1)">
      <use xlink:href="#DejaVuSans-69"/>
      <use xlink:href="#DejaVuSans-72" x="27.783203"/>
      <use xlink:href="#DejaVuSans-69" x="68.896484"/>
      <use xlink:href="#DejaVuSans-73" x="96.679688"/>
      <use xlink:href="#DejaVuSans-2d" x="148.779297"/>
      <use xlink:href="#DejaVuSans-68" x="184.863281"/>
      <use xlink:href="#DejaVuSans-65" x="248.242188"/>
      <use xlink:href="#DejaVuSans-70" x="309.765625"/>
      <use xlink:href="#DejaVuSans-2f" x="373.242188"/>
      <use xlink:href="#DejaVuSans-66" x="406.933594"/>
      <use xlink:href="#DejaVuSans-75" x="442.138672"/>
      <use xlink:href="#DejaVuSans-6e" x="505.517578"/>
      <use xlink:href="#DejaVuSans-63" x="568.896484"/>
      <use xlink:href="#DejaVuSans-5f" x="623.876953"/>
      <use xlink:href="#DejaVuSans-61" x="673.876953"/>
      <use xlink:href="#DejaVuSans-64" x="735.15625"/>
      <use xlink:href="#DejaVuSans-6c" x="798.632812"/>
     </g>
    </g>
    <g id="line2d_75">
     <path d="M 885.021875 401.364062 
L 895.021875 401.364062 
L 905.021875 401.364062 
" style="fill: none; stroke: #000000; stroke-width: 3; stroke-linecap: square"/>
    </g>
    <g id="text_48">
     <!-- iris-hep/func_adl_uproot -->
     <g transform="translate(913.021875 404.864062) scale(0.1 -0.1)">
      <use xlink:href="#DejaVuSans-69"/>
      <use xlink:href="#DejaVuSans-72" x="27.783203"/>
      <use xlink:href="#DejaVuSans-69" x="68.896484"/>
      <use xlink:href="#DejaVuSans-73" x="96.679688"/>
      <use xlink:href="#DejaVuSans-2d" x="148.779297"/>
      <use xlink:href="#DejaVuSans-68" x="184.863281"/>
      <use xlink:href="#DejaVuSans-65" x="248.242188"/>
      <use xlink:href="#DejaVuSans-70" x="309.765625"/>
      <use xlink:href="#DejaVuSans-2f" x="373.242188"/>
      <use xlink:href="#DejaVuSans-66" x="406.933594"/>
      <use xlink:href="#DejaVuSans-75" x="442.138672"/>
      <use xlink:href="#DejaVuSans-6e" x="505.517578"/>
      <use xlink:href="#DejaVuSans-63" x="568.896484"/>
      <use xlink:href="#DejaVuSans-5f" x="623.876953"/>
      <use xlink:href="#DejaVuSans-61" x="673.876953"/>
      <use xlink:href="#DejaVuSans-64" x="735.15625"/>
      <use xlink:href="#DejaVuSans-6c" x="798.632812"/>
      <use xlink:href="#DejaVuSans-5f" x="826.416016"/>
      <use xlink:href="#DejaVuSans-75" x="876.416016"/>
      <use xlink:href="#DejaVuSans-70" x="939.794922"/>
      <use xlink:href="#DejaVuSans-72" x="1003.271484"/>
      <use xlink:href="#DejaVuSans-6f" x="1042.134766"/>
      <use xlink:href="#DejaVuSans-6f" x="1103.316406"/>
      <use xlink:href="#DejaVuSans-74" x="1164.498047"/>
     </g>
    </g>
    <g id="line2d_76">
     <path d="M 885.021875 416.320312 
L 895.021875 416.320312 
L 905.021875 416.320312 
" style="fill: none; stroke: #000000; stroke-width: 3; stroke-linecap: square"/>
    </g>
    <g id="text_49">
     <!-- gordonwatts/hep_tables -->
     <g transform="translate(913.021875 419.820312) scale(0.1 -0.1)">
      <use xlink:href="#DejaVuSans-67"/>
      <use xlink:href="#DejaVuSans-6f" x="63.476562"/>
      <use xlink:href="#DejaVuSans-72" x="124.658203"/>
      <use xlink:href="#DejaVuSans-64" x="164.021484"/>
      <use xlink:href="#DejaVuSans-6f" x="227.498047"/>
      <use xlink:href="#DejaVuSans-6e" x="288.679688"/>
      <use xlink:href="#DejaVuSans-77" x="352.058594"/>
      <use xlink:href="#DejaVuSans-61" x="433.845703"/>
      <use xlink:href="#DejaVuSans-74" x="495.125"/>
      <use xlink:href="#DejaVuSans-74" x="534.333984"/>
      <use xlink:href="#DejaVuSans-73" x="573.542969"/>
      <use xlink:href="#DejaVuSans-2f" x="625.642578"/>
      <use xlink:href="#DejaVuSans-68" x="659.333984"/>
      <use xlink:href="#DejaVuSans-65" x="722.712891"/>
      <use xlink:href="#DejaVuSans-70" x="784.236328"/>
      <use xlink:href="#DejaVuSans-5f" x="847.712891"/>
      <use xlink:href="#DejaVuSans-74" x="897.712891"/>
      <use xlink:href="#DejaVuSans-61" x="936.921875"/>
      <use xlink:href="#DejaVuSans-62" x="998.201172"/>
      <use xlink:href="#DejaVuSans-6c" x="1061.677734"/>
      <use xlink:href="#DejaVuSans-65" x="1089.460938"/>
      <use xlink:href="#DejaVuSans-73" x="1150.984375"/>
     </g>
    </g>
   </g>
  </g>
 </g>
 <defs>
  <clipPath id="pb342c533f3">
   <rect x="48.17" y="10.8" width="779.593455" height="663.64"/>
  </clipPath>
 </defs>
</svg>
