<?xml version="1.0" encoding="utf-8" standalone="no"?>
<!DOCTYPE svg PUBLIC "-//W3C//DTD SVG 1.1//EN"
  "http://www.w3.org/Graphics/SVG/1.1/DTD/svg11.dtd">
<svg xmlns:xlink="http://www.w3.org/1999/xlink" width="1080pt" height="720pt" viewBox="0 0 1080 720" xmlns="http://www.w3.org/2000/svg" version="1.1">
 <metadata>
  <rdf:RDF xmlns:dc="http://purl.org/dc/elements/1.1/" xmlns:cc="http://creativecommons.org/ns#" xmlns:rdf="http://www.w3.org/1999/02/22-rdf-syntax-ns#">
   <cc:Work>
    <dc:type rdf:resource="http://purl.org/dc/dcmitype/StillImage"/>
    <dc:date>2024-07-02T00:29:30.889471</dc:date>
    <dc:format>image/svg+xml</dc:format>
    <dc:creator>
     <cc:Agent>
      <dc:title>Matplotlib v3.8.4, https://matplotlib.org/</dc:title>
     </cc:Agent>
    </dc:creator>
   </cc:Work>
  </rdf:RDF>
 </metadata>
 <defs>
  <style type="text/css">*{stroke-linejoin: round; stroke-linecap: butt}</style>
 </defs>
 <g id="figure_1">
  <g id="patch_1">
   <path d="M 0 720 
L 1080 720 
L 1080 0 
L 0 0 
z
" style="fill: #ffffff"/>
  </g>
  <g id="axes_1">
   <g id="patch_2">
    <path d="M 48.17 674.44 
L 826.930992 674.44 
L 826.930992 11.473043 
L 48.17 11.473043 
z
" style="fill: #ffffff"/>
   </g>
   <g id="matplotlib.axis_1">
    <g id="xtick_1">
     <g id="line2d_1">
      <defs>
       <path id="mdb684ba8c5" d="M 0 0 
L 0 3.5 
" style="stroke: #000000; stroke-width: 0.8"/>
      </defs>
      <g>
       <use xlink:href="#mdb684ba8c5" x="83.568227" y="674.44" style="stroke: #000000; stroke-width: 0.8"/>
      </g>
     </g>
     <g id="text_1">
      <!-- 2021-09-16 -->
      <g transform="translate(54.510414 689.038437) scale(0.1 -0.1)">
       <defs>
        <path id="DejaVuSans-32" d="M 1228 531 
L 3431 531 
L 3431 0 
L 469 0 
L 469 531 
Q 828 903 1448 1529 
Q 2069 2156 2228 2338 
Q 2531 2678 2651 2914 
Q 2772 3150 2772 3378 
Q 2772 3750 2511 3984 
Q 2250 4219 1831 4219 
Q 1534 4219 1204 4116 
Q 875 4013 500 3803 
L 500 4441 
Q 881 4594 1212 4672 
Q 1544 4750 1819 4750 
Q 2544 4750 2975 4387 
Q 3406 4025 3406 3419 
Q 3406 3131 3298 2873 
Q 3191 2616 2906 2266 
Q 2828 2175 2409 1742 
Q 1991 1309 1228 531 
z
" transform="scale(0.015625)"/>
        <path id="DejaVuSans-30" d="M 2034 4250 
Q 1547 4250 1301 3770 
Q 1056 3291 1056 2328 
Q 1056 1369 1301 889 
Q 1547 409 2034 409 
Q 2525 409 2770 889 
Q 3016 1369 3016 2328 
Q 3016 3291 2770 3770 
Q 2525 4250 2034 4250 
z
M 2034 4750 
Q 2819 4750 3233 4129 
Q 3647 3509 3647 2328 
Q 3647 1150 3233 529 
Q 2819 -91 2034 -91 
Q 1250 -91 836 529 
Q 422 1150 422 2328 
Q 422 3509 836 4129 
Q 1250 4750 2034 4750 
z
" transform="scale(0.015625)"/>
        <path id="DejaVuSans-31" d="M 794 531 
L 1825 531 
L 1825 4091 
L 703 3866 
L 703 4441 
L 1819 4666 
L 2450 4666 
L 2450 531 
L 3481 531 
L 3481 0 
L 794 0 
L 794 531 
z
" transform="scale(0.015625)"/>
        <path id="DejaVuSans-2d" d="M 313 2009 
L 1997 2009 
L 1997 1497 
L 313 1497 
L 313 2009 
z
" transform="scale(0.015625)"/>
        <path id="DejaVuSans-39" d="M 703 97 
L 703 672 
Q 941 559 1184 500 
Q 1428 441 1663 441 
Q 2288 441 2617 861 
Q 2947 1281 2994 2138 
Q 2813 1869 2534 1725 
Q 2256 1581 1919 1581 
Q 1219 1581 811 2004 
Q 403 2428 403 3163 
Q 403 3881 828 4315 
Q 1253 4750 1959 4750 
Q 2769 4750 3195 4129 
Q 3622 3509 3622 2328 
Q 3622 1225 3098 567 
Q 2575 -91 1691 -91 
Q 1453 -91 1209 -44 
Q 966 3 703 97 
z
M 1959 2075 
Q 2384 2075 2632 2365 
Q 2881 2656 2881 3163 
Q 2881 3666 2632 3958 
Q 2384 4250 1959 4250 
Q 1534 4250 1286 3958 
Q 1038 3666 1038 3163 
Q 1038 2656 1286 2365 
Q 1534 2075 1959 2075 
z
" transform="scale(0.015625)"/>
        <path id="DejaVuSans-36" d="M 2113 2584 
Q 1688 2584 1439 2293 
Q 1191 2003 1191 1497 
Q 1191 994 1439 701 
Q 1688 409 2113 409 
Q 2538 409 2786 701 
Q 3034 994 3034 1497 
Q 3034 2003 2786 2293 
Q 2538 2584 2113 2584 
z
M 3366 4563 
L 3366 3988 
Q 3128 4100 2886 4159 
Q 2644 4219 2406 4219 
Q 1781 4219 1451 3797 
Q 1122 3375 1075 2522 
Q 1259 2794 1537 2939 
Q 1816 3084 2150 3084 
Q 2853 3084 3261 2657 
Q 3669 2231 3669 1497 
Q 3669 778 3244 343 
Q 2819 -91 2113 -91 
Q 1303 -91 875 529 
Q 447 1150 447 2328 
Q 447 3434 972 4092 
Q 1497 4750 2381 4750 
Q 2619 4750 2861 4703 
Q 3103 4656 3366 4563 
z
" transform="scale(0.015625)"/>
       </defs>
       <use xlink:href="#DejaVuSans-32"/>
       <use xlink:href="#DejaVuSans-30" x="63.623047"/>
       <use xlink:href="#DejaVuSans-32" x="127.246094"/>
       <use xlink:href="#DejaVuSans-31" x="190.869141"/>
       <use xlink:href="#DejaVuSans-2d" x="254.492188"/>
       <use xlink:href="#DejaVuSans-30" x="290.576172"/>
       <use xlink:href="#DejaVuSans-39" x="354.199219"/>
       <use xlink:href="#DejaVuSans-2d" x="417.822266"/>
       <use xlink:href="#DejaVuSans-31" x="453.90625"/>
       <use xlink:href="#DejaVuSans-36" x="517.529297"/>
      </g>
     </g>
    </g>
    <g id="xtick_2">
     <g id="line2d_2">
      <g>
       <use xlink:href="#mdb684ba8c5" x="170.791784" y="674.44" style="stroke: #000000; stroke-width: 0.8"/>
      </g>
     </g>
     <g id="text_2">
      <!-- 2022-01-26 -->
      <g transform="translate(141.733971 689.038437) scale(0.1 -0.1)">
       <use xlink:href="#DejaVuSans-32"/>
       <use xlink:href="#DejaVuSans-30" x="63.623047"/>
       <use xlink:href="#DejaVuSans-32" x="127.246094"/>
       <use xlink:href="#DejaVuSans-32" x="190.869141"/>
       <use xlink:href="#DejaVuSans-2d" x="254.492188"/>
       <use xlink:href="#DejaVuSans-30" x="290.576172"/>
       <use xlink:href="#DejaVuSans-31" x="354.199219"/>
       <use xlink:href="#DejaVuSans-2d" x="417.822266"/>
       <use xlink:href="#DejaVuSans-32" x="453.90625"/>
       <use xlink:href="#DejaVuSans-36" x="517.529297"/>
      </g>
     </g>
    </g>
    <g id="xtick_3">
     <g id="line2d_3">
      <g>
       <use xlink:href="#mdb684ba8c5" x="260.19593" y="674.44" style="stroke: #000000; stroke-width: 0.8"/>
      </g>
     </g>
     <g id="text_3">
      <!-- 2022-05-29 -->
      <g transform="translate(231.138117 689.038437) scale(0.1 -0.1)">
       <defs>
        <path id="DejaVuSans-35" d="M 691 4666 
L 3169 4666 
L 3169 4134 
L 1269 4134 
L 1269 2991 
Q 1406 3038 1543 3061 
Q 1681 3084 1819 3084 
Q 2600 3084 3056 2656 
Q 3513 2228 3513 1497 
Q 3513 744 3044 326 
Q 2575 -91 1722 -91 
Q 1428 -91 1123 -41 
Q 819 9 494 109 
L 494 744 
Q 775 591 1075 516 
Q 1375 441 1709 441 
Q 2250 441 2565 725 
Q 2881 1009 2881 1497 
Q 2881 1984 2565 2268 
Q 2250 2553 1709 2553 
Q 1456 2553 1204 2497 
Q 953 2441 691 2322 
L 691 4666 
z
" transform="scale(0.015625)"/>
       </defs>
       <use xlink:href="#DejaVuSans-32"/>
       <use xlink:href="#DejaVuSans-30" x="63.623047"/>
       <use xlink:href="#DejaVuSans-32" x="127.246094"/>
       <use xlink:href="#DejaVuSans-32" x="190.869141"/>
       <use xlink:href="#DejaVuSans-2d" x="254.492188"/>
       <use xlink:href="#DejaVuSans-30" x="290.576172"/>
       <use xlink:href="#DejaVuSans-35" x="354.199219"/>
       <use xlink:href="#DejaVuSans-2d" x="417.822266"/>
       <use xlink:href="#DejaVuSans-32" x="453.90625"/>
       <use xlink:href="#DejaVuSans-39" x="517.529297"/>
      </g>
     </g>
    </g>
    <g id="xtick_4">
     <g id="line2d_4">
      <g>
       <use xlink:href="#mdb684ba8c5" x="348.873213" y="674.44" style="stroke: #000000; stroke-width: 0.8"/>
      </g>
     </g>
     <g id="text_4">
      <!-- 2022-10-04 -->
      <g transform="translate(319.8154 689.038437) scale(0.1 -0.1)">
       <defs>
        <path id="DejaVuSans-34" d="M 2419 4116 
L 825 1625 
L 2419 1625 
L 2419 4116 
z
M 2253 4666 
L 3047 4666 
L 3047 1625 
L 3713 1625 
L 3713 1100 
L 3047 1100 
L 3047 0 
L 2419 0 
L 2419 1100 
L 313 1100 
L 313 1709 
L 2253 4666 
z
" transform="scale(0.015625)"/>
       </defs>
       <use xlink:href="#DejaVuSans-32"/>
       <use xlink:href="#DejaVuSans-30" x="63.623047"/>
       <use xlink:href="#DejaVuSans-32" x="127.246094"/>
       <use xlink:href="#DejaVuSans-32" x="190.869141"/>
       <use xlink:href="#DejaVuSans-2d" x="254.492188"/>
       <use xlink:href="#DejaVuSans-31" x="290.576172"/>
       <use xlink:href="#DejaVuSans-30" x="354.199219"/>
       <use xlink:href="#DejaVuSans-2d" x="417.822266"/>
       <use xlink:href="#DejaVuSans-30" x="453.90625"/>
       <use xlink:href="#DejaVuSans-34" x="517.529297"/>
      </g>
     </g>
    </g>
    <g id="xtick_5">
     <g id="line2d_5">
      <g>
       <use xlink:href="#mdb684ba8c5" x="436.09677" y="674.44" style="stroke: #000000; stroke-width: 0.8"/>
      </g>
     </g>
     <g id="text_5">
      <!-- 2023-02-01 -->
      <g transform="translate(407.038957 689.038437) scale(0.1 -0.1)">
       <defs>
        <path id="DejaVuSans-33" d="M 2597 2516 
Q 3050 2419 3304 2112 
Q 3559 1806 3559 1356 
Q 3559 666 3084 287 
Q 2609 -91 1734 -91 
Q 1441 -91 1130 -33 
Q 819 25 488 141 
L 488 750 
Q 750 597 1062 519 
Q 1375 441 1716 441 
Q 2309 441 2620 675 
Q 2931 909 2931 1356 
Q 2931 1769 2642 2001 
Q 2353 2234 1838 2234 
L 1294 2234 
L 1294 2753 
L 1863 2753 
Q 2328 2753 2575 2939 
Q 2822 3125 2822 3475 
Q 2822 3834 2567 4026 
Q 2313 4219 1838 4219 
Q 1578 4219 1281 4162 
Q 984 4106 628 3988 
L 628 4550 
Q 988 4650 1302 4700 
Q 1616 4750 1894 4750 
Q 2613 4750 3031 4423 
Q 3450 4097 3450 3541 
Q 3450 3153 3228 2886 
Q 3006 2619 2597 2516 
z
" transform="scale(0.015625)"/>
       </defs>
       <use xlink:href="#DejaVuSans-32"/>
       <use xlink:href="#DejaVuSans-30" x="63.623047"/>
       <use xlink:href="#DejaVuSans-32" x="127.246094"/>
       <use xlink:href="#DejaVuSans-33" x="190.869141"/>
       <use xlink:href="#DejaVuSans-2d" x="254.492188"/>
       <use xlink:href="#DejaVuSans-30" x="290.576172"/>
       <use xlink:href="#DejaVuSans-32" x="354.199219"/>
       <use xlink:href="#DejaVuSans-2d" x="417.822266"/>
       <use xlink:href="#DejaVuSans-30" x="453.90625"/>
       <use xlink:href="#DejaVuSans-31" x="517.529297"/>
      </g>
     </g>
    </g>
    <g id="xtick_6">
     <g id="line2d_6">
      <g>
       <use xlink:href="#mdb684ba8c5" x="525.500916" y="674.44" style="stroke: #000000; stroke-width: 0.8"/>
      </g>
     </g>
     <g id="text_6">
      <!-- 2023-06-04 -->
      <g transform="translate(496.443103 689.038437) scale(0.1 -0.1)">
       <use xlink:href="#DejaVuSans-32"/>
       <use xlink:href="#DejaVuSans-30" x="63.623047"/>
       <use xlink:href="#DejaVuSans-32" x="127.246094"/>
       <use xlink:href="#DejaVuSans-33" x="190.869141"/>
       <use xlink:href="#DejaVuSans-2d" x="254.492188"/>
       <use xlink:href="#DejaVuSans-30" x="290.576172"/>
       <use xlink:href="#DejaVuSans-36" x="354.199219"/>
       <use xlink:href="#DejaVuSans-2d" x="417.822266"/>
       <use xlink:href="#DejaVuSans-30" x="453.90625"/>
       <use xlink:href="#DejaVuSans-34" x="517.529297"/>
      </g>
     </g>
    </g>
    <g id="xtick_7">
     <g id="line2d_7">
      <g>
       <use xlink:href="#mdb684ba8c5" x="614.178199" y="674.44" style="stroke: #000000; stroke-width: 0.8"/>
      </g>
     </g>
     <g id="text_7">
      <!-- 2023-11-01 -->
      <g transform="translate(585.120386 689.038437) scale(0.1 -0.1)">
       <use xlink:href="#DejaVuSans-32"/>
       <use xlink:href="#DejaVuSans-30" x="63.623047"/>
       <use xlink:href="#DejaVuSans-32" x="127.246094"/>
       <use xlink:href="#DejaVuSans-33" x="190.869141"/>
       <use xlink:href="#DejaVuSans-2d" x="254.492188"/>
       <use xlink:href="#DejaVuSans-31" x="290.576172"/>
       <use xlink:href="#DejaVuSans-31" x="354.199219"/>
       <use xlink:href="#DejaVuSans-2d" x="417.822266"/>
       <use xlink:href="#DejaVuSans-30" x="453.90625"/>
       <use xlink:href="#DejaVuSans-31" x="517.529297"/>
      </g>
     </g>
    </g>
    <g id="xtick_8">
     <g id="line2d_8">
      <g>
       <use xlink:href="#mdb684ba8c5" x="702.128619" y="674.44" style="stroke: #000000; stroke-width: 0.8"/>
      </g>
     </g>
     <g id="text_8">
      <!-- 2024-03-01 -->
      <g transform="translate(673.070806 689.038437) scale(0.1 -0.1)">
       <use xlink:href="#DejaVuSans-32"/>
       <use xlink:href="#DejaVuSans-30" x="63.623047"/>
       <use xlink:href="#DejaVuSans-32" x="127.246094"/>
       <use xlink:href="#DejaVuSans-34" x="190.869141"/>
       <use xlink:href="#DejaVuSans-2d" x="254.492188"/>
       <use xlink:href="#DejaVuSans-30" x="290.576172"/>
       <use xlink:href="#DejaVuSans-33" x="354.199219"/>
       <use xlink:href="#DejaVuSans-2d" x="417.822266"/>
       <use xlink:href="#DejaVuSans-30" x="453.90625"/>
       <use xlink:href="#DejaVuSans-31" x="517.529297"/>
      </g>
     </g>
    </g>
    <g id="xtick_9">
     <g id="line2d_9">
      <g>
       <use xlink:href="#mdb684ba8c5" x="791.532765" y="674.44" style="stroke: #000000; stroke-width: 0.8"/>
      </g>
     </g>
     <g id="text_9">
      <!-- 2024-07-02 -->
      <g transform="translate(762.474952 689.038437) scale(0.1 -0.1)">
       <defs>
        <path id="DejaVuSans-37" d="M 525 4666 
L 3525 4666 
L 3525 4397 
L 1831 0 
L 1172 0 
L 2766 4134 
L 525 4134 
L 525 4666 
z
" transform="scale(0.015625)"/>
       </defs>
       <use xlink:href="#DejaVuSans-32"/>
       <use xlink:href="#DejaVuSans-30" x="63.623047"/>
       <use xlink:href="#DejaVuSans-32" x="127.246094"/>
       <use xlink:href="#DejaVuSans-34" x="190.869141"/>
       <use xlink:href="#DejaVuSans-2d" x="254.492188"/>
       <use xlink:href="#DejaVuSans-30" x="290.576172"/>
       <use xlink:href="#DejaVuSans-37" x="354.199219"/>
       <use xlink:href="#DejaVuSans-2d" x="417.822266"/>
       <use xlink:href="#DejaVuSans-30" x="453.90625"/>
       <use xlink:href="#DejaVuSans-32" x="517.529297"/>
      </g>
     </g>
    </g>
    <g id="text_10">
     <!-- Date -->
     <g transform="translate(420.819402 705.755937) scale(0.14 -0.14)">
      <defs>
       <path id="DejaVuSans-44" d="M 1259 4147 
L 1259 519 
L 2022 519 
Q 2988 519 3436 956 
Q 3884 1394 3884 2338 
Q 3884 3275 3436 3711 
Q 2988 4147 2022 4147 
L 1259 4147 
z
M 628 4666 
L 1925 4666 
Q 3281 4666 3915 4102 
Q 4550 3538 4550 2338 
Q 4550 1131 3912 565 
Q 3275 0 1925 0 
L 628 0 
L 628 4666 
z
" transform="scale(0.015625)"/>
       <path id="DejaVuSans-61" d="M 2194 1759 
Q 1497 1759 1228 1600 
Q 959 1441 959 1056 
Q 959 750 1161 570 
Q 1363 391 1709 391 
Q 2188 391 2477 730 
Q 2766 1069 2766 1631 
L 2766 1759 
L 2194 1759 
z
M 3341 1997 
L 3341 0 
L 2766 0 
L 2766 531 
Q 2569 213 2275 61 
Q 1981 -91 1556 -91 
Q 1019 -91 701 211 
Q 384 513 384 1019 
Q 384 1609 779 1909 
Q 1175 2209 1959 2209 
L 2766 2209 
L 2766 2266 
Q 2766 2663 2505 2880 
Q 2244 3097 1772 3097 
Q 1472 3097 1187 3025 
Q 903 2953 641 2809 
L 641 3341 
Q 956 3463 1253 3523 
Q 1550 3584 1831 3584 
Q 2591 3584 2966 3190 
Q 3341 2797 3341 1997 
z
" transform="scale(0.015625)"/>
       <path id="DejaVuSans-74" d="M 1172 4494 
L 1172 3500 
L 2356 3500 
L 2356 3053 
L 1172 3053 
L 1172 1153 
Q 1172 725 1289 603 
Q 1406 481 1766 481 
L 2356 481 
L 2356 0 
L 1766 0 
Q 1100 0 847 248 
Q 594 497 594 1153 
L 594 3053 
L 172 3053 
L 172 3500 
L 594 3500 
L 594 4494 
L 1172 4494 
z
" transform="scale(0.015625)"/>
       <path id="DejaVuSans-65" d="M 3597 1894 
L 3597 1613 
L 953 1613 
Q 991 1019 1311 708 
Q 1631 397 2203 397 
Q 2534 397 2845 478 
Q 3156 559 3463 722 
L 3463 178 
Q 3153 47 2828 -22 
Q 2503 -91 2169 -91 
Q 1331 -91 842 396 
Q 353 884 353 1716 
Q 353 2575 817 3079 
Q 1281 3584 2069 3584 
Q 2775 3584 3186 3129 
Q 3597 2675 3597 1894 
z
M 3022 2063 
Q 3016 2534 2758 2815 
Q 2500 3097 2075 3097 
Q 1594 3097 1305 2825 
Q 1016 2553 972 2059 
L 3022 2063 
z
" transform="scale(0.015625)"/>
      </defs>
      <use xlink:href="#DejaVuSans-44"/>
      <use xlink:href="#DejaVuSans-61" x="77.001953"/>
      <use xlink:href="#DejaVuSans-74" x="138.28125"/>
      <use xlink:href="#DejaVuSans-65" x="177.490234"/>
     </g>
    </g>
   </g>
   <g id="matplotlib.axis_2">
    <g id="ytick_1">
     <g id="line2d_10">
      <defs>
       <path id="m4a26403925" d="M 0 0 
L -3.5 0 
" style="stroke: #000000; stroke-width: 0.8"/>
      </defs>
      <g>
       <use xlink:href="#m4a26403925" x="48.17" y="670.509366" style="stroke: #000000; stroke-width: 0.8"/>
      </g>
     </g>
     <g id="text_11">
      <!-- 0 -->
      <g transform="translate(34.8075 674.308585) scale(0.1 -0.1)">
       <use xlink:href="#DejaVuSans-30"/>
      </g>
     </g>
    </g>
    <g id="ytick_2">
     <g id="line2d_11">
      <g>
       <use xlink:href="#m4a26403925" x="48.17" y="539.488228" style="stroke: #000000; stroke-width: 0.8"/>
      </g>
     </g>
     <g id="text_12">
      <!-- 5 -->
      <g transform="translate(34.8075 543.287447) scale(0.1 -0.1)">
       <use xlink:href="#DejaVuSans-35"/>
      </g>
     </g>
    </g>
    <g id="ytick_3">
     <g id="line2d_12">
      <g>
       <use xlink:href="#m4a26403925" x="48.17" y="408.467091" style="stroke: #000000; stroke-width: 0.8"/>
      </g>
     </g>
     <g id="text_13">
      <!-- 10 -->
      <g transform="translate(28.445 412.266309) scale(0.1 -0.1)">
       <use xlink:href="#DejaVuSans-31"/>
       <use xlink:href="#DejaVuSans-30" x="63.623047"/>
      </g>
     </g>
    </g>
    <g id="ytick_4">
     <g id="line2d_13">
      <g>
       <use xlink:href="#m4a26403925" x="48.17" y="277.445953" style="stroke: #000000; stroke-width: 0.8"/>
      </g>
     </g>
     <g id="text_14">
      <!-- 15 -->
      <g transform="translate(28.445 281.245172) scale(0.1 -0.1)">
       <use xlink:href="#DejaVuSans-31"/>
       <use xlink:href="#DejaVuSans-35" x="63.623047"/>
      </g>
     </g>
    </g>
    <g id="ytick_5">
     <g id="line2d_14">
      <g>
       <use xlink:href="#m4a26403925" x="48.17" y="146.424815" style="stroke: #000000; stroke-width: 0.8"/>
      </g>
     </g>
     <g id="text_15">
      <!-- 20 -->
      <g transform="translate(28.445 150.224034) scale(0.1 -0.1)">
       <use xlink:href="#DejaVuSans-32"/>
       <use xlink:href="#DejaVuSans-30" x="63.623047"/>
      </g>
     </g>
    </g>
    <g id="ytick_6">
     <g id="line2d_15">
      <g>
       <use xlink:href="#m4a26403925" x="48.17" y="15.403678" style="stroke: #000000; stroke-width: 0.8"/>
      </g>
     </g>
     <g id="text_16">
      <!-- 25 -->
      <g transform="translate(28.445 19.202896) scale(0.1 -0.1)">
       <use xlink:href="#DejaVuSans-32"/>
       <use xlink:href="#DejaVuSans-35" x="63.623047"/>
      </g>
     </g>
    </g>
    <g id="text_17">
     <!-- Number of watchers -->
     <g transform="translate(21.533438 414.148709) rotate(-90) scale(0.14 -0.14)">
      <defs>
       <path id="DejaVuSans-4e" d="M 628 4666 
L 1478 4666 
L 3547 763 
L 3547 4666 
L 4159 4666 
L 4159 0 
L 3309 0 
L 1241 3903 
L 1241 0 
L 628 0 
L 628 4666 
z
" transform="scale(0.015625)"/>
       <path id="DejaVuSans-75" d="M 544 1381 
L 544 3500 
L 1119 3500 
L 1119 1403 
Q 1119 906 1312 657 
Q 1506 409 1894 409 
Q 2359 409 2629 706 
Q 2900 1003 2900 1516 
L 2900 3500 
L 3475 3500 
L 3475 0 
L 2900 0 
L 2900 538 
Q 2691 219 2414 64 
Q 2138 -91 1772 -91 
Q 1169 -91 856 284 
Q 544 659 544 1381 
z
M 1991 3584 
L 1991 3584 
z
" transform="scale(0.015625)"/>
       <path id="DejaVuSans-6d" d="M 3328 2828 
Q 3544 3216 3844 3400 
Q 4144 3584 4550 3584 
Q 5097 3584 5394 3201 
Q 5691 2819 5691 2113 
L 5691 0 
L 5113 0 
L 5113 2094 
Q 5113 2597 4934 2840 
Q 4756 3084 4391 3084 
Q 3944 3084 3684 2787 
Q 3425 2491 3425 1978 
L 3425 0 
L 2847 0 
L 2847 2094 
Q 2847 2600 2669 2842 
Q 2491 3084 2119 3084 
Q 1678 3084 1418 2786 
Q 1159 2488 1159 1978 
L 1159 0 
L 581 0 
L 581 3500 
L 1159 3500 
L 1159 2956 
Q 1356 3278 1631 3431 
Q 1906 3584 2284 3584 
Q 2666 3584 2933 3390 
Q 3200 3197 3328 2828 
z
" transform="scale(0.015625)"/>
       <path id="DejaVuSans-62" d="M 3116 1747 
Q 3116 2381 2855 2742 
Q 2594 3103 2138 3103 
Q 1681 3103 1420 2742 
Q 1159 2381 1159 1747 
Q 1159 1113 1420 752 
Q 1681 391 2138 391 
Q 2594 391 2855 752 
Q 3116 1113 3116 1747 
z
M 1159 2969 
Q 1341 3281 1617 3432 
Q 1894 3584 2278 3584 
Q 2916 3584 3314 3078 
Q 3713 2572 3713 1747 
Q 3713 922 3314 415 
Q 2916 -91 2278 -91 
Q 1894 -91 1617 61 
Q 1341 213 1159 525 
L 1159 0 
L 581 0 
L 581 4863 
L 1159 4863 
L 1159 2969 
z
" transform="scale(0.015625)"/>
       <path id="DejaVuSans-72" d="M 2631 2963 
Q 2534 3019 2420 3045 
Q 2306 3072 2169 3072 
Q 1681 3072 1420 2755 
Q 1159 2438 1159 1844 
L 1159 0 
L 581 0 
L 581 3500 
L 1159 3500 
L 1159 2956 
Q 1341 3275 1631 3429 
Q 1922 3584 2338 3584 
Q 2397 3584 2469 3576 
Q 2541 3569 2628 3553 
L 2631 2963 
z
" transform="scale(0.015625)"/>
       <path id="DejaVuSans-20" transform="scale(0.015625)"/>
       <path id="DejaVuSans-6f" d="M 1959 3097 
Q 1497 3097 1228 2736 
Q 959 2375 959 1747 
Q 959 1119 1226 758 
Q 1494 397 1959 397 
Q 2419 397 2687 759 
Q 2956 1122 2956 1747 
Q 2956 2369 2687 2733 
Q 2419 3097 1959 3097 
z
M 1959 3584 
Q 2709 3584 3137 3096 
Q 3566 2609 3566 1747 
Q 3566 888 3137 398 
Q 2709 -91 1959 -91 
Q 1206 -91 779 398 
Q 353 888 353 1747 
Q 353 2609 779 3096 
Q 1206 3584 1959 3584 
z
" transform="scale(0.015625)"/>
       <path id="DejaVuSans-66" d="M 2375 4863 
L 2375 4384 
L 1825 4384 
Q 1516 4384 1395 4259 
Q 1275 4134 1275 3809 
L 1275 3500 
L 2222 3500 
L 2222 3053 
L 1275 3053 
L 1275 0 
L 697 0 
L 697 3053 
L 147 3053 
L 147 3500 
L 697 3500 
L 697 3744 
Q 697 4328 969 4595 
Q 1241 4863 1831 4863 
L 2375 4863 
z
" transform="scale(0.015625)"/>
       <path id="DejaVuSans-77" d="M 269 3500 
L 844 3500 
L 1563 769 
L 2278 3500 
L 2956 3500 
L 3675 769 
L 4391 3500 
L 4966 3500 
L 4050 0 
L 3372 0 
L 2619 2869 
L 1863 0 
L 1184 0 
L 269 3500 
z
" transform="scale(0.015625)"/>
       <path id="DejaVuSans-63" d="M 3122 3366 
L 3122 2828 
Q 2878 2963 2633 3030 
Q 2388 3097 2138 3097 
Q 1578 3097 1268 2742 
Q 959 2388 959 1747 
Q 959 1106 1268 751 
Q 1578 397 2138 397 
Q 2388 397 2633 464 
Q 2878 531 3122 666 
L 3122 134 
Q 2881 22 2623 -34 
Q 2366 -91 2075 -91 
Q 1284 -91 818 406 
Q 353 903 353 1747 
Q 353 2603 823 3093 
Q 1294 3584 2113 3584 
Q 2378 3584 2631 3529 
Q 2884 3475 3122 3366 
z
" transform="scale(0.015625)"/>
       <path id="DejaVuSans-68" d="M 3513 2113 
L 3513 0 
L 2938 0 
L 2938 2094 
Q 2938 2591 2744 2837 
Q 2550 3084 2163 3084 
Q 1697 3084 1428 2787 
Q 1159 2491 1159 1978 
L 1159 0 
L 581 0 
L 581 4863 
L 1159 4863 
L 1159 2956 
Q 1366 3272 1645 3428 
Q 1925 3584 2291 3584 
Q 2894 3584 3203 3211 
Q 3513 2838 3513 2113 
z
" transform="scale(0.015625)"/>
       <path id="DejaVuSans-73" d="M 2834 3397 
L 2834 2853 
Q 2591 2978 2328 3040 
Q 2066 3103 1784 3103 
Q 1356 3103 1142 2972 
Q 928 2841 928 2578 
Q 928 2378 1081 2264 
Q 1234 2150 1697 2047 
L 1894 2003 
Q 2506 1872 2764 1633 
Q 3022 1394 3022 966 
Q 3022 478 2636 193 
Q 2250 -91 1575 -91 
Q 1294 -91 989 -36 
Q 684 19 347 128 
L 347 722 
Q 666 556 975 473 
Q 1284 391 1588 391 
Q 1994 391 2212 530 
Q 2431 669 2431 922 
Q 2431 1156 2273 1281 
Q 2116 1406 1581 1522 
L 1381 1569 
Q 847 1681 609 1914 
Q 372 2147 372 2553 
Q 372 3047 722 3315 
Q 1072 3584 1716 3584 
Q 2034 3584 2315 3537 
Q 2597 3491 2834 3397 
z
" transform="scale(0.015625)"/>
      </defs>
      <use xlink:href="#DejaVuSans-4e"/>
      <use xlink:href="#DejaVuSans-75" x="74.804688"/>
      <use xlink:href="#DejaVuSans-6d" x="138.183594"/>
      <use xlink:href="#DejaVuSans-62" x="235.595703"/>
      <use xlink:href="#DejaVuSans-65" x="299.072266"/>
      <use xlink:href="#DejaVuSans-72" x="360.595703"/>
      <use xlink:href="#DejaVuSans-20" x="401.708984"/>
      <use xlink:href="#DejaVuSans-6f" x="433.496094"/>
      <use xlink:href="#DejaVuSans-66" x="494.677734"/>
      <use xlink:href="#DejaVuSans-20" x="529.882812"/>
      <use xlink:href="#DejaVuSans-77" x="561.669922"/>
      <use xlink:href="#DejaVuSans-61" x="643.457031"/>
      <use xlink:href="#DejaVuSans-74" x="704.736328"/>
      <use xlink:href="#DejaVuSans-63" x="743.945312"/>
      <use xlink:href="#DejaVuSans-68" x="798.925781"/>
      <use xlink:href="#DejaVuSans-65" x="862.304688"/>
      <use xlink:href="#DejaVuSans-72" x="923.828125"/>
      <use xlink:href="#DejaVuSans-73" x="964.941406"/>
     </g>
    </g>
   </g>
   <g id="line2d_16">
    <path d="M 83.568227 67.812133 
L 167.157469 67.812133 
L 167.884332 41.607905 
L 236.936315 41.607905 
L 239.116904 120.220588 
L 252.200437 120.220588 
L 252.9273 146.424815 
L 532.042683 146.424815 
L 532.769546 172.629043 
L 624.354281 172.629043 
L 625.081143 146.424815 
L 716.665878 146.424815 
L 717.392741 172.629043 
L 791.532765 172.629043 
L 791.532765 172.629043 
" clip-path="url(#pbbaa4a5802)" style="fill: none; stroke: #1f77b4; stroke-width: 3; stroke-linecap: square"/>
   </g>
   <g id="line2d_17">
    <path d="M 83.568227 94.01636 
L 101.739801 94.01636 
L 102.466664 67.812133 
L 137.356087 67.812133 
L 138.08295 94.01636 
L 653.4288 94.01636 
L 654.155663 67.812133 
L 787.89845 67.812133 
L 788.625313 41.607905 
L 791.532765 41.607905 
L 791.532765 41.607905 
" clip-path="url(#pbbaa4a5802)" style="fill: none; stroke: #ff7f0e; stroke-width: 3; stroke-linecap: square"/>
   </g>
   <g id="line2d_18">
    <path d="M 83.568227 251.241725 
L 138.809813 251.241725 
L 139.536676 225.037498 
L 140.263539 251.241725 
L 140.990402 251.241725 
L 141.717265 277.445953 
L 180.241003 277.445953 
L 180.967866 251.241725 
L 239.843767 251.241725 
L 240.57063 225.037498 
L 258.015341 225.037498 
L 258.742204 198.83327 
L 308.168886 198.83327 
L 308.895749 172.629043 
L 327.067324 172.629043 
L 327.794187 146.424815 
L 361.229883 146.424815 
L 361.956746 120.220588 
L 371.405965 120.220588 
L 372.132828 94.01636 
L 426.647551 94.01636 
L 427.374414 67.812133 
L 447.726578 67.812133 
L 448.45344 94.01636 
L 475.347371 94.01636 
L 476.074234 120.220588 
L 597.46035 120.220588 
L 598.187213 172.629043 
L 625.808006 172.629043 
L 626.534869 198.83327 
L 653.4288 198.83327 
L 654.155663 172.629043 
L 671.600374 172.629043 
L 672.327237 146.424815 
L 673.780963 146.424815 
L 674.507826 172.629043 
L 791.532765 172.629043 
L 791.532765 172.629043 
" clip-path="url(#pbbaa4a5802)" style="fill: none; stroke: #2ca02c; stroke-width: 3; stroke-linecap: square"/>
   </g>
   <g id="line2d_19">
    <path d="M 83.568227 146.424815 
L 175.152962 146.424815 
L 175.879825 120.220588 
L 218.037877 120.220588 
L 218.76474 146.424815 
L 252.200437 146.424815 
L 252.9273 172.629043 
L 592.37231 172.629043 
L 593.099173 198.83327 
L 664.331744 198.83327 
L 665.058607 172.629043 
L 791.532765 172.629043 
L 791.532765 172.629043 
" clip-path="url(#pbbaa4a5802)" style="fill: none; stroke: #d62728; stroke-width: 3; stroke-linecap: square"/>
   </g>
   <g id="line2d_20">
    <path d="M 83.568227 251.241725 
L 98.832349 251.241725 
L 99.559212 225.037498 
L 100.286075 225.037498 
L 101.012938 251.241725 
L 137.356087 251.241725 
L 138.08295 277.445953 
L 206.40807 277.445953 
L 207.134933 251.241725 
L 207.861796 277.445953 
L 222.399055 277.445953 
L 223.125918 251.241725 
L 296.539079 251.241725 
L 297.265942 277.445953 
L 329.974776 277.445953 
L 330.701638 251.241725 
L 371.405965 251.241725 
L 372.132828 225.037498 
L 460.810111 225.037498 
L 462.9907 146.424815 
L 491.338356 146.424815 
L 492.065219 120.220588 
L 492.792082 146.424815 
L 653.4288 146.424815 
L 654.155663 120.220588 
L 686.864496 120.220588 
L 687.591359 146.424815 
L 696.313715 146.424815 
L 697.040578 120.220588 
L 791.532765 120.220588 
L 791.532765 120.220588 
" clip-path="url(#pbbaa4a5802)" style="fill: none; stroke: #9467bd; stroke-width: 3; stroke-linecap: square"/>
   </g>
   <g id="line2d_21">
    <path d="M 83.568227 277.445953 
L 264.557108 277.445953 
L 265.283971 303.65018 
L 653.4288 303.65018 
L 654.155663 277.445953 
L 791.532765 277.445953 
L 791.532765 277.445953 
" clip-path="url(#pbbaa4a5802)" style="fill: none; stroke: #8c564b; stroke-width: 3; stroke-linecap: square"/>
   </g>
   <g id="line2d_22">
    <path d="M 83.568227 356.058636 
L 624.354281 356.058636 
L 625.081143 329.854408 
L 726.84196 329.854408 
L 727.568823 303.65018 
L 791.532765 303.65018 
L 791.532765 303.65018 
" clip-path="url(#pbbaa4a5802)" style="fill: none; stroke: #e377c2; stroke-width: 3; stroke-linecap: square"/>
   </g>
   <g id="line2d_23">
    <path d="M 83.568227 487.079773 
L 316.164379 487.079773 
L 316.891242 513.284001 
L 348.873213 513.284001 
L 349.600076 434.671318 
L 350.326939 408.467091 
L 353.961254 408.467091 
L 354.688117 382.262863 
L 358.322432 382.262863 
L 359.049295 408.467091 
L 562.570928 408.467091 
L 563.297791 382.262863 
L 653.4288 382.262863 
L 654.155663 356.058636 
L 791.532765 356.058636 
L 791.532765 356.058636 
" clip-path="url(#pbbaa4a5802)" style="fill: none; stroke: #7f7f7f; stroke-width: 3; stroke-linecap: square"/>
   </g>
   <g id="line2d_24">
    <path d="M 83.568227 408.467091 
L 338.697131 408.467091 
L 339.423994 434.671318 
L 462.263837 434.671318 
L 462.9907 408.467091 
L 653.4288 408.467091 
L 654.155663 382.262863 
L 749.374712 382.262863 
L 750.101575 356.058636 
L 791.532765 356.058636 
L 791.532765 356.058636 
" clip-path="url(#pbbaa4a5802)" style="fill: none; stroke: #bcbd22; stroke-width: 3; stroke-linecap: square"/>
   </g>
   <g id="line2d_25">
    <path d="M 83.568227 382.262863 
L 140.990402 382.262863 
L 141.717265 356.058636 
L 202.773755 356.058636 
L 203.500618 382.262863 
L 340.87772 382.262863 
L 341.604583 408.467091 
L 390.304402 408.467091 
L 391.031265 382.262863 
L 391.758128 408.467091 
L 558.936613 408.467091 
L 559.663476 434.671318 
L 624.354281 434.671318 
L 625.081143 408.467091 
L 653.4288 408.467091 
L 654.155663 382.262863 
L 726.115097 382.262863 
L 726.84196 408.467091 
L 791.532765 408.467091 
L 791.532765 408.467091 
" clip-path="url(#pbbaa4a5802)" style="fill: none; stroke: #17becf; stroke-width: 3; stroke-linecap: square"/>
   </g>
   <g id="line2d_26">
    <path d="M 83.568227 460.875546 
L 122.818828 460.875546 
L 123.545691 434.671318 
L 124.272554 434.671318 
L 124.999416 460.875546 
L 197.685714 460.875546 
L 198.412577 434.671318 
L 204.954344 434.671318 
L 205.681207 460.875546 
L 258.015341 460.875546 
L 258.742204 434.671318 
L 323.433009 434.671318 
L 324.886735 382.262863 
L 502.241301 382.262863 
L 502.968164 408.467091 
L 791.532765 408.467091 
L 791.532765 408.467091 
" clip-path="url(#pbbaa4a5802)" style="fill: none; stroke: #1f77b4; stroke-width: 3; stroke-linecap: square"/>
   </g>
   <g id="line2d_27">
    <path d="M 83.568227 460.875546 
L 385.943225 460.875546 
L 386.670088 434.671318 
L 532.769546 434.671318 
L 533.496409 408.467091 
L 791.532765 408.467091 
L 791.532765 408.467091 
" clip-path="url(#pbbaa4a5802)" style="fill: none; stroke: #ff7f0e; stroke-width: 3; stroke-linecap: square"/>
   </g>
   <g id="line2d_28">
    <path d="M 83.568227 408.467091 
L 218.037877 408.467091 
L 218.76474 434.671318 
L 233.302 434.671318 
L 234.028863 460.875546 
L 253.654163 460.875546 
L 254.381026 434.671318 
L 278.367504 434.671318 
L 279.094367 460.875546 
L 624.354281 460.875546 
L 625.081143 434.671318 
L 653.4288 434.671318 
L 654.155663 408.467091 
L 741.37922 408.467091 
L 742.106083 434.671318 
L 791.532765 434.671318 
L 791.532765 434.671318 
" clip-path="url(#pbbaa4a5802)" style="fill: none; stroke: #2ca02c; stroke-width: 3; stroke-linecap: square"/>
   </g>
   <g id="line2d_29">
    <path d="M 83.568227 408.467091 
L 132.994909 408.467091 
L 133.721772 434.671318 
L 451.360892 434.671318 
L 452.087755 460.875546 
L 462.263837 460.875546 
L 462.9907 434.671318 
L 597.46035 434.671318 
L 598.187213 460.875546 
L 653.4288 460.875546 
L 654.155663 434.671318 
L 791.532765 434.671318 
L 791.532765 434.671318 
" clip-path="url(#pbbaa4a5802)" style="fill: none; stroke: #d62728; stroke-width: 3; stroke-linecap: square"/>
   </g>
   <g id="line2d_30">
    <path d="M 83.568227 591.896683 
L 185.329043 591.896683 
L 186.055906 618.100911 
L 516.77856 618.100911 
L 517.505423 591.896683 
L 518.959149 591.896683 
L 519.686012 565.692456 
L 544.399353 565.692456 
L 545.126216 539.488228 
L 547.306805 539.488228 
L 548.033668 513.284001 
L 596.733487 513.284001 
L 597.46035 487.079773 
L 598.187213 513.284001 
L 611.270747 513.284001 
L 612.724473 460.875546 
L 614.905062 460.875546 
L 615.631925 434.671318 
L 711.577838 434.671318 
L 712.304701 408.467091 
L 741.37922 408.467091 
L 742.106083 434.671318 
L 791.532765 434.671318 
L 791.532765 434.671318 
" clip-path="url(#pbbaa4a5802)" style="fill: none; stroke: #9467bd; stroke-width: 3; stroke-linecap: square"/>
   </g>
   <g id="line2d_31">
    <path d="M 83.568227 460.875546 
L 154.800798 460.875546 
L 155.527661 487.079773 
L 322.706146 487.079773 
L 323.433009 513.284001 
L 444.819126 513.284001 
L 445.545989 487.079773 
L 518.959149 487.079773 
L 519.686012 460.875546 
L 532.769546 460.875546 
L 533.496409 434.671318 
L 561.117202 434.671318 
L 561.844065 460.875546 
L 597.46035 460.875546 
L 598.187213 487.079773 
L 791.532765 487.079773 
L 791.532765 487.079773 
" clip-path="url(#pbbaa4a5802)" style="fill: none; stroke: #000000; stroke-width: 3; stroke-linecap: square"/>
   </g>
   <g id="line2d_32">
    <path d="M 83.568227 513.284001 
L 453.541481 513.284001 
L 454.268344 487.079773 
L 532.769546 487.079773 
L 533.496409 460.875546 
L 791.532765 460.875546 
L 791.532765 460.875546 
" clip-path="url(#pbbaa4a5802)" style="fill: none; stroke: #000000; stroke-width: 3; stroke-linecap: square"/>
   </g>
   <g id="line2d_33">
    <path d="M 83.568227 513.284001 
L 518.959149 513.284001 
L 519.686012 487.079773 
L 532.769546 487.079773 
L 533.496409 460.875546 
L 790.805902 460.875546 
L 791.532765 487.079773 
L 791.532765 487.079773 
" clip-path="url(#pbbaa4a5802)" style="fill: none; stroke: #000000; stroke-width: 3; stroke-linecap: square"/>
   </g>
   <g id="line2d_34">
    <path d="M 83.568227 460.875546 
L 155.527661 460.875546 
L 156.254524 487.079773 
L 353.234391 487.079773 
L 353.961254 513.284001 
L 399.753621 513.284001 
L 400.480484 487.079773 
L 450.634029 487.079773 
L 451.360892 513.284001 
L 653.4288 513.284001 
L 654.155663 487.079773 
L 791.532765 487.079773 
L 791.532765 487.079773 
" clip-path="url(#pbbaa4a5802)" style="fill: none; stroke: #000000; stroke-width: 3; stroke-linecap: square"/>
   </g>
   <g id="line2d_35">
    <path d="M 83.568227 513.284001 
L 449.180303 513.284001 
L 449.907166 487.079773 
L 532.769546 487.079773 
L 533.496409 460.875546 
L 597.46035 460.875546 
L 598.187213 487.079773 
L 791.532765 487.079773 
L 791.532765 487.079773 
" clip-path="url(#pbbaa4a5802)" style="fill: none; stroke: #000000; stroke-width: 3; stroke-linecap: square"/>
   </g>
   <g id="line2d_36">
    <path d="M 83.568227 539.488228 
L 93.017446 539.488228 
L 93.744309 513.284001 
L 653.4288 513.284001 
L 654.155663 487.079773 
L 791.532765 487.079773 
L 791.532765 487.079773 
" clip-path="url(#pbbaa4a5802)" style="fill: none; stroke: #000000; stroke-width: 3; stroke-linecap: square"/>
   </g>
   <g id="line2d_37">
    <path d="M 83.568227 565.692456 
L 399.753621 565.692456 
L 400.480484 539.488228 
L 446.272852 539.488228 
L 446.999715 565.692456 
L 653.4288 565.692456 
L 654.155663 539.488228 
L 791.532765 539.488228 
L 791.532765 539.488228 
" clip-path="url(#pbbaa4a5802)" style="fill: none; stroke: #000000; stroke-width: 3; stroke-linecap: square"/>
   </g>
   <g id="line2d_38">
    <path d="M 83.568227 591.896683 
L 453.541481 591.896683 
L 454.268344 565.692456 
L 532.769546 565.692456 
L 533.496409 539.488228 
L 597.46035 539.488228 
L 598.187213 565.692456 
L 791.532765 565.692456 
L 791.532765 565.692456 
" clip-path="url(#pbbaa4a5802)" style="fill: none; stroke: #000000; stroke-width: 3; stroke-linecap: square"/>
   </g>
   <g id="line2d_39">
    <path d="M 83.568227 618.100911 
L 138.08295 618.100911 
L 138.809813 591.896683 
L 653.4288 591.896683 
L 654.155663 565.692456 
L 791.532765 565.692456 
L 791.532765 565.692456 
" clip-path="url(#pbbaa4a5802)" style="fill: none; stroke: #000000; stroke-width: 3; stroke-linecap: square"/>
   </g>
   <g id="line2d_40">
    <path d="M 83.568227 565.692456 
L 791.532765 565.692456 
L 791.532765 565.692456 
" clip-path="url(#pbbaa4a5802)" style="fill: none; stroke: #000000; stroke-width: 3; stroke-linecap: square"/>
   </g>
   <g id="line2d_41">
    <path d="M 85.021953 644.305138 
L 487.704041 644.305138 
L 488.430904 618.100911 
L 653.4288 618.100911 
L 654.155663 591.896683 
L 759.550794 591.896683 
L 760.277657 565.692456 
L 791.532765 565.692456 
L 791.532765 565.692456 
" clip-path="url(#pbbaa4a5802)" style="fill: none; stroke: #000000; stroke-width: 3; stroke-linecap: square"/>
   </g>
   <g id="line2d_42">
    <path d="M 83.568227 591.896683 
L 103.92039 591.896683 
L 104.647253 565.692456 
L 124.272554 565.692456 
L 124.999416 591.896683 
L 791.532765 591.896683 
L 791.532765 591.896683 
" clip-path="url(#pbbaa4a5802)" style="fill: none; stroke: #000000; stroke-width: 3; stroke-linecap: square"/>
   </g>
   <g id="line2d_43">
    <path d="M 83.568227 618.100911 
L 667.239196 618.100911 
L 667.966059 591.896683 
L 791.532765 591.896683 
L 791.532765 591.896683 
" clip-path="url(#pbbaa4a5802)" style="fill: none; stroke: #000000; stroke-width: 3; stroke-linecap: square"/>
   </g>
   <g id="patch_3">
    <path d="M 48.17 674.44 
L 48.17 11.473043 
" style="fill: none; stroke: #000000; stroke-width: 0.8; stroke-linejoin: miter; stroke-linecap: square"/>
   </g>
   <g id="patch_4">
    <path d="M 826.930992 674.44 
L 826.930992 11.473043 
" style="fill: none; stroke: #000000; stroke-width: 0.8; stroke-linejoin: miter; stroke-linecap: square"/>
   </g>
   <g id="patch_5">
    <path d="M 48.17 674.44 
L 826.930992 674.44 
" style="fill: none; stroke: #000000; stroke-width: 0.8; stroke-linejoin: miter; stroke-linecap: square"/>
   </g>
   <g id="patch_6">
    <path d="M 48.17 11.473043 
L 826.930992 11.473043 
" style="fill: none; stroke: #000000; stroke-width: 0.8; stroke-linejoin: miter; stroke-linecap: square"/>
   </g>
  </g>
  <g id="axes_2">
   <g id="legend_1">
    <g id="patch_7">
     <path d="M 883.021875 426.851168 
L 1067.2 426.851168 
Q 1069.2 426.851168 1069.2 424.851168 
L 1069.2 13.473043 
Q 1069.2 11.473043 1067.2 11.473043 
L 883.021875 11.473043 
Q 881.021875 11.473043 881.021875 13.473043 
L 881.021875 424.851168 
Q 881.021875 426.851168 883.021875 426.851168 
z
" style="fill: #ffffff; opacity: 0.8; stroke: #cccccc; stroke-linejoin: miter"/>
    </g>
    <g id="line2d_44">
     <path d="M 885.021875 19.571481 
L 895.021875 19.571481 
L 905.021875 19.571481 
" style="fill: none; stroke: #1f77b4; stroke-width: 3; stroke-linecap: square"/>
    </g>
    <g id="text_18">
     <!-- GooFit/GooFit -->
     <g transform="translate(913.021875 23.071481) scale(0.1 -0.1)">
      <defs>
       <path id="DejaVuSans-47" d="M 3809 666 
L 3809 1919 
L 2778 1919 
L 2778 2438 
L 4434 2438 
L 4434 434 
Q 4069 175 3628 42 
Q 3188 -91 2688 -91 
Q 1594 -91 976 548 
Q 359 1188 359 2328 
Q 359 3472 976 4111 
Q 1594 4750 2688 4750 
Q 3144 4750 3555 4637 
Q 3966 4525 4313 4306 
L 4313 3634 
Q 3963 3931 3569 4081 
Q 3175 4231 2741 4231 
Q 1884 4231 1454 3753 
Q 1025 3275 1025 2328 
Q 1025 1384 1454 906 
Q 1884 428 2741 428 
Q 3075 428 3337 486 
Q 3600 544 3809 666 
z
" transform="scale(0.015625)"/>
       <path id="DejaVuSans-46" d="M 628 4666 
L 3309 4666 
L 3309 4134 
L 1259 4134 
L 1259 2759 
L 3109 2759 
L 3109 2228 
L 1259 2228 
L 1259 0 
L 628 0 
L 628 4666 
z
" transform="scale(0.015625)"/>
       <path id="DejaVuSans-69" d="M 603 3500 
L 1178 3500 
L 1178 0 
L 603 0 
L 603 3500 
z
M 603 4863 
L 1178 4863 
L 1178 4134 
L 603 4134 
L 603 4863 
z
" transform="scale(0.015625)"/>
       <path id="DejaVuSans-2f" d="M 1625 4666 
L 2156 4666 
L 531 -594 
L 0 -594 
L 1625 4666 
z
" transform="scale(0.015625)"/>
      </defs>
      <use xlink:href="#DejaVuSans-47"/>
      <use xlink:href="#DejaVuSans-6f" x="77.490234"/>
      <use xlink:href="#DejaVuSans-6f" x="138.671875"/>
      <use xlink:href="#DejaVuSans-46" x="199.853516"/>
      <use xlink:href="#DejaVuSans-69" x="250.123047"/>
      <use xlink:href="#DejaVuSans-74" x="277.90625"/>
      <use xlink:href="#DejaVuSans-2f" x="317.115234"/>
      <use xlink:href="#DejaVuSans-47" x="350.806641"/>
      <use xlink:href="#DejaVuSans-6f" x="428.296875"/>
      <use xlink:href="#DejaVuSans-6f" x="489.478516"/>
      <use xlink:href="#DejaVuSans-46" x="550.660156"/>
      <use xlink:href="#DejaVuSans-69" x="600.929688"/>
      <use xlink:href="#DejaVuSans-74" x="628.712891"/>
     </g>
    </g>
    <g id="line2d_45">
     <path d="M 885.021875 34.249606 
L 895.021875 34.249606 
L 905.021875 34.249606 
" style="fill: none; stroke: #ff7f0e; stroke-width: 3; stroke-linecap: square"/>
    </g>
    <g id="text_19">
     <!-- scikit-hep/uproot3 -->
     <g transform="translate(913.021875 37.749606) scale(0.1 -0.1)">
      <defs>
       <path id="DejaVuSans-6b" d="M 581 4863 
L 1159 4863 
L 1159 1991 
L 2875 3500 
L 3609 3500 
L 1753 1863 
L 3688 0 
L 2938 0 
L 1159 1709 
L 1159 0 
L 581 0 
L 581 4863 
z
" transform="scale(0.015625)"/>
       <path id="DejaVuSans-70" d="M 1159 525 
L 1159 -1331 
L 581 -1331 
L 581 3500 
L 1159 3500 
L 1159 2969 
Q 1341 3281 1617 3432 
Q 1894 3584 2278 3584 
Q 2916 3584 3314 3078 
Q 3713 2572 3713 1747 
Q 3713 922 3314 415 
Q 2916 -91 2278 -91 
Q 1894 -91 1617 61 
Q 1341 213 1159 525 
z
M 3116 1747 
Q 3116 2381 2855 2742 
Q 2594 3103 2138 3103 
Q 1681 3103 1420 2742 
Q 1159 2381 1159 1747 
Q 1159 1113 1420 752 
Q 1681 391 2138 391 
Q 2594 391 2855 752 
Q 3116 1113 3116 1747 
z
" transform="scale(0.015625)"/>
      </defs>
      <use xlink:href="#DejaVuSans-73"/>
      <use xlink:href="#DejaVuSans-63" x="52.099609"/>
      <use xlink:href="#DejaVuSans-69" x="107.080078"/>
      <use xlink:href="#DejaVuSans-6b" x="134.863281"/>
      <use xlink:href="#DejaVuSans-69" x="192.773438"/>
      <use xlink:href="#DejaVuSans-74" x="220.556641"/>
      <use xlink:href="#DejaVuSans-2d" x="259.765625"/>
      <use xlink:href="#DejaVuSans-68" x="295.849609"/>
      <use xlink:href="#DejaVuSans-65" x="359.228516"/>
      <use xlink:href="#DejaVuSans-70" x="420.751953"/>
      <use xlink:href="#DejaVuSans-2f" x="484.228516"/>
      <use xlink:href="#DejaVuSans-75" x="517.919922"/>
      <use xlink:href="#DejaVuSans-70" x="581.298828"/>
      <use xlink:href="#DejaVuSans-72" x="644.775391"/>
      <use xlink:href="#DejaVuSans-6f" x="683.638672"/>
      <use xlink:href="#DejaVuSans-6f" x="744.820312"/>
      <use xlink:href="#DejaVuSans-74" x="806.001953"/>
      <use xlink:href="#DejaVuSans-33" x="845.210938"/>
     </g>
    </g>
    <g id="line2d_46">
     <path d="M 885.021875 48.927731 
L 895.021875 48.927731 
L 905.021875 48.927731 
" style="fill: none; stroke: #2ca02c; stroke-width: 3; stroke-linecap: square"/>
    </g>
    <g id="text_20">
     <!-- scikit-hep/uproot4 -->
     <g transform="translate(913.021875 52.427731) scale(0.1 -0.1)">
      <use xlink:href="#DejaVuSans-73"/>
      <use xlink:href="#DejaVuSans-63" x="52.099609"/>
      <use xlink:href="#DejaVuSans-69" x="107.080078"/>
      <use xlink:href="#DejaVuSans-6b" x="134.863281"/>
      <use xlink:href="#DejaVuSans-69" x="192.773438"/>
      <use xlink:href="#DejaVuSans-74" x="220.556641"/>
      <use xlink:href="#DejaVuSans-2d" x="259.765625"/>
      <use xlink:href="#DejaVuSans-68" x="295.849609"/>
      <use xlink:href="#DejaVuSans-65" x="359.228516"/>
      <use xlink:href="#DejaVuSans-70" x="420.751953"/>
      <use xlink:href="#DejaVuSans-2f" x="484.228516"/>
      <use xlink:href="#DejaVuSans-75" x="517.919922"/>
      <use xlink:href="#DejaVuSans-70" x="581.298828"/>
      <use xlink:href="#DejaVuSans-72" x="644.775391"/>
      <use xlink:href="#DejaVuSans-6f" x="683.638672"/>
      <use xlink:href="#DejaVuSans-6f" x="744.820312"/>
      <use xlink:href="#DejaVuSans-74" x="806.001953"/>
      <use xlink:href="#DejaVuSans-34" x="845.210938"/>
     </g>
    </g>
    <g id="line2d_47">
     <path d="M 885.021875 63.605856 
L 895.021875 63.605856 
L 905.021875 63.605856 
" style="fill: none; stroke: #d62728; stroke-width: 3; stroke-linecap: square"/>
    </g>
    <g id="text_21">
     <!-- reanahub/reana -->
     <g transform="translate(913.021875 67.105856) scale(0.1 -0.1)">
      <defs>
       <path id="DejaVuSans-6e" d="M 3513 2113 
L 3513 0 
L 2938 0 
L 2938 2094 
Q 2938 2591 2744 2837 
Q 2550 3084 2163 3084 
Q 1697 3084 1428 2787 
Q 1159 2491 1159 1978 
L 1159 0 
L 581 0 
L 581 3500 
L 1159 3500 
L 1159 2956 
Q 1366 3272 1645 3428 
Q 1925 3584 2291 3584 
Q 2894 3584 3203 3211 
Q 3513 2838 3513 2113 
z
" transform="scale(0.015625)"/>
      </defs>
      <use xlink:href="#DejaVuSans-72"/>
      <use xlink:href="#DejaVuSans-65" x="38.863281"/>
      <use xlink:href="#DejaVuSans-61" x="100.386719"/>
      <use xlink:href="#DejaVuSans-6e" x="161.666016"/>
      <use xlink:href="#DejaVuSans-61" x="225.044922"/>
      <use xlink:href="#DejaVuSans-68" x="286.324219"/>
      <use xlink:href="#DejaVuSans-75" x="349.703125"/>
      <use xlink:href="#DejaVuSans-62" x="413.082031"/>
      <use xlink:href="#DejaVuSans-2f" x="476.558594"/>
      <use xlink:href="#DejaVuSans-72" x="510.25"/>
      <use xlink:href="#DejaVuSans-65" x="549.113281"/>
      <use xlink:href="#DejaVuSans-61" x="610.636719"/>
      <use xlink:href="#DejaVuSans-6e" x="671.916016"/>
      <use xlink:href="#DejaVuSans-61" x="735.294922"/>
     </g>
    </g>
    <g id="line2d_48">
     <path d="M 885.021875 78.283981 
L 895.021875 78.283981 
L 905.021875 78.283981 
" style="fill: none; stroke: #9467bd; stroke-width: 3; stroke-linecap: square"/>
    </g>
    <g id="text_22">
     <!-- scikit-hep/awkward-1.0 -->
     <g transform="translate(913.021875 81.783981) scale(0.1 -0.1)">
      <defs>
       <path id="DejaVuSans-64" d="M 2906 2969 
L 2906 4863 
L 3481 4863 
L 3481 0 
L 2906 0 
L 2906 525 
Q 2725 213 2448 61 
Q 2172 -91 1784 -91 
Q 1150 -91 751 415 
Q 353 922 353 1747 
Q 353 2572 751 3078 
Q 1150 3584 1784 3584 
Q 2172 3584 2448 3432 
Q 2725 3281 2906 2969 
z
M 947 1747 
Q 947 1113 1208 752 
Q 1469 391 1925 391 
Q 2381 391 2643 752 
Q 2906 1113 2906 1747 
Q 2906 2381 2643 2742 
Q 2381 3103 1925 3103 
Q 1469 3103 1208 2742 
Q 947 2381 947 1747 
z
" transform="scale(0.015625)"/>
       <path id="DejaVuSans-2e" d="M 684 794 
L 1344 794 
L 1344 0 
L 684 0 
L 684 794 
z
" transform="scale(0.015625)"/>
      </defs>
      <use xlink:href="#DejaVuSans-73"/>
      <use xlink:href="#DejaVuSans-63" x="52.099609"/>
      <use xlink:href="#DejaVuSans-69" x="107.080078"/>
      <use xlink:href="#DejaVuSans-6b" x="134.863281"/>
      <use xlink:href="#DejaVuSans-69" x="192.773438"/>
      <use xlink:href="#DejaVuSans-74" x="220.556641"/>
      <use xlink:href="#DejaVuSans-2d" x="259.765625"/>
      <use xlink:href="#DejaVuSans-68" x="295.849609"/>
      <use xlink:href="#DejaVuSans-65" x="359.228516"/>
      <use xlink:href="#DejaVuSans-70" x="420.751953"/>
      <use xlink:href="#DejaVuSans-2f" x="484.228516"/>
      <use xlink:href="#DejaVuSans-61" x="517.919922"/>
      <use xlink:href="#DejaVuSans-77" x="579.199219"/>
      <use xlink:href="#DejaVuSans-6b" x="660.986328"/>
      <use xlink:href="#DejaVuSans-77" x="718.896484"/>
      <use xlink:href="#DejaVuSans-61" x="800.683594"/>
      <use xlink:href="#DejaVuSans-72" x="861.962891"/>
      <use xlink:href="#DejaVuSans-64" x="901.326172"/>
      <use xlink:href="#DejaVuSans-2d" x="964.802734"/>
      <use xlink:href="#DejaVuSans-31" x="1000.886719"/>
      <use xlink:href="#DejaVuSans-2e" x="1064.509766"/>
      <use xlink:href="#DejaVuSans-30" x="1096.296875"/>
     </g>
    </g>
    <g id="line2d_49">
     <path d="M 885.021875 92.962106 
L 895.021875 92.962106 
L 905.021875 92.962106 
" style="fill: none; stroke: #8c564b; stroke-width: 3; stroke-linecap: square"/>
    </g>
    <g id="text_23">
     <!-- scikit-hep/awkward-0.x -->
     <g transform="translate(913.021875 96.462106) scale(0.1 -0.1)">
      <defs>
       <path id="DejaVuSans-78" d="M 3513 3500 
L 2247 1797 
L 3578 0 
L 2900 0 
L 1881 1375 
L 863 0 
L 184 0 
L 1544 1831 
L 300 3500 
L 978 3500 
L 1906 2253 
L 2834 3500 
L 3513 3500 
z
" transform="scale(0.015625)"/>
      </defs>
      <use xlink:href="#DejaVuSans-73"/>
      <use xlink:href="#DejaVuSans-63" x="52.099609"/>
      <use xlink:href="#DejaVuSans-69" x="107.080078"/>
      <use xlink:href="#DejaVuSans-6b" x="134.863281"/>
      <use xlink:href="#DejaVuSans-69" x="192.773438"/>
      <use xlink:href="#DejaVuSans-74" x="220.556641"/>
      <use xlink:href="#DejaVuSans-2d" x="259.765625"/>
      <use xlink:href="#DejaVuSans-68" x="295.849609"/>
      <use xlink:href="#DejaVuSans-65" x="359.228516"/>
      <use xlink:href="#DejaVuSans-70" x="420.751953"/>
      <use xlink:href="#DejaVuSans-2f" x="484.228516"/>
      <use xlink:href="#DejaVuSans-61" x="517.919922"/>
      <use xlink:href="#DejaVuSans-77" x="579.199219"/>
      <use xlink:href="#DejaVuSans-6b" x="660.986328"/>
      <use xlink:href="#DejaVuSans-77" x="718.896484"/>
      <use xlink:href="#DejaVuSans-61" x="800.683594"/>
      <use xlink:href="#DejaVuSans-72" x="861.962891"/>
      <use xlink:href="#DejaVuSans-64" x="901.326172"/>
      <use xlink:href="#DejaVuSans-2d" x="964.802734"/>
      <use xlink:href="#DejaVuSans-30" x="1000.886719"/>
      <use xlink:href="#DejaVuSans-2e" x="1064.509766"/>
      <use xlink:href="#DejaVuSans-78" x="1096.296875"/>
     </g>
    </g>
    <g id="line2d_50">
     <path d="M 885.021875 107.640231 
L 895.021875 107.640231 
L 905.021875 107.640231 
" style="fill: none; stroke: #e377c2; stroke-width: 3; stroke-linecap: square"/>
    </g>
    <g id="text_24">
     <!-- GooFit/AmpGen -->
     <g transform="translate(913.021875 111.140231) scale(0.1 -0.1)">
      <defs>
       <path id="DejaVuSans-41" d="M 2188 4044 
L 1331 1722 
L 3047 1722 
L 2188 4044 
z
M 1831 4666 
L 2547 4666 
L 4325 0 
L 3669 0 
L 3244 1197 
L 1141 1197 
L 716 0 
L 50 0 
L 1831 4666 
z
" transform="scale(0.015625)"/>
      </defs>
      <use xlink:href="#DejaVuSans-47"/>
      <use xlink:href="#DejaVuSans-6f" x="77.490234"/>
      <use xlink:href="#DejaVuSans-6f" x="138.671875"/>
      <use xlink:href="#DejaVuSans-46" x="199.853516"/>
      <use xlink:href="#DejaVuSans-69" x="250.123047"/>
      <use xlink:href="#DejaVuSans-74" x="277.90625"/>
      <use xlink:href="#DejaVuSans-2f" x="317.115234"/>
      <use xlink:href="#DejaVuSans-41" x="350.806641"/>
      <use xlink:href="#DejaVuSans-6d" x="419.214844"/>
      <use xlink:href="#DejaVuSans-70" x="516.626953"/>
      <use xlink:href="#DejaVuSans-47" x="580.103516"/>
      <use xlink:href="#DejaVuSans-65" x="657.59375"/>
      <use xlink:href="#DejaVuSans-6e" x="719.117188"/>
     </g>
    </g>
    <g id="line2d_51">
     <path d="M 885.021875 122.318356 
L 895.021875 122.318356 
L 905.021875 122.318356 
" style="fill: none; stroke: #7f7f7f; stroke-width: 3; stroke-linecap: square"/>
    </g>
    <g id="text_25">
     <!-- scikit-hep/fastjet -->
     <g transform="translate(913.021875 125.818356) scale(0.1 -0.1)">
      <defs>
       <path id="DejaVuSans-6a" d="M 603 3500 
L 1178 3500 
L 1178 -63 
Q 1178 -731 923 -1031 
Q 669 -1331 103 -1331 
L -116 -1331 
L -116 -844 
L 38 -844 
Q 366 -844 484 -692 
Q 603 -541 603 -63 
L 603 3500 
z
M 603 4863 
L 1178 4863 
L 1178 4134 
L 603 4134 
L 603 4863 
z
" transform="scale(0.015625)"/>
      </defs>
      <use xlink:href="#DejaVuSans-73"/>
      <use xlink:href="#DejaVuSans-63" x="52.099609"/>
      <use xlink:href="#DejaVuSans-69" x="107.080078"/>
      <use xlink:href="#DejaVuSans-6b" x="134.863281"/>
      <use xlink:href="#DejaVuSans-69" x="192.773438"/>
      <use xlink:href="#DejaVuSans-74" x="220.556641"/>
      <use xlink:href="#DejaVuSans-2d" x="259.765625"/>
      <use xlink:href="#DejaVuSans-68" x="295.849609"/>
      <use xlink:href="#DejaVuSans-65" x="359.228516"/>
      <use xlink:href="#DejaVuSans-70" x="420.751953"/>
      <use xlink:href="#DejaVuSans-2f" x="484.228516"/>
      <use xlink:href="#DejaVuSans-66" x="517.919922"/>
      <use xlink:href="#DejaVuSans-61" x="553.125"/>
      <use xlink:href="#DejaVuSans-73" x="614.404297"/>
      <use xlink:href="#DejaVuSans-74" x="666.503906"/>
      <use xlink:href="#DejaVuSans-6a" x="705.712891"/>
      <use xlink:href="#DejaVuSans-65" x="733.496094"/>
      <use xlink:href="#DejaVuSans-74" x="795.019531"/>
     </g>
    </g>
    <g id="line2d_52">
     <path d="M 885.021875 136.996481 
L 895.021875 136.996481 
L 905.021875 136.996481 
" style="fill: none; stroke: #bcbd22; stroke-width: 3; stroke-linecap: square"/>
    </g>
    <g id="text_26">
     <!-- scikit-hep/boost-histogram -->
     <g transform="translate(913.021875 140.496481) scale(0.1 -0.1)">
      <defs>
       <path id="DejaVuSans-67" d="M 2906 1791 
Q 2906 2416 2648 2759 
Q 2391 3103 1925 3103 
Q 1463 3103 1205 2759 
Q 947 2416 947 1791 
Q 947 1169 1205 825 
Q 1463 481 1925 481 
Q 2391 481 2648 825 
Q 2906 1169 2906 1791 
z
M 3481 434 
Q 3481 -459 3084 -895 
Q 2688 -1331 1869 -1331 
Q 1566 -1331 1297 -1286 
Q 1028 -1241 775 -1147 
L 775 -588 
Q 1028 -725 1275 -790 
Q 1522 -856 1778 -856 
Q 2344 -856 2625 -561 
Q 2906 -266 2906 331 
L 2906 616 
Q 2728 306 2450 153 
Q 2172 0 1784 0 
Q 1141 0 747 490 
Q 353 981 353 1791 
Q 353 2603 747 3093 
Q 1141 3584 1784 3584 
Q 2172 3584 2450 3431 
Q 2728 3278 2906 2969 
L 2906 3500 
L 3481 3500 
L 3481 434 
z
" transform="scale(0.015625)"/>
      </defs>
      <use xlink:href="#DejaVuSans-73"/>
      <use xlink:href="#DejaVuSans-63" x="52.099609"/>
      <use xlink:href="#DejaVuSans-69" x="107.080078"/>
      <use xlink:href="#DejaVuSans-6b" x="134.863281"/>
      <use xlink:href="#DejaVuSans-69" x="192.773438"/>
      <use xlink:href="#DejaVuSans-74" x="220.556641"/>
      <use xlink:href="#DejaVuSans-2d" x="259.765625"/>
      <use xlink:href="#DejaVuSans-68" x="295.849609"/>
      <use xlink:href="#DejaVuSans-65" x="359.228516"/>
      <use xlink:href="#DejaVuSans-70" x="420.751953"/>
      <use xlink:href="#DejaVuSans-2f" x="484.228516"/>
      <use xlink:href="#DejaVuSans-62" x="517.919922"/>
      <use xlink:href="#DejaVuSans-6f" x="581.396484"/>
      <use xlink:href="#DejaVuSans-6f" x="642.578125"/>
      <use xlink:href="#DejaVuSans-73" x="703.759766"/>
      <use xlink:href="#DejaVuSans-74" x="755.859375"/>
      <use xlink:href="#DejaVuSans-2d" x="795.068359"/>
      <use xlink:href="#DejaVuSans-68" x="831.152344"/>
      <use xlink:href="#DejaVuSans-69" x="894.53125"/>
      <use xlink:href="#DejaVuSans-73" x="922.314453"/>
      <use xlink:href="#DejaVuSans-74" x="974.414062"/>
      <use xlink:href="#DejaVuSans-6f" x="1013.623047"/>
      <use xlink:href="#DejaVuSans-67" x="1074.804688"/>
      <use xlink:href="#DejaVuSans-72" x="1138.28125"/>
      <use xlink:href="#DejaVuSans-61" x="1179.394531"/>
      <use xlink:href="#DejaVuSans-6d" x="1240.673828"/>
     </g>
    </g>
    <g id="line2d_53">
     <path d="M 885.021875 151.674606 
L 895.021875 151.674606 
L 905.021875 151.674606 
" style="fill: none; stroke: #17becf; stroke-width: 3; stroke-linecap: square"/>
    </g>
    <g id="text_27">
     <!-- scikit-hep/pyhf -->
     <g transform="translate(913.021875 155.174606) scale(0.1 -0.1)">
      <defs>
       <path id="DejaVuSans-79" d="M 2059 -325 
Q 1816 -950 1584 -1140 
Q 1353 -1331 966 -1331 
L 506 -1331 
L 506 -850 
L 844 -850 
Q 1081 -850 1212 -737 
Q 1344 -625 1503 -206 
L 1606 56 
L 191 3500 
L 800 3500 
L 1894 763 
L 2988 3500 
L 3597 3500 
L 2059 -325 
z
" transform="scale(0.015625)"/>
      </defs>
      <use xlink:href="#DejaVuSans-73"/>
      <use xlink:href="#DejaVuSans-63" x="52.099609"/>
      <use xlink:href="#DejaVuSans-69" x="107.080078"/>
      <use xlink:href="#DejaVuSans-6b" x="134.863281"/>
      <use xlink:href="#DejaVuSans-69" x="192.773438"/>
      <use xlink:href="#DejaVuSans-74" x="220.556641"/>
      <use xlink:href="#DejaVuSans-2d" x="259.765625"/>
      <use xlink:href="#DejaVuSans-68" x="295.849609"/>
      <use xlink:href="#DejaVuSans-65" x="359.228516"/>
      <use xlink:href="#DejaVuSans-70" x="420.751953"/>
      <use xlink:href="#DejaVuSans-2f" x="484.228516"/>
      <use xlink:href="#DejaVuSans-70" x="517.919922"/>
      <use xlink:href="#DejaVuSans-79" x="581.396484"/>
      <use xlink:href="#DejaVuSans-68" x="640.576172"/>
      <use xlink:href="#DejaVuSans-66" x="703.955078"/>
     </g>
    </g>
    <g id="line2d_54">
     <path d="M 885.021875 166.352731 
L 895.021875 166.352731 
L 905.021875 166.352731 
" style="fill: none; stroke: #1f77b4; stroke-width: 3; stroke-linecap: square"/>
    </g>
    <g id="text_28">
     <!-- diana-hep/madminer -->
     <g transform="translate(913.021875 169.852731) scale(0.1 -0.1)">
      <use xlink:href="#DejaVuSans-64"/>
      <use xlink:href="#DejaVuSans-69" x="63.476562"/>
      <use xlink:href="#DejaVuSans-61" x="91.259766"/>
      <use xlink:href="#DejaVuSans-6e" x="152.539062"/>
      <use xlink:href="#DejaVuSans-61" x="215.917969"/>
      <use xlink:href="#DejaVuSans-2d" x="277.197266"/>
      <use xlink:href="#DejaVuSans-68" x="313.28125"/>
      <use xlink:href="#DejaVuSans-65" x="376.660156"/>
      <use xlink:href="#DejaVuSans-70" x="438.183594"/>
      <use xlink:href="#DejaVuSans-2f" x="501.660156"/>
      <use xlink:href="#DejaVuSans-6d" x="535.351562"/>
      <use xlink:href="#DejaVuSans-61" x="632.763672"/>
      <use xlink:href="#DejaVuSans-64" x="694.042969"/>
      <use xlink:href="#DejaVuSans-6d" x="757.519531"/>
      <use xlink:href="#DejaVuSans-69" x="854.931641"/>
      <use xlink:href="#DejaVuSans-6e" x="882.714844"/>
      <use xlink:href="#DejaVuSans-65" x="946.09375"/>
      <use xlink:href="#DejaVuSans-72" x="1007.617188"/>
     </g>
    </g>
    <g id="line2d_55">
     <path d="M 885.021875 181.030856 
L 895.021875 181.030856 
L 905.021875 181.030856 
" style="fill: none; stroke: #ff7f0e; stroke-width: 3; stroke-linecap: square"/>
    </g>
    <g id="text_29">
     <!-- iris-hep/adl-benchmarks-index -->
     <g transform="translate(913.021875 184.530856) scale(0.1 -0.1)">
      <defs>
       <path id="DejaVuSans-6c" d="M 603 4863 
L 1178 4863 
L 1178 0 
L 603 0 
L 603 4863 
z
" transform="scale(0.015625)"/>
      </defs>
      <use xlink:href="#DejaVuSans-69"/>
      <use xlink:href="#DejaVuSans-72" x="27.783203"/>
      <use xlink:href="#DejaVuSans-69" x="68.896484"/>
      <use xlink:href="#DejaVuSans-73" x="96.679688"/>
      <use xlink:href="#DejaVuSans-2d" x="148.779297"/>
      <use xlink:href="#DejaVuSans-68" x="184.863281"/>
      <use xlink:href="#DejaVuSans-65" x="248.242188"/>
      <use xlink:href="#DejaVuSans-70" x="309.765625"/>
      <use xlink:href="#DejaVuSans-2f" x="373.242188"/>
      <use xlink:href="#DejaVuSans-61" x="406.933594"/>
      <use xlink:href="#DejaVuSans-64" x="468.212891"/>
      <use xlink:href="#DejaVuSans-6c" x="531.689453"/>
      <use xlink:href="#DejaVuSans-2d" x="559.472656"/>
      <use xlink:href="#DejaVuSans-62" x="595.556641"/>
      <use xlink:href="#DejaVuSans-65" x="659.033203"/>
      <use xlink:href="#DejaVuSans-6e" x="720.556641"/>
      <use xlink:href="#DejaVuSans-63" x="783.935547"/>
      <use xlink:href="#DejaVuSans-68" x="838.916016"/>
      <use xlink:href="#DejaVuSans-6d" x="902.294922"/>
      <use xlink:href="#DejaVuSans-61" x="999.707031"/>
      <use xlink:href="#DejaVuSans-72" x="1060.986328"/>
      <use xlink:href="#DejaVuSans-6b" x="1102.099609"/>
      <use xlink:href="#DejaVuSans-73" x="1160.009766"/>
      <use xlink:href="#DejaVuSans-2d" x="1212.109375"/>
      <use xlink:href="#DejaVuSans-69" x="1248.193359"/>
      <use xlink:href="#DejaVuSans-6e" x="1275.976562"/>
      <use xlink:href="#DejaVuSans-64" x="1339.355469"/>
      <use xlink:href="#DejaVuSans-65" x="1402.832031"/>
      <use xlink:href="#DejaVuSans-78" x="1462.605469"/>
     </g>
    </g>
    <g id="line2d_56">
     <path d="M 885.021875 195.708981 
L 895.021875 195.708981 
L 905.021875 195.708981 
" style="fill: none; stroke: #2ca02c; stroke-width: 3; stroke-linecap: square"/>
    </g>
    <g id="text_30">
     <!-- scikit-hep/vector -->
     <g transform="translate(913.021875 199.208981) scale(0.1 -0.1)">
      <defs>
       <path id="DejaVuSans-76" d="M 191 3500 
L 800 3500 
L 1894 563 
L 2988 3500 
L 3597 3500 
L 2284 0 
L 1503 0 
L 191 3500 
z
" transform="scale(0.015625)"/>
      </defs>
      <use xlink:href="#DejaVuSans-73"/>
      <use xlink:href="#DejaVuSans-63" x="52.099609"/>
      <use xlink:href="#DejaVuSans-69" x="107.080078"/>
      <use xlink:href="#DejaVuSans-6b" x="134.863281"/>
      <use xlink:href="#DejaVuSans-69" x="192.773438"/>
      <use xlink:href="#DejaVuSans-74" x="220.556641"/>
      <use xlink:href="#DejaVuSans-2d" x="259.765625"/>
      <use xlink:href="#DejaVuSans-68" x="295.849609"/>
      <use xlink:href="#DejaVuSans-65" x="359.228516"/>
      <use xlink:href="#DejaVuSans-70" x="420.751953"/>
      <use xlink:href="#DejaVuSans-2f" x="484.228516"/>
      <use xlink:href="#DejaVuSans-76" x="517.919922"/>
      <use xlink:href="#DejaVuSans-65" x="577.099609"/>
      <use xlink:href="#DejaVuSans-63" x="638.623047"/>
      <use xlink:href="#DejaVuSans-74" x="693.603516"/>
      <use xlink:href="#DejaVuSans-6f" x="732.8125"/>
      <use xlink:href="#DejaVuSans-72" x="793.994141"/>
     </g>
    </g>
    <g id="line2d_57">
     <path d="M 885.021875 210.387106 
L 895.021875 210.387106 
L 905.021875 210.387106 
" style="fill: none; stroke: #d62728; stroke-width: 3; stroke-linecap: square"/>
    </g>
    <g id="text_31">
     <!-- scikit-hep/hist -->
     <g transform="translate(913.021875 213.887106) scale(0.1 -0.1)">
      <use xlink:href="#DejaVuSans-73"/>
      <use xlink:href="#DejaVuSans-63" x="52.099609"/>
      <use xlink:href="#DejaVuSans-69" x="107.080078"/>
      <use xlink:href="#DejaVuSans-6b" x="134.863281"/>
      <use xlink:href="#DejaVuSans-69" x="192.773438"/>
      <use xlink:href="#DejaVuSans-74" x="220.556641"/>
      <use xlink:href="#DejaVuSans-2d" x="259.765625"/>
      <use xlink:href="#DejaVuSans-68" x="295.849609"/>
      <use xlink:href="#DejaVuSans-65" x="359.228516"/>
      <use xlink:href="#DejaVuSans-70" x="420.751953"/>
      <use xlink:href="#DejaVuSans-2f" x="484.228516"/>
      <use xlink:href="#DejaVuSans-68" x="517.919922"/>
      <use xlink:href="#DejaVuSans-69" x="581.298828"/>
      <use xlink:href="#DejaVuSans-73" x="609.082031"/>
      <use xlink:href="#DejaVuSans-74" x="661.181641"/>
     </g>
    </g>
    <g id="line2d_58">
     <path d="M 885.021875 225.065231 
L 895.021875 225.065231 
L 905.021875 225.065231 
" style="fill: none; stroke: #9467bd; stroke-width: 3; stroke-linecap: square"/>
    </g>
    <g id="text_32">
     <!-- scikit-hep/cookie -->
     <g transform="translate(913.021875 228.565231) scale(0.1 -0.1)">
      <use xlink:href="#DejaVuSans-73"/>
      <use xlink:href="#DejaVuSans-63" x="52.099609"/>
      <use xlink:href="#DejaVuSans-69" x="107.080078"/>
      <use xlink:href="#DejaVuSans-6b" x="134.863281"/>
      <use xlink:href="#DejaVuSans-69" x="192.773438"/>
      <use xlink:href="#DejaVuSans-74" x="220.556641"/>
      <use xlink:href="#DejaVuSans-2d" x="259.765625"/>
      <use xlink:href="#DejaVuSans-68" x="295.849609"/>
      <use xlink:href="#DejaVuSans-65" x="359.228516"/>
      <use xlink:href="#DejaVuSans-70" x="420.751953"/>
      <use xlink:href="#DejaVuSans-2f" x="484.228516"/>
      <use xlink:href="#DejaVuSans-63" x="517.919922"/>
      <use xlink:href="#DejaVuSans-6f" x="572.900391"/>
      <use xlink:href="#DejaVuSans-6f" x="634.082031"/>
      <use xlink:href="#DejaVuSans-6b" x="695.263672"/>
      <use xlink:href="#DejaVuSans-69" x="753.173828"/>
      <use xlink:href="#DejaVuSans-65" x="780.957031"/>
     </g>
    </g>
    <g id="line2d_59">
     <path d="M 885.021875 239.743356 
L 895.021875 239.743356 
L 905.021875 239.743356 
" style="fill: none; stroke: #000000; stroke-width: 3; stroke-linecap: square"/>
    </g>
    <g id="text_33">
     <!-- iris-hep/func_adl -->
     <g transform="translate(913.021875 243.243356) scale(0.1 -0.1)">
      <defs>
       <path id="DejaVuSans-5f" d="M 3263 -1063 
L 3263 -1509 
L -63 -1509 
L -63 -1063 
L 3263 -1063 
z
" transform="scale(0.015625)"/>
      </defs>
      <use xlink:href="#DejaVuSans-69"/>
      <use xlink:href="#DejaVuSans-72" x="27.783203"/>
      <use xlink:href="#DejaVuSans-69" x="68.896484"/>
      <use xlink:href="#DejaVuSans-73" x="96.679688"/>
      <use xlink:href="#DejaVuSans-2d" x="148.779297"/>
      <use xlink:href="#DejaVuSans-68" x="184.863281"/>
      <use xlink:href="#DejaVuSans-65" x="248.242188"/>
      <use xlink:href="#DejaVuSans-70" x="309.765625"/>
      <use xlink:href="#DejaVuSans-2f" x="373.242188"/>
      <use xlink:href="#DejaVuSans-66" x="406.933594"/>
      <use xlink:href="#DejaVuSans-75" x="442.138672"/>
      <use xlink:href="#DejaVuSans-6e" x="505.517578"/>
      <use xlink:href="#DejaVuSans-63" x="568.896484"/>
      <use xlink:href="#DejaVuSans-5f" x="623.876953"/>
      <use xlink:href="#DejaVuSans-61" x="673.876953"/>
      <use xlink:href="#DejaVuSans-64" x="735.15625"/>
      <use xlink:href="#DejaVuSans-6c" x="798.632812"/>
     </g>
    </g>
    <g id="line2d_60">
     <path d="M 885.021875 254.699606 
L 895.021875 254.699606 
L 905.021875 254.699606 
" style="fill: none; stroke: #000000; stroke-width: 3; stroke-linecap: square"/>
    </g>
    <g id="text_34">
     <!-- iris-hep/func_adl_servicex -->
     <g transform="translate(913.021875 258.199606) scale(0.1 -0.1)">
      <use xlink:href="#DejaVuSans-69"/>
      <use xlink:href="#DejaVuSans-72" x="27.783203"/>
      <use xlink:href="#DejaVuSans-69" x="68.896484"/>
      <use xlink:href="#DejaVuSans-73" x="96.679688"/>
      <use xlink:href="#DejaVuSans-2d" x="148.779297"/>
      <use xlink:href="#DejaVuSans-68" x="184.863281"/>
      <use xlink:href="#DejaVuSans-65" x="248.242188"/>
      <use xlink:href="#DejaVuSans-70" x="309.765625"/>
      <use xlink:href="#DejaVuSans-2f" x="373.242188"/>
      <use xlink:href="#DejaVuSans-66" x="406.933594"/>
      <use xlink:href="#DejaVuSans-75" x="442.138672"/>
      <use xlink:href="#DejaVuSans-6e" x="505.517578"/>
      <use xlink:href="#DejaVuSans-63" x="568.896484"/>
      <use xlink:href="#DejaVuSans-5f" x="623.876953"/>
      <use xlink:href="#DejaVuSans-61" x="673.876953"/>
      <use xlink:href="#DejaVuSans-64" x="735.15625"/>
      <use xlink:href="#DejaVuSans-6c" x="798.632812"/>
      <use xlink:href="#DejaVuSans-5f" x="826.416016"/>
      <use xlink:href="#DejaVuSans-73" x="876.416016"/>
      <use xlink:href="#DejaVuSans-65" x="928.515625"/>
      <use xlink:href="#DejaVuSans-72" x="990.039062"/>
      <use xlink:href="#DejaVuSans-76" x="1031.152344"/>
      <use xlink:href="#DejaVuSans-69" x="1090.332031"/>
      <use xlink:href="#DejaVuSans-63" x="1118.115234"/>
      <use xlink:href="#DejaVuSans-65" x="1173.095703"/>
      <use xlink:href="#DejaVuSans-78" x="1232.869141"/>
     </g>
    </g>
    <g id="line2d_61">
     <path d="M 885.021875 269.655856 
L 895.021875 269.655856 
L 905.021875 269.655856 
" style="fill: none; stroke: #000000; stroke-width: 3; stroke-linecap: square"/>
    </g>
    <g id="text_35">
     <!-- iris-hep/func_adl_xAOD -->
     <g transform="translate(913.021875 273.155856) scale(0.1 -0.1)">
      <defs>
       <path id="DejaVuSans-4f" d="M 2522 4238 
Q 1834 4238 1429 3725 
Q 1025 3213 1025 2328 
Q 1025 1447 1429 934 
Q 1834 422 2522 422 
Q 3209 422 3611 934 
Q 4013 1447 4013 2328 
Q 4013 3213 3611 3725 
Q 3209 4238 2522 4238 
z
M 2522 4750 
Q 3503 4750 4090 4092 
Q 4678 3434 4678 2328 
Q 4678 1225 4090 567 
Q 3503 -91 2522 -91 
Q 1538 -91 948 565 
Q 359 1222 359 2328 
Q 359 3434 948 4092 
Q 1538 4750 2522 4750 
z
" transform="scale(0.015625)"/>
      </defs>
      <use xlink:href="#DejaVuSans-69"/>
      <use xlink:href="#DejaVuSans-72" x="27.783203"/>
      <use xlink:href="#DejaVuSans-69" x="68.896484"/>
      <use xlink:href="#DejaVuSans-73" x="96.679688"/>
      <use xlink:href="#DejaVuSans-2d" x="148.779297"/>
      <use xlink:href="#DejaVuSans-68" x="184.863281"/>
      <use xlink:href="#DejaVuSans-65" x="248.242188"/>
      <use xlink:href="#DejaVuSans-70" x="309.765625"/>
      <use xlink:href="#DejaVuSans-2f" x="373.242188"/>
      <use xlink:href="#DejaVuSans-66" x="406.933594"/>
      <use xlink:href="#DejaVuSans-75" x="442.138672"/>
      <use xlink:href="#DejaVuSans-6e" x="505.517578"/>
      <use xlink:href="#DejaVuSans-63" x="568.896484"/>
      <use xlink:href="#DejaVuSans-5f" x="623.876953"/>
      <use xlink:href="#DejaVuSans-61" x="673.876953"/>
      <use xlink:href="#DejaVuSans-64" x="735.15625"/>
      <use xlink:href="#DejaVuSans-6c" x="798.632812"/>
      <use xlink:href="#DejaVuSans-5f" x="826.416016"/>
      <use xlink:href="#DejaVuSans-78" x="876.416016"/>
      <use xlink:href="#DejaVuSans-41" x="935.595703"/>
      <use xlink:href="#DejaVuSans-4f" x="1002.253906"/>
      <use xlink:href="#DejaVuSans-44" x="1080.964844"/>
     </g>
    </g>
    <g id="line2d_62">
     <path d="M 885.021875 284.612106 
L 895.021875 284.612106 
L 905.021875 284.612106 
" style="fill: none; stroke: #000000; stroke-width: 3; stroke-linecap: square"/>
    </g>
    <g id="text_36">
     <!-- scikit-hep/particle -->
     <g transform="translate(913.021875 288.112106) scale(0.1 -0.1)">
      <use xlink:href="#DejaVuSans-73"/>
      <use xlink:href="#DejaVuSans-63" x="52.099609"/>
      <use xlink:href="#DejaVuSans-69" x="107.080078"/>
      <use xlink:href="#DejaVuSans-6b" x="134.863281"/>
      <use xlink:href="#DejaVuSans-69" x="192.773438"/>
      <use xlink:href="#DejaVuSans-74" x="220.556641"/>
      <use xlink:href="#DejaVuSans-2d" x="259.765625"/>
      <use xlink:href="#DejaVuSans-68" x="295.849609"/>
      <use xlink:href="#DejaVuSans-65" x="359.228516"/>
      <use xlink:href="#DejaVuSans-70" x="420.751953"/>
      <use xlink:href="#DejaVuSans-2f" x="484.228516"/>
      <use xlink:href="#DejaVuSans-70" x="517.919922"/>
      <use xlink:href="#DejaVuSans-61" x="581.396484"/>
      <use xlink:href="#DejaVuSans-72" x="642.675781"/>
      <use xlink:href="#DejaVuSans-74" x="683.789062"/>
      <use xlink:href="#DejaVuSans-69" x="722.998047"/>
      <use xlink:href="#DejaVuSans-63" x="750.78125"/>
      <use xlink:href="#DejaVuSans-6c" x="805.761719"/>
      <use xlink:href="#DejaVuSans-65" x="833.544922"/>
     </g>
    </g>
    <g id="line2d_63">
     <path d="M 885.021875 299.290231 
L 895.021875 299.290231 
L 905.021875 299.290231 
" style="fill: none; stroke: #000000; stroke-width: 3; stroke-linecap: square"/>
    </g>
    <g id="text_37">
     <!-- iris-hep/func_adl_uproot -->
     <g transform="translate(913.021875 302.790231) scale(0.1 -0.1)">
      <use xlink:href="#DejaVuSans-69"/>
      <use xlink:href="#DejaVuSans-72" x="27.783203"/>
      <use xlink:href="#DejaVuSans-69" x="68.896484"/>
      <use xlink:href="#DejaVuSans-73" x="96.679688"/>
      <use xlink:href="#DejaVuSans-2d" x="148.779297"/>
      <use xlink:href="#DejaVuSans-68" x="184.863281"/>
      <use xlink:href="#DejaVuSans-65" x="248.242188"/>
      <use xlink:href="#DejaVuSans-70" x="309.765625"/>
      <use xlink:href="#DejaVuSans-2f" x="373.242188"/>
      <use xlink:href="#DejaVuSans-66" x="406.933594"/>
      <use xlink:href="#DejaVuSans-75" x="442.138672"/>
      <use xlink:href="#DejaVuSans-6e" x="505.517578"/>
      <use xlink:href="#DejaVuSans-63" x="568.896484"/>
      <use xlink:href="#DejaVuSans-5f" x="623.876953"/>
      <use xlink:href="#DejaVuSans-61" x="673.876953"/>
      <use xlink:href="#DejaVuSans-64" x="735.15625"/>
      <use xlink:href="#DejaVuSans-6c" x="798.632812"/>
      <use xlink:href="#DejaVuSans-5f" x="826.416016"/>
      <use xlink:href="#DejaVuSans-75" x="876.416016"/>
      <use xlink:href="#DejaVuSans-70" x="939.794922"/>
      <use xlink:href="#DejaVuSans-72" x="1003.271484"/>
      <use xlink:href="#DejaVuSans-6f" x="1042.134766"/>
      <use xlink:href="#DejaVuSans-6f" x="1103.316406"/>
      <use xlink:href="#DejaVuSans-74" x="1164.498047"/>
     </g>
    </g>
    <g id="line2d_64">
     <path d="M 885.021875 314.246481 
L 895.021875 314.246481 
L 905.021875 314.246481 
" style="fill: none; stroke: #000000; stroke-width: 3; stroke-linecap: square"/>
    </g>
    <g id="text_38">
     <!-- scikit-hep/decaylanguage -->
     <g transform="translate(913.021875 317.746481) scale(0.1 -0.1)">
      <use xlink:href="#DejaVuSans-73"/>
      <use xlink:href="#DejaVuSans-63" x="52.099609"/>
      <use xlink:href="#DejaVuSans-69" x="107.080078"/>
      <use xlink:href="#DejaVuSans-6b" x="134.863281"/>
      <use xlink:href="#DejaVuSans-69" x="192.773438"/>
      <use xlink:href="#DejaVuSans-74" x="220.556641"/>
      <use xlink:href="#DejaVuSans-2d" x="259.765625"/>
      <use xlink:href="#DejaVuSans-68" x="295.849609"/>
      <use xlink:href="#DejaVuSans-65" x="359.228516"/>
      <use xlink:href="#DejaVuSans-70" x="420.751953"/>
      <use xlink:href="#DejaVuSans-2f" x="484.228516"/>
      <use xlink:href="#DejaVuSans-64" x="517.919922"/>
      <use xlink:href="#DejaVuSans-65" x="581.396484"/>
      <use xlink:href="#DejaVuSans-63" x="642.919922"/>
      <use xlink:href="#DejaVuSans-61" x="697.900391"/>
      <use xlink:href="#DejaVuSans-79" x="759.179688"/>
      <use xlink:href="#DejaVuSans-6c" x="818.359375"/>
      <use xlink:href="#DejaVuSans-61" x="846.142578"/>
      <use xlink:href="#DejaVuSans-6e" x="907.421875"/>
      <use xlink:href="#DejaVuSans-67" x="970.800781"/>
      <use xlink:href="#DejaVuSans-75" x="1034.277344"/>
      <use xlink:href="#DejaVuSans-61" x="1097.65625"/>
      <use xlink:href="#DejaVuSans-67" x="1158.935547"/>
      <use xlink:href="#DejaVuSans-65" x="1222.412109"/>
     </g>
    </g>
    <g id="line2d_65">
     <path d="M 885.021875 328.924606 
L 895.021875 328.924606 
L 905.021875 328.924606 
" style="fill: none; stroke: #000000; stroke-width: 3; stroke-linecap: square"/>
    </g>
    <g id="text_39">
     <!-- scikit-hep/mplhep -->
     <g transform="translate(913.021875 332.424606) scale(0.1 -0.1)">
      <use xlink:href="#DejaVuSans-73"/>
      <use xlink:href="#DejaVuSans-63" x="52.099609"/>
      <use xlink:href="#DejaVuSans-69" x="107.080078"/>
      <use xlink:href="#DejaVuSans-6b" x="134.863281"/>
      <use xlink:href="#DejaVuSans-69" x="192.773438"/>
      <use xlink:href="#DejaVuSans-74" x="220.556641"/>
      <use xlink:href="#DejaVuSans-2d" x="259.765625"/>
      <use xlink:href="#DejaVuSans-68" x="295.849609"/>
      <use xlink:href="#DejaVuSans-65" x="359.228516"/>
      <use xlink:href="#DejaVuSans-70" x="420.751953"/>
      <use xlink:href="#DejaVuSans-2f" x="484.228516"/>
      <use xlink:href="#DejaVuSans-6d" x="517.919922"/>
      <use xlink:href="#DejaVuSans-70" x="615.332031"/>
      <use xlink:href="#DejaVuSans-6c" x="678.808594"/>
      <use xlink:href="#DejaVuSans-68" x="706.591797"/>
      <use xlink:href="#DejaVuSans-65" x="769.970703"/>
      <use xlink:href="#DejaVuSans-70" x="831.494141"/>
     </g>
    </g>
    <g id="line2d_66">
     <path d="M 885.021875 343.602731 
L 895.021875 343.602731 
L 905.021875 343.602731 
" style="fill: none; stroke: #000000; stroke-width: 3; stroke-linecap: square"/>
    </g>
    <g id="text_40">
     <!-- iris-hep/qastle -->
     <g transform="translate(913.021875 347.102731) scale(0.1 -0.1)">
      <defs>
       <path id="DejaVuSans-71" d="M 947 1747 
Q 947 1113 1208 752 
Q 1469 391 1925 391 
Q 2381 391 2643 752 
Q 2906 1113 2906 1747 
Q 2906 2381 2643 2742 
Q 2381 3103 1925 3103 
Q 1469 3103 1208 2742 
Q 947 2381 947 1747 
z
M 2906 525 
Q 2725 213 2448 61 
Q 2172 -91 1784 -91 
Q 1150 -91 751 415 
Q 353 922 353 1747 
Q 353 2572 751 3078 
Q 1150 3584 1784 3584 
Q 2172 3584 2448 3432 
Q 2725 3281 2906 2969 
L 2906 3500 
L 3481 3500 
L 3481 -1331 
L 2906 -1331 
L 2906 525 
z
" transform="scale(0.015625)"/>
      </defs>
      <use xlink:href="#DejaVuSans-69"/>
      <use xlink:href="#DejaVuSans-72" x="27.783203"/>
      <use xlink:href="#DejaVuSans-69" x="68.896484"/>
      <use xlink:href="#DejaVuSans-73" x="96.679688"/>
      <use xlink:href="#DejaVuSans-2d" x="148.779297"/>
      <use xlink:href="#DejaVuSans-68" x="184.863281"/>
      <use xlink:href="#DejaVuSans-65" x="248.242188"/>
      <use xlink:href="#DejaVuSans-70" x="309.765625"/>
      <use xlink:href="#DejaVuSans-2f" x="373.242188"/>
      <use xlink:href="#DejaVuSans-71" x="406.933594"/>
      <use xlink:href="#DejaVuSans-61" x="470.410156"/>
      <use xlink:href="#DejaVuSans-73" x="531.689453"/>
      <use xlink:href="#DejaVuSans-74" x="583.789062"/>
      <use xlink:href="#DejaVuSans-6c" x="622.998047"/>
      <use xlink:href="#DejaVuSans-65" x="650.78125"/>
     </g>
    </g>
    <g id="line2d_67">
     <path d="M 885.021875 358.280856 
L 895.021875 358.280856 
L 905.021875 358.280856 
" style="fill: none; stroke: #000000; stroke-width: 3; stroke-linecap: square"/>
    </g>
    <g id="text_41">
     <!-- scikit-hep/uhi -->
     <g transform="translate(913.021875 361.780856) scale(0.1 -0.1)">
      <use xlink:href="#DejaVuSans-73"/>
      <use xlink:href="#DejaVuSans-63" x="52.099609"/>
      <use xlink:href="#DejaVuSans-69" x="107.080078"/>
      <use xlink:href="#DejaVuSans-6b" x="134.863281"/>
      <use xlink:href="#DejaVuSans-69" x="192.773438"/>
      <use xlink:href="#DejaVuSans-74" x="220.556641"/>
      <use xlink:href="#DejaVuSans-2d" x="259.765625"/>
      <use xlink:href="#DejaVuSans-68" x="295.849609"/>
      <use xlink:href="#DejaVuSans-65" x="359.228516"/>
      <use xlink:href="#DejaVuSans-70" x="420.751953"/>
      <use xlink:href="#DejaVuSans-2f" x="484.228516"/>
      <use xlink:href="#DejaVuSans-75" x="517.919922"/>
      <use xlink:href="#DejaVuSans-68" x="581.298828"/>
      <use xlink:href="#DejaVuSans-69" x="644.677734"/>
     </g>
    </g>
    <g id="line2d_68">
     <path d="M 885.021875 372.958981 
L 895.021875 372.958981 
L 905.021875 372.958981 
" style="fill: none; stroke: #000000; stroke-width: 3; stroke-linecap: square"/>
    </g>
    <g id="text_42">
     <!-- diana-hep/excursion -->
     <g transform="translate(913.021875 376.458981) scale(0.1 -0.1)">
      <use xlink:href="#DejaVuSans-64"/>
      <use xlink:href="#DejaVuSans-69" x="63.476562"/>
      <use xlink:href="#DejaVuSans-61" x="91.259766"/>
      <use xlink:href="#DejaVuSans-6e" x="152.539062"/>
      <use xlink:href="#DejaVuSans-61" x="215.917969"/>
      <use xlink:href="#DejaVuSans-2d" x="277.197266"/>
      <use xlink:href="#DejaVuSans-68" x="313.28125"/>
      <use xlink:href="#DejaVuSans-65" x="376.660156"/>
      <use xlink:href="#DejaVuSans-70" x="438.183594"/>
      <use xlink:href="#DejaVuSans-2f" x="501.660156"/>
      <use xlink:href="#DejaVuSans-65" x="535.351562"/>
      <use xlink:href="#DejaVuSans-78" x="595.125"/>
      <use xlink:href="#DejaVuSans-63" x="652.554688"/>
      <use xlink:href="#DejaVuSans-75" x="707.535156"/>
      <use xlink:href="#DejaVuSans-72" x="770.914062"/>
      <use xlink:href="#DejaVuSans-73" x="812.027344"/>
      <use xlink:href="#DejaVuSans-69" x="864.126953"/>
      <use xlink:href="#DejaVuSans-6f" x="891.910156"/>
      <use xlink:href="#DejaVuSans-6e" x="953.091797"/>
     </g>
    </g>
    <g id="line2d_69">
     <path d="M 885.021875 387.637106 
L 895.021875 387.637106 
L 905.021875 387.637106 
" style="fill: none; stroke: #000000; stroke-width: 3; stroke-linecap: square"/>
    </g>
    <g id="text_43">
     <!-- scikit-hep/cabinetry -->
     <g transform="translate(913.021875 391.137106) scale(0.1 -0.1)">
      <use xlink:href="#DejaVuSans-73"/>
      <use xlink:href="#DejaVuSans-63" x="52.099609"/>
      <use xlink:href="#DejaVuSans-69" x="107.080078"/>
      <use xlink:href="#DejaVuSans-6b" x="134.863281"/>
      <use xlink:href="#DejaVuSans-69" x="192.773438"/>
      <use xlink:href="#DejaVuSans-74" x="220.556641"/>
      <use xlink:href="#DejaVuSans-2d" x="259.765625"/>
      <use xlink:href="#DejaVuSans-68" x="295.849609"/>
      <use xlink:href="#DejaVuSans-65" x="359.228516"/>
      <use xlink:href="#DejaVuSans-70" x="420.751953"/>
      <use xlink:href="#DejaVuSans-2f" x="484.228516"/>
      <use xlink:href="#DejaVuSans-63" x="517.919922"/>
      <use xlink:href="#DejaVuSans-61" x="572.900391"/>
      <use xlink:href="#DejaVuSans-62" x="634.179688"/>
      <use xlink:href="#DejaVuSans-69" x="697.65625"/>
      <use xlink:href="#DejaVuSans-6e" x="725.439453"/>
      <use xlink:href="#DejaVuSans-65" x="788.818359"/>
      <use xlink:href="#DejaVuSans-74" x="850.341797"/>
      <use xlink:href="#DejaVuSans-72" x="889.550781"/>
      <use xlink:href="#DejaVuSans-79" x="930.664062"/>
     </g>
    </g>
    <g id="line2d_70">
     <path d="M 885.021875 402.315231 
L 895.021875 402.315231 
L 905.021875 402.315231 
" style="fill: none; stroke: #000000; stroke-width: 3; stroke-linecap: square"/>
    </g>
    <g id="text_44">
     <!-- scailfin/madminer-workflow -->
     <g transform="translate(913.021875 405.815231) scale(0.1 -0.1)">
      <use xlink:href="#DejaVuSans-73"/>
      <use xlink:href="#DejaVuSans-63" x="52.099609"/>
      <use xlink:href="#DejaVuSans-61" x="107.080078"/>
      <use xlink:href="#DejaVuSans-69" x="168.359375"/>
      <use xlink:href="#DejaVuSans-6c" x="196.142578"/>
      <use xlink:href="#DejaVuSans-66" x="223.925781"/>
      <use xlink:href="#DejaVuSans-69" x="259.130859"/>
      <use xlink:href="#DejaVuSans-6e" x="286.914062"/>
      <use xlink:href="#DejaVuSans-2f" x="350.292969"/>
      <use xlink:href="#DejaVuSans-6d" x="383.984375"/>
      <use xlink:href="#DejaVuSans-61" x="481.396484"/>
      <use xlink:href="#DejaVuSans-64" x="542.675781"/>
      <use xlink:href="#DejaVuSans-6d" x="606.152344"/>
      <use xlink:href="#DejaVuSans-69" x="703.564453"/>
      <use xlink:href="#DejaVuSans-6e" x="731.347656"/>
      <use xlink:href="#DejaVuSans-65" x="794.726562"/>
      <use xlink:href="#DejaVuSans-72" x="856.25"/>
      <use xlink:href="#DejaVuSans-2d" x="890.988281"/>
      <use xlink:href="#DejaVuSans-77" x="927.072266"/>
      <use xlink:href="#DejaVuSans-6f" x="1008.859375"/>
      <use xlink:href="#DejaVuSans-72" x="1070.041016"/>
      <use xlink:href="#DejaVuSans-6b" x="1111.154297"/>
      <use xlink:href="#DejaVuSans-66" x="1169.064453"/>
      <use xlink:href="#DejaVuSans-6c" x="1204.269531"/>
      <use xlink:href="#DejaVuSans-6f" x="1232.052734"/>
      <use xlink:href="#DejaVuSans-77" x="1293.234375"/>
     </g>
    </g>
    <g id="line2d_71">
     <path d="M 885.021875 416.993356 
L 895.021875 416.993356 
L 905.021875 416.993356 
" style="fill: none; stroke: #000000; stroke-width: 3; stroke-linecap: square"/>
    </g>
    <g id="text_45">
     <!-- gordonwatts/hep_tables -->
     <g transform="translate(913.021875 420.493356) scale(0.1 -0.1)">
      <use xlink:href="#DejaVuSans-67"/>
      <use xlink:href="#DejaVuSans-6f" x="63.476562"/>
      <use xlink:href="#DejaVuSans-72" x="124.658203"/>
      <use xlink:href="#DejaVuSans-64" x="164.021484"/>
      <use xlink:href="#DejaVuSans-6f" x="227.498047"/>
      <use xlink:href="#DejaVuSans-6e" x="288.679688"/>
      <use xlink:href="#DejaVuSans-77" x="352.058594"/>
      <use xlink:href="#DejaVuSans-61" x="433.845703"/>
      <use xlink:href="#DejaVuSans-74" x="495.125"/>
      <use xlink:href="#DejaVuSans-74" x="534.333984"/>
      <use xlink:href="#DejaVuSans-73" x="573.542969"/>
      <use xlink:href="#DejaVuSans-2f" x="625.642578"/>
      <use xlink:href="#DejaVuSans-68" x="659.333984"/>
      <use xlink:href="#DejaVuSans-65" x="722.712891"/>
      <use xlink:href="#DejaVuSans-70" x="784.236328"/>
      <use xlink:href="#DejaVuSans-5f" x="847.712891"/>
      <use xlink:href="#DejaVuSans-74" x="897.712891"/>
      <use xlink:href="#DejaVuSans-61" x="936.921875"/>
      <use xlink:href="#DejaVuSans-62" x="998.201172"/>
      <use xlink:href="#DejaVuSans-6c" x="1061.677734"/>
      <use xlink:href="#DejaVuSans-65" x="1089.460938"/>
      <use xlink:href="#DejaVuSans-73" x="1150.984375"/>
     </g>
    </g>
   </g>
  </g>
 </g>
 <defs>
  <clipPath id="pbbaa4a5802">
   <rect x="48.17" y="11.473043" width="778.760992" height="662.966957"/>
  </clipPath>
 </defs>
</svg>
