<?xml version="1.0" encoding="utf-8" standalone="no"?>
<!DOCTYPE svg PUBLIC "-//W3C//DTD SVG 1.1//EN"
  "http://www.w3.org/Graphics/SVG/1.1/DTD/svg11.dtd">
<svg xmlns:xlink="http://www.w3.org/1999/xlink" width="1080pt" height="720pt" viewBox="0 0 1080 720" xmlns="http://www.w3.org/2000/svg" version="1.1">
 <metadata>
  <rdf:RDF xmlns:dc="http://purl.org/dc/elements/1.1/" xmlns:cc="http://creativecommons.org/ns#" xmlns:rdf="http://www.w3.org/1999/02/22-rdf-syntax-ns#">
   <cc:Work>
    <dc:type rdf:resource="http://purl.org/dc/dcmitype/StillImage"/>
    <dc:date>2024-03-28T00:27:01.879548</dc:date>
    <dc:format>image/svg+xml</dc:format>
    <dc:creator>
     <cc:Agent>
      <dc:title>Matplotlib v3.8.3, https://matplotlib.org/</dc:title>
     </cc:Agent>
    </dc:creator>
   </cc:Work>
  </rdf:RDF>
 </metadata>
 <defs>
  <style type="text/css">*{stroke-linejoin: round; stroke-linecap: butt}</style>
 </defs>
 <g id="figure_1">
  <g id="patch_1">
   <path d="M 0 720 
L 1080 720 
L 1080 0 
L 0 0 
z
" style="fill: #ffffff"/>
  </g>
  <g id="axes_1">
   <g id="patch_2">
    <path d="M 54.47 674.44 
L 829.023455 674.44 
L 829.023455 10.8 
L 54.47 10.8 
z
" style="fill: #ffffff"/>
   </g>
   <g id="matplotlib.axis_1">
    <g id="xtick_1">
     <g id="line2d_1">
      <defs>
       <path id="m401968e5e3" d="M 0 0 
L 0 3.5 
" style="stroke: #000000; stroke-width: 0.8"/>
      </defs>
      <g>
       <use xlink:href="#m401968e5e3" x="111.222273" y="674.44" style="stroke: #000000; stroke-width: 0.8"/>
      </g>
     </g>
     <g id="text_1">
      <!-- 2022-03-28 -->
      <g transform="translate(82.16446 689.038437) scale(0.1 -0.1)">
       <defs>
        <path id="DejaVuSans-32" d="M 1228 531 
L 3431 531 
L 3431 0 
L 469 0 
L 469 531 
Q 828 903 1448 1529 
Q 2069 2156 2228 2338 
Q 2531 2678 2651 2914 
Q 2772 3150 2772 3378 
Q 2772 3750 2511 3984 
Q 2250 4219 1831 4219 
Q 1534 4219 1204 4116 
Q 875 4013 500 3803 
L 500 4441 
Q 881 4594 1212 4672 
Q 1544 4750 1819 4750 
Q 2544 4750 2975 4387 
Q 3406 4025 3406 3419 
Q 3406 3131 3298 2873 
Q 3191 2616 2906 2266 
Q 2828 2175 2409 1742 
Q 1991 1309 1228 531 
z
" transform="scale(0.015625)"/>
        <path id="DejaVuSans-30" d="M 2034 4250 
Q 1547 4250 1301 3770 
Q 1056 3291 1056 2328 
Q 1056 1369 1301 889 
Q 1547 409 2034 409 
Q 2525 409 2770 889 
Q 3016 1369 3016 2328 
Q 3016 3291 2770 3770 
Q 2525 4250 2034 4250 
z
M 2034 4750 
Q 2819 4750 3233 4129 
Q 3647 3509 3647 2328 
Q 3647 1150 3233 529 
Q 2819 -91 2034 -91 
Q 1250 -91 836 529 
Q 422 1150 422 2328 
Q 422 3509 836 4129 
Q 1250 4750 2034 4750 
z
" transform="scale(0.015625)"/>
        <path id="DejaVuSans-2d" d="M 313 2009 
L 1997 2009 
L 1997 1497 
L 313 1497 
L 313 2009 
z
" transform="scale(0.015625)"/>
        <path id="DejaVuSans-33" d="M 2597 2516 
Q 3050 2419 3304 2112 
Q 3559 1806 3559 1356 
Q 3559 666 3084 287 
Q 2609 -91 1734 -91 
Q 1441 -91 1130 -33 
Q 819 25 488 141 
L 488 750 
Q 750 597 1062 519 
Q 1375 441 1716 441 
Q 2309 441 2620 675 
Q 2931 909 2931 1356 
Q 2931 1769 2642 2001 
Q 2353 2234 1838 2234 
L 1294 2234 
L 1294 2753 
L 1863 2753 
Q 2328 2753 2575 2939 
Q 2822 3125 2822 3475 
Q 2822 3834 2567 4026 
Q 2313 4219 1838 4219 
Q 1578 4219 1281 4162 
Q 984 4106 628 3988 
L 628 4550 
Q 988 4650 1302 4700 
Q 1616 4750 1894 4750 
Q 2613 4750 3031 4423 
Q 3450 4097 3450 3541 
Q 3450 3153 3228 2886 
Q 3006 2619 2597 2516 
z
" transform="scale(0.015625)"/>
        <path id="DejaVuSans-38" d="M 2034 2216 
Q 1584 2216 1326 1975 
Q 1069 1734 1069 1313 
Q 1069 891 1326 650 
Q 1584 409 2034 409 
Q 2484 409 2743 651 
Q 3003 894 3003 1313 
Q 3003 1734 2745 1975 
Q 2488 2216 2034 2216 
z
M 1403 2484 
Q 997 2584 770 2862 
Q 544 3141 544 3541 
Q 544 4100 942 4425 
Q 1341 4750 2034 4750 
Q 2731 4750 3128 4425 
Q 3525 4100 3525 3541 
Q 3525 3141 3298 2862 
Q 3072 2584 2669 2484 
Q 3125 2378 3379 2068 
Q 3634 1759 3634 1313 
Q 3634 634 3220 271 
Q 2806 -91 2034 -91 
Q 1263 -91 848 271 
Q 434 634 434 1313 
Q 434 1759 690 2068 
Q 947 2378 1403 2484 
z
M 1172 3481 
Q 1172 3119 1398 2916 
Q 1625 2713 2034 2713 
Q 2441 2713 2670 2916 
Q 2900 3119 2900 3481 
Q 2900 3844 2670 4047 
Q 2441 4250 2034 4250 
Q 1625 4250 1398 4047 
Q 1172 3844 1172 3481 
z
" transform="scale(0.015625)"/>
       </defs>
       <use xlink:href="#DejaVuSans-32"/>
       <use xlink:href="#DejaVuSans-30" x="63.623047"/>
       <use xlink:href="#DejaVuSans-32" x="127.246094"/>
       <use xlink:href="#DejaVuSans-32" x="190.869141"/>
       <use xlink:href="#DejaVuSans-2d" x="254.492188"/>
       <use xlink:href="#DejaVuSans-30" x="290.576172"/>
       <use xlink:href="#DejaVuSans-33" x="354.199219"/>
       <use xlink:href="#DejaVuSans-2d" x="417.822266"/>
       <use xlink:href="#DejaVuSans-32" x="453.90625"/>
       <use xlink:href="#DejaVuSans-38" x="517.529297"/>
      </g>
     </g>
    </g>
    <g id="xtick_2">
     <g id="line2d_2">
      <g>
       <use xlink:href="#m401968e5e3" x="201.320791" y="674.44" style="stroke: #000000; stroke-width: 0.8"/>
      </g>
     </g>
     <g id="text_2">
      <!-- 2022-06-28 -->
      <g transform="translate(172.262978 689.038437) scale(0.1 -0.1)">
       <defs>
        <path id="DejaVuSans-36" d="M 2113 2584 
Q 1688 2584 1439 2293 
Q 1191 2003 1191 1497 
Q 1191 994 1439 701 
Q 1688 409 2113 409 
Q 2538 409 2786 701 
Q 3034 994 3034 1497 
Q 3034 2003 2786 2293 
Q 2538 2584 2113 2584 
z
M 3366 4563 
L 3366 3988 
Q 3128 4100 2886 4159 
Q 2644 4219 2406 4219 
Q 1781 4219 1451 3797 
Q 1122 3375 1075 2522 
Q 1259 2794 1537 2939 
Q 1816 3084 2150 3084 
Q 2853 3084 3261 2657 
Q 3669 2231 3669 1497 
Q 3669 778 3244 343 
Q 2819 -91 2113 -91 
Q 1303 -91 875 529 
Q 447 1150 447 2328 
Q 447 3434 972 4092 
Q 1497 4750 2381 4750 
Q 2619 4750 2861 4703 
Q 3103 4656 3366 4563 
z
" transform="scale(0.015625)"/>
       </defs>
       <use xlink:href="#DejaVuSans-32"/>
       <use xlink:href="#DejaVuSans-30" x="63.623047"/>
       <use xlink:href="#DejaVuSans-32" x="127.246094"/>
       <use xlink:href="#DejaVuSans-32" x="190.869141"/>
       <use xlink:href="#DejaVuSans-2d" x="254.492188"/>
       <use xlink:href="#DejaVuSans-30" x="290.576172"/>
       <use xlink:href="#DejaVuSans-36" x="354.199219"/>
       <use xlink:href="#DejaVuSans-2d" x="417.822266"/>
       <use xlink:href="#DejaVuSans-32" x="453.90625"/>
       <use xlink:href="#DejaVuSans-38" x="517.529297"/>
      </g>
     </g>
    </g>
    <g id="xtick_3">
     <g id="line2d_3">
      <g>
       <use xlink:href="#m401968e5e3" x="291.419309" y="674.44" style="stroke: #000000; stroke-width: 0.8"/>
      </g>
     </g>
     <g id="text_3">
      <!-- 2022-10-04 -->
      <g transform="translate(262.361496 689.038437) scale(0.1 -0.1)">
       <defs>
        <path id="DejaVuSans-31" d="M 794 531 
L 1825 531 
L 1825 4091 
L 703 3866 
L 703 4441 
L 1819 4666 
L 2450 4666 
L 2450 531 
L 3481 531 
L 3481 0 
L 794 0 
L 794 531 
z
" transform="scale(0.015625)"/>
        <path id="DejaVuSans-34" d="M 2419 4116 
L 825 1625 
L 2419 1625 
L 2419 4116 
z
M 2253 4666 
L 3047 4666 
L 3047 1625 
L 3713 1625 
L 3713 1100 
L 3047 1100 
L 3047 0 
L 2419 0 
L 2419 1100 
L 313 1100 
L 313 1709 
L 2253 4666 
z
" transform="scale(0.015625)"/>
       </defs>
       <use xlink:href="#DejaVuSans-32"/>
       <use xlink:href="#DejaVuSans-30" x="63.623047"/>
       <use xlink:href="#DejaVuSans-32" x="127.246094"/>
       <use xlink:href="#DejaVuSans-32" x="190.869141"/>
       <use xlink:href="#DejaVuSans-2d" x="254.492188"/>
       <use xlink:href="#DejaVuSans-31" x="290.576172"/>
       <use xlink:href="#DejaVuSans-30" x="354.199219"/>
       <use xlink:href="#DejaVuSans-2d" x="417.822266"/>
       <use xlink:href="#DejaVuSans-30" x="453.90625"/>
       <use xlink:href="#DejaVuSans-34" x="517.529297"/>
      </g>
     </g>
    </g>
    <g id="xtick_4">
     <g id="line2d_4">
      <g>
       <use xlink:href="#m401968e5e3" x="379.559163" y="674.44" style="stroke: #000000; stroke-width: 0.8"/>
      </g>
     </g>
     <g id="text_4">
      <!-- 2023-01-02 -->
      <g transform="translate(350.501351 689.038437) scale(0.1 -0.1)">
       <use xlink:href="#DejaVuSans-32"/>
       <use xlink:href="#DejaVuSans-30" x="63.623047"/>
       <use xlink:href="#DejaVuSans-32" x="127.246094"/>
       <use xlink:href="#DejaVuSans-33" x="190.869141"/>
       <use xlink:href="#DejaVuSans-2d" x="254.492188"/>
       <use xlink:href="#DejaVuSans-30" x="290.576172"/>
       <use xlink:href="#DejaVuSans-31" x="354.199219"/>
       <use xlink:href="#DejaVuSans-2d" x="417.822266"/>
       <use xlink:href="#DejaVuSans-30" x="453.90625"/>
       <use xlink:href="#DejaVuSans-32" x="517.529297"/>
      </g>
     </g>
    </g>
    <g id="xtick_5">
     <g id="line2d_5">
      <g>
       <use xlink:href="#m401968e5e3" x="468.678349" y="674.44" style="stroke: #000000; stroke-width: 0.8"/>
      </g>
     </g>
     <g id="text_5">
      <!-- 2023-04-03 -->
      <g transform="translate(439.620537 689.038437) scale(0.1 -0.1)">
       <use xlink:href="#DejaVuSans-32"/>
       <use xlink:href="#DejaVuSans-30" x="63.623047"/>
       <use xlink:href="#DejaVuSans-32" x="127.246094"/>
       <use xlink:href="#DejaVuSans-33" x="190.869141"/>
       <use xlink:href="#DejaVuSans-2d" x="254.492188"/>
       <use xlink:href="#DejaVuSans-30" x="290.576172"/>
       <use xlink:href="#DejaVuSans-34" x="354.199219"/>
       <use xlink:href="#DejaVuSans-2d" x="417.822266"/>
       <use xlink:href="#DejaVuSans-30" x="453.90625"/>
       <use xlink:href="#DejaVuSans-33" x="517.529297"/>
      </g>
     </g>
    </g>
    <g id="xtick_6">
     <g id="line2d_6">
      <g>
       <use xlink:href="#m401968e5e3" x="558.776867" y="674.44" style="stroke: #000000; stroke-width: 0.8"/>
      </g>
     </g>
     <g id="text_6">
      <!-- 2023-07-04 -->
      <g transform="translate(529.719055 689.038437) scale(0.1 -0.1)">
       <defs>
        <path id="DejaVuSans-37" d="M 525 4666 
L 3525 4666 
L 3525 4397 
L 1831 0 
L 1172 0 
L 2766 4134 
L 525 4134 
L 525 4666 
z
" transform="scale(0.015625)"/>
       </defs>
       <use xlink:href="#DejaVuSans-32"/>
       <use xlink:href="#DejaVuSans-30" x="63.623047"/>
       <use xlink:href="#DejaVuSans-32" x="127.246094"/>
       <use xlink:href="#DejaVuSans-33" x="190.869141"/>
       <use xlink:href="#DejaVuSans-2d" x="254.492188"/>
       <use xlink:href="#DejaVuSans-30" x="290.576172"/>
       <use xlink:href="#DejaVuSans-37" x="354.199219"/>
       <use xlink:href="#DejaVuSans-2d" x="417.822266"/>
       <use xlink:href="#DejaVuSans-30" x="453.90625"/>
       <use xlink:href="#DejaVuSans-34" x="517.529297"/>
      </g>
     </g>
    </g>
    <g id="xtick_7">
     <g id="line2d_7">
      <g>
       <use xlink:href="#m401968e5e3" x="648.875385" y="674.44" style="stroke: #000000; stroke-width: 0.8"/>
      </g>
     </g>
     <g id="text_7">
      <!-- 2023-11-01 -->
      <g transform="translate(619.817573 689.038437) scale(0.1 -0.1)">
       <use xlink:href="#DejaVuSans-32"/>
       <use xlink:href="#DejaVuSans-30" x="63.623047"/>
       <use xlink:href="#DejaVuSans-32" x="127.246094"/>
       <use xlink:href="#DejaVuSans-33" x="190.869141"/>
       <use xlink:href="#DejaVuSans-2d" x="254.492188"/>
       <use xlink:href="#DejaVuSans-31" x="290.576172"/>
       <use xlink:href="#DejaVuSans-31" x="354.199219"/>
       <use xlink:href="#DejaVuSans-2d" x="417.822266"/>
       <use xlink:href="#DejaVuSans-30" x="453.90625"/>
       <use xlink:href="#DejaVuSans-31" x="517.529297"/>
      </g>
     </g>
    </g>
    <g id="xtick_8">
     <g id="line2d_8">
      <g>
       <use xlink:href="#m401968e5e3" x="737.994572" y="674.44" style="stroke: #000000; stroke-width: 0.8"/>
      </g>
     </g>
     <g id="text_8">
      <!-- 2024-01-31 -->
      <g transform="translate(708.936759 689.038437) scale(0.1 -0.1)">
       <use xlink:href="#DejaVuSans-32"/>
       <use xlink:href="#DejaVuSans-30" x="63.623047"/>
       <use xlink:href="#DejaVuSans-32" x="127.246094"/>
       <use xlink:href="#DejaVuSans-34" x="190.869141"/>
       <use xlink:href="#DejaVuSans-2d" x="254.492188"/>
       <use xlink:href="#DejaVuSans-30" x="290.576172"/>
       <use xlink:href="#DejaVuSans-31" x="354.199219"/>
       <use xlink:href="#DejaVuSans-2d" x="417.822266"/>
       <use xlink:href="#DejaVuSans-33" x="453.90625"/>
       <use xlink:href="#DejaVuSans-31" x="517.529297"/>
      </g>
     </g>
    </g>
    <g id="xtick_9">
     <g id="line2d_9">
      <g>
       <use xlink:href="#m401968e5e3" x="827.113758" y="674.44" style="stroke: #000000; stroke-width: 0.8"/>
      </g>
     </g>
    </g>
    <g id="text_9">
     <!-- Date -->
     <g transform="translate(425.015634 705.755937) scale(0.14 -0.14)">
      <defs>
       <path id="DejaVuSans-44" d="M 1259 4147 
L 1259 519 
L 2022 519 
Q 2988 519 3436 956 
Q 3884 1394 3884 2338 
Q 3884 3275 3436 3711 
Q 2988 4147 2022 4147 
L 1259 4147 
z
M 628 4666 
L 1925 4666 
Q 3281 4666 3915 4102 
Q 4550 3538 4550 2338 
Q 4550 1131 3912 565 
Q 3275 0 1925 0 
L 628 0 
L 628 4666 
z
" transform="scale(0.015625)"/>
       <path id="DejaVuSans-61" d="M 2194 1759 
Q 1497 1759 1228 1600 
Q 959 1441 959 1056 
Q 959 750 1161 570 
Q 1363 391 1709 391 
Q 2188 391 2477 730 
Q 2766 1069 2766 1631 
L 2766 1759 
L 2194 1759 
z
M 3341 1997 
L 3341 0 
L 2766 0 
L 2766 531 
Q 2569 213 2275 61 
Q 1981 -91 1556 -91 
Q 1019 -91 701 211 
Q 384 513 384 1019 
Q 384 1609 779 1909 
Q 1175 2209 1959 2209 
L 2766 2209 
L 2766 2266 
Q 2766 2663 2505 2880 
Q 2244 3097 1772 3097 
Q 1472 3097 1187 3025 
Q 903 2953 641 2809 
L 641 3341 
Q 956 3463 1253 3523 
Q 1550 3584 1831 3584 
Q 2591 3584 2966 3190 
Q 3341 2797 3341 1997 
z
" transform="scale(0.015625)"/>
       <path id="DejaVuSans-74" d="M 1172 4494 
L 1172 3500 
L 2356 3500 
L 2356 3053 
L 1172 3053 
L 1172 1153 
Q 1172 725 1289 603 
Q 1406 481 1766 481 
L 2356 481 
L 2356 0 
L 1766 0 
Q 1100 0 847 248 
Q 594 497 594 1153 
L 594 3053 
L 172 3053 
L 172 3500 
L 594 3500 
L 594 4494 
L 1172 4494 
z
" transform="scale(0.015625)"/>
       <path id="DejaVuSans-65" d="M 3597 1894 
L 3597 1613 
L 953 1613 
Q 991 1019 1311 708 
Q 1631 397 2203 397 
Q 2534 397 2845 478 
Q 3156 559 3463 722 
L 3463 178 
Q 3153 47 2828 -22 
Q 2503 -91 2169 -91 
Q 1331 -91 842 396 
Q 353 884 353 1716 
Q 353 2575 817 3079 
Q 1281 3584 2069 3584 
Q 2775 3584 3186 3129 
Q 3597 2675 3597 1894 
z
M 3022 2063 
Q 3016 2534 2758 2815 
Q 2500 3097 2075 3097 
Q 1594 3097 1305 2825 
Q 1016 2553 972 2059 
L 3022 2063 
z
" transform="scale(0.015625)"/>
      </defs>
      <use xlink:href="#DejaVuSans-44"/>
      <use xlink:href="#DejaVuSans-61" x="77.001953"/>
      <use xlink:href="#DejaVuSans-74" x="138.28125"/>
      <use xlink:href="#DejaVuSans-65" x="177.490234"/>
     </g>
    </g>
   </g>
   <g id="matplotlib.axis_2">
    <g id="ytick_1">
     <g id="line2d_10">
      <defs>
       <path id="mc76488eb75" d="M 0 0 
L -3.5 0 
" style="stroke: #000000; stroke-width: 0.8"/>
      </defs>
      <g>
       <use xlink:href="#mc76488eb75" x="54.47" y="644.274545" style="stroke: #000000; stroke-width: 0.8"/>
      </g>
     </g>
     <g id="text_10">
      <!-- 0 -->
      <g transform="translate(41.1075 648.073764) scale(0.1 -0.1)">
       <use xlink:href="#DejaVuSans-30"/>
      </g>
     </g>
    </g>
    <g id="ytick_2">
     <g id="line2d_11">
      <g>
       <use xlink:href="#mc76488eb75" x="54.47" y="522.147199" style="stroke: #000000; stroke-width: 0.8"/>
      </g>
     </g>
     <g id="text_11">
      <!-- 50 -->
      <g transform="translate(34.745 525.946418) scale(0.1 -0.1)">
       <defs>
        <path id="DejaVuSans-35" d="M 691 4666 
L 3169 4666 
L 3169 4134 
L 1269 4134 
L 1269 2991 
Q 1406 3038 1543 3061 
Q 1681 3084 1819 3084 
Q 2600 3084 3056 2656 
Q 3513 2228 3513 1497 
Q 3513 744 3044 326 
Q 2575 -91 1722 -91 
Q 1428 -91 1123 -41 
Q 819 9 494 109 
L 494 744 
Q 775 591 1075 516 
Q 1375 441 1709 441 
Q 2250 441 2565 725 
Q 2881 1009 2881 1497 
Q 2881 1984 2565 2268 
Q 2250 2553 1709 2553 
Q 1456 2553 1204 2497 
Q 953 2441 691 2322 
L 691 4666 
z
" transform="scale(0.015625)"/>
       </defs>
       <use xlink:href="#DejaVuSans-35"/>
       <use xlink:href="#DejaVuSans-30" x="63.623047"/>
      </g>
     </g>
    </g>
    <g id="ytick_3">
     <g id="line2d_12">
      <g>
       <use xlink:href="#mc76488eb75" x="54.47" y="400.019853" style="stroke: #000000; stroke-width: 0.8"/>
      </g>
     </g>
     <g id="text_12">
      <!-- 100 -->
      <g transform="translate(28.3825 403.819072) scale(0.1 -0.1)">
       <use xlink:href="#DejaVuSans-31"/>
       <use xlink:href="#DejaVuSans-30" x="63.623047"/>
       <use xlink:href="#DejaVuSans-30" x="127.246094"/>
      </g>
     </g>
    </g>
    <g id="ytick_4">
     <g id="line2d_13">
      <g>
       <use xlink:href="#mc76488eb75" x="54.47" y="277.892506" style="stroke: #000000; stroke-width: 0.8"/>
      </g>
     </g>
     <g id="text_13">
      <!-- 150 -->
      <g transform="translate(28.3825 281.691725) scale(0.1 -0.1)">
       <use xlink:href="#DejaVuSans-31"/>
       <use xlink:href="#DejaVuSans-35" x="63.623047"/>
       <use xlink:href="#DejaVuSans-30" x="127.246094"/>
      </g>
     </g>
    </g>
    <g id="ytick_5">
     <g id="line2d_14">
      <g>
       <use xlink:href="#mc76488eb75" x="54.47" y="155.76516" style="stroke: #000000; stroke-width: 0.8"/>
      </g>
     </g>
     <g id="text_14">
      <!-- 200 -->
      <g transform="translate(28.3825 159.564379) scale(0.1 -0.1)">
       <use xlink:href="#DejaVuSans-32"/>
       <use xlink:href="#DejaVuSans-30" x="63.623047"/>
       <use xlink:href="#DejaVuSans-30" x="127.246094"/>
      </g>
     </g>
    </g>
    <g id="ytick_6">
     <g id="line2d_15">
      <g>
       <use xlink:href="#mc76488eb75" x="54.47" y="33.637814" style="stroke: #000000; stroke-width: 0.8"/>
      </g>
     </g>
     <g id="text_15">
      <!-- 250 -->
      <g transform="translate(28.3825 37.437033) scale(0.1 -0.1)">
       <use xlink:href="#DejaVuSans-32"/>
       <use xlink:href="#DejaVuSans-35" x="63.623047"/>
       <use xlink:href="#DejaVuSans-30" x="127.246094"/>
      </g>
     </g>
    </g>
    <g id="text_16">
     <!-- Number of releases -->
     <g transform="translate(21.470937 411.10625) rotate(-90) scale(0.14 -0.14)">
      <defs>
       <path id="DejaVuSans-4e" d="M 628 4666 
L 1478 4666 
L 3547 763 
L 3547 4666 
L 4159 4666 
L 4159 0 
L 3309 0 
L 1241 3903 
L 1241 0 
L 628 0 
L 628 4666 
z
" transform="scale(0.015625)"/>
       <path id="DejaVuSans-75" d="M 544 1381 
L 544 3500 
L 1119 3500 
L 1119 1403 
Q 1119 906 1312 657 
Q 1506 409 1894 409 
Q 2359 409 2629 706 
Q 2900 1003 2900 1516 
L 2900 3500 
L 3475 3500 
L 3475 0 
L 2900 0 
L 2900 538 
Q 2691 219 2414 64 
Q 2138 -91 1772 -91 
Q 1169 -91 856 284 
Q 544 659 544 1381 
z
M 1991 3584 
L 1991 3584 
z
" transform="scale(0.015625)"/>
       <path id="DejaVuSans-6d" d="M 3328 2828 
Q 3544 3216 3844 3400 
Q 4144 3584 4550 3584 
Q 5097 3584 5394 3201 
Q 5691 2819 5691 2113 
L 5691 0 
L 5113 0 
L 5113 2094 
Q 5113 2597 4934 2840 
Q 4756 3084 4391 3084 
Q 3944 3084 3684 2787 
Q 3425 2491 3425 1978 
L 3425 0 
L 2847 0 
L 2847 2094 
Q 2847 2600 2669 2842 
Q 2491 3084 2119 3084 
Q 1678 3084 1418 2786 
Q 1159 2488 1159 1978 
L 1159 0 
L 581 0 
L 581 3500 
L 1159 3500 
L 1159 2956 
Q 1356 3278 1631 3431 
Q 1906 3584 2284 3584 
Q 2666 3584 2933 3390 
Q 3200 3197 3328 2828 
z
" transform="scale(0.015625)"/>
       <path id="DejaVuSans-62" d="M 3116 1747 
Q 3116 2381 2855 2742 
Q 2594 3103 2138 3103 
Q 1681 3103 1420 2742 
Q 1159 2381 1159 1747 
Q 1159 1113 1420 752 
Q 1681 391 2138 391 
Q 2594 391 2855 752 
Q 3116 1113 3116 1747 
z
M 1159 2969 
Q 1341 3281 1617 3432 
Q 1894 3584 2278 3584 
Q 2916 3584 3314 3078 
Q 3713 2572 3713 1747 
Q 3713 922 3314 415 
Q 2916 -91 2278 -91 
Q 1894 -91 1617 61 
Q 1341 213 1159 525 
L 1159 0 
L 581 0 
L 581 4863 
L 1159 4863 
L 1159 2969 
z
" transform="scale(0.015625)"/>
       <path id="DejaVuSans-72" d="M 2631 2963 
Q 2534 3019 2420 3045 
Q 2306 3072 2169 3072 
Q 1681 3072 1420 2755 
Q 1159 2438 1159 1844 
L 1159 0 
L 581 0 
L 581 3500 
L 1159 3500 
L 1159 2956 
Q 1341 3275 1631 3429 
Q 1922 3584 2338 3584 
Q 2397 3584 2469 3576 
Q 2541 3569 2628 3553 
L 2631 2963 
z
" transform="scale(0.015625)"/>
       <path id="DejaVuSans-20" transform="scale(0.015625)"/>
       <path id="DejaVuSans-6f" d="M 1959 3097 
Q 1497 3097 1228 2736 
Q 959 2375 959 1747 
Q 959 1119 1226 758 
Q 1494 397 1959 397 
Q 2419 397 2687 759 
Q 2956 1122 2956 1747 
Q 2956 2369 2687 2733 
Q 2419 3097 1959 3097 
z
M 1959 3584 
Q 2709 3584 3137 3096 
Q 3566 2609 3566 1747 
Q 3566 888 3137 398 
Q 2709 -91 1959 -91 
Q 1206 -91 779 398 
Q 353 888 353 1747 
Q 353 2609 779 3096 
Q 1206 3584 1959 3584 
z
" transform="scale(0.015625)"/>
       <path id="DejaVuSans-66" d="M 2375 4863 
L 2375 4384 
L 1825 4384 
Q 1516 4384 1395 4259 
Q 1275 4134 1275 3809 
L 1275 3500 
L 2222 3500 
L 2222 3053 
L 1275 3053 
L 1275 0 
L 697 0 
L 697 3053 
L 147 3053 
L 147 3500 
L 697 3500 
L 697 3744 
Q 697 4328 969 4595 
Q 1241 4863 1831 4863 
L 2375 4863 
z
" transform="scale(0.015625)"/>
       <path id="DejaVuSans-6c" d="M 603 4863 
L 1178 4863 
L 1178 0 
L 603 0 
L 603 4863 
z
" transform="scale(0.015625)"/>
       <path id="DejaVuSans-73" d="M 2834 3397 
L 2834 2853 
Q 2591 2978 2328 3040 
Q 2066 3103 1784 3103 
Q 1356 3103 1142 2972 
Q 928 2841 928 2578 
Q 928 2378 1081 2264 
Q 1234 2150 1697 2047 
L 1894 2003 
Q 2506 1872 2764 1633 
Q 3022 1394 3022 966 
Q 3022 478 2636 193 
Q 2250 -91 1575 -91 
Q 1294 -91 989 -36 
Q 684 19 347 128 
L 347 722 
Q 666 556 975 473 
Q 1284 391 1588 391 
Q 1994 391 2212 530 
Q 2431 669 2431 922 
Q 2431 1156 2273 1281 
Q 2116 1406 1581 1522 
L 1381 1569 
Q 847 1681 609 1914 
Q 372 2147 372 2553 
Q 372 3047 722 3315 
Q 1072 3584 1716 3584 
Q 2034 3584 2315 3537 
Q 2597 3491 2834 3397 
z
" transform="scale(0.015625)"/>
      </defs>
      <use xlink:href="#DejaVuSans-4e"/>
      <use xlink:href="#DejaVuSans-75" x="74.804688"/>
      <use xlink:href="#DejaVuSans-6d" x="138.183594"/>
      <use xlink:href="#DejaVuSans-62" x="235.595703"/>
      <use xlink:href="#DejaVuSans-65" x="299.072266"/>
      <use xlink:href="#DejaVuSans-72" x="360.595703"/>
      <use xlink:href="#DejaVuSans-20" x="401.708984"/>
      <use xlink:href="#DejaVuSans-6f" x="433.496094"/>
      <use xlink:href="#DejaVuSans-66" x="494.677734"/>
      <use xlink:href="#DejaVuSans-20" x="529.882812"/>
      <use xlink:href="#DejaVuSans-72" x="561.669922"/>
      <use xlink:href="#DejaVuSans-65" x="600.533203"/>
      <use xlink:href="#DejaVuSans-6c" x="662.056641"/>
      <use xlink:href="#DejaVuSans-65" x="689.839844"/>
      <use xlink:href="#DejaVuSans-61" x="751.363281"/>
      <use xlink:href="#DejaVuSans-73" x="812.642578"/>
      <use xlink:href="#DejaVuSans-65" x="864.742188"/>
      <use xlink:href="#DejaVuSans-73" x="926.265625"/>
     </g>
    </g>
   </g>
   <g id="line2d_16">
    <path d="M 89.676975 231.484115 
L 128.850244 231.484115 
L 129.829576 229.041568 
L 132.767571 229.041568 
L 133.746902 226.599021 
L 146.478215 226.599021 
L 147.457546 224.156474 
L 148.436878 224.156474 
L 149.41621 221.713927 
L 189.56881 221.713927 
L 190.548142 219.27138 
L 195.444801 219.27138 
L 197.403464 214.386286 
L 212.09344 214.386286 
L 213.072771 211.943739 
L 223.84542 211.943739 
L 225.804084 207.058646 
L 257.142699 207.058646 
L 258.12203 202.173552 
L 264.977352 202.173552 
L 265.956684 199.731005 
L 266.936016 194.845911 
L 267.915348 192.403364 
L 269.874011 192.403364 
L 270.853343 187.51827 
L 271.832674 187.51827 
L 272.812006 185.075723 
L 276.729333 185.075723 
L 277.708665 182.633176 
L 278.687996 182.633176 
L 280.64666 177.748082 
L 311.985275 177.748082 
L 312.964607 175.305536 
L 314.92327 175.305536 
L 315.902602 172.862989 
L 322.757924 172.862989 
L 323.737255 170.420442 
L 325.695919 170.420442 
L 326.675251 167.977895 
L 335.489236 167.977895 
L 336.468568 165.535348 
L 352.137875 165.535348 
L 354.096539 160.650254 
L 355.07587 160.650254 
L 357.034534 155.76516 
L 358.993197 155.76516 
L 359.972529 153.322613 
L 361.931192 153.322613 
L 363.889856 148.437519 
L 369.765846 148.437519 
L 370.745178 143.552425 
L 378.579832 143.552425 
L 379.559163 141.109879 
L 390.331812 141.109879 
L 391.311144 138.667332 
L 410.897778 138.667332 
L 411.87711 136.224785 
L 423.629091 136.224785 
L 424.608422 133.782238 
L 438.319066 133.782238 
L 439.298398 131.339691 
L 442.236393 131.339691 
L 443.215725 126.454597 
L 448.112383 126.454597 
L 449.091715 124.01205 
L 453.009042 124.01205 
L 453.988374 121.569503 
L 473.575008 121.569503 
L 474.55434 119.126956 
L 478.471667 119.126956 
L 479.450998 116.684409 
L 490.223647 116.684409 
L 491.202979 114.241862 
L 504.913623 114.241862 
L 505.892955 111.799315 
L 513.727608 111.799315 
L 514.70694 109.356768 
L 534.293574 109.356768 
L 535.272906 106.914222 
L 540.169565 106.914222 
L 541.148896 104.471675 
L 547.024887 104.471675 
L 548.004219 102.029128 
L 558.776867 102.029128 
L 560.735531 97.144034 
L 573.466843 97.144034 
L 574.446175 94.701487 
L 595.012141 94.701487 
L 595.991473 92.25894 
L 600.888131 92.25894 
L 601.867463 89.816393 
L 618.516102 89.816393 
L 619.495434 84.931299 
L 620.474766 84.931299 
L 621.454097 82.488752 
L 626.350756 82.488752 
L 627.330088 72.718565 
L 629.288751 72.718565 
L 630.268083 70.276018 
L 643.978727 70.276018 
L 644.958058 65.390924 
L 652.792712 65.390924 
L 653.772044 62.948377 
L 654.751376 65.390924 
L 656.710039 65.390924 
L 657.689371 62.948377 
L 663.565361 62.948377 
L 664.544693 60.50583 
L 683.151995 60.50583 
L 684.131327 58.063283 
L 689.027986 58.063283 
L 690.007317 55.620736 
L 719.387269 55.620736 
L 720.366601 53.178189 
L 739.953235 53.178189 
L 740.932567 50.735642 
L 742.89123 50.735642 
L 743.870562 48.293095 
L 770.312518 48.293095 
L 771.29185 45.850548 
L 786.961157 45.850548 
L 788.919821 40.965455 
L 793.816479 40.965455 
L 793.816479 40.965455 
" clip-path="url(#p617bc3eae5)" style="fill: none; stroke: #1f77b4; stroke-width: 3; stroke-linecap: square"/>
   </g>
   <g id="line2d_17">
    <path d="M 89.676975 145.994972 
L 570.528848 145.994972 
L 571.50818 163.092801 
L 572.487511 145.994972 
L 793.816479 145.994972 
L 793.816479 145.994972 
" clip-path="url(#p617bc3eae5)" style="fill: none; stroke: #ff7f0e; stroke-width: 3; stroke-linecap: square"/>
   </g>
   <g id="line2d_18">
    <path d="M 89.676975 495.279183 
L 91.635639 495.279183 
L 92.61497 492.836636 
L 97.511629 492.836636 
L 98.490961 490.394089 
L 154.312868 490.394089 
L 155.2922 487.951542 
L 194.465469 487.951542 
L 196.424132 478.181354 
L 205.238118 478.181354 
L 206.217449 475.738808 
L 224.824752 475.738808 
L 225.804084 473.296261 
L 237.556064 473.296261 
L 238.535396 470.853714 
L 257.142699 470.853714 
L 258.12203 468.411167 
L 265.956684 468.411167 
L 266.936016 465.96862 
L 280.64666 465.96862 
L 281.625992 463.526073 
L 287.501982 463.526073 
L 288.481314 461.083526 
L 292.398641 461.083526 
L 293.377972 458.640979 
L 294.357304 458.640979 
L 295.336636 456.198432 
L 312.964607 456.198432 
L 313.943938 453.755885 
L 315.902602 453.755885 
L 316.881933 451.313338 
L 353.117207 451.313338 
L 354.096539 448.870791 
L 357.034534 448.870791 
L 358.013866 446.428244 
L 361.931192 446.428244 
L 362.910524 443.985697 
L 368.786514 443.985697 
L 369.765846 441.543151 
L 422.649759 441.543151 
L 423.629091 439.100604 
L 436.360403 439.100604 
L 437.339735 436.658057 
L 451.050379 436.658057 
L 452.02971 434.21551 
L 471.616345 434.21551 
L 472.595676 431.772963 
L 479.450998 431.772963 
L 480.43033 429.330416 
L 534.293574 429.330416 
L 535.272906 426.887869 
L 546.045555 426.887869 
L 547.024887 424.445322 
L 560.735531 424.445322 
L 561.714863 422.002775 
L 595.012141 422.002775 
L 595.991473 419.560228 
L 626.350756 419.560228 
L 627.330088 412.232587 
L 628.309419 412.232587 
L 630.268083 407.347494 
L 631.247414 400.019853 
L 636.144073 400.019853 
L 637.123405 397.577306 
L 664.544693 397.577306 
L 665.524024 395.134759 
L 674.33801 395.134759 
L 676.296673 390.249665 
L 689.027986 390.249665 
L 691.965981 382.922024 
L 710.573283 382.922024 
L 711.552615 378.03693 
L 732.118581 378.03693 
L 733.097913 387.807118 
L 734.077245 375.594384 
L 751.705216 375.594384 
L 752.684547 373.151837 
L 759.539869 373.151837 
L 760.519201 370.70929 
L 761.498533 365.824196 
L 786.961157 365.824196 
L 787.940489 363.381649 
L 791.857816 363.381649 
L 792.837148 360.939102 
L 793.816479 360.939102 
L 793.816479 360.939102 
" clip-path="url(#p617bc3eae5)" style="fill: none; stroke: #2ca02c; stroke-width: 3; stroke-linecap: square"/>
   </g>
   <g id="line2d_19">
    <path d="M 89.676975 400.019853 
L 793.816479 400.019853 
L 793.816479 400.019853 
" clip-path="url(#p617bc3eae5)" style="fill: none; stroke: #d62728; stroke-width: 3; stroke-linecap: square"/>
   </g>
   <g id="line2d_20">
    <path d="M 89.676975 585.653419 
L 90.656307 573.440685 
L 91.635639 573.440685 
L 92.61497 570.998138 
L 96.532297 570.998138 
L 97.511629 566.113044 
L 98.490961 563.670497 
L 101.428956 563.670497 
L 102.408288 561.22795 
L 116.118932 561.22795 
L 117.098263 558.785403 
L 313.943938 558.785403 
L 314.92327 556.342856 
L 315.902602 556.342856 
L 316.881933 553.900309 
L 328.633914 553.900309 
L 329.613246 551.457762 
L 409.918446 551.457762 
L 410.897778 549.015215 
L 419.711764 549.015215 
L 420.691095 544.130121 
L 421.670427 544.130121 
L 423.629091 539.245028 
L 431.463744 539.245028 
L 432.443076 536.802481 
L 456.926369 536.802481 
L 457.905701 531.917387 
L 530.376248 531.917387 
L 531.355579 529.47484 
L 541.148896 529.47484 
L 542.128228 527.032293 
L 567.590853 527.032293 
L 568.570185 524.589746 
L 633.206078 524.589746 
L 634.18541 522.147199 
L 786.961157 522.147199 
L 787.940489 519.704652 
L 793.816479 519.704652 
L 793.816479 519.704652 
" clip-path="url(#p617bc3eae5)" style="fill: none; stroke: #9467bd; stroke-width: 3; stroke-linecap: square"/>
   </g>
   <g id="line2d_21">
    <path d="M 89.676975 534.359934 
L 90.656307 534.359934 
L 91.635639 531.917387 
L 295.336636 531.917387 
L 296.315967 529.47484 
L 304.150621 529.47484 
L 305.129953 527.032293 
L 397.187134 527.032293 
L 398.166466 524.589746 
L 613.619444 524.589746 
L 614.598775 527.032293 
L 615.578107 524.589746 
L 793.816479 524.589746 
L 793.816479 524.589746 
" clip-path="url(#p617bc3eae5)" style="fill: none; stroke: #8c564b; stroke-width: 3; stroke-linecap: square"/>
   </g>
   <g id="line2d_22">
    <path d="M 89.676975 553.900309 
L 112.201605 553.900309 
L 113.180936 551.457762 
L 325.695919 551.457762 
L 326.675251 549.015215 
L 381.517827 549.015215 
L 382.497158 546.572668 
L 406.980451 546.572668 
L 407.959783 544.130121 
L 458.885032 544.130121 
L 459.864364 541.687575 
L 469.657681 541.687575 
L 470.637013 546.572668 
L 471.616345 541.687575 
L 537.23157 541.687575 
L 538.210901 539.245028 
L 558.776867 539.245028 
L 559.756199 536.802481 
L 678.255337 536.802481 
L 679.234669 534.359934 
L 793.816479 534.359934 
L 793.816479 534.359934 
" clip-path="url(#p617bc3eae5)" style="fill: none; stroke: #e377c2; stroke-width: 3; stroke-linecap: square"/>
   </g>
   <g id="line2d_23">
    <path d="M 89.676975 563.670497 
L 214.052103 563.670497 
L 215.031435 561.22795 
L 325.695919 561.22795 
L 326.675251 558.785403 
L 409.918446 558.785403 
L 410.897778 556.342856 
L 462.802359 556.342856 
L 463.781691 553.900309 
L 471.616345 553.900309 
L 472.595676 551.457762 
L 554.859541 551.457762 
L 555.838872 549.015215 
L 575.425507 549.015215 
L 576.404838 546.572668 
L 579.342833 546.572668 
L 580.322165 544.130121 
L 635.164741 544.130121 
L 636.144073 541.687575 
L 678.255337 541.687575 
L 679.234669 539.245028 
L 697.841971 539.245028 
L 698.821303 536.802481 
L 745.829225 536.802481 
L 746.808557 534.359934 
L 793.816479 534.359934 
L 793.816479 534.359934 
" clip-path="url(#p617bc3eae5)" style="fill: none; stroke: #7f7f7f; stroke-width: 3; stroke-linecap: square"/>
   </g>
   <g id="line2d_24">
    <path d="M 89.676975 575.883232 
L 202.300123 575.883232 
L 203.279454 573.440685 
L 262.039357 573.440685 
L 263.018689 570.998138 
L 266.936016 570.998138 
L 267.915348 568.555591 
L 269.874011 568.555591 
L 270.853343 566.113044 
L 281.625992 566.113044 
L 282.605323 563.670497 
L 471.616345 563.670497 
L 472.595676 561.22795 
L 512.748277 561.22795 
L 513.727608 558.785403 
L 600.888131 558.785403 
L 601.867463 556.342856 
L 621.454097 556.342856 
L 622.433429 553.900309 
L 642.999395 553.900309 
L 643.978727 551.457762 
L 712.531947 551.457762 
L 713.511279 549.015215 
L 793.816479 549.015215 
L 793.816479 549.015215 
" clip-path="url(#p617bc3eae5)" style="fill: none; stroke: #bcbd22; stroke-width: 3; stroke-linecap: square"/>
   </g>
   <g id="line2d_25">
    <path d="M 89.676975 585.653419 
L 106.325614 585.653419 
L 107.304946 583.210872 
L 114.160268 583.210872 
L 115.1396 580.768325 
L 127.870912 580.768325 
L 128.850244 578.325778 
L 146.478215 578.325778 
L 147.457546 575.883232 
L 300.233294 575.883232 
L 301.212626 573.440685 
L 345.282553 573.440685 
L 346.261885 570.998138 
L 353.117207 570.998138 
L 354.096539 568.555591 
L 403.063124 568.555591 
L 404.042456 566.113044 
L 445.174388 566.113044 
L 446.15372 563.670497 
L 497.078969 563.670497 
L 498.058301 561.22795 
L 550.942214 561.22795 
L 551.921545 558.785403 
L 620.474766 558.785403 
L 621.454097 556.342856 
L 626.350756 556.342856 
L 627.330088 553.900309 
L 695.883308 553.900309 
L 696.862639 551.457762 
L 779.126504 551.457762 
L 780.105835 549.015215 
L 793.816479 549.015215 
L 793.816479 549.015215 
" clip-path="url(#p617bc3eae5)" style="fill: none; stroke: #17becf; stroke-width: 3; stroke-linecap: square"/>
   </g>
   <g id="line2d_26">
    <path d="M 89.676975 583.210872 
L 96.532297 583.210872 
L 97.511629 580.768325 
L 101.428956 580.768325 
L 102.408288 578.325778 
L 103.387619 578.325778 
L 104.366951 575.883232 
L 116.118932 575.883232 
L 117.098263 573.440685 
L 120.036258 573.440685 
L 121.01559 570.998138 
L 121.994922 570.998138 
L 122.974254 566.113044 
L 128.850244 566.113044 
L 129.829576 563.670497 
L 330.592577 563.670497 
L 331.571909 561.22795 
L 421.670427 561.22795 
L 422.649759 558.785403 
L 513.727608 558.785403 
L 514.70694 556.342856 
L 640.0614 556.342856 
L 641.040732 551.457762 
L 793.816479 551.457762 
L 793.816479 551.457762 
" clip-path="url(#p617bc3eae5)" style="fill: none; stroke: #1f77b4; stroke-width: 3; stroke-linecap: square"/>
   </g>
   <g id="line2d_27">
    <path d="M 89.676975 585.653419 
L 97.511629 585.653419 
L 98.490961 583.210872 
L 107.304946 583.210872 
L 108.284278 580.768325 
L 132.767571 580.768325 
L 133.746902 578.325778 
L 315.902602 578.325778 
L 316.881933 573.440685 
L 421.670427 573.440685 
L 423.629091 568.555591 
L 766.395191 568.555591 
L 767.374523 570.998138 
L 768.353855 568.555591 
L 793.816479 568.555591 
L 793.816479 568.555591 
" clip-path="url(#p617bc3eae5)" style="fill: none; stroke: #ff7f0e; stroke-width: 3; stroke-linecap: square"/>
   </g>
   <g id="line2d_28">
    <path d="M 89.676975 627.176717 
L 90.656307 624.73417 
L 166.064849 624.73417 
L 167.044181 622.291623 
L 174.878835 622.291623 
L 175.858166 619.849076 
L 210.134776 619.849076 
L 211.114108 617.406529 
L 483.368325 617.406529 
L 484.347657 614.963982 
L 509.810282 614.963982 
L 510.789613 612.521435 
L 626.350756 612.521435 
L 627.330088 607.636342 
L 628.309419 607.636342 
L 629.288751 605.193795 
L 732.118581 605.193795 
L 733.097913 602.751248 
L 750.725884 602.751248 
L 751.705216 600.308701 
L 756.601874 600.308701 
L 757.581206 597.866154 
L 760.519201 597.866154 
L 761.498533 595.423607 
L 773.250513 595.423607 
L 774.229845 592.98106 
L 775.209177 575.883232 
L 786.961157 575.883232 
L 787.940489 570.998138 
L 793.816479 570.998138 
L 793.816479 570.998138 
" clip-path="url(#p617bc3eae5)" style="fill: none; stroke: #2ca02c; stroke-width: 3; stroke-linecap: square"/>
   </g>
   <g id="line2d_29">
    <path d="M 89.676975 580.768325 
L 276.729333 580.768325 
L 277.708665 578.325778 
L 420.691095 578.325778 
L 421.670427 583.210872 
L 422.649759 578.325778 
L 625.371424 578.325778 
L 626.350756 575.883232 
L 793.816479 575.883232 
L 793.816479 575.883232 
" clip-path="url(#p617bc3eae5)" style="fill: none; stroke: #d62728; stroke-width: 3; stroke-linecap: square"/>
   </g>
   <g id="line2d_30">
    <path d="M 89.676975 600.308701 
L 93.594302 600.308701 
L 94.573634 597.866154 
L 277.708665 597.866154 
L 278.687996 595.423607 
L 390.331812 595.423607 
L 391.311144 592.98106 
L 574.446175 592.98106 
L 575.425507 588.095966 
L 626.350756 588.095966 
L 627.330088 585.653419 
L 793.816479 585.653419 
L 793.816479 585.653419 
" clip-path="url(#p617bc3eae5)" style="fill: none; stroke: #9467bd; stroke-width: 3; stroke-linecap: square"/>
   </g>
   <g id="line2d_31">
    <path d="M 89.676975 622.291623 
L 312.964607 622.291623 
L 313.943938 619.849076 
L 320.79926 619.849076 
L 321.778592 617.406529 
L 324.716587 617.406529 
L 325.695919 614.963982 
L 327.654582 614.963982 
L 328.633914 612.521435 
L 361.931192 612.521435 
L 362.910524 610.078888 
L 363.889856 610.078888 
L 364.869188 607.636342 
L 381.517827 607.636342 
L 382.497158 605.193795 
L 442.236393 605.193795 
L 443.215725 602.751248 
L 479.450998 602.751248 
L 480.43033 600.308701 
L 509.810282 600.308701 
L 511.768945 595.423607 
L 530.376248 595.423607 
L 531.355579 592.98106 
L 532.334911 592.98106 
L 533.314243 590.538513 
L 547.024887 590.538513 
L 548.004219 588.095966 
L 573.466843 588.095966 
L 574.446175 590.538513 
L 575.425507 588.095966 
L 661.606698 588.095966 
L 662.586029 585.653419 
L 793.816479 585.653419 
L 793.816479 585.653419 
" clip-path="url(#p617bc3eae5)" style="fill: none; stroke: #000000; stroke-width: 3; stroke-linecap: square"/>
   </g>
   <g id="line2d_32">
    <path d="M 89.676975 602.751248 
L 282.605323 602.751248 
L 283.584655 600.308701 
L 317.861265 600.308701 
L 318.840597 597.866154 
L 466.719686 597.866154 
L 467.699018 595.423607 
L 626.350756 595.423607 
L 627.330088 592.98106 
L 793.816479 592.98106 
L 793.816479 592.98106 
" clip-path="url(#p617bc3eae5)" style="fill: none; stroke: #000000; stroke-width: 3; stroke-linecap: square"/>
   </g>
   <g id="line2d_33">
    <path d="M 89.676975 629.619264 
L 268.894679 629.619264 
L 270.853343 624.73417 
L 367.807183 624.73417 
L 368.786514 622.291623 
L 430.484413 622.291623 
L 431.463744 619.849076 
L 547.024887 619.849076 
L 548.004219 617.406529 
L 622.433429 617.406529 
L 623.412761 614.963982 
L 626.350756 614.963982 
L 627.330088 612.521435 
L 737.01524 612.521435 
L 737.994572 610.078888 
L 771.29185 610.078888 
L 772.271182 607.636342 
L 781.085167 607.636342 
L 782.064499 605.193795 
L 793.816479 605.193795 
L 793.816479 605.193795 
" clip-path="url(#p617bc3eae5)" style="fill: none; stroke: #000000; stroke-width: 3; stroke-linecap: square"/>
   </g>
   <g id="line2d_34">
    <path d="M 89.676975 629.619264 
L 97.511629 629.619264 
L 98.490961 627.176717 
L 99.470292 627.176717 
L 100.449624 624.73417 
L 317.861265 624.73417 
L 318.840597 622.291623 
L 356.055202 622.291623 
L 357.034534 619.849076 
L 429.505081 619.849076 
L 430.484413 617.406529 
L 598.929468 617.406529 
L 599.908799 614.963982 
L 626.350756 614.963982 
L 627.330088 612.521435 
L 674.33801 612.521435 
L 675.317342 610.078888 
L 793.816479 610.078888 
L 793.816479 610.078888 
" clip-path="url(#p617bc3eae5)" style="fill: none; stroke: #000000; stroke-width: 3; stroke-linecap: square"/>
   </g>
   <g id="line2d_35">
    <path d="M 89.676975 612.521435 
L 166.064849 612.521435 
L 167.044181 610.078888 
L 793.816479 610.078888 
L 793.816479 610.078888 
" clip-path="url(#p617bc3eae5)" style="fill: none; stroke: #000000; stroke-width: 3; stroke-linecap: square"/>
   </g>
   <g id="line2d_36">
    <path d="M 89.676975 644.274545 
L 530.376248 644.274545 
L 531.355579 641.831999 
L 533.314243 641.831999 
L 534.293574 639.389452 
L 542.128228 639.389452 
L 543.10756 636.946905 
L 553.880209 636.946905 
L 554.859541 634.504358 
L 560.735531 634.504358 
L 561.714863 632.061811 
L 567.590853 632.061811 
L 568.570185 629.619264 
L 587.177487 629.619264 
L 588.156819 627.176717 
L 606.764121 627.176717 
L 607.743453 624.73417 
L 626.350756 624.73417 
L 627.330088 622.291623 
L 642.999395 622.291623 
L 643.978727 644.274545 
L 644.958058 622.291623 
L 645.93739 619.849076 
L 664.544693 619.849076 
L 665.524024 617.406529 
L 698.821303 617.406529 
L 699.800635 614.963982 
L 731.139249 614.963982 
L 732.118581 612.521435 
L 777.16784 612.521435 
L 778.147172 610.078888 
L 793.816479 610.078888 
L 793.816479 610.078888 
" clip-path="url(#p617bc3eae5)" style="fill: none; stroke: #000000; stroke-width: 3; stroke-linecap: square"/>
   </g>
   <g id="line2d_37">
    <path d="M 89.676975 629.619264 
L 277.708665 629.619264 
L 278.687996 627.176717 
L 381.517827 627.176717 
L 382.497158 624.73417 
L 634.18541 624.73417 
L 635.164741 622.291623 
L 793.816479 622.291623 
L 793.816479 622.291623 
" clip-path="url(#p617bc3eae5)" style="fill: none; stroke: #000000; stroke-width: 3; stroke-linecap: square"/>
   </g>
   <g id="line2d_38">
    <path d="M 89.676975 632.061811 
L 317.861265 632.061811 
L 318.840597 629.619264 
L 626.350756 629.619264 
L 627.330088 624.73417 
L 793.816479 624.73417 
L 793.816479 624.73417 
" clip-path="url(#p617bc3eae5)" style="fill: none; stroke: #000000; stroke-width: 3; stroke-linecap: square"/>
   </g>
   <g id="line2d_39">
    <path d="M 89.676975 636.946905 
L 423.629091 636.946905 
L 424.608422 634.504358 
L 793.816479 634.504358 
L 793.816479 634.504358 
" clip-path="url(#p617bc3eae5)" style="fill: none; stroke: #000000; stroke-width: 3; stroke-linecap: square"/>
   </g>
   <g id="line2d_40">
    <path d="M 89.676975 641.831999 
L 793.816479 641.831999 
L 793.816479 641.831999 
" clip-path="url(#p617bc3eae5)" style="fill: none; stroke: #000000; stroke-width: 3; stroke-linecap: square"/>
   </g>
   <g id="line2d_41">
    <path d="M 89.676975 641.831999 
L 793.816479 641.831999 
L 793.816479 641.831999 
" clip-path="url(#p617bc3eae5)" style="fill: none; stroke: #000000; stroke-width: 3; stroke-linecap: square"/>
   </g>
   <g id="line2d_42">
    <path d="M 89.676975 644.274545 
L 793.816479 644.274545 
L 793.816479 644.274545 
" clip-path="url(#p617bc3eae5)" style="fill: none; stroke: #000000; stroke-width: 3; stroke-linecap: square"/>
   </g>
   <g id="line2d_43">
    <path d="M 89.676975 644.274545 
L 793.816479 644.274545 
L 793.816479 644.274545 
" clip-path="url(#p617bc3eae5)" style="fill: none; stroke: #000000; stroke-width: 3; stroke-linecap: square"/>
   </g>
   <g id="patch_3">
    <path d="M 54.47 674.44 
L 54.47 10.8 
" style="fill: none; stroke: #000000; stroke-width: 0.8; stroke-linejoin: miter; stroke-linecap: square"/>
   </g>
   <g id="patch_4">
    <path d="M 829.023455 674.44 
L 829.023455 10.8 
" style="fill: none; stroke: #000000; stroke-width: 0.8; stroke-linejoin: miter; stroke-linecap: square"/>
   </g>
   <g id="patch_5">
    <path d="M 54.47 674.44 
L 829.023455 674.44 
" style="fill: none; stroke: #000000; stroke-width: 0.8; stroke-linejoin: miter; stroke-linecap: square"/>
   </g>
   <g id="patch_6">
    <path d="M 54.47 10.8 
L 829.023455 10.8 
" style="fill: none; stroke: #000000; stroke-width: 0.8; stroke-linejoin: miter; stroke-linecap: square"/>
   </g>
  </g>
  <g id="axes_2">
   <g id="legend_1">
    <g id="patch_7">
     <path d="M 883.021875 426.178125 
L 1067.2 426.178125 
Q 1069.2 426.178125 1069.2 424.178125 
L 1069.2 12.8 
Q 1069.2 10.8 1067.2 10.8 
L 883.021875 10.8 
Q 881.021875 10.8 881.021875 12.8 
L 881.021875 424.178125 
Q 881.021875 426.178125 883.021875 426.178125 
z
" style="fill: #ffffff; opacity: 0.8; stroke: #cccccc; stroke-linejoin: miter"/>
    </g>
    <g id="line2d_44">
     <path d="M 885.021875 18.898437 
L 895.021875 18.898437 
L 905.021875 18.898437 
" style="fill: none; stroke: #1f77b4; stroke-width: 3; stroke-linecap: square"/>
    </g>
    <g id="text_17">
     <!-- scikit-hep/awkward-1.0 -->
     <g transform="translate(913.021875 22.398437) scale(0.1 -0.1)">
      <defs>
       <path id="DejaVuSans-63" d="M 3122 3366 
L 3122 2828 
Q 2878 2963 2633 3030 
Q 2388 3097 2138 3097 
Q 1578 3097 1268 2742 
Q 959 2388 959 1747 
Q 959 1106 1268 751 
Q 1578 397 2138 397 
Q 2388 397 2633 464 
Q 2878 531 3122 666 
L 3122 134 
Q 2881 22 2623 -34 
Q 2366 -91 2075 -91 
Q 1284 -91 818 406 
Q 353 903 353 1747 
Q 353 2603 823 3093 
Q 1294 3584 2113 3584 
Q 2378 3584 2631 3529 
Q 2884 3475 3122 3366 
z
" transform="scale(0.015625)"/>
       <path id="DejaVuSans-69" d="M 603 3500 
L 1178 3500 
L 1178 0 
L 603 0 
L 603 3500 
z
M 603 4863 
L 1178 4863 
L 1178 4134 
L 603 4134 
L 603 4863 
z
" transform="scale(0.015625)"/>
       <path id="DejaVuSans-6b" d="M 581 4863 
L 1159 4863 
L 1159 1991 
L 2875 3500 
L 3609 3500 
L 1753 1863 
L 3688 0 
L 2938 0 
L 1159 1709 
L 1159 0 
L 581 0 
L 581 4863 
z
" transform="scale(0.015625)"/>
       <path id="DejaVuSans-68" d="M 3513 2113 
L 3513 0 
L 2938 0 
L 2938 2094 
Q 2938 2591 2744 2837 
Q 2550 3084 2163 3084 
Q 1697 3084 1428 2787 
Q 1159 2491 1159 1978 
L 1159 0 
L 581 0 
L 581 4863 
L 1159 4863 
L 1159 2956 
Q 1366 3272 1645 3428 
Q 1925 3584 2291 3584 
Q 2894 3584 3203 3211 
Q 3513 2838 3513 2113 
z
" transform="scale(0.015625)"/>
       <path id="DejaVuSans-70" d="M 1159 525 
L 1159 -1331 
L 581 -1331 
L 581 3500 
L 1159 3500 
L 1159 2969 
Q 1341 3281 1617 3432 
Q 1894 3584 2278 3584 
Q 2916 3584 3314 3078 
Q 3713 2572 3713 1747 
Q 3713 922 3314 415 
Q 2916 -91 2278 -91 
Q 1894 -91 1617 61 
Q 1341 213 1159 525 
z
M 3116 1747 
Q 3116 2381 2855 2742 
Q 2594 3103 2138 3103 
Q 1681 3103 1420 2742 
Q 1159 2381 1159 1747 
Q 1159 1113 1420 752 
Q 1681 391 2138 391 
Q 2594 391 2855 752 
Q 3116 1113 3116 1747 
z
" transform="scale(0.015625)"/>
       <path id="DejaVuSans-2f" d="M 1625 4666 
L 2156 4666 
L 531 -594 
L 0 -594 
L 1625 4666 
z
" transform="scale(0.015625)"/>
       <path id="DejaVuSans-77" d="M 269 3500 
L 844 3500 
L 1563 769 
L 2278 3500 
L 2956 3500 
L 3675 769 
L 4391 3500 
L 4966 3500 
L 4050 0 
L 3372 0 
L 2619 2869 
L 1863 0 
L 1184 0 
L 269 3500 
z
" transform="scale(0.015625)"/>
       <path id="DejaVuSans-64" d="M 2906 2969 
L 2906 4863 
L 3481 4863 
L 3481 0 
L 2906 0 
L 2906 525 
Q 2725 213 2448 61 
Q 2172 -91 1784 -91 
Q 1150 -91 751 415 
Q 353 922 353 1747 
Q 353 2572 751 3078 
Q 1150 3584 1784 3584 
Q 2172 3584 2448 3432 
Q 2725 3281 2906 2969 
z
M 947 1747 
Q 947 1113 1208 752 
Q 1469 391 1925 391 
Q 2381 391 2643 752 
Q 2906 1113 2906 1747 
Q 2906 2381 2643 2742 
Q 2381 3103 1925 3103 
Q 1469 3103 1208 2742 
Q 947 2381 947 1747 
z
" transform="scale(0.015625)"/>
       <path id="DejaVuSans-2e" d="M 684 794 
L 1344 794 
L 1344 0 
L 684 0 
L 684 794 
z
" transform="scale(0.015625)"/>
      </defs>
      <use xlink:href="#DejaVuSans-73"/>
      <use xlink:href="#DejaVuSans-63" x="52.099609"/>
      <use xlink:href="#DejaVuSans-69" x="107.080078"/>
      <use xlink:href="#DejaVuSans-6b" x="134.863281"/>
      <use xlink:href="#DejaVuSans-69" x="192.773438"/>
      <use xlink:href="#DejaVuSans-74" x="220.556641"/>
      <use xlink:href="#DejaVuSans-2d" x="259.765625"/>
      <use xlink:href="#DejaVuSans-68" x="295.849609"/>
      <use xlink:href="#DejaVuSans-65" x="359.228516"/>
      <use xlink:href="#DejaVuSans-70" x="420.751953"/>
      <use xlink:href="#DejaVuSans-2f" x="484.228516"/>
      <use xlink:href="#DejaVuSans-61" x="517.919922"/>
      <use xlink:href="#DejaVuSans-77" x="579.199219"/>
      <use xlink:href="#DejaVuSans-6b" x="660.986328"/>
      <use xlink:href="#DejaVuSans-77" x="718.896484"/>
      <use xlink:href="#DejaVuSans-61" x="800.683594"/>
      <use xlink:href="#DejaVuSans-72" x="861.962891"/>
      <use xlink:href="#DejaVuSans-64" x="901.326172"/>
      <use xlink:href="#DejaVuSans-2d" x="964.802734"/>
      <use xlink:href="#DejaVuSans-31" x="1000.886719"/>
      <use xlink:href="#DejaVuSans-2e" x="1064.509766"/>
      <use xlink:href="#DejaVuSans-30" x="1096.296875"/>
     </g>
    </g>
    <g id="line2d_45">
     <path d="M 885.021875 33.576562 
L 895.021875 33.576562 
L 905.021875 33.576562 
" style="fill: none; stroke: #ff7f0e; stroke-width: 3; stroke-linecap: square"/>
    </g>
    <g id="text_18">
     <!-- scikit-hep/uproot3 -->
     <g transform="translate(913.021875 37.076562) scale(0.1 -0.1)">
      <use xlink:href="#DejaVuSans-73"/>
      <use xlink:href="#DejaVuSans-63" x="52.099609"/>
      <use xlink:href="#DejaVuSans-69" x="107.080078"/>
      <use xlink:href="#DejaVuSans-6b" x="134.863281"/>
      <use xlink:href="#DejaVuSans-69" x="192.773438"/>
      <use xlink:href="#DejaVuSans-74" x="220.556641"/>
      <use xlink:href="#DejaVuSans-2d" x="259.765625"/>
      <use xlink:href="#DejaVuSans-68" x="295.849609"/>
      <use xlink:href="#DejaVuSans-65" x="359.228516"/>
      <use xlink:href="#DejaVuSans-70" x="420.751953"/>
      <use xlink:href="#DejaVuSans-2f" x="484.228516"/>
      <use xlink:href="#DejaVuSans-75" x="517.919922"/>
      <use xlink:href="#DejaVuSans-70" x="581.298828"/>
      <use xlink:href="#DejaVuSans-72" x="644.775391"/>
      <use xlink:href="#DejaVuSans-6f" x="683.638672"/>
      <use xlink:href="#DejaVuSans-6f" x="744.820312"/>
      <use xlink:href="#DejaVuSans-74" x="806.001953"/>
      <use xlink:href="#DejaVuSans-33" x="845.210938"/>
     </g>
    </g>
    <g id="line2d_46">
     <path d="M 885.021875 48.254687 
L 895.021875 48.254687 
L 905.021875 48.254687 
" style="fill: none; stroke: #2ca02c; stroke-width: 3; stroke-linecap: square"/>
    </g>
    <g id="text_19">
     <!-- scikit-hep/uproot4 -->
     <g transform="translate(913.021875 51.754687) scale(0.1 -0.1)">
      <use xlink:href="#DejaVuSans-73"/>
      <use xlink:href="#DejaVuSans-63" x="52.099609"/>
      <use xlink:href="#DejaVuSans-69" x="107.080078"/>
      <use xlink:href="#DejaVuSans-6b" x="134.863281"/>
      <use xlink:href="#DejaVuSans-69" x="192.773438"/>
      <use xlink:href="#DejaVuSans-74" x="220.556641"/>
      <use xlink:href="#DejaVuSans-2d" x="259.765625"/>
      <use xlink:href="#DejaVuSans-68" x="295.849609"/>
      <use xlink:href="#DejaVuSans-65" x="359.228516"/>
      <use xlink:href="#DejaVuSans-70" x="420.751953"/>
      <use xlink:href="#DejaVuSans-2f" x="484.228516"/>
      <use xlink:href="#DejaVuSans-75" x="517.919922"/>
      <use xlink:href="#DejaVuSans-70" x="581.298828"/>
      <use xlink:href="#DejaVuSans-72" x="644.775391"/>
      <use xlink:href="#DejaVuSans-6f" x="683.638672"/>
      <use xlink:href="#DejaVuSans-6f" x="744.820312"/>
      <use xlink:href="#DejaVuSans-74" x="806.001953"/>
      <use xlink:href="#DejaVuSans-34" x="845.210938"/>
     </g>
    </g>
    <g id="line2d_47">
     <path d="M 885.021875 62.932812 
L 895.021875 62.932812 
L 905.021875 62.932812 
" style="fill: none; stroke: #d62728; stroke-width: 3; stroke-linecap: square"/>
    </g>
    <g id="text_20">
     <!-- scikit-hep/awkward-0.x -->
     <g transform="translate(913.021875 66.432812) scale(0.1 -0.1)">
      <defs>
       <path id="DejaVuSans-78" d="M 3513 3500 
L 2247 1797 
L 3578 0 
L 2900 0 
L 1881 1375 
L 863 0 
L 184 0 
L 1544 1831 
L 300 3500 
L 978 3500 
L 1906 2253 
L 2834 3500 
L 3513 3500 
z
" transform="scale(0.015625)"/>
      </defs>
      <use xlink:href="#DejaVuSans-73"/>
      <use xlink:href="#DejaVuSans-63" x="52.099609"/>
      <use xlink:href="#DejaVuSans-69" x="107.080078"/>
      <use xlink:href="#DejaVuSans-6b" x="134.863281"/>
      <use xlink:href="#DejaVuSans-69" x="192.773438"/>
      <use xlink:href="#DejaVuSans-74" x="220.556641"/>
      <use xlink:href="#DejaVuSans-2d" x="259.765625"/>
      <use xlink:href="#DejaVuSans-68" x="295.849609"/>
      <use xlink:href="#DejaVuSans-65" x="359.228516"/>
      <use xlink:href="#DejaVuSans-70" x="420.751953"/>
      <use xlink:href="#DejaVuSans-2f" x="484.228516"/>
      <use xlink:href="#DejaVuSans-61" x="517.919922"/>
      <use xlink:href="#DejaVuSans-77" x="579.199219"/>
      <use xlink:href="#DejaVuSans-6b" x="660.986328"/>
      <use xlink:href="#DejaVuSans-77" x="718.896484"/>
      <use xlink:href="#DejaVuSans-61" x="800.683594"/>
      <use xlink:href="#DejaVuSans-72" x="861.962891"/>
      <use xlink:href="#DejaVuSans-64" x="901.326172"/>
      <use xlink:href="#DejaVuSans-2d" x="964.802734"/>
      <use xlink:href="#DejaVuSans-30" x="1000.886719"/>
      <use xlink:href="#DejaVuSans-2e" x="1064.509766"/>
      <use xlink:href="#DejaVuSans-78" x="1096.296875"/>
     </g>
    </g>
    <g id="line2d_48">
     <path d="M 885.021875 77.610937 
L 895.021875 77.610937 
L 905.021875 77.610937 
" style="fill: none; stroke: #9467bd; stroke-width: 3; stroke-linecap: square"/>
    </g>
    <g id="text_21">
     <!-- iris-hep/func_adl -->
     <g transform="translate(913.021875 81.110937) scale(0.1 -0.1)">
      <defs>
       <path id="DejaVuSans-6e" d="M 3513 2113 
L 3513 0 
L 2938 0 
L 2938 2094 
Q 2938 2591 2744 2837 
Q 2550 3084 2163 3084 
Q 1697 3084 1428 2787 
Q 1159 2491 1159 1978 
L 1159 0 
L 581 0 
L 581 3500 
L 1159 3500 
L 1159 2956 
Q 1366 3272 1645 3428 
Q 1925 3584 2291 3584 
Q 2894 3584 3203 3211 
Q 3513 2838 3513 2113 
z
" transform="scale(0.015625)"/>
       <path id="DejaVuSans-5f" d="M 3263 -1063 
L 3263 -1509 
L -63 -1509 
L -63 -1063 
L 3263 -1063 
z
" transform="scale(0.015625)"/>
      </defs>
      <use xlink:href="#DejaVuSans-69"/>
      <use xlink:href="#DejaVuSans-72" x="27.783203"/>
      <use xlink:href="#DejaVuSans-69" x="68.896484"/>
      <use xlink:href="#DejaVuSans-73" x="96.679688"/>
      <use xlink:href="#DejaVuSans-2d" x="148.779297"/>
      <use xlink:href="#DejaVuSans-68" x="184.863281"/>
      <use xlink:href="#DejaVuSans-65" x="248.242188"/>
      <use xlink:href="#DejaVuSans-70" x="309.765625"/>
      <use xlink:href="#DejaVuSans-2f" x="373.242188"/>
      <use xlink:href="#DejaVuSans-66" x="406.933594"/>
      <use xlink:href="#DejaVuSans-75" x="442.138672"/>
      <use xlink:href="#DejaVuSans-6e" x="505.517578"/>
      <use xlink:href="#DejaVuSans-63" x="568.896484"/>
      <use xlink:href="#DejaVuSans-5f" x="623.876953"/>
      <use xlink:href="#DejaVuSans-61" x="673.876953"/>
      <use xlink:href="#DejaVuSans-64" x="735.15625"/>
      <use xlink:href="#DejaVuSans-6c" x="798.632812"/>
     </g>
    </g>
    <g id="line2d_49">
     <path d="M 885.021875 92.567187 
L 895.021875 92.567187 
L 905.021875 92.567187 
" style="fill: none; stroke: #8c564b; stroke-width: 3; stroke-linecap: square"/>
    </g>
    <g id="text_22">
     <!-- diana-hep/madminer -->
     <g transform="translate(913.021875 96.067187) scale(0.1 -0.1)">
      <use xlink:href="#DejaVuSans-64"/>
      <use xlink:href="#DejaVuSans-69" x="63.476562"/>
      <use xlink:href="#DejaVuSans-61" x="91.259766"/>
      <use xlink:href="#DejaVuSans-6e" x="152.539062"/>
      <use xlink:href="#DejaVuSans-61" x="215.917969"/>
      <use xlink:href="#DejaVuSans-2d" x="277.197266"/>
      <use xlink:href="#DejaVuSans-68" x="313.28125"/>
      <use xlink:href="#DejaVuSans-65" x="376.660156"/>
      <use xlink:href="#DejaVuSans-70" x="438.183594"/>
      <use xlink:href="#DejaVuSans-2f" x="501.660156"/>
      <use xlink:href="#DejaVuSans-6d" x="535.351562"/>
      <use xlink:href="#DejaVuSans-61" x="632.763672"/>
      <use xlink:href="#DejaVuSans-64" x="694.042969"/>
      <use xlink:href="#DejaVuSans-6d" x="757.519531"/>
      <use xlink:href="#DejaVuSans-69" x="854.931641"/>
      <use xlink:href="#DejaVuSans-6e" x="882.714844"/>
      <use xlink:href="#DejaVuSans-65" x="946.09375"/>
      <use xlink:href="#DejaVuSans-72" x="1007.617188"/>
     </g>
    </g>
    <g id="line2d_50">
     <path d="M 885.021875 107.245312 
L 895.021875 107.245312 
L 905.021875 107.245312 
" style="fill: none; stroke: #e377c2; stroke-width: 3; stroke-linecap: square"/>
    </g>
    <g id="text_23">
     <!-- scikit-hep/particle -->
     <g transform="translate(913.021875 110.745312) scale(0.1 -0.1)">
      <use xlink:href="#DejaVuSans-73"/>
      <use xlink:href="#DejaVuSans-63" x="52.099609"/>
      <use xlink:href="#DejaVuSans-69" x="107.080078"/>
      <use xlink:href="#DejaVuSans-6b" x="134.863281"/>
      <use xlink:href="#DejaVuSans-69" x="192.773438"/>
      <use xlink:href="#DejaVuSans-74" x="220.556641"/>
      <use xlink:href="#DejaVuSans-2d" x="259.765625"/>
      <use xlink:href="#DejaVuSans-68" x="295.849609"/>
      <use xlink:href="#DejaVuSans-65" x="359.228516"/>
      <use xlink:href="#DejaVuSans-70" x="420.751953"/>
      <use xlink:href="#DejaVuSans-2f" x="484.228516"/>
      <use xlink:href="#DejaVuSans-70" x="517.919922"/>
      <use xlink:href="#DejaVuSans-61" x="581.396484"/>
      <use xlink:href="#DejaVuSans-72" x="642.675781"/>
      <use xlink:href="#DejaVuSans-74" x="683.789062"/>
      <use xlink:href="#DejaVuSans-69" x="722.998047"/>
      <use xlink:href="#DejaVuSans-63" x="750.78125"/>
      <use xlink:href="#DejaVuSans-6c" x="805.761719"/>
      <use xlink:href="#DejaVuSans-65" x="833.544922"/>
     </g>
    </g>
    <g id="line2d_51">
     <path d="M 885.021875 121.923437 
L 895.021875 121.923437 
L 905.021875 121.923437 
" style="fill: none; stroke: #7f7f7f; stroke-width: 3; stroke-linecap: square"/>
    </g>
    <g id="text_24">
     <!-- scikit-hep/decaylanguage -->
     <g transform="translate(913.021875 125.423437) scale(0.1 -0.1)">
      <defs>
       <path id="DejaVuSans-79" d="M 2059 -325 
Q 1816 -950 1584 -1140 
Q 1353 -1331 966 -1331 
L 506 -1331 
L 506 -850 
L 844 -850 
Q 1081 -850 1212 -737 
Q 1344 -625 1503 -206 
L 1606 56 
L 191 3500 
L 800 3500 
L 1894 763 
L 2988 3500 
L 3597 3500 
L 2059 -325 
z
" transform="scale(0.015625)"/>
       <path id="DejaVuSans-67" d="M 2906 1791 
Q 2906 2416 2648 2759 
Q 2391 3103 1925 3103 
Q 1463 3103 1205 2759 
Q 947 2416 947 1791 
Q 947 1169 1205 825 
Q 1463 481 1925 481 
Q 2391 481 2648 825 
Q 2906 1169 2906 1791 
z
M 3481 434 
Q 3481 -459 3084 -895 
Q 2688 -1331 1869 -1331 
Q 1566 -1331 1297 -1286 
Q 1028 -1241 775 -1147 
L 775 -588 
Q 1028 -725 1275 -790 
Q 1522 -856 1778 -856 
Q 2344 -856 2625 -561 
Q 2906 -266 2906 331 
L 2906 616 
Q 2728 306 2450 153 
Q 2172 0 1784 0 
Q 1141 0 747 490 
Q 353 981 353 1791 
Q 353 2603 747 3093 
Q 1141 3584 1784 3584 
Q 2172 3584 2450 3431 
Q 2728 3278 2906 2969 
L 2906 3500 
L 3481 3500 
L 3481 434 
z
" transform="scale(0.015625)"/>
      </defs>
      <use xlink:href="#DejaVuSans-73"/>
      <use xlink:href="#DejaVuSans-63" x="52.099609"/>
      <use xlink:href="#DejaVuSans-69" x="107.080078"/>
      <use xlink:href="#DejaVuSans-6b" x="134.863281"/>
      <use xlink:href="#DejaVuSans-69" x="192.773438"/>
      <use xlink:href="#DejaVuSans-74" x="220.556641"/>
      <use xlink:href="#DejaVuSans-2d" x="259.765625"/>
      <use xlink:href="#DejaVuSans-68" x="295.849609"/>
      <use xlink:href="#DejaVuSans-65" x="359.228516"/>
      <use xlink:href="#DejaVuSans-70" x="420.751953"/>
      <use xlink:href="#DejaVuSans-2f" x="484.228516"/>
      <use xlink:href="#DejaVuSans-64" x="517.919922"/>
      <use xlink:href="#DejaVuSans-65" x="581.396484"/>
      <use xlink:href="#DejaVuSans-63" x="642.919922"/>
      <use xlink:href="#DejaVuSans-61" x="697.900391"/>
      <use xlink:href="#DejaVuSans-79" x="759.179688"/>
      <use xlink:href="#DejaVuSans-6c" x="818.359375"/>
      <use xlink:href="#DejaVuSans-61" x="846.142578"/>
      <use xlink:href="#DejaVuSans-6e" x="907.421875"/>
      <use xlink:href="#DejaVuSans-67" x="970.800781"/>
      <use xlink:href="#DejaVuSans-75" x="1034.277344"/>
      <use xlink:href="#DejaVuSans-61" x="1097.65625"/>
      <use xlink:href="#DejaVuSans-67" x="1158.935547"/>
      <use xlink:href="#DejaVuSans-65" x="1222.412109"/>
     </g>
    </g>
    <g id="line2d_52">
     <path d="M 885.021875 136.601562 
L 895.021875 136.601562 
L 905.021875 136.601562 
" style="fill: none; stroke: #bcbd22; stroke-width: 3; stroke-linecap: square"/>
    </g>
    <g id="text_25">
     <!-- scikit-hep/pyhf -->
     <g transform="translate(913.021875 140.101562) scale(0.1 -0.1)">
      <use xlink:href="#DejaVuSans-73"/>
      <use xlink:href="#DejaVuSans-63" x="52.099609"/>
      <use xlink:href="#DejaVuSans-69" x="107.080078"/>
      <use xlink:href="#DejaVuSans-6b" x="134.863281"/>
      <use xlink:href="#DejaVuSans-69" x="192.773438"/>
      <use xlink:href="#DejaVuSans-74" x="220.556641"/>
      <use xlink:href="#DejaVuSans-2d" x="259.765625"/>
      <use xlink:href="#DejaVuSans-68" x="295.849609"/>
      <use xlink:href="#DejaVuSans-65" x="359.228516"/>
      <use xlink:href="#DejaVuSans-70" x="420.751953"/>
      <use xlink:href="#DejaVuSans-2f" x="484.228516"/>
      <use xlink:href="#DejaVuSans-70" x="517.919922"/>
      <use xlink:href="#DejaVuSans-79" x="581.396484"/>
      <use xlink:href="#DejaVuSans-68" x="640.576172"/>
      <use xlink:href="#DejaVuSans-66" x="703.955078"/>
     </g>
    </g>
    <g id="line2d_53">
     <path d="M 885.021875 151.279687 
L 895.021875 151.279687 
L 905.021875 151.279687 
" style="fill: none; stroke: #17becf; stroke-width: 3; stroke-linecap: square"/>
    </g>
    <g id="text_26">
     <!-- reanahub/reana -->
     <g transform="translate(913.021875 154.779687) scale(0.1 -0.1)">
      <use xlink:href="#DejaVuSans-72"/>
      <use xlink:href="#DejaVuSans-65" x="38.863281"/>
      <use xlink:href="#DejaVuSans-61" x="100.386719"/>
      <use xlink:href="#DejaVuSans-6e" x="161.666016"/>
      <use xlink:href="#DejaVuSans-61" x="225.044922"/>
      <use xlink:href="#DejaVuSans-68" x="286.324219"/>
      <use xlink:href="#DejaVuSans-75" x="349.703125"/>
      <use xlink:href="#DejaVuSans-62" x="413.082031"/>
      <use xlink:href="#DejaVuSans-2f" x="476.558594"/>
      <use xlink:href="#DejaVuSans-72" x="510.25"/>
      <use xlink:href="#DejaVuSans-65" x="549.113281"/>
      <use xlink:href="#DejaVuSans-61" x="610.636719"/>
      <use xlink:href="#DejaVuSans-6e" x="671.916016"/>
      <use xlink:href="#DejaVuSans-61" x="735.294922"/>
     </g>
    </g>
    <g id="line2d_54">
     <path d="M 885.021875 165.957812 
L 895.021875 165.957812 
L 905.021875 165.957812 
" style="fill: none; stroke: #1f77b4; stroke-width: 3; stroke-linecap: square"/>
    </g>
    <g id="text_27">
     <!-- iris-hep/func_adl_xAOD -->
     <g transform="translate(913.021875 169.457812) scale(0.1 -0.1)">
      <defs>
       <path id="DejaVuSans-41" d="M 2188 4044 
L 1331 1722 
L 3047 1722 
L 2188 4044 
z
M 1831 4666 
L 2547 4666 
L 4325 0 
L 3669 0 
L 3244 1197 
L 1141 1197 
L 716 0 
L 50 0 
L 1831 4666 
z
" transform="scale(0.015625)"/>
       <path id="DejaVuSans-4f" d="M 2522 4238 
Q 1834 4238 1429 3725 
Q 1025 3213 1025 2328 
Q 1025 1447 1429 934 
Q 1834 422 2522 422 
Q 3209 422 3611 934 
Q 4013 1447 4013 2328 
Q 4013 3213 3611 3725 
Q 3209 4238 2522 4238 
z
M 2522 4750 
Q 3503 4750 4090 4092 
Q 4678 3434 4678 2328 
Q 4678 1225 4090 567 
Q 3503 -91 2522 -91 
Q 1538 -91 948 565 
Q 359 1222 359 2328 
Q 359 3434 948 4092 
Q 1538 4750 2522 4750 
z
" transform="scale(0.015625)"/>
      </defs>
      <use xlink:href="#DejaVuSans-69"/>
      <use xlink:href="#DejaVuSans-72" x="27.783203"/>
      <use xlink:href="#DejaVuSans-69" x="68.896484"/>
      <use xlink:href="#DejaVuSans-73" x="96.679688"/>
      <use xlink:href="#DejaVuSans-2d" x="148.779297"/>
      <use xlink:href="#DejaVuSans-68" x="184.863281"/>
      <use xlink:href="#DejaVuSans-65" x="248.242188"/>
      <use xlink:href="#DejaVuSans-70" x="309.765625"/>
      <use xlink:href="#DejaVuSans-2f" x="373.242188"/>
      <use xlink:href="#DejaVuSans-66" x="406.933594"/>
      <use xlink:href="#DejaVuSans-75" x="442.138672"/>
      <use xlink:href="#DejaVuSans-6e" x="505.517578"/>
      <use xlink:href="#DejaVuSans-63" x="568.896484"/>
      <use xlink:href="#DejaVuSans-5f" x="623.876953"/>
      <use xlink:href="#DejaVuSans-61" x="673.876953"/>
      <use xlink:href="#DejaVuSans-64" x="735.15625"/>
      <use xlink:href="#DejaVuSans-6c" x="798.632812"/>
      <use xlink:href="#DejaVuSans-5f" x="826.416016"/>
      <use xlink:href="#DejaVuSans-78" x="876.416016"/>
      <use xlink:href="#DejaVuSans-41" x="935.595703"/>
      <use xlink:href="#DejaVuSans-4f" x="1002.253906"/>
      <use xlink:href="#DejaVuSans-44" x="1080.964844"/>
     </g>
    </g>
    <g id="line2d_55">
     <path d="M 885.021875 180.914062 
L 895.021875 180.914062 
L 905.021875 180.914062 
" style="fill: none; stroke: #ff7f0e; stroke-width: 3; stroke-linecap: square"/>
    </g>
    <g id="text_28">
     <!-- iris-hep/func_adl_servicex -->
     <g transform="translate(913.021875 184.414062) scale(0.1 -0.1)">
      <defs>
       <path id="DejaVuSans-76" d="M 191 3500 
L 800 3500 
L 1894 563 
L 2988 3500 
L 3597 3500 
L 2284 0 
L 1503 0 
L 191 3500 
z
" transform="scale(0.015625)"/>
      </defs>
      <use xlink:href="#DejaVuSans-69"/>
      <use xlink:href="#DejaVuSans-72" x="27.783203"/>
      <use xlink:href="#DejaVuSans-69" x="68.896484"/>
      <use xlink:href="#DejaVuSans-73" x="96.679688"/>
      <use xlink:href="#DejaVuSans-2d" x="148.779297"/>
      <use xlink:href="#DejaVuSans-68" x="184.863281"/>
      <use xlink:href="#DejaVuSans-65" x="248.242188"/>
      <use xlink:href="#DejaVuSans-70" x="309.765625"/>
      <use xlink:href="#DejaVuSans-2f" x="373.242188"/>
      <use xlink:href="#DejaVuSans-66" x="406.933594"/>
      <use xlink:href="#DejaVuSans-75" x="442.138672"/>
      <use xlink:href="#DejaVuSans-6e" x="505.517578"/>
      <use xlink:href="#DejaVuSans-63" x="568.896484"/>
      <use xlink:href="#DejaVuSans-5f" x="623.876953"/>
      <use xlink:href="#DejaVuSans-61" x="673.876953"/>
      <use xlink:href="#DejaVuSans-64" x="735.15625"/>
      <use xlink:href="#DejaVuSans-6c" x="798.632812"/>
      <use xlink:href="#DejaVuSans-5f" x="826.416016"/>
      <use xlink:href="#DejaVuSans-73" x="876.416016"/>
      <use xlink:href="#DejaVuSans-65" x="928.515625"/>
      <use xlink:href="#DejaVuSans-72" x="990.039062"/>
      <use xlink:href="#DejaVuSans-76" x="1031.152344"/>
      <use xlink:href="#DejaVuSans-69" x="1090.332031"/>
      <use xlink:href="#DejaVuSans-63" x="1118.115234"/>
      <use xlink:href="#DejaVuSans-65" x="1173.095703"/>
      <use xlink:href="#DejaVuSans-78" x="1232.869141"/>
     </g>
    </g>
    <g id="line2d_56">
     <path d="M 885.021875 195.870312 
L 895.021875 195.870312 
L 905.021875 195.870312 
" style="fill: none; stroke: #2ca02c; stroke-width: 3; stroke-linecap: square"/>
    </g>
    <g id="text_29">
     <!-- scikit-hep/mplhep -->
     <g transform="translate(913.021875 199.370312) scale(0.1 -0.1)">
      <use xlink:href="#DejaVuSans-73"/>
      <use xlink:href="#DejaVuSans-63" x="52.099609"/>
      <use xlink:href="#DejaVuSans-69" x="107.080078"/>
      <use xlink:href="#DejaVuSans-6b" x="134.863281"/>
      <use xlink:href="#DejaVuSans-69" x="192.773438"/>
      <use xlink:href="#DejaVuSans-74" x="220.556641"/>
      <use xlink:href="#DejaVuSans-2d" x="259.765625"/>
      <use xlink:href="#DejaVuSans-68" x="295.849609"/>
      <use xlink:href="#DejaVuSans-65" x="359.228516"/>
      <use xlink:href="#DejaVuSans-70" x="420.751953"/>
      <use xlink:href="#DejaVuSans-2f" x="484.228516"/>
      <use xlink:href="#DejaVuSans-6d" x="517.919922"/>
      <use xlink:href="#DejaVuSans-70" x="615.332031"/>
      <use xlink:href="#DejaVuSans-6c" x="678.808594"/>
      <use xlink:href="#DejaVuSans-68" x="706.591797"/>
      <use xlink:href="#DejaVuSans-65" x="769.970703"/>
      <use xlink:href="#DejaVuSans-70" x="831.494141"/>
     </g>
    </g>
    <g id="line2d_57">
     <path d="M 885.021875 210.548437 
L 895.021875 210.548437 
L 905.021875 210.548437 
" style="fill: none; stroke: #d62728; stroke-width: 3; stroke-linecap: square"/>
    </g>
    <g id="text_30">
     <!-- scikit-hep/boost-histogram -->
     <g transform="translate(913.021875 214.048437) scale(0.1 -0.1)">
      <use xlink:href="#DejaVuSans-73"/>
      <use xlink:href="#DejaVuSans-63" x="52.099609"/>
      <use xlink:href="#DejaVuSans-69" x="107.080078"/>
      <use xlink:href="#DejaVuSans-6b" x="134.863281"/>
      <use xlink:href="#DejaVuSans-69" x="192.773438"/>
      <use xlink:href="#DejaVuSans-74" x="220.556641"/>
      <use xlink:href="#DejaVuSans-2d" x="259.765625"/>
      <use xlink:href="#DejaVuSans-68" x="295.849609"/>
      <use xlink:href="#DejaVuSans-65" x="359.228516"/>
      <use xlink:href="#DejaVuSans-70" x="420.751953"/>
      <use xlink:href="#DejaVuSans-2f" x="484.228516"/>
      <use xlink:href="#DejaVuSans-62" x="517.919922"/>
      <use xlink:href="#DejaVuSans-6f" x="581.396484"/>
      <use xlink:href="#DejaVuSans-6f" x="642.578125"/>
      <use xlink:href="#DejaVuSans-73" x="703.759766"/>
      <use xlink:href="#DejaVuSans-74" x="755.859375"/>
      <use xlink:href="#DejaVuSans-2d" x="795.068359"/>
      <use xlink:href="#DejaVuSans-68" x="831.152344"/>
      <use xlink:href="#DejaVuSans-69" x="894.53125"/>
      <use xlink:href="#DejaVuSans-73" x="922.314453"/>
      <use xlink:href="#DejaVuSans-74" x="974.414062"/>
      <use xlink:href="#DejaVuSans-6f" x="1013.623047"/>
      <use xlink:href="#DejaVuSans-67" x="1074.804688"/>
      <use xlink:href="#DejaVuSans-72" x="1138.28125"/>
      <use xlink:href="#DejaVuSans-61" x="1179.394531"/>
      <use xlink:href="#DejaVuSans-6d" x="1240.673828"/>
     </g>
    </g>
    <g id="line2d_58">
     <path d="M 885.021875 225.226562 
L 895.021875 225.226562 
L 905.021875 225.226562 
" style="fill: none; stroke: #9467bd; stroke-width: 3; stroke-linecap: square"/>
    </g>
    <g id="text_31">
     <!-- scikit-hep/hist -->
     <g transform="translate(913.021875 228.726562) scale(0.1 -0.1)">
      <use xlink:href="#DejaVuSans-73"/>
      <use xlink:href="#DejaVuSans-63" x="52.099609"/>
      <use xlink:href="#DejaVuSans-69" x="107.080078"/>
      <use xlink:href="#DejaVuSans-6b" x="134.863281"/>
      <use xlink:href="#DejaVuSans-69" x="192.773438"/>
      <use xlink:href="#DejaVuSans-74" x="220.556641"/>
      <use xlink:href="#DejaVuSans-2d" x="259.765625"/>
      <use xlink:href="#DejaVuSans-68" x="295.849609"/>
      <use xlink:href="#DejaVuSans-65" x="359.228516"/>
      <use xlink:href="#DejaVuSans-70" x="420.751953"/>
      <use xlink:href="#DejaVuSans-2f" x="484.228516"/>
      <use xlink:href="#DejaVuSans-68" x="517.919922"/>
      <use xlink:href="#DejaVuSans-69" x="581.298828"/>
      <use xlink:href="#DejaVuSans-73" x="609.082031"/>
      <use xlink:href="#DejaVuSans-74" x="661.181641"/>
     </g>
    </g>
    <g id="line2d_59">
     <path d="M 885.021875 239.904687 
L 895.021875 239.904687 
L 905.021875 239.904687 
" style="fill: none; stroke: #000000; stroke-width: 3; stroke-linecap: square"/>
    </g>
    <g id="text_32">
     <!-- scikit-hep/fastjet -->
     <g transform="translate(913.021875 243.404687) scale(0.1 -0.1)">
      <defs>
       <path id="DejaVuSans-6a" d="M 603 3500 
L 1178 3500 
L 1178 -63 
Q 1178 -731 923 -1031 
Q 669 -1331 103 -1331 
L -116 -1331 
L -116 -844 
L 38 -844 
Q 366 -844 484 -692 
Q 603 -541 603 -63 
L 603 3500 
z
M 603 4863 
L 1178 4863 
L 1178 4134 
L 603 4134 
L 603 4863 
z
" transform="scale(0.015625)"/>
      </defs>
      <use xlink:href="#DejaVuSans-73"/>
      <use xlink:href="#DejaVuSans-63" x="52.099609"/>
      <use xlink:href="#DejaVuSans-69" x="107.080078"/>
      <use xlink:href="#DejaVuSans-6b" x="134.863281"/>
      <use xlink:href="#DejaVuSans-69" x="192.773438"/>
      <use xlink:href="#DejaVuSans-74" x="220.556641"/>
      <use xlink:href="#DejaVuSans-2d" x="259.765625"/>
      <use xlink:href="#DejaVuSans-68" x="295.849609"/>
      <use xlink:href="#DejaVuSans-65" x="359.228516"/>
      <use xlink:href="#DejaVuSans-70" x="420.751953"/>
      <use xlink:href="#DejaVuSans-2f" x="484.228516"/>
      <use xlink:href="#DejaVuSans-66" x="517.919922"/>
      <use xlink:href="#DejaVuSans-61" x="553.125"/>
      <use xlink:href="#DejaVuSans-73" x="614.404297"/>
      <use xlink:href="#DejaVuSans-74" x="666.503906"/>
      <use xlink:href="#DejaVuSans-6a" x="705.712891"/>
      <use xlink:href="#DejaVuSans-65" x="733.496094"/>
      <use xlink:href="#DejaVuSans-74" x="795.019531"/>
     </g>
    </g>
    <g id="line2d_60">
     <path d="M 885.021875 254.582812 
L 895.021875 254.582812 
L 905.021875 254.582812 
" style="fill: none; stroke: #000000; stroke-width: 3; stroke-linecap: square"/>
    </g>
    <g id="text_33">
     <!-- scikit-hep/cabinetry -->
     <g transform="translate(913.021875 258.082812) scale(0.1 -0.1)">
      <use xlink:href="#DejaVuSans-73"/>
      <use xlink:href="#DejaVuSans-63" x="52.099609"/>
      <use xlink:href="#DejaVuSans-69" x="107.080078"/>
      <use xlink:href="#DejaVuSans-6b" x="134.863281"/>
      <use xlink:href="#DejaVuSans-69" x="192.773438"/>
      <use xlink:href="#DejaVuSans-74" x="220.556641"/>
      <use xlink:href="#DejaVuSans-2d" x="259.765625"/>
      <use xlink:href="#DejaVuSans-68" x="295.849609"/>
      <use xlink:href="#DejaVuSans-65" x="359.228516"/>
      <use xlink:href="#DejaVuSans-70" x="420.751953"/>
      <use xlink:href="#DejaVuSans-2f" x="484.228516"/>
      <use xlink:href="#DejaVuSans-63" x="517.919922"/>
      <use xlink:href="#DejaVuSans-61" x="572.900391"/>
      <use xlink:href="#DejaVuSans-62" x="634.179688"/>
      <use xlink:href="#DejaVuSans-69" x="697.65625"/>
      <use xlink:href="#DejaVuSans-6e" x="725.439453"/>
      <use xlink:href="#DejaVuSans-65" x="788.818359"/>
      <use xlink:href="#DejaVuSans-74" x="850.341797"/>
      <use xlink:href="#DejaVuSans-72" x="889.550781"/>
      <use xlink:href="#DejaVuSans-79" x="930.664062"/>
     </g>
    </g>
    <g id="line2d_61">
     <path d="M 885.021875 269.260937 
L 895.021875 269.260937 
L 905.021875 269.260937 
" style="fill: none; stroke: #000000; stroke-width: 3; stroke-linecap: square"/>
    </g>
    <g id="text_34">
     <!-- scikit-hep/vector -->
     <g transform="translate(913.021875 272.760937) scale(0.1 -0.1)">
      <use xlink:href="#DejaVuSans-73"/>
      <use xlink:href="#DejaVuSans-63" x="52.099609"/>
      <use xlink:href="#DejaVuSans-69" x="107.080078"/>
      <use xlink:href="#DejaVuSans-6b" x="134.863281"/>
      <use xlink:href="#DejaVuSans-69" x="192.773438"/>
      <use xlink:href="#DejaVuSans-74" x="220.556641"/>
      <use xlink:href="#DejaVuSans-2d" x="259.765625"/>
      <use xlink:href="#DejaVuSans-68" x="295.849609"/>
      <use xlink:href="#DejaVuSans-65" x="359.228516"/>
      <use xlink:href="#DejaVuSans-70" x="420.751953"/>
      <use xlink:href="#DejaVuSans-2f" x="484.228516"/>
      <use xlink:href="#DejaVuSans-76" x="517.919922"/>
      <use xlink:href="#DejaVuSans-65" x="577.099609"/>
      <use xlink:href="#DejaVuSans-63" x="638.623047"/>
      <use xlink:href="#DejaVuSans-74" x="693.603516"/>
      <use xlink:href="#DejaVuSans-6f" x="732.8125"/>
      <use xlink:href="#DejaVuSans-72" x="793.994141"/>
     </g>
    </g>
    <g id="line2d_62">
     <path d="M 885.021875 283.939062 
L 895.021875 283.939062 
L 905.021875 283.939062 
" style="fill: none; stroke: #000000; stroke-width: 3; stroke-linecap: square"/>
    </g>
    <g id="text_35">
     <!-- iris-hep/func_adl_uproot -->
     <g transform="translate(913.021875 287.439062) scale(0.1 -0.1)">
      <use xlink:href="#DejaVuSans-69"/>
      <use xlink:href="#DejaVuSans-72" x="27.783203"/>
      <use xlink:href="#DejaVuSans-69" x="68.896484"/>
      <use xlink:href="#DejaVuSans-73" x="96.679688"/>
      <use xlink:href="#DejaVuSans-2d" x="148.779297"/>
      <use xlink:href="#DejaVuSans-68" x="184.863281"/>
      <use xlink:href="#DejaVuSans-65" x="248.242188"/>
      <use xlink:href="#DejaVuSans-70" x="309.765625"/>
      <use xlink:href="#DejaVuSans-2f" x="373.242188"/>
      <use xlink:href="#DejaVuSans-66" x="406.933594"/>
      <use xlink:href="#DejaVuSans-75" x="442.138672"/>
      <use xlink:href="#DejaVuSans-6e" x="505.517578"/>
      <use xlink:href="#DejaVuSans-63" x="568.896484"/>
      <use xlink:href="#DejaVuSans-5f" x="623.876953"/>
      <use xlink:href="#DejaVuSans-61" x="673.876953"/>
      <use xlink:href="#DejaVuSans-64" x="735.15625"/>
      <use xlink:href="#DejaVuSans-6c" x="798.632812"/>
      <use xlink:href="#DejaVuSans-5f" x="826.416016"/>
      <use xlink:href="#DejaVuSans-75" x="876.416016"/>
      <use xlink:href="#DejaVuSans-70" x="939.794922"/>
      <use xlink:href="#DejaVuSans-72" x="1003.271484"/>
      <use xlink:href="#DejaVuSans-6f" x="1042.134766"/>
      <use xlink:href="#DejaVuSans-6f" x="1103.316406"/>
      <use xlink:href="#DejaVuSans-74" x="1164.498047"/>
     </g>
    </g>
    <g id="line2d_63">
     <path d="M 885.021875 298.895312 
L 895.021875 298.895312 
L 905.021875 298.895312 
" style="fill: none; stroke: #000000; stroke-width: 3; stroke-linecap: square"/>
    </g>
    <g id="text_36">
     <!-- GooFit/GooFit -->
     <g transform="translate(913.021875 302.395312) scale(0.1 -0.1)">
      <defs>
       <path id="DejaVuSans-47" d="M 3809 666 
L 3809 1919 
L 2778 1919 
L 2778 2438 
L 4434 2438 
L 4434 434 
Q 4069 175 3628 42 
Q 3188 -91 2688 -91 
Q 1594 -91 976 548 
Q 359 1188 359 2328 
Q 359 3472 976 4111 
Q 1594 4750 2688 4750 
Q 3144 4750 3555 4637 
Q 3966 4525 4313 4306 
L 4313 3634 
Q 3963 3931 3569 4081 
Q 3175 4231 2741 4231 
Q 1884 4231 1454 3753 
Q 1025 3275 1025 2328 
Q 1025 1384 1454 906 
Q 1884 428 2741 428 
Q 3075 428 3337 486 
Q 3600 544 3809 666 
z
" transform="scale(0.015625)"/>
       <path id="DejaVuSans-46" d="M 628 4666 
L 3309 4666 
L 3309 4134 
L 1259 4134 
L 1259 2759 
L 3109 2759 
L 3109 2228 
L 1259 2228 
L 1259 0 
L 628 0 
L 628 4666 
z
" transform="scale(0.015625)"/>
      </defs>
      <use xlink:href="#DejaVuSans-47"/>
      <use xlink:href="#DejaVuSans-6f" x="77.490234"/>
      <use xlink:href="#DejaVuSans-6f" x="138.671875"/>
      <use xlink:href="#DejaVuSans-46" x="199.853516"/>
      <use xlink:href="#DejaVuSans-69" x="250.123047"/>
      <use xlink:href="#DejaVuSans-74" x="277.90625"/>
      <use xlink:href="#DejaVuSans-2f" x="317.115234"/>
      <use xlink:href="#DejaVuSans-47" x="350.806641"/>
      <use xlink:href="#DejaVuSans-6f" x="428.296875"/>
      <use xlink:href="#DejaVuSans-6f" x="489.478516"/>
      <use xlink:href="#DejaVuSans-46" x="550.660156"/>
      <use xlink:href="#DejaVuSans-69" x="600.929688"/>
      <use xlink:href="#DejaVuSans-74" x="628.712891"/>
     </g>
    </g>
    <g id="line2d_64">
     <path d="M 885.021875 313.573437 
L 895.021875 313.573437 
L 905.021875 313.573437 
" style="fill: none; stroke: #000000; stroke-width: 3; stroke-linecap: square"/>
    </g>
    <g id="text_37">
     <!-- scikit-hep/cookie -->
     <g transform="translate(913.021875 317.073437) scale(0.1 -0.1)">
      <use xlink:href="#DejaVuSans-73"/>
      <use xlink:href="#DejaVuSans-63" x="52.099609"/>
      <use xlink:href="#DejaVuSans-69" x="107.080078"/>
      <use xlink:href="#DejaVuSans-6b" x="134.863281"/>
      <use xlink:href="#DejaVuSans-69" x="192.773438"/>
      <use xlink:href="#DejaVuSans-74" x="220.556641"/>
      <use xlink:href="#DejaVuSans-2d" x="259.765625"/>
      <use xlink:href="#DejaVuSans-68" x="295.849609"/>
      <use xlink:href="#DejaVuSans-65" x="359.228516"/>
      <use xlink:href="#DejaVuSans-70" x="420.751953"/>
      <use xlink:href="#DejaVuSans-2f" x="484.228516"/>
      <use xlink:href="#DejaVuSans-63" x="517.919922"/>
      <use xlink:href="#DejaVuSans-6f" x="572.900391"/>
      <use xlink:href="#DejaVuSans-6f" x="634.082031"/>
      <use xlink:href="#DejaVuSans-6b" x="695.263672"/>
      <use xlink:href="#DejaVuSans-69" x="753.173828"/>
      <use xlink:href="#DejaVuSans-65" x="780.957031"/>
     </g>
    </g>
    <g id="line2d_65">
     <path d="M 885.021875 328.251562 
L 895.021875 328.251562 
L 905.021875 328.251562 
" style="fill: none; stroke: #000000; stroke-width: 3; stroke-linecap: square"/>
    </g>
    <g id="text_38">
     <!-- scikit-hep/uhi -->
     <g transform="translate(913.021875 331.751562) scale(0.1 -0.1)">
      <use xlink:href="#DejaVuSans-73"/>
      <use xlink:href="#DejaVuSans-63" x="52.099609"/>
      <use xlink:href="#DejaVuSans-69" x="107.080078"/>
      <use xlink:href="#DejaVuSans-6b" x="134.863281"/>
      <use xlink:href="#DejaVuSans-69" x="192.773438"/>
      <use xlink:href="#DejaVuSans-74" x="220.556641"/>
      <use xlink:href="#DejaVuSans-2d" x="259.765625"/>
      <use xlink:href="#DejaVuSans-68" x="295.849609"/>
      <use xlink:href="#DejaVuSans-65" x="359.228516"/>
      <use xlink:href="#DejaVuSans-70" x="420.751953"/>
      <use xlink:href="#DejaVuSans-2f" x="484.228516"/>
      <use xlink:href="#DejaVuSans-75" x="517.919922"/>
      <use xlink:href="#DejaVuSans-68" x="581.298828"/>
      <use xlink:href="#DejaVuSans-69" x="644.677734"/>
     </g>
    </g>
    <g id="line2d_66">
     <path d="M 885.021875 342.929687 
L 895.021875 342.929687 
L 905.021875 342.929687 
" style="fill: none; stroke: #000000; stroke-width: 3; stroke-linecap: square"/>
    </g>
    <g id="text_39">
     <!-- iris-hep/qastle -->
     <g transform="translate(913.021875 346.429687) scale(0.1 -0.1)">
      <defs>
       <path id="DejaVuSans-71" d="M 947 1747 
Q 947 1113 1208 752 
Q 1469 391 1925 391 
Q 2381 391 2643 752 
Q 2906 1113 2906 1747 
Q 2906 2381 2643 2742 
Q 2381 3103 1925 3103 
Q 1469 3103 1208 2742 
Q 947 2381 947 1747 
z
M 2906 525 
Q 2725 213 2448 61 
Q 2172 -91 1784 -91 
Q 1150 -91 751 415 
Q 353 922 353 1747 
Q 353 2572 751 3078 
Q 1150 3584 1784 3584 
Q 2172 3584 2448 3432 
Q 2725 3281 2906 2969 
L 2906 3500 
L 3481 3500 
L 3481 -1331 
L 2906 -1331 
L 2906 525 
z
" transform="scale(0.015625)"/>
      </defs>
      <use xlink:href="#DejaVuSans-69"/>
      <use xlink:href="#DejaVuSans-72" x="27.783203"/>
      <use xlink:href="#DejaVuSans-69" x="68.896484"/>
      <use xlink:href="#DejaVuSans-73" x="96.679688"/>
      <use xlink:href="#DejaVuSans-2d" x="148.779297"/>
      <use xlink:href="#DejaVuSans-68" x="184.863281"/>
      <use xlink:href="#DejaVuSans-65" x="248.242188"/>
      <use xlink:href="#DejaVuSans-70" x="309.765625"/>
      <use xlink:href="#DejaVuSans-2f" x="373.242188"/>
      <use xlink:href="#DejaVuSans-71" x="406.933594"/>
      <use xlink:href="#DejaVuSans-61" x="470.410156"/>
      <use xlink:href="#DejaVuSans-73" x="531.689453"/>
      <use xlink:href="#DejaVuSans-74" x="583.789062"/>
      <use xlink:href="#DejaVuSans-6c" x="622.998047"/>
      <use xlink:href="#DejaVuSans-65" x="650.78125"/>
     </g>
    </g>
    <g id="line2d_67">
     <path d="M 885.021875 357.607812 
L 895.021875 357.607812 
L 905.021875 357.607812 
" style="fill: none; stroke: #000000; stroke-width: 3; stroke-linecap: square"/>
    </g>
    <g id="text_40">
     <!-- GooFit/AmpGen -->
     <g transform="translate(913.021875 361.107812) scale(0.1 -0.1)">
      <use xlink:href="#DejaVuSans-47"/>
      <use xlink:href="#DejaVuSans-6f" x="77.490234"/>
      <use xlink:href="#DejaVuSans-6f" x="138.671875"/>
      <use xlink:href="#DejaVuSans-46" x="199.853516"/>
      <use xlink:href="#DejaVuSans-69" x="250.123047"/>
      <use xlink:href="#DejaVuSans-74" x="277.90625"/>
      <use xlink:href="#DejaVuSans-2f" x="317.115234"/>
      <use xlink:href="#DejaVuSans-41" x="350.806641"/>
      <use xlink:href="#DejaVuSans-6d" x="419.214844"/>
      <use xlink:href="#DejaVuSans-70" x="516.626953"/>
      <use xlink:href="#DejaVuSans-47" x="580.103516"/>
      <use xlink:href="#DejaVuSans-65" x="657.59375"/>
      <use xlink:href="#DejaVuSans-6e" x="719.117188"/>
     </g>
    </g>
    <g id="line2d_68">
     <path d="M 885.021875 372.285937 
L 895.021875 372.285937 
L 905.021875 372.285937 
" style="fill: none; stroke: #000000; stroke-width: 3; stroke-linecap: square"/>
    </g>
    <g id="text_41">
     <!-- iris-hep/adl-benchmarks-index -->
     <g transform="translate(913.021875 375.785937) scale(0.1 -0.1)">
      <use xlink:href="#DejaVuSans-69"/>
      <use xlink:href="#DejaVuSans-72" x="27.783203"/>
      <use xlink:href="#DejaVuSans-69" x="68.896484"/>
      <use xlink:href="#DejaVuSans-73" x="96.679688"/>
      <use xlink:href="#DejaVuSans-2d" x="148.779297"/>
      <use xlink:href="#DejaVuSans-68" x="184.863281"/>
      <use xlink:href="#DejaVuSans-65" x="248.242188"/>
      <use xlink:href="#DejaVuSans-70" x="309.765625"/>
      <use xlink:href="#DejaVuSans-2f" x="373.242188"/>
      <use xlink:href="#DejaVuSans-61" x="406.933594"/>
      <use xlink:href="#DejaVuSans-64" x="468.212891"/>
      <use xlink:href="#DejaVuSans-6c" x="531.689453"/>
      <use xlink:href="#DejaVuSans-2d" x="559.472656"/>
      <use xlink:href="#DejaVuSans-62" x="595.556641"/>
      <use xlink:href="#DejaVuSans-65" x="659.033203"/>
      <use xlink:href="#DejaVuSans-6e" x="720.556641"/>
      <use xlink:href="#DejaVuSans-63" x="783.935547"/>
      <use xlink:href="#DejaVuSans-68" x="838.916016"/>
      <use xlink:href="#DejaVuSans-6d" x="902.294922"/>
      <use xlink:href="#DejaVuSans-61" x="999.707031"/>
      <use xlink:href="#DejaVuSans-72" x="1060.986328"/>
      <use xlink:href="#DejaVuSans-6b" x="1102.099609"/>
      <use xlink:href="#DejaVuSans-73" x="1160.009766"/>
      <use xlink:href="#DejaVuSans-2d" x="1212.109375"/>
      <use xlink:href="#DejaVuSans-69" x="1248.193359"/>
      <use xlink:href="#DejaVuSans-6e" x="1275.976562"/>
      <use xlink:href="#DejaVuSans-64" x="1339.355469"/>
      <use xlink:href="#DejaVuSans-65" x="1402.832031"/>
      <use xlink:href="#DejaVuSans-78" x="1462.605469"/>
     </g>
    </g>
    <g id="line2d_69">
     <path d="M 885.021875 386.964063 
L 895.021875 386.964063 
L 905.021875 386.964063 
" style="fill: none; stroke: #000000; stroke-width: 3; stroke-linecap: square"/>
    </g>
    <g id="text_42">
     <!-- diana-hep/excursion -->
     <g transform="translate(913.021875 390.464063) scale(0.1 -0.1)">
      <use xlink:href="#DejaVuSans-64"/>
      <use xlink:href="#DejaVuSans-69" x="63.476562"/>
      <use xlink:href="#DejaVuSans-61" x="91.259766"/>
      <use xlink:href="#DejaVuSans-6e" x="152.539062"/>
      <use xlink:href="#DejaVuSans-61" x="215.917969"/>
      <use xlink:href="#DejaVuSans-2d" x="277.197266"/>
      <use xlink:href="#DejaVuSans-68" x="313.28125"/>
      <use xlink:href="#DejaVuSans-65" x="376.660156"/>
      <use xlink:href="#DejaVuSans-70" x="438.183594"/>
      <use xlink:href="#DejaVuSans-2f" x="501.660156"/>
      <use xlink:href="#DejaVuSans-65" x="535.351562"/>
      <use xlink:href="#DejaVuSans-78" x="595.125"/>
      <use xlink:href="#DejaVuSans-63" x="652.554688"/>
      <use xlink:href="#DejaVuSans-75" x="707.535156"/>
      <use xlink:href="#DejaVuSans-72" x="770.914062"/>
      <use xlink:href="#DejaVuSans-73" x="812.027344"/>
      <use xlink:href="#DejaVuSans-69" x="864.126953"/>
      <use xlink:href="#DejaVuSans-6f" x="891.910156"/>
      <use xlink:href="#DejaVuSans-6e" x="953.091797"/>
     </g>
    </g>
    <g id="line2d_70">
     <path d="M 885.021875 401.642188 
L 895.021875 401.642188 
L 905.021875 401.642188 
" style="fill: none; stroke: #000000; stroke-width: 3; stroke-linecap: square"/>
    </g>
    <g id="text_43">
     <!-- scailfin/madminer-workflow -->
     <g transform="translate(913.021875 405.142188) scale(0.1 -0.1)">
      <use xlink:href="#DejaVuSans-73"/>
      <use xlink:href="#DejaVuSans-63" x="52.099609"/>
      <use xlink:href="#DejaVuSans-61" x="107.080078"/>
      <use xlink:href="#DejaVuSans-69" x="168.359375"/>
      <use xlink:href="#DejaVuSans-6c" x="196.142578"/>
      <use xlink:href="#DejaVuSans-66" x="223.925781"/>
      <use xlink:href="#DejaVuSans-69" x="259.130859"/>
      <use xlink:href="#DejaVuSans-6e" x="286.914062"/>
      <use xlink:href="#DejaVuSans-2f" x="350.292969"/>
      <use xlink:href="#DejaVuSans-6d" x="383.984375"/>
      <use xlink:href="#DejaVuSans-61" x="481.396484"/>
      <use xlink:href="#DejaVuSans-64" x="542.675781"/>
      <use xlink:href="#DejaVuSans-6d" x="606.152344"/>
      <use xlink:href="#DejaVuSans-69" x="703.564453"/>
      <use xlink:href="#DejaVuSans-6e" x="731.347656"/>
      <use xlink:href="#DejaVuSans-65" x="794.726562"/>
      <use xlink:href="#DejaVuSans-72" x="856.25"/>
      <use xlink:href="#DejaVuSans-2d" x="890.988281"/>
      <use xlink:href="#DejaVuSans-77" x="927.072266"/>
      <use xlink:href="#DejaVuSans-6f" x="1008.859375"/>
      <use xlink:href="#DejaVuSans-72" x="1070.041016"/>
      <use xlink:href="#DejaVuSans-6b" x="1111.154297"/>
      <use xlink:href="#DejaVuSans-66" x="1169.064453"/>
      <use xlink:href="#DejaVuSans-6c" x="1204.269531"/>
      <use xlink:href="#DejaVuSans-6f" x="1232.052734"/>
      <use xlink:href="#DejaVuSans-77" x="1293.234375"/>
     </g>
    </g>
    <g id="line2d_71">
     <path d="M 885.021875 416.320313 
L 895.021875 416.320313 
L 905.021875 416.320313 
" style="fill: none; stroke: #000000; stroke-width: 3; stroke-linecap: square"/>
    </g>
    <g id="text_44">
     <!-- gordonwatts/hep_tables -->
     <g transform="translate(913.021875 419.820313) scale(0.1 -0.1)">
      <use xlink:href="#DejaVuSans-67"/>
      <use xlink:href="#DejaVuSans-6f" x="63.476562"/>
      <use xlink:href="#DejaVuSans-72" x="124.658203"/>
      <use xlink:href="#DejaVuSans-64" x="164.021484"/>
      <use xlink:href="#DejaVuSans-6f" x="227.498047"/>
      <use xlink:href="#DejaVuSans-6e" x="288.679688"/>
      <use xlink:href="#DejaVuSans-77" x="352.058594"/>
      <use xlink:href="#DejaVuSans-61" x="433.845703"/>
      <use xlink:href="#DejaVuSans-74" x="495.125"/>
      <use xlink:href="#DejaVuSans-74" x="534.333984"/>
      <use xlink:href="#DejaVuSans-73" x="573.542969"/>
      <use xlink:href="#DejaVuSans-2f" x="625.642578"/>
      <use xlink:href="#DejaVuSans-68" x="659.333984"/>
      <use xlink:href="#DejaVuSans-65" x="722.712891"/>
      <use xlink:href="#DejaVuSans-70" x="784.236328"/>
      <use xlink:href="#DejaVuSans-5f" x="847.712891"/>
      <use xlink:href="#DejaVuSans-74" x="897.712891"/>
      <use xlink:href="#DejaVuSans-61" x="936.921875"/>
      <use xlink:href="#DejaVuSans-62" x="998.201172"/>
      <use xlink:href="#DejaVuSans-6c" x="1061.677734"/>
      <use xlink:href="#DejaVuSans-65" x="1089.460938"/>
      <use xlink:href="#DejaVuSans-73" x="1150.984375"/>
     </g>
    </g>
   </g>
  </g>
 </g>
 <defs>
  <clipPath id="p617bc3eae5">
   <rect x="54.47" y="10.8" width="774.553455" height="663.64"/>
  </clipPath>
 </defs>
</svg>
