<?xml version="1.0" encoding="utf-8" standalone="no"?>
<!DOCTYPE svg PUBLIC "-//W3C//DTD SVG 1.1//EN"
  "http://www.w3.org/Graphics/SVG/1.1/DTD/svg11.dtd">
<svg xmlns:xlink="http://www.w3.org/1999/xlink" width="1080pt" height="720pt" viewBox="0 0 1080 720" xmlns="http://www.w3.org/2000/svg" version="1.1">
 <metadata>
  <rdf:RDF xmlns:dc="http://purl.org/dc/elements/1.1/" xmlns:cc="http://creativecommons.org/ns#" xmlns:rdf="http://www.w3.org/1999/02/22-rdf-syntax-ns#">
   <cc:Work>
    <dc:type rdf:resource="http://purl.org/dc/dcmitype/StillImage"/>
    <dc:date>2024-07-02T00:29:37.626203</dc:date>
    <dc:format>image/svg+xml</dc:format>
    <dc:creator>
     <cc:Agent>
      <dc:title>Matplotlib v3.8.4, https://matplotlib.org/</dc:title>
     </cc:Agent>
    </dc:creator>
   </cc:Work>
  </rdf:RDF>
 </metadata>
 <defs>
  <style type="text/css">*{stroke-linejoin: round; stroke-linecap: butt}</style>
 </defs>
 <g id="figure_1">
  <g id="patch_1">
   <path d="M 0 720 
L 1080 720 
L 1080 0 
L 0 0 
z
" style="fill: #ffffff"/>
  </g>
  <g id="axes_1">
   <g id="patch_2">
    <path d="M 54.47 674.44 
L 829.023455 674.44 
L 829.023455 10.8 
L 54.47 10.8 
z
" style="fill: #ffffff"/>
   </g>
   <g id="matplotlib.axis_1">
    <g id="xtick_1">
     <g id="line2d_1">
      <defs>
       <path id="mcc7ad0f2d3" d="M 0 0 
L 0 3.5 
" style="stroke: #000000; stroke-width: 0.8"/>
      </defs>
      <g>
       <use xlink:href="#mcc7ad0f2d3" x="108.684422" y="674.44" style="stroke: #000000; stroke-width: 0.8"/>
      </g>
     </g>
     <g id="text_1">
      <!-- 2022-03-28 -->
      <g transform="translate(79.626609 689.038437) scale(0.1 -0.1)">
       <defs>
        <path id="DejaVuSans-32" d="M 1228 531 
L 3431 531 
L 3431 0 
L 469 0 
L 469 531 
Q 828 903 1448 1529 
Q 2069 2156 2228 2338 
Q 2531 2678 2651 2914 
Q 2772 3150 2772 3378 
Q 2772 3750 2511 3984 
Q 2250 4219 1831 4219 
Q 1534 4219 1204 4116 
Q 875 4013 500 3803 
L 500 4441 
Q 881 4594 1212 4672 
Q 1544 4750 1819 4750 
Q 2544 4750 2975 4387 
Q 3406 4025 3406 3419 
Q 3406 3131 3298 2873 
Q 3191 2616 2906 2266 
Q 2828 2175 2409 1742 
Q 1991 1309 1228 531 
z
" transform="scale(0.015625)"/>
        <path id="DejaVuSans-30" d="M 2034 4250 
Q 1547 4250 1301 3770 
Q 1056 3291 1056 2328 
Q 1056 1369 1301 889 
Q 1547 409 2034 409 
Q 2525 409 2770 889 
Q 3016 1369 3016 2328 
Q 3016 3291 2770 3770 
Q 2525 4250 2034 4250 
z
M 2034 4750 
Q 2819 4750 3233 4129 
Q 3647 3509 3647 2328 
Q 3647 1150 3233 529 
Q 2819 -91 2034 -91 
Q 1250 -91 836 529 
Q 422 1150 422 2328 
Q 422 3509 836 4129 
Q 1250 4750 2034 4750 
z
" transform="scale(0.015625)"/>
        <path id="DejaVuSans-2d" d="M 313 2009 
L 1997 2009 
L 1997 1497 
L 313 1497 
L 313 2009 
z
" transform="scale(0.015625)"/>
        <path id="DejaVuSans-33" d="M 2597 2516 
Q 3050 2419 3304 2112 
Q 3559 1806 3559 1356 
Q 3559 666 3084 287 
Q 2609 -91 1734 -91 
Q 1441 -91 1130 -33 
Q 819 25 488 141 
L 488 750 
Q 750 597 1062 519 
Q 1375 441 1716 441 
Q 2309 441 2620 675 
Q 2931 909 2931 1356 
Q 2931 1769 2642 2001 
Q 2353 2234 1838 2234 
L 1294 2234 
L 1294 2753 
L 1863 2753 
Q 2328 2753 2575 2939 
Q 2822 3125 2822 3475 
Q 2822 3834 2567 4026 
Q 2313 4219 1838 4219 
Q 1578 4219 1281 4162 
Q 984 4106 628 3988 
L 628 4550 
Q 988 4650 1302 4700 
Q 1616 4750 1894 4750 
Q 2613 4750 3031 4423 
Q 3450 4097 3450 3541 
Q 3450 3153 3228 2886 
Q 3006 2619 2597 2516 
z
" transform="scale(0.015625)"/>
        <path id="DejaVuSans-38" d="M 2034 2216 
Q 1584 2216 1326 1975 
Q 1069 1734 1069 1313 
Q 1069 891 1326 650 
Q 1584 409 2034 409 
Q 2484 409 2743 651 
Q 3003 894 3003 1313 
Q 3003 1734 2745 1975 
Q 2488 2216 2034 2216 
z
M 1403 2484 
Q 997 2584 770 2862 
Q 544 3141 544 3541 
Q 544 4100 942 4425 
Q 1341 4750 2034 4750 
Q 2731 4750 3128 4425 
Q 3525 4100 3525 3541 
Q 3525 3141 3298 2862 
Q 3072 2584 2669 2484 
Q 3125 2378 3379 2068 
Q 3634 1759 3634 1313 
Q 3634 634 3220 271 
Q 2806 -91 2034 -91 
Q 1263 -91 848 271 
Q 434 634 434 1313 
Q 434 1759 690 2068 
Q 947 2378 1403 2484 
z
M 1172 3481 
Q 1172 3119 1398 2916 
Q 1625 2713 2034 2713 
Q 2441 2713 2670 2916 
Q 2900 3119 2900 3481 
Q 2900 3844 2670 4047 
Q 2441 4250 2034 4250 
Q 1625 4250 1398 4047 
Q 1172 3844 1172 3481 
z
" transform="scale(0.015625)"/>
       </defs>
       <use xlink:href="#DejaVuSans-32"/>
       <use xlink:href="#DejaVuSans-30" x="63.623047"/>
       <use xlink:href="#DejaVuSans-32" x="127.246094"/>
       <use xlink:href="#DejaVuSans-32" x="190.869141"/>
       <use xlink:href="#DejaVuSans-2d" x="254.492188"/>
       <use xlink:href="#DejaVuSans-30" x="290.576172"/>
       <use xlink:href="#DejaVuSans-33" x="354.199219"/>
       <use xlink:href="#DejaVuSans-2d" x="417.822266"/>
       <use xlink:href="#DejaVuSans-32" x="453.90625"/>
       <use xlink:href="#DejaVuSans-38" x="517.529297"/>
      </g>
     </g>
    </g>
    <g id="xtick_2">
     <g id="line2d_2">
      <g>
       <use xlink:href="#mcc7ad0f2d3" x="188.170108" y="674.44" style="stroke: #000000; stroke-width: 0.8"/>
      </g>
     </g>
     <g id="text_2">
      <!-- 2022-06-28 -->
      <g transform="translate(159.112296 689.038437) scale(0.1 -0.1)">
       <defs>
        <path id="DejaVuSans-36" d="M 2113 2584 
Q 1688 2584 1439 2293 
Q 1191 2003 1191 1497 
Q 1191 994 1439 701 
Q 1688 409 2113 409 
Q 2538 409 2786 701 
Q 3034 994 3034 1497 
Q 3034 2003 2786 2293 
Q 2538 2584 2113 2584 
z
M 3366 4563 
L 3366 3988 
Q 3128 4100 2886 4159 
Q 2644 4219 2406 4219 
Q 1781 4219 1451 3797 
Q 1122 3375 1075 2522 
Q 1259 2794 1537 2939 
Q 1816 3084 2150 3084 
Q 2853 3084 3261 2657 
Q 3669 2231 3669 1497 
Q 3669 778 3244 343 
Q 2819 -91 2113 -91 
Q 1303 -91 875 529 
Q 447 1150 447 2328 
Q 447 3434 972 4092 
Q 1497 4750 2381 4750 
Q 2619 4750 2861 4703 
Q 3103 4656 3366 4563 
z
" transform="scale(0.015625)"/>
       </defs>
       <use xlink:href="#DejaVuSans-32"/>
       <use xlink:href="#DejaVuSans-30" x="63.623047"/>
       <use xlink:href="#DejaVuSans-32" x="127.246094"/>
       <use xlink:href="#DejaVuSans-32" x="190.869141"/>
       <use xlink:href="#DejaVuSans-2d" x="254.492188"/>
       <use xlink:href="#DejaVuSans-30" x="290.576172"/>
       <use xlink:href="#DejaVuSans-36" x="354.199219"/>
       <use xlink:href="#DejaVuSans-2d" x="417.822266"/>
       <use xlink:href="#DejaVuSans-32" x="453.90625"/>
       <use xlink:href="#DejaVuSans-38" x="517.529297"/>
      </g>
     </g>
    </g>
    <g id="xtick_3">
     <g id="line2d_3">
      <g>
       <use xlink:href="#mcc7ad0f2d3" x="267.655795" y="674.44" style="stroke: #000000; stroke-width: 0.8"/>
      </g>
     </g>
     <g id="text_3">
      <!-- 2022-10-04 -->
      <g transform="translate(238.597982 689.038437) scale(0.1 -0.1)">
       <defs>
        <path id="DejaVuSans-31" d="M 794 531 
L 1825 531 
L 1825 4091 
L 703 3866 
L 703 4441 
L 1819 4666 
L 2450 4666 
L 2450 531 
L 3481 531 
L 3481 0 
L 794 0 
L 794 531 
z
" transform="scale(0.015625)"/>
        <path id="DejaVuSans-34" d="M 2419 4116 
L 825 1625 
L 2419 1625 
L 2419 4116 
z
M 2253 4666 
L 3047 4666 
L 3047 1625 
L 3713 1625 
L 3713 1100 
L 3047 1100 
L 3047 0 
L 2419 0 
L 2419 1100 
L 313 1100 
L 313 1709 
L 2253 4666 
z
" transform="scale(0.015625)"/>
       </defs>
       <use xlink:href="#DejaVuSans-32"/>
       <use xlink:href="#DejaVuSans-30" x="63.623047"/>
       <use xlink:href="#DejaVuSans-32" x="127.246094"/>
       <use xlink:href="#DejaVuSans-32" x="190.869141"/>
       <use xlink:href="#DejaVuSans-2d" x="254.492188"/>
       <use xlink:href="#DejaVuSans-31" x="290.576172"/>
       <use xlink:href="#DejaVuSans-30" x="354.199219"/>
       <use xlink:href="#DejaVuSans-2d" x="417.822266"/>
       <use xlink:href="#DejaVuSans-30" x="453.90625"/>
       <use xlink:href="#DejaVuSans-34" x="517.529297"/>
      </g>
     </g>
    </g>
    <g id="xtick_4">
     <g id="line2d_4">
      <g>
       <use xlink:href="#mcc7ad0f2d3" x="345.413531" y="674.44" style="stroke: #000000; stroke-width: 0.8"/>
      </g>
     </g>
     <g id="text_4">
      <!-- 2023-01-02 -->
      <g transform="translate(316.355719 689.038437) scale(0.1 -0.1)">
       <use xlink:href="#DejaVuSans-32"/>
       <use xlink:href="#DejaVuSans-30" x="63.623047"/>
       <use xlink:href="#DejaVuSans-32" x="127.246094"/>
       <use xlink:href="#DejaVuSans-33" x="190.869141"/>
       <use xlink:href="#DejaVuSans-2d" x="254.492188"/>
       <use xlink:href="#DejaVuSans-30" x="290.576172"/>
       <use xlink:href="#DejaVuSans-31" x="354.199219"/>
       <use xlink:href="#DejaVuSans-2d" x="417.822266"/>
       <use xlink:href="#DejaVuSans-30" x="453.90625"/>
       <use xlink:href="#DejaVuSans-32" x="517.529297"/>
      </g>
     </g>
    </g>
    <g id="xtick_5">
     <g id="line2d_5">
      <g>
       <use xlink:href="#mcc7ad0f2d3" x="424.035243" y="674.44" style="stroke: #000000; stroke-width: 0.8"/>
      </g>
     </g>
     <g id="text_5">
      <!-- 2023-04-03 -->
      <g transform="translate(394.97743 689.038437) scale(0.1 -0.1)">
       <use xlink:href="#DejaVuSans-32"/>
       <use xlink:href="#DejaVuSans-30" x="63.623047"/>
       <use xlink:href="#DejaVuSans-32" x="127.246094"/>
       <use xlink:href="#DejaVuSans-33" x="190.869141"/>
       <use xlink:href="#DejaVuSans-2d" x="254.492188"/>
       <use xlink:href="#DejaVuSans-30" x="290.576172"/>
       <use xlink:href="#DejaVuSans-34" x="354.199219"/>
       <use xlink:href="#DejaVuSans-2d" x="417.822266"/>
       <use xlink:href="#DejaVuSans-30" x="453.90625"/>
       <use xlink:href="#DejaVuSans-33" x="517.529297"/>
      </g>
     </g>
    </g>
    <g id="xtick_6">
     <g id="line2d_6">
      <g>
       <use xlink:href="#mcc7ad0f2d3" x="503.520929" y="674.44" style="stroke: #000000; stroke-width: 0.8"/>
      </g>
     </g>
     <g id="text_6">
      <!-- 2023-07-04 -->
      <g transform="translate(474.463117 689.038437) scale(0.1 -0.1)">
       <defs>
        <path id="DejaVuSans-37" d="M 525 4666 
L 3525 4666 
L 3525 4397 
L 1831 0 
L 1172 0 
L 2766 4134 
L 525 4134 
L 525 4666 
z
" transform="scale(0.015625)"/>
       </defs>
       <use xlink:href="#DejaVuSans-32"/>
       <use xlink:href="#DejaVuSans-30" x="63.623047"/>
       <use xlink:href="#DejaVuSans-32" x="127.246094"/>
       <use xlink:href="#DejaVuSans-33" x="190.869141"/>
       <use xlink:href="#DejaVuSans-2d" x="254.492188"/>
       <use xlink:href="#DejaVuSans-30" x="290.576172"/>
       <use xlink:href="#DejaVuSans-37" x="354.199219"/>
       <use xlink:href="#DejaVuSans-2d" x="417.822266"/>
       <use xlink:href="#DejaVuSans-30" x="453.90625"/>
       <use xlink:href="#DejaVuSans-34" x="517.529297"/>
      </g>
     </g>
    </g>
    <g id="xtick_7">
     <g id="line2d_7">
      <g>
       <use xlink:href="#mcc7ad0f2d3" x="583.006616" y="674.44" style="stroke: #000000; stroke-width: 0.8"/>
      </g>
     </g>
     <g id="text_7">
      <!-- 2023-11-01 -->
      <g transform="translate(553.948803 689.038437) scale(0.1 -0.1)">
       <use xlink:href="#DejaVuSans-32"/>
       <use xlink:href="#DejaVuSans-30" x="63.623047"/>
       <use xlink:href="#DejaVuSans-32" x="127.246094"/>
       <use xlink:href="#DejaVuSans-33" x="190.869141"/>
       <use xlink:href="#DejaVuSans-2d" x="254.492188"/>
       <use xlink:href="#DejaVuSans-31" x="290.576172"/>
       <use xlink:href="#DejaVuSans-31" x="354.199219"/>
       <use xlink:href="#DejaVuSans-2d" x="417.822266"/>
       <use xlink:href="#DejaVuSans-30" x="453.90625"/>
       <use xlink:href="#DejaVuSans-31" x="517.529297"/>
      </g>
     </g>
    </g>
    <g id="xtick_8">
     <g id="line2d_8">
      <g>
       <use xlink:href="#mcc7ad0f2d3" x="661.628327" y="674.44" style="stroke: #000000; stroke-width: 0.8"/>
      </g>
     </g>
     <g id="text_8">
      <!-- 2024-01-31 -->
      <g transform="translate(632.570515 689.038437) scale(0.1 -0.1)">
       <use xlink:href="#DejaVuSans-32"/>
       <use xlink:href="#DejaVuSans-30" x="63.623047"/>
       <use xlink:href="#DejaVuSans-32" x="127.246094"/>
       <use xlink:href="#DejaVuSans-34" x="190.869141"/>
       <use xlink:href="#DejaVuSans-2d" x="254.492188"/>
       <use xlink:href="#DejaVuSans-30" x="290.576172"/>
       <use xlink:href="#DejaVuSans-31" x="354.199219"/>
       <use xlink:href="#DejaVuSans-2d" x="417.822266"/>
       <use xlink:href="#DejaVuSans-33" x="453.90625"/>
       <use xlink:href="#DejaVuSans-31" x="517.529297"/>
      </g>
     </g>
    </g>
    <g id="xtick_9">
     <g id="line2d_9">
      <g>
       <use xlink:href="#mcc7ad0f2d3" x="740.250039" y="674.44" style="stroke: #000000; stroke-width: 0.8"/>
      </g>
     </g>
     <g id="text_9">
      <!-- 2024-05-01 -->
      <g transform="translate(711.192226 689.038437) scale(0.1 -0.1)">
       <defs>
        <path id="DejaVuSans-35" d="M 691 4666 
L 3169 4666 
L 3169 4134 
L 1269 4134 
L 1269 2991 
Q 1406 3038 1543 3061 
Q 1681 3084 1819 3084 
Q 2600 3084 3056 2656 
Q 3513 2228 3513 1497 
Q 3513 744 3044 326 
Q 2575 -91 1722 -91 
Q 1428 -91 1123 -41 
Q 819 9 494 109 
L 494 744 
Q 775 591 1075 516 
Q 1375 441 1709 441 
Q 2250 441 2565 725 
Q 2881 1009 2881 1497 
Q 2881 1984 2565 2268 
Q 2250 2553 1709 2553 
Q 1456 2553 1204 2497 
Q 953 2441 691 2322 
L 691 4666 
z
" transform="scale(0.015625)"/>
       </defs>
       <use xlink:href="#DejaVuSans-32"/>
       <use xlink:href="#DejaVuSans-30" x="63.623047"/>
       <use xlink:href="#DejaVuSans-32" x="127.246094"/>
       <use xlink:href="#DejaVuSans-34" x="190.869141"/>
       <use xlink:href="#DejaVuSans-2d" x="254.492188"/>
       <use xlink:href="#DejaVuSans-30" x="290.576172"/>
       <use xlink:href="#DejaVuSans-35" x="354.199219"/>
       <use xlink:href="#DejaVuSans-2d" x="417.822266"/>
       <use xlink:href="#DejaVuSans-30" x="453.90625"/>
       <use xlink:href="#DejaVuSans-31" x="517.529297"/>
      </g>
     </g>
    </g>
    <g id="xtick_10">
     <g id="line2d_10">
      <g>
       <use xlink:href="#mcc7ad0f2d3" x="819.735725" y="674.44" style="stroke: #000000; stroke-width: 0.8"/>
      </g>
     </g>
    </g>
    <g id="text_10">
     <!-- Date -->
     <g transform="translate(425.015634 705.755937) scale(0.14 -0.14)">
      <defs>
       <path id="DejaVuSans-44" d="M 1259 4147 
L 1259 519 
L 2022 519 
Q 2988 519 3436 956 
Q 3884 1394 3884 2338 
Q 3884 3275 3436 3711 
Q 2988 4147 2022 4147 
L 1259 4147 
z
M 628 4666 
L 1925 4666 
Q 3281 4666 3915 4102 
Q 4550 3538 4550 2338 
Q 4550 1131 3912 565 
Q 3275 0 1925 0 
L 628 0 
L 628 4666 
z
" transform="scale(0.015625)"/>
       <path id="DejaVuSans-61" d="M 2194 1759 
Q 1497 1759 1228 1600 
Q 959 1441 959 1056 
Q 959 750 1161 570 
Q 1363 391 1709 391 
Q 2188 391 2477 730 
Q 2766 1069 2766 1631 
L 2766 1759 
L 2194 1759 
z
M 3341 1997 
L 3341 0 
L 2766 0 
L 2766 531 
Q 2569 213 2275 61 
Q 1981 -91 1556 -91 
Q 1019 -91 701 211 
Q 384 513 384 1019 
Q 384 1609 779 1909 
Q 1175 2209 1959 2209 
L 2766 2209 
L 2766 2266 
Q 2766 2663 2505 2880 
Q 2244 3097 1772 3097 
Q 1472 3097 1187 3025 
Q 903 2953 641 2809 
L 641 3341 
Q 956 3463 1253 3523 
Q 1550 3584 1831 3584 
Q 2591 3584 2966 3190 
Q 3341 2797 3341 1997 
z
" transform="scale(0.015625)"/>
       <path id="DejaVuSans-74" d="M 1172 4494 
L 1172 3500 
L 2356 3500 
L 2356 3053 
L 1172 3053 
L 1172 1153 
Q 1172 725 1289 603 
Q 1406 481 1766 481 
L 2356 481 
L 2356 0 
L 1766 0 
Q 1100 0 847 248 
Q 594 497 594 1153 
L 594 3053 
L 172 3053 
L 172 3500 
L 594 3500 
L 594 4494 
L 1172 4494 
z
" transform="scale(0.015625)"/>
       <path id="DejaVuSans-65" d="M 3597 1894 
L 3597 1613 
L 953 1613 
Q 991 1019 1311 708 
Q 1631 397 2203 397 
Q 2534 397 2845 478 
Q 3156 559 3463 722 
L 3463 178 
Q 3153 47 2828 -22 
Q 2503 -91 2169 -91 
Q 1331 -91 842 396 
Q 353 884 353 1716 
Q 353 2575 817 3079 
Q 1281 3584 2069 3584 
Q 2775 3584 3186 3129 
Q 3597 2675 3597 1894 
z
M 3022 2063 
Q 3016 2534 2758 2815 
Q 2500 3097 2075 3097 
Q 1594 3097 1305 2825 
Q 1016 2553 972 2059 
L 3022 2063 
z
" transform="scale(0.015625)"/>
      </defs>
      <use xlink:href="#DejaVuSans-44"/>
      <use xlink:href="#DejaVuSans-61" x="77.001953"/>
      <use xlink:href="#DejaVuSans-74" x="138.28125"/>
      <use xlink:href="#DejaVuSans-65" x="177.490234"/>
     </g>
    </g>
   </g>
   <g id="matplotlib.axis_2">
    <g id="ytick_1">
     <g id="line2d_11">
      <defs>
       <path id="mcd3d60679e" d="M 0 0 
L -3.5 0 
" style="stroke: #000000; stroke-width: 0.8"/>
      </defs>
      <g>
       <use xlink:href="#mcd3d60679e" x="54.47" y="644.274545" style="stroke: #000000; stroke-width: 0.8"/>
      </g>
     </g>
     <g id="text_11">
      <!-- 0 -->
      <g transform="translate(41.1075 648.073764) scale(0.1 -0.1)">
       <use xlink:href="#DejaVuSans-30"/>
      </g>
     </g>
    </g>
    <g id="ytick_2">
     <g id="line2d_12">
      <g>
       <use xlink:href="#mcd3d60679e" x="54.47" y="537.304848" style="stroke: #000000; stroke-width: 0.8"/>
      </g>
     </g>
     <g id="text_12">
      <!-- 50 -->
      <g transform="translate(34.745 541.104067) scale(0.1 -0.1)">
       <use xlink:href="#DejaVuSans-35"/>
       <use xlink:href="#DejaVuSans-30" x="63.623047"/>
      </g>
     </g>
    </g>
    <g id="ytick_3">
     <g id="line2d_13">
      <g>
       <use xlink:href="#mcd3d60679e" x="54.47" y="430.335152" style="stroke: #000000; stroke-width: 0.8"/>
      </g>
     </g>
     <g id="text_13">
      <!-- 100 -->
      <g transform="translate(28.3825 434.13437) scale(0.1 -0.1)">
       <use xlink:href="#DejaVuSans-31"/>
       <use xlink:href="#DejaVuSans-30" x="63.623047"/>
       <use xlink:href="#DejaVuSans-30" x="127.246094"/>
      </g>
     </g>
    </g>
    <g id="ytick_4">
     <g id="line2d_14">
      <g>
       <use xlink:href="#mcd3d60679e" x="54.47" y="323.365455" style="stroke: #000000; stroke-width: 0.8"/>
      </g>
     </g>
     <g id="text_14">
      <!-- 150 -->
      <g transform="translate(28.3825 327.164673) scale(0.1 -0.1)">
       <use xlink:href="#DejaVuSans-31"/>
       <use xlink:href="#DejaVuSans-35" x="63.623047"/>
       <use xlink:href="#DejaVuSans-30" x="127.246094"/>
      </g>
     </g>
    </g>
    <g id="ytick_5">
     <g id="line2d_15">
      <g>
       <use xlink:href="#mcd3d60679e" x="54.47" y="216.395758" style="stroke: #000000; stroke-width: 0.8"/>
      </g>
     </g>
     <g id="text_15">
      <!-- 200 -->
      <g transform="translate(28.3825 220.194976) scale(0.1 -0.1)">
       <use xlink:href="#DejaVuSans-32"/>
       <use xlink:href="#DejaVuSans-30" x="63.623047"/>
       <use xlink:href="#DejaVuSans-30" x="127.246094"/>
      </g>
     </g>
    </g>
    <g id="ytick_6">
     <g id="line2d_16">
      <g>
       <use xlink:href="#mcd3d60679e" x="54.47" y="109.426061" style="stroke: #000000; stroke-width: 0.8"/>
      </g>
     </g>
     <g id="text_16">
      <!-- 250 -->
      <g transform="translate(28.3825 113.225279) scale(0.1 -0.1)">
       <use xlink:href="#DejaVuSans-32"/>
       <use xlink:href="#DejaVuSans-35" x="63.623047"/>
       <use xlink:href="#DejaVuSans-30" x="127.246094"/>
      </g>
     </g>
    </g>
    <g id="text_17">
     <!-- Number of tags -->
     <g transform="translate(21.470937 397.061406) rotate(-90) scale(0.14 -0.14)">
      <defs>
       <path id="DejaVuSans-4e" d="M 628 4666 
L 1478 4666 
L 3547 763 
L 3547 4666 
L 4159 4666 
L 4159 0 
L 3309 0 
L 1241 3903 
L 1241 0 
L 628 0 
L 628 4666 
z
" transform="scale(0.015625)"/>
       <path id="DejaVuSans-75" d="M 544 1381 
L 544 3500 
L 1119 3500 
L 1119 1403 
Q 1119 906 1312 657 
Q 1506 409 1894 409 
Q 2359 409 2629 706 
Q 2900 1003 2900 1516 
L 2900 3500 
L 3475 3500 
L 3475 0 
L 2900 0 
L 2900 538 
Q 2691 219 2414 64 
Q 2138 -91 1772 -91 
Q 1169 -91 856 284 
Q 544 659 544 1381 
z
M 1991 3584 
L 1991 3584 
z
" transform="scale(0.015625)"/>
       <path id="DejaVuSans-6d" d="M 3328 2828 
Q 3544 3216 3844 3400 
Q 4144 3584 4550 3584 
Q 5097 3584 5394 3201 
Q 5691 2819 5691 2113 
L 5691 0 
L 5113 0 
L 5113 2094 
Q 5113 2597 4934 2840 
Q 4756 3084 4391 3084 
Q 3944 3084 3684 2787 
Q 3425 2491 3425 1978 
L 3425 0 
L 2847 0 
L 2847 2094 
Q 2847 2600 2669 2842 
Q 2491 3084 2119 3084 
Q 1678 3084 1418 2786 
Q 1159 2488 1159 1978 
L 1159 0 
L 581 0 
L 581 3500 
L 1159 3500 
L 1159 2956 
Q 1356 3278 1631 3431 
Q 1906 3584 2284 3584 
Q 2666 3584 2933 3390 
Q 3200 3197 3328 2828 
z
" transform="scale(0.015625)"/>
       <path id="DejaVuSans-62" d="M 3116 1747 
Q 3116 2381 2855 2742 
Q 2594 3103 2138 3103 
Q 1681 3103 1420 2742 
Q 1159 2381 1159 1747 
Q 1159 1113 1420 752 
Q 1681 391 2138 391 
Q 2594 391 2855 752 
Q 3116 1113 3116 1747 
z
M 1159 2969 
Q 1341 3281 1617 3432 
Q 1894 3584 2278 3584 
Q 2916 3584 3314 3078 
Q 3713 2572 3713 1747 
Q 3713 922 3314 415 
Q 2916 -91 2278 -91 
Q 1894 -91 1617 61 
Q 1341 213 1159 525 
L 1159 0 
L 581 0 
L 581 4863 
L 1159 4863 
L 1159 2969 
z
" transform="scale(0.015625)"/>
       <path id="DejaVuSans-72" d="M 2631 2963 
Q 2534 3019 2420 3045 
Q 2306 3072 2169 3072 
Q 1681 3072 1420 2755 
Q 1159 2438 1159 1844 
L 1159 0 
L 581 0 
L 581 3500 
L 1159 3500 
L 1159 2956 
Q 1341 3275 1631 3429 
Q 1922 3584 2338 3584 
Q 2397 3584 2469 3576 
Q 2541 3569 2628 3553 
L 2631 2963 
z
" transform="scale(0.015625)"/>
       <path id="DejaVuSans-20" transform="scale(0.015625)"/>
       <path id="DejaVuSans-6f" d="M 1959 3097 
Q 1497 3097 1228 2736 
Q 959 2375 959 1747 
Q 959 1119 1226 758 
Q 1494 397 1959 397 
Q 2419 397 2687 759 
Q 2956 1122 2956 1747 
Q 2956 2369 2687 2733 
Q 2419 3097 1959 3097 
z
M 1959 3584 
Q 2709 3584 3137 3096 
Q 3566 2609 3566 1747 
Q 3566 888 3137 398 
Q 2709 -91 1959 -91 
Q 1206 -91 779 398 
Q 353 888 353 1747 
Q 353 2609 779 3096 
Q 1206 3584 1959 3584 
z
" transform="scale(0.015625)"/>
       <path id="DejaVuSans-66" d="M 2375 4863 
L 2375 4384 
L 1825 4384 
Q 1516 4384 1395 4259 
Q 1275 4134 1275 3809 
L 1275 3500 
L 2222 3500 
L 2222 3053 
L 1275 3053 
L 1275 0 
L 697 0 
L 697 3053 
L 147 3053 
L 147 3500 
L 697 3500 
L 697 3744 
Q 697 4328 969 4595 
Q 1241 4863 1831 4863 
L 2375 4863 
z
" transform="scale(0.015625)"/>
       <path id="DejaVuSans-67" d="M 2906 1791 
Q 2906 2416 2648 2759 
Q 2391 3103 1925 3103 
Q 1463 3103 1205 2759 
Q 947 2416 947 1791 
Q 947 1169 1205 825 
Q 1463 481 1925 481 
Q 2391 481 2648 825 
Q 2906 1169 2906 1791 
z
M 3481 434 
Q 3481 -459 3084 -895 
Q 2688 -1331 1869 -1331 
Q 1566 -1331 1297 -1286 
Q 1028 -1241 775 -1147 
L 775 -588 
Q 1028 -725 1275 -790 
Q 1522 -856 1778 -856 
Q 2344 -856 2625 -561 
Q 2906 -266 2906 331 
L 2906 616 
Q 2728 306 2450 153 
Q 2172 0 1784 0 
Q 1141 0 747 490 
Q 353 981 353 1791 
Q 353 2603 747 3093 
Q 1141 3584 1784 3584 
Q 2172 3584 2450 3431 
Q 2728 3278 2906 2969 
L 2906 3500 
L 3481 3500 
L 3481 434 
z
" transform="scale(0.015625)"/>
       <path id="DejaVuSans-73" d="M 2834 3397 
L 2834 2853 
Q 2591 2978 2328 3040 
Q 2066 3103 1784 3103 
Q 1356 3103 1142 2972 
Q 928 2841 928 2578 
Q 928 2378 1081 2264 
Q 1234 2150 1697 2047 
L 1894 2003 
Q 2506 1872 2764 1633 
Q 3022 1394 3022 966 
Q 3022 478 2636 193 
Q 2250 -91 1575 -91 
Q 1294 -91 989 -36 
Q 684 19 347 128 
L 347 722 
Q 666 556 975 473 
Q 1284 391 1588 391 
Q 1994 391 2212 530 
Q 2431 669 2431 922 
Q 2431 1156 2273 1281 
Q 2116 1406 1581 1522 
L 1381 1569 
Q 847 1681 609 1914 
Q 372 2147 372 2553 
Q 372 3047 722 3315 
Q 1072 3584 1716 3584 
Q 2034 3584 2315 3537 
Q 2597 3491 2834 3397 
z
" transform="scale(0.015625)"/>
      </defs>
      <use xlink:href="#DejaVuSans-4e"/>
      <use xlink:href="#DejaVuSans-75" x="74.804688"/>
      <use xlink:href="#DejaVuSans-6d" x="138.183594"/>
      <use xlink:href="#DejaVuSans-62" x="235.595703"/>
      <use xlink:href="#DejaVuSans-65" x="299.072266"/>
      <use xlink:href="#DejaVuSans-72" x="360.595703"/>
      <use xlink:href="#DejaVuSans-20" x="401.708984"/>
      <use xlink:href="#DejaVuSans-6f" x="433.496094"/>
      <use xlink:href="#DejaVuSans-66" x="494.677734"/>
      <use xlink:href="#DejaVuSans-20" x="529.882812"/>
      <use xlink:href="#DejaVuSans-74" x="561.669922"/>
      <use xlink:href="#DejaVuSans-61" x="600.878906"/>
      <use xlink:href="#DejaVuSans-67" x="662.158203"/>
      <use xlink:href="#DejaVuSans-73" x="725.634766"/>
     </g>
    </g>
   </g>
   <g id="line2d_17">
    <path d="M 89.676975 278.438182 
L 124.235969 278.438182 
L 125.099944 276.298788 
L 127.691869 276.298788 
L 128.555844 274.159394 
L 139.787517 274.159394 
L 140.651491 272.02 
L 141.515466 272.02 
L 142.379441 269.880606 
L 177.80241 269.880606 
L 178.666385 267.741212 
L 182.986259 267.741212 
L 184.714209 263.462424 
L 197.673832 263.462424 
L 198.537807 261.32303 
L 208.04153 261.32303 
L 209.76948 257.044242 
L 237.416675 257.044242 
L 238.28065 252.765455 
L 244.328474 252.765455 
L 245.192449 250.626061 
L 246.056423 246.347273 
L 246.920398 244.207879 
L 248.648348 244.207879 
L 249.512323 239.929091 
L 250.376298 239.929091 
L 251.240272 237.789697 
L 254.696172 237.789697 
L 255.560147 235.650303 
L 256.424122 235.650303 
L 258.152071 231.371515 
L 285.799267 231.371515 
L 286.663241 229.232121 
L 288.391191 229.232121 
L 289.255166 227.092727 
L 295.30299 227.092727 
L 296.166965 224.953333 
L 297.894914 224.953333 
L 298.758889 222.813939 
L 306.534663 222.813939 
L 307.398638 220.674545 
L 321.222235 220.674545 
L 322.950185 216.395758 
L 323.81416 216.395758 
L 324.678135 214.256364 
L 325.54211 209.977576 
L 329.861984 209.977576 
L 331.589934 205.698788 
L 336.773783 205.698788 
L 337.637758 201.42 
L 344.549556 201.42 
L 345.413531 199.280606 
L 348.869431 199.280606 
L 349.733406 186.444242 
L 354.917255 186.444242 
L 355.78123 182.165455 
L 373.060727 182.165455 
L 373.924701 180.026061 
L 384.2924 180.026061 
L 385.156374 177.886667 
L 397.252022 177.886667 
L 398.115997 175.747273 
L 400.707922 175.747273 
L 401.571897 171.468485 
L 405.891771 171.468485 
L 406.755746 169.329091 
L 410.211645 169.329091 
L 411.07562 167.189697 
L 428.355117 167.189697 
L 429.219092 165.050303 
L 432.674991 165.050303 
L 433.538966 162.910909 
L 443.04269 162.910909 
L 443.906664 160.771515 
L 456.002312 160.771515 
L 456.866287 158.632121 
L 463.778086 158.632121 
L 464.642061 156.492727 
L 478.465658 156.492727 
L 479.329633 154.353333 
L 481.921558 154.353333 
L 482.785533 152.213939 
L 487.105407 152.213939 
L 487.969382 150.074545 
L 493.153231 150.074545 
L 494.017206 147.935152 
L 503.520929 147.935152 
L 504.384904 120.12303 
L 505.248879 115.844242 
L 516.480552 115.844242 
L 517.344527 113.704848 
L 535.487999 113.704848 
L 536.351974 111.565455 
L 540.671848 111.565455 
L 541.535823 109.426061 
L 556.223395 109.426061 
L 557.08737 100.868485 
L 557.951345 100.868485 
L 558.81532 98.729091 
L 563.135194 98.729091 
L 563.999169 90.171515 
L 565.727118 90.171515 
L 566.591093 88.032121 
L 578.686741 88.032121 
L 579.550716 83.753333 
L 586.462515 83.753333 
L 588.190465 79.474545 
L 589.918414 79.474545 
L 590.782389 77.335152 
L 593.374314 77.335152 
L 594.238289 70.91697 
L 595.966238 70.91697 
L 596.830213 68.777576 
L 613.245735 68.777576 
L 614.10971 66.638182 
L 618.429584 66.638182 
L 619.293559 62.359394 
L 645.212805 62.359394 
L 646.07678 60.22 
L 663.356277 60.22 
L 664.220252 58.080606 
L 665.948201 58.080606 
L 666.812176 55.941212 
L 690.139497 55.941212 
L 691.003472 53.801818 
L 704.82707 53.801818 
L 706.555019 49.52303 
L 714.330793 49.52303 
L 715.194768 47.383636 
L 741.977988 47.383636 
L 742.841963 45.244242 
L 763.57736 45.244242 
L 764.441334 43.104848 
L 788.63263 43.104848 
L 789.496605 40.965455 
L 793.816479 40.965455 
L 793.816479 40.965455 
" clip-path="url(#p9ed1c2d49a)" style="fill: none; stroke: #1f77b4; stroke-width: 3; stroke-linecap: square"/>
   </g>
   <g id="line2d_18">
    <path d="M 89.676975 197.141212 
L 793.816479 197.141212 
L 793.816479 197.141212 
" clip-path="url(#p9ed1c2d49a)" style="fill: none; stroke: #ff7f0e; stroke-width: 3; stroke-linecap: square"/>
   </g>
   <g id="line2d_19">
    <path d="M 89.676975 378.989697 
L 90.54095 376.850303 
L 157.067014 376.850303 
L 157.930988 374.710909 
L 164.842787 374.710909 
L 165.706762 372.571515 
L 195.945882 372.571515 
L 196.809857 370.432121 
L 436.994866 370.432121 
L 437.85884 368.292727 
L 460.322187 368.292727 
L 461.186161 366.153333 
L 563.135194 366.153333 
L 563.999169 361.874545 
L 564.863144 361.874545 
L 565.727118 359.735152 
L 656.444478 359.735152 
L 657.308453 357.595758 
L 672.86 357.595758 
L 673.723975 355.456364 
L 678.043849 355.456364 
L 678.907824 353.31697 
L 681.499749 353.31697 
L 682.363723 351.177576 
L 692.731422 351.177576 
L 693.595397 349.038182 
L 694.459371 331.92303 
L 704.82707 331.92303 
L 705.691044 327.644242 
L 714.330793 327.644242 
L 715.194768 325.504848 
L 716.058743 325.504848 
L 716.922718 323.365455 
L 718.650667 323.365455 
L 719.514642 321.226061 
L 739.386064 321.226061 
L 740.250039 319.086667 
L 741.977988 319.086667 
L 742.841963 316.947273 
L 774.809033 316.947273 
L 775.673007 314.807879 
L 787.768655 314.807879 
L 788.63263 312.668485 
L 793.816479 312.668485 
L 793.816479 312.668485 
" clip-path="url(#p9ed1c2d49a)" style="fill: none; stroke: #2ca02c; stroke-width: 3; stroke-linecap: square"/>
   </g>
   <g id="line2d_20">
    <path d="M 89.676975 513.771515 
L 91.404925 513.771515 
L 92.2689 511.632121 
L 96.588774 511.632121 
L 97.452749 509.492727 
L 146.699315 509.492727 
L 147.56329 507.353333 
L 182.122284 507.353333 
L 183.850234 498.795758 
L 191.626008 498.795758 
L 192.489983 496.656364 
L 208.905505 496.656364 
L 209.76948 494.51697 
L 220.137178 494.51697 
L 221.001153 492.377576 
L 237.416675 492.377576 
L 238.28065 490.238182 
L 245.192449 490.238182 
L 246.056423 488.098788 
L 258.152071 488.098788 
L 259.016046 485.959394 
L 264.199895 485.959394 
L 265.06387 483.82 
L 268.51977 483.82 
L 269.383744 481.680606 
L 270.247719 481.680606 
L 271.111694 479.541212 
L 286.663241 479.541212 
L 287.527216 477.401818 
L 289.255166 477.401818 
L 290.119141 475.262424 
L 322.08621 475.262424 
L 322.950185 473.12303 
L 325.54211 473.12303 
L 326.406085 470.983636 
L 329.861984 470.983636 
L 330.725959 468.844242 
L 335.909808 468.844242 
L 336.773783 466.704848 
L 383.428425 466.704848 
L 384.2924 464.565455 
L 395.524073 464.565455 
L 396.388048 462.426061 
L 408.483695 462.426061 
L 409.34767 460.286667 
L 426.627167 460.286667 
L 427.491142 458.147273 
L 433.538966 458.147273 
L 434.402941 456.007879 
L 481.921558 456.007879 
L 482.785533 453.868485 
L 492.289256 453.868485 
L 493.153231 451.729091 
L 505.248879 451.729091 
L 506.112854 449.589697 
L 535.487999 449.589697 
L 536.351974 447.450303 
L 563.135194 447.450303 
L 563.999169 441.032121 
L 564.863144 441.032121 
L 566.591093 436.753333 
L 567.455068 430.335152 
L 571.774942 430.335152 
L 572.638917 428.195758 
L 596.830213 428.195758 
L 597.694188 426.056364 
L 605.469962 426.056364 
L 607.197911 421.777576 
L 618.429584 421.777576 
L 621.021509 415.359394 
L 637.437031 415.359394 
L 638.301006 411.080606 
L 657.308453 411.080606 
L 658.172428 408.941212 
L 673.723975 408.941212 
L 674.58795 406.801818 
L 680.635774 406.801818 
L 681.499749 404.662424 
L 682.363723 400.383636 
L 704.82707 400.383636 
L 705.691044 398.244242 
L 709.146944 398.244242 
L 710.010919 396.104848 
L 722.970541 396.104848 
L 723.834516 393.965455 
L 743.705938 393.965455 
L 744.569913 391.826061 
L 745.433888 391.826061 
L 748.889787 383.268485 
L 789.496605 383.268485 
L 790.36058 378.989697 
L 793.816479 378.989697 
L 793.816479 378.989697 
" clip-path="url(#p9ed1c2d49a)" style="fill: none; stroke: #d62728; stroke-width: 3; stroke-linecap: square"/>
   </g>
   <g id="line2d_21">
    <path d="M 89.676975 430.335152 
L 793.816479 430.335152 
L 793.816479 430.335152 
" clip-path="url(#p9ed1c2d49a)" style="fill: none; stroke: #9467bd; stroke-width: 3; stroke-linecap: square"/>
   </g>
   <g id="line2d_22">
    <path d="M 89.676975 577.953333 
L 90.54095 567.256364 
L 91.404925 567.256364 
L 92.2689 565.11697 
L 95.724799 565.11697 
L 96.588774 560.838182 
L 97.452749 558.698788 
L 100.044673 558.698788 
L 100.908648 556.559394 
L 113.004296 556.559394 
L 113.868271 554.42 
L 287.527216 554.42 
L 288.391191 552.280606 
L 289.255166 552.280606 
L 290.119141 550.141212 
L 300.486839 550.141212 
L 301.350814 548.001818 
L 372.196752 548.001818 
L 373.060727 545.862424 
L 380.8365 545.862424 
L 381.700475 541.583636 
L 382.56445 541.583636 
L 384.2924 537.304848 
L 391.204198 537.304848 
L 392.068173 535.165455 
L 413.667545 535.165455 
L 414.531519 530.886667 
L 478.465658 530.886667 
L 479.329633 528.747273 
L 487.969382 528.747273 
L 488.833357 526.607879 
L 511.296703 526.607879 
L 512.160678 524.468485 
L 569.183018 524.468485 
L 570.046993 522.329091 
L 704.82707 522.329091 
L 705.691044 520.189697 
L 735.066189 520.189697 
L 735.930164 513.771515 
L 736.794139 513.771515 
L 737.658114 507.353333 
L 793.816479 507.353333 
L 793.816479 507.353333 
" clip-path="url(#p9ed1c2d49a)" style="fill: none; stroke: #8c564b; stroke-width: 3; stroke-linecap: square"/>
   </g>
   <g id="line2d_23">
    <path d="M 89.676975 552.280606 
L 189.034083 552.280606 
L 189.898058 550.141212 
L 241.736549 550.141212 
L 242.600524 548.001818 
L 246.056423 548.001818 
L 246.920398 545.862424 
L 248.648348 545.862424 
L 249.512323 543.72303 
L 259.016046 543.72303 
L 259.880021 541.583636 
L 426.627167 541.583636 
L 427.491142 539.444242 
L 462.914111 539.444242 
L 463.778086 537.304848 
L 540.671848 537.304848 
L 541.535823 535.165455 
L 558.81532 535.165455 
L 559.679295 533.026061 
L 577.822766 533.026061 
L 578.686741 530.886667 
L 639.164981 530.886667 
L 640.028956 528.747273 
L 793.816479 528.747273 
L 793.816479 528.747273 
" clip-path="url(#p9ed1c2d49a)" style="fill: none; stroke: #e377c2; stroke-width: 3; stroke-linecap: square"/>
   </g>
   <g id="line2d_24">
    <path d="M 89.676975 545.862424 
L 90.54095 545.862424 
L 91.404925 543.72303 
L 271.111694 543.72303 
L 271.975669 541.583636 
L 278.887468 541.583636 
L 279.751443 539.444242 
L 360.965079 539.444242 
L 361.829053 537.304848 
L 793.816479 537.304848 
L 793.816479 537.304848 
" clip-path="url(#p9ed1c2d49a)" style="fill: none; stroke: #7f7f7f; stroke-width: 3; stroke-linecap: square"/>
   </g>
   <g id="line2d_25">
    <path d="M 89.676975 565.11697 
L 109.548397 565.11697 
L 110.412372 562.977576 
L 297.894914 562.977576 
L 298.758889 560.838182 
L 347.141481 560.838182 
L 348.005456 558.698788 
L 369.604827 558.698788 
L 370.468802 556.559394 
L 415.395494 556.559394 
L 416.259469 554.42 
L 484.513482 554.42 
L 485.377457 552.280606 
L 503.520929 552.280606 
L 504.384904 550.141212 
L 608.925861 550.141212 
L 609.789836 548.001818 
L 733.33824 548.001818 
L 734.202215 545.862424 
L 793.816479 545.862424 
L 793.816479 545.862424 
" clip-path="url(#p9ed1c2d49a)" style="fill: none; stroke: #bcbd22; stroke-width: 3; stroke-linecap: square"/>
   </g>
   <g id="line2d_26">
    <path d="M 89.676975 573.674545 
L 199.401781 573.674545 
L 200.265756 571.535152 
L 297.894914 571.535152 
L 298.758889 569.395758 
L 372.196752 569.395758 
L 373.060727 567.256364 
L 418.851394 567.256364 
L 419.715369 565.11697 
L 426.627167 565.11697 
L 427.491142 562.977576 
L 500.06503 562.977576 
L 500.929005 560.838182 
L 518.208502 560.838182 
L 519.072476 558.698788 
L 521.664401 558.698788 
L 522.528376 556.559394 
L 570.910968 556.559394 
L 571.774942 554.42 
L 608.925861 554.42 
L 609.789836 552.280606 
L 626.205358 552.280606 
L 627.069333 550.141212 
L 668.540126 550.141212 
L 669.404101 548.001818 
L 764.441334 548.001818 
L 765.305309 545.862424 
L 793.816479 545.862424 
L 793.816479 545.862424 
" clip-path="url(#p9ed1c2d49a)" style="fill: none; stroke: #17becf; stroke-width: 3; stroke-linecap: square"/>
   </g>
   <g id="line2d_27">
    <path d="M 89.676975 592.929091 
L 104.364548 592.929091 
L 105.228523 590.789697 
L 111.276346 590.789697 
L 112.140321 588.650303 
L 123.371994 588.650303 
L 124.235969 586.510909 
L 139.787517 586.510909 
L 140.651491 584.371515 
L 275.431568 584.371515 
L 276.295543 582.232121 
L 315.174411 582.232121 
L 316.038386 580.092727 
L 322.08621 580.092727 
L 322.950185 577.953333 
L 366.148928 577.953333 
L 367.012903 575.813939 
L 403.299846 575.813939 
L 404.163821 573.674545 
L 449.090514 573.674545 
L 449.954488 571.535152 
L 496.60913 571.535152 
L 497.473105 569.395758 
L 557.951345 569.395758 
L 558.81532 567.256364 
L 563.135194 567.256364 
L 563.999169 565.11697 
L 624.477408 565.11697 
L 625.341383 562.977576 
L 697.915271 562.977576 
L 698.779246 560.838182 
L 793.816479 560.838182 
L 793.816479 560.838182 
" clip-path="url(#p9ed1c2d49a)" style="fill: none; stroke: #1f77b4; stroke-width: 3; stroke-linecap: square"/>
   </g>
   <g id="line2d_28">
    <path d="M 89.676975 590.789697 
L 95.724799 590.789697 
L 96.588774 588.650303 
L 100.044673 588.650303 
L 100.908648 586.510909 
L 101.772623 586.510909 
L 102.636598 584.371515 
L 113.004296 584.371515 
L 113.868271 582.232121 
L 116.460196 582.232121 
L 117.32417 580.092727 
L 118.188145 580.092727 
L 119.05212 575.813939 
L 124.235969 575.813939 
L 125.099944 573.674545 
L 302.214789 573.674545 
L 303.078764 571.535152 
L 382.56445 571.535152 
L 384.2924 567.256364 
L 575.230842 567.256364 
L 576.094817 562.977576 
L 793.816479 562.977576 
L 793.816479 562.977576 
" clip-path="url(#p9ed1c2d49a)" style="fill: none; stroke: #ff7f0e; stroke-width: 3; stroke-linecap: square"/>
   </g>
   <g id="line2d_29">
    <path d="M 89.676975 586.510909 
L 96.588774 586.510909 
L 97.452749 584.371515 
L 98.316724 584.371515 
L 99.180699 582.232121 
L 290.983116 582.232121 
L 291.847091 580.092727 
L 324.678135 580.092727 
L 325.54211 577.953333 
L 389.476249 577.953333 
L 390.340224 575.813939 
L 538.943898 575.813939 
L 539.807873 573.674545 
L 563.135194 573.674545 
L 563.999169 571.535152 
L 605.469962 571.535152 
L 606.333937 569.395758 
L 720.378617 569.395758 
L 721.242592 567.256364 
L 793.816479 567.256364 
L 793.816479 567.256364 
" clip-path="url(#p9ed1c2d49a)" style="fill: none; stroke: #2ca02c; stroke-width: 3; stroke-linecap: square"/>
   </g>
   <g id="line2d_30">
    <path d="M 89.676975 590.789697 
L 96.588774 590.789697 
L 97.452749 588.650303 
L 105.228523 588.650303 
L 106.092497 586.510909 
L 127.691869 586.510909 
L 128.555844 584.371515 
L 289.255166 584.371515 
L 290.119141 580.092727 
L 382.56445 580.092727 
L 384.2924 575.813939 
L 793.816479 575.813939 
L 793.816479 575.813939 
" clip-path="url(#p9ed1c2d49a)" style="fill: none; stroke: #d62728; stroke-width: 3; stroke-linecap: square"/>
   </g>
   <g id="line2d_31">
    <path d="M 89.676975 588.650303 
L 254.696172 588.650303 
L 255.560147 586.510909 
L 562.271219 586.510909 
L 563.135194 584.371515 
L 712.602843 584.371515 
L 713.466818 582.232121 
L 793.816479 582.232121 
L 793.816479 582.232121 
" clip-path="url(#p9ed1c2d49a)" style="fill: none; stroke: #9467bd; stroke-width: 3; stroke-linecap: square"/>
   </g>
   <g id="line2d_32">
    <path d="M 89.676975 599.347273 
L 259.880021 599.347273 
L 260.743996 597.207879 
L 290.983116 597.207879 
L 291.847091 595.068485 
L 422.307293 595.068485 
L 423.171268 592.929091 
L 563.135194 592.929091 
L 563.999169 590.789697 
L 793.816479 590.789697 
L 793.816479 590.789697 
" clip-path="url(#p9ed1c2d49a)" style="fill: none; stroke: #000000; stroke-width: 3; stroke-linecap: square"/>
   </g>
   <g id="line2d_33">
    <path d="M 89.676975 625.02 
L 286.663241 625.02 
L 287.527216 622.880606 
L 293.57504 622.880606 
L 294.439015 620.741212 
L 297.03094 620.741212 
L 297.894914 618.601818 
L 299.622864 618.601818 
L 300.486839 616.462424 
L 329.861984 616.462424 
L 330.725959 614.32303 
L 331.589934 614.32303 
L 332.453909 612.183636 
L 347.141481 612.183636 
L 348.005456 610.044242 
L 400.707922 610.044242 
L 401.571897 607.904848 
L 433.538966 607.904848 
L 434.402941 605.765455 
L 460.322187 605.765455 
L 462.050136 601.486667 
L 478.465658 601.486667 
L 479.329633 599.347273 
L 480.193608 599.347273 
L 481.057583 597.207879 
L 493.153231 597.207879 
L 494.017206 595.068485 
L 594.238289 595.068485 
L 595.102263 592.929091 
L 750.617737 592.929091 
L 751.481712 590.789697 
L 793.816479 590.789697 
L 793.816479 590.789697 
" clip-path="url(#p9ed1c2d49a)" style="fill: none; stroke: #000000; stroke-width: 3; stroke-linecap: square"/>
   </g>
   <g id="line2d_34">
    <path d="M 89.676975 605.765455 
L 93.132875 605.765455 
L 93.996849 603.626061 
L 255.560147 603.626061 
L 256.424122 601.486667 
L 354.917255 601.486667 
L 355.78123 599.347273 
L 517.344527 599.347273 
L 518.208502 595.068485 
L 563.135194 595.068485 
L 563.999169 592.929091 
L 764.441334 592.929091 
L 765.305309 590.789697 
L 793.816479 590.789697 
L 793.816479 590.789697 
" clip-path="url(#p9ed1c2d49a)" style="fill: none; stroke: #000000; stroke-width: 3; stroke-linecap: square"/>
   </g>
   <g id="line2d_35">
    <path d="M 89.676975 610.044242 
L 290.983116 610.044242 
L 291.847091 607.904848 
L 563.135194 607.904848 
L 563.999169 603.626061 
L 793.816479 603.626061 
L 793.816479 603.626061 
" clip-path="url(#p9ed1c2d49a)" style="fill: none; stroke: #000000; stroke-width: 3; stroke-linecap: square"/>
   </g>
   <g id="line2d_36">
    <path d="M 89.676975 631.438182 
L 247.784373 631.438182 
L 249.512323 627.159394 
L 335.045833 627.159394 
L 335.909808 625.02 
L 390.340224 625.02 
L 391.204198 622.880606 
L 493.153231 622.880606 
L 494.017206 620.741212 
L 559.679295 620.741212 
L 560.543269 618.601818 
L 563.135194 618.601818 
L 563.999169 616.462424 
L 660.764352 616.462424 
L 661.628327 614.32303 
L 691.003472 614.32303 
L 691.867447 612.183636 
L 699.643221 612.183636 
L 700.507195 610.044242 
L 733.33824 610.044242 
L 734.202215 607.904848 
L 774.809033 607.904848 
L 775.673007 605.765455 
L 793.816479 605.765455 
L 793.816479 605.765455 
" clip-path="url(#p9ed1c2d49a)" style="fill: none; stroke: #000000; stroke-width: 3; stroke-linecap: square"/>
   </g>
   <g id="line2d_37">
    <path d="M 89.676975 610.044242 
L 157.067014 610.044242 
L 157.930988 607.904848 
L 793.816479 607.904848 
L 793.816479 607.904848 
" clip-path="url(#p9ed1c2d49a)" style="fill: none; stroke: #000000; stroke-width: 3; stroke-linecap: square"/>
   </g>
   <g id="line2d_38">
    <path d="M 89.676975 644.274545 
L 478.465658 644.274545 
L 479.329633 642.135152 
L 481.057583 642.135152 
L 481.921558 639.995758 
L 488.833357 639.995758 
L 489.697332 637.856364 
L 499.201055 637.856364 
L 500.06503 635.71697 
L 505.248879 635.71697 
L 506.112854 633.577576 
L 511.296703 633.577576 
L 512.160678 631.438182 
L 528.5762 631.438182 
L 529.440175 629.298788 
L 545.855697 629.298788 
L 546.719672 627.159394 
L 563.135194 627.159394 
L 563.999169 625.02 
L 579.550716 625.02 
L 580.414691 622.880606 
L 596.830213 622.880606 
L 597.694188 620.741212 
L 627.069333 620.741212 
L 627.933308 618.601818 
L 655.580503 618.601818 
L 656.444478 616.462424 
L 696.187321 616.462424 
L 697.051296 614.32303 
L 733.33824 614.32303 
L 734.202215 612.183636 
L 793.816479 612.183636 
L 793.816479 612.183636 
" clip-path="url(#p9ed1c2d49a)" style="fill: none; stroke: #000000; stroke-width: 3; stroke-linecap: square"/>
   </g>
   <g id="line2d_39">
    <path d="M 89.676975 631.438182 
L 255.560147 631.438182 
L 256.424122 629.298788 
L 347.141481 629.298788 
L 348.005456 627.159394 
L 570.046993 627.159394 
L 570.910968 625.02 
L 793.816479 625.02 
L 793.816479 625.02 
" clip-path="url(#p9ed1c2d49a)" style="fill: none; stroke: #000000; stroke-width: 3; stroke-linecap: square"/>
   </g>
   <g id="line2d_40">
    <path d="M 89.676975 631.438182 
L 384.2924 631.438182 
L 385.156374 629.298788 
L 793.816479 629.298788 
L 793.816479 629.298788 
" clip-path="url(#p9ed1c2d49a)" style="fill: none; stroke: #000000; stroke-width: 3; stroke-linecap: square"/>
   </g>
   <g id="line2d_41">
    <path d="M 89.676975 642.135152 
L 793.816479 642.135152 
L 793.816479 642.135152 
" clip-path="url(#p9ed1c2d49a)" style="fill: none; stroke: #000000; stroke-width: 3; stroke-linecap: square"/>
   </g>
   <g id="line2d_42">
    <path d="M 89.676975 642.135152 
L 793.816479 642.135152 
L 793.816479 642.135152 
" clip-path="url(#p9ed1c2d49a)" style="fill: none; stroke: #000000; stroke-width: 3; stroke-linecap: square"/>
   </g>
   <g id="line2d_43">
    <path d="M 89.676975 644.274545 
L 793.816479 644.274545 
L 793.816479 644.274545 
" clip-path="url(#p9ed1c2d49a)" style="fill: none; stroke: #000000; stroke-width: 3; stroke-linecap: square"/>
   </g>
   <g id="line2d_44">
    <path d="M 89.676975 644.274545 
L 793.816479 644.274545 
L 793.816479 644.274545 
" clip-path="url(#p9ed1c2d49a)" style="fill: none; stroke: #000000; stroke-width: 3; stroke-linecap: square"/>
   </g>
   <g id="patch_3">
    <path d="M 54.47 674.44 
L 54.47 10.8 
" style="fill: none; stroke: #000000; stroke-width: 0.8; stroke-linejoin: miter; stroke-linecap: square"/>
   </g>
   <g id="patch_4">
    <path d="M 829.023455 674.44 
L 829.023455 10.8 
" style="fill: none; stroke: #000000; stroke-width: 0.8; stroke-linejoin: miter; stroke-linecap: square"/>
   </g>
   <g id="patch_5">
    <path d="M 54.47 674.44 
L 829.023455 674.44 
" style="fill: none; stroke: #000000; stroke-width: 0.8; stroke-linejoin: miter; stroke-linecap: square"/>
   </g>
   <g id="patch_6">
    <path d="M 54.47 10.8 
L 829.023455 10.8 
" style="fill: none; stroke: #000000; stroke-width: 0.8; stroke-linejoin: miter; stroke-linecap: square"/>
   </g>
  </g>
  <g id="axes_2">
   <g id="legend_1">
    <g id="patch_7">
     <path d="M 883.021875 426.178125 
L 1067.2 426.178125 
Q 1069.2 426.178125 1069.2 424.178125 
L 1069.2 12.8 
Q 1069.2 10.8 1067.2 10.8 
L 883.021875 10.8 
Q 881.021875 10.8 881.021875 12.8 
L 881.021875 424.178125 
Q 881.021875 426.178125 883.021875 426.178125 
z
" style="fill: #ffffff; opacity: 0.8; stroke: #cccccc; stroke-linejoin: miter"/>
    </g>
    <g id="line2d_45">
     <path d="M 885.021875 18.898437 
L 895.021875 18.898437 
L 905.021875 18.898437 
" style="fill: none; stroke: #1f77b4; stroke-width: 3; stroke-linecap: square"/>
    </g>
    <g id="text_18">
     <!-- scikit-hep/awkward-1.0 -->
     <g transform="translate(913.021875 22.398437) scale(0.1 -0.1)">
      <defs>
       <path id="DejaVuSans-63" d="M 3122 3366 
L 3122 2828 
Q 2878 2963 2633 3030 
Q 2388 3097 2138 3097 
Q 1578 3097 1268 2742 
Q 959 2388 959 1747 
Q 959 1106 1268 751 
Q 1578 397 2138 397 
Q 2388 397 2633 464 
Q 2878 531 3122 666 
L 3122 134 
Q 2881 22 2623 -34 
Q 2366 -91 2075 -91 
Q 1284 -91 818 406 
Q 353 903 353 1747 
Q 353 2603 823 3093 
Q 1294 3584 2113 3584 
Q 2378 3584 2631 3529 
Q 2884 3475 3122 3366 
z
" transform="scale(0.015625)"/>
       <path id="DejaVuSans-69" d="M 603 3500 
L 1178 3500 
L 1178 0 
L 603 0 
L 603 3500 
z
M 603 4863 
L 1178 4863 
L 1178 4134 
L 603 4134 
L 603 4863 
z
" transform="scale(0.015625)"/>
       <path id="DejaVuSans-6b" d="M 581 4863 
L 1159 4863 
L 1159 1991 
L 2875 3500 
L 3609 3500 
L 1753 1863 
L 3688 0 
L 2938 0 
L 1159 1709 
L 1159 0 
L 581 0 
L 581 4863 
z
" transform="scale(0.015625)"/>
       <path id="DejaVuSans-68" d="M 3513 2113 
L 3513 0 
L 2938 0 
L 2938 2094 
Q 2938 2591 2744 2837 
Q 2550 3084 2163 3084 
Q 1697 3084 1428 2787 
Q 1159 2491 1159 1978 
L 1159 0 
L 581 0 
L 581 4863 
L 1159 4863 
L 1159 2956 
Q 1366 3272 1645 3428 
Q 1925 3584 2291 3584 
Q 2894 3584 3203 3211 
Q 3513 2838 3513 2113 
z
" transform="scale(0.015625)"/>
       <path id="DejaVuSans-70" d="M 1159 525 
L 1159 -1331 
L 581 -1331 
L 581 3500 
L 1159 3500 
L 1159 2969 
Q 1341 3281 1617 3432 
Q 1894 3584 2278 3584 
Q 2916 3584 3314 3078 
Q 3713 2572 3713 1747 
Q 3713 922 3314 415 
Q 2916 -91 2278 -91 
Q 1894 -91 1617 61 
Q 1341 213 1159 525 
z
M 3116 1747 
Q 3116 2381 2855 2742 
Q 2594 3103 2138 3103 
Q 1681 3103 1420 2742 
Q 1159 2381 1159 1747 
Q 1159 1113 1420 752 
Q 1681 391 2138 391 
Q 2594 391 2855 752 
Q 3116 1113 3116 1747 
z
" transform="scale(0.015625)"/>
       <path id="DejaVuSans-2f" d="M 1625 4666 
L 2156 4666 
L 531 -594 
L 0 -594 
L 1625 4666 
z
" transform="scale(0.015625)"/>
       <path id="DejaVuSans-77" d="M 269 3500 
L 844 3500 
L 1563 769 
L 2278 3500 
L 2956 3500 
L 3675 769 
L 4391 3500 
L 4966 3500 
L 4050 0 
L 3372 0 
L 2619 2869 
L 1863 0 
L 1184 0 
L 269 3500 
z
" transform="scale(0.015625)"/>
       <path id="DejaVuSans-64" d="M 2906 2969 
L 2906 4863 
L 3481 4863 
L 3481 0 
L 2906 0 
L 2906 525 
Q 2725 213 2448 61 
Q 2172 -91 1784 -91 
Q 1150 -91 751 415 
Q 353 922 353 1747 
Q 353 2572 751 3078 
Q 1150 3584 1784 3584 
Q 2172 3584 2448 3432 
Q 2725 3281 2906 2969 
z
M 947 1747 
Q 947 1113 1208 752 
Q 1469 391 1925 391 
Q 2381 391 2643 752 
Q 2906 1113 2906 1747 
Q 2906 2381 2643 2742 
Q 2381 3103 1925 3103 
Q 1469 3103 1208 2742 
Q 947 2381 947 1747 
z
" transform="scale(0.015625)"/>
       <path id="DejaVuSans-2e" d="M 684 794 
L 1344 794 
L 1344 0 
L 684 0 
L 684 794 
z
" transform="scale(0.015625)"/>
      </defs>
      <use xlink:href="#DejaVuSans-73"/>
      <use xlink:href="#DejaVuSans-63" x="52.099609"/>
      <use xlink:href="#DejaVuSans-69" x="107.080078"/>
      <use xlink:href="#DejaVuSans-6b" x="134.863281"/>
      <use xlink:href="#DejaVuSans-69" x="192.773438"/>
      <use xlink:href="#DejaVuSans-74" x="220.556641"/>
      <use xlink:href="#DejaVuSans-2d" x="259.765625"/>
      <use xlink:href="#DejaVuSans-68" x="295.849609"/>
      <use xlink:href="#DejaVuSans-65" x="359.228516"/>
      <use xlink:href="#DejaVuSans-70" x="420.751953"/>
      <use xlink:href="#DejaVuSans-2f" x="484.228516"/>
      <use xlink:href="#DejaVuSans-61" x="517.919922"/>
      <use xlink:href="#DejaVuSans-77" x="579.199219"/>
      <use xlink:href="#DejaVuSans-6b" x="660.986328"/>
      <use xlink:href="#DejaVuSans-77" x="718.896484"/>
      <use xlink:href="#DejaVuSans-61" x="800.683594"/>
      <use xlink:href="#DejaVuSans-72" x="861.962891"/>
      <use xlink:href="#DejaVuSans-64" x="901.326172"/>
      <use xlink:href="#DejaVuSans-2d" x="964.802734"/>
      <use xlink:href="#DejaVuSans-31" x="1000.886719"/>
      <use xlink:href="#DejaVuSans-2e" x="1064.509766"/>
      <use xlink:href="#DejaVuSans-30" x="1096.296875"/>
     </g>
    </g>
    <g id="line2d_46">
     <path d="M 885.021875 33.576562 
L 895.021875 33.576562 
L 905.021875 33.576562 
" style="fill: none; stroke: #ff7f0e; stroke-width: 3; stroke-linecap: square"/>
    </g>
    <g id="text_19">
     <!-- scikit-hep/uproot3 -->
     <g transform="translate(913.021875 37.076562) scale(0.1 -0.1)">
      <use xlink:href="#DejaVuSans-73"/>
      <use xlink:href="#DejaVuSans-63" x="52.099609"/>
      <use xlink:href="#DejaVuSans-69" x="107.080078"/>
      <use xlink:href="#DejaVuSans-6b" x="134.863281"/>
      <use xlink:href="#DejaVuSans-69" x="192.773438"/>
      <use xlink:href="#DejaVuSans-74" x="220.556641"/>
      <use xlink:href="#DejaVuSans-2d" x="259.765625"/>
      <use xlink:href="#DejaVuSans-68" x="295.849609"/>
      <use xlink:href="#DejaVuSans-65" x="359.228516"/>
      <use xlink:href="#DejaVuSans-70" x="420.751953"/>
      <use xlink:href="#DejaVuSans-2f" x="484.228516"/>
      <use xlink:href="#DejaVuSans-75" x="517.919922"/>
      <use xlink:href="#DejaVuSans-70" x="581.298828"/>
      <use xlink:href="#DejaVuSans-72" x="644.775391"/>
      <use xlink:href="#DejaVuSans-6f" x="683.638672"/>
      <use xlink:href="#DejaVuSans-6f" x="744.820312"/>
      <use xlink:href="#DejaVuSans-74" x="806.001953"/>
      <use xlink:href="#DejaVuSans-33" x="845.210938"/>
     </g>
    </g>
    <g id="line2d_47">
     <path d="M 885.021875 48.254687 
L 895.021875 48.254687 
L 905.021875 48.254687 
" style="fill: none; stroke: #2ca02c; stroke-width: 3; stroke-linecap: square"/>
    </g>
    <g id="text_20">
     <!-- scikit-hep/mplhep -->
     <g transform="translate(913.021875 51.754687) scale(0.1 -0.1)">
      <defs>
       <path id="DejaVuSans-6c" d="M 603 4863 
L 1178 4863 
L 1178 0 
L 603 0 
L 603 4863 
z
" transform="scale(0.015625)"/>
      </defs>
      <use xlink:href="#DejaVuSans-73"/>
      <use xlink:href="#DejaVuSans-63" x="52.099609"/>
      <use xlink:href="#DejaVuSans-69" x="107.080078"/>
      <use xlink:href="#DejaVuSans-6b" x="134.863281"/>
      <use xlink:href="#DejaVuSans-69" x="192.773438"/>
      <use xlink:href="#DejaVuSans-74" x="220.556641"/>
      <use xlink:href="#DejaVuSans-2d" x="259.765625"/>
      <use xlink:href="#DejaVuSans-68" x="295.849609"/>
      <use xlink:href="#DejaVuSans-65" x="359.228516"/>
      <use xlink:href="#DejaVuSans-70" x="420.751953"/>
      <use xlink:href="#DejaVuSans-2f" x="484.228516"/>
      <use xlink:href="#DejaVuSans-6d" x="517.919922"/>
      <use xlink:href="#DejaVuSans-70" x="615.332031"/>
      <use xlink:href="#DejaVuSans-6c" x="678.808594"/>
      <use xlink:href="#DejaVuSans-68" x="706.591797"/>
      <use xlink:href="#DejaVuSans-65" x="769.970703"/>
      <use xlink:href="#DejaVuSans-70" x="831.494141"/>
     </g>
    </g>
    <g id="line2d_48">
     <path d="M 885.021875 62.932812 
L 895.021875 62.932812 
L 905.021875 62.932812 
" style="fill: none; stroke: #d62728; stroke-width: 3; stroke-linecap: square"/>
    </g>
    <g id="text_21">
     <!-- scikit-hep/uproot4 -->
     <g transform="translate(913.021875 66.432812) scale(0.1 -0.1)">
      <use xlink:href="#DejaVuSans-73"/>
      <use xlink:href="#DejaVuSans-63" x="52.099609"/>
      <use xlink:href="#DejaVuSans-69" x="107.080078"/>
      <use xlink:href="#DejaVuSans-6b" x="134.863281"/>
      <use xlink:href="#DejaVuSans-69" x="192.773438"/>
      <use xlink:href="#DejaVuSans-74" x="220.556641"/>
      <use xlink:href="#DejaVuSans-2d" x="259.765625"/>
      <use xlink:href="#DejaVuSans-68" x="295.849609"/>
      <use xlink:href="#DejaVuSans-65" x="359.228516"/>
      <use xlink:href="#DejaVuSans-70" x="420.751953"/>
      <use xlink:href="#DejaVuSans-2f" x="484.228516"/>
      <use xlink:href="#DejaVuSans-75" x="517.919922"/>
      <use xlink:href="#DejaVuSans-70" x="581.298828"/>
      <use xlink:href="#DejaVuSans-72" x="644.775391"/>
      <use xlink:href="#DejaVuSans-6f" x="683.638672"/>
      <use xlink:href="#DejaVuSans-6f" x="744.820312"/>
      <use xlink:href="#DejaVuSans-74" x="806.001953"/>
      <use xlink:href="#DejaVuSans-34" x="845.210938"/>
     </g>
    </g>
    <g id="line2d_49">
     <path d="M 885.021875 77.610937 
L 895.021875 77.610937 
L 905.021875 77.610937 
" style="fill: none; stroke: #9467bd; stroke-width: 3; stroke-linecap: square"/>
    </g>
    <g id="text_22">
     <!-- scikit-hep/awkward-0.x -->
     <g transform="translate(913.021875 81.110937) scale(0.1 -0.1)">
      <defs>
       <path id="DejaVuSans-78" d="M 3513 3500 
L 2247 1797 
L 3578 0 
L 2900 0 
L 1881 1375 
L 863 0 
L 184 0 
L 1544 1831 
L 300 3500 
L 978 3500 
L 1906 2253 
L 2834 3500 
L 3513 3500 
z
" transform="scale(0.015625)"/>
      </defs>
      <use xlink:href="#DejaVuSans-73"/>
      <use xlink:href="#DejaVuSans-63" x="52.099609"/>
      <use xlink:href="#DejaVuSans-69" x="107.080078"/>
      <use xlink:href="#DejaVuSans-6b" x="134.863281"/>
      <use xlink:href="#DejaVuSans-69" x="192.773438"/>
      <use xlink:href="#DejaVuSans-74" x="220.556641"/>
      <use xlink:href="#DejaVuSans-2d" x="259.765625"/>
      <use xlink:href="#DejaVuSans-68" x="295.849609"/>
      <use xlink:href="#DejaVuSans-65" x="359.228516"/>
      <use xlink:href="#DejaVuSans-70" x="420.751953"/>
      <use xlink:href="#DejaVuSans-2f" x="484.228516"/>
      <use xlink:href="#DejaVuSans-61" x="517.919922"/>
      <use xlink:href="#DejaVuSans-77" x="579.199219"/>
      <use xlink:href="#DejaVuSans-6b" x="660.986328"/>
      <use xlink:href="#DejaVuSans-77" x="718.896484"/>
      <use xlink:href="#DejaVuSans-61" x="800.683594"/>
      <use xlink:href="#DejaVuSans-72" x="861.962891"/>
      <use xlink:href="#DejaVuSans-64" x="901.326172"/>
      <use xlink:href="#DejaVuSans-2d" x="964.802734"/>
      <use xlink:href="#DejaVuSans-30" x="1000.886719"/>
      <use xlink:href="#DejaVuSans-2e" x="1064.509766"/>
      <use xlink:href="#DejaVuSans-78" x="1096.296875"/>
     </g>
    </g>
    <g id="line2d_50">
     <path d="M 885.021875 92.289062 
L 895.021875 92.289062 
L 905.021875 92.289062 
" style="fill: none; stroke: #8c564b; stroke-width: 3; stroke-linecap: square"/>
    </g>
    <g id="text_23">
     <!-- iris-hep/func_adl -->
     <g transform="translate(913.021875 95.789062) scale(0.1 -0.1)">
      <defs>
       <path id="DejaVuSans-6e" d="M 3513 2113 
L 3513 0 
L 2938 0 
L 2938 2094 
Q 2938 2591 2744 2837 
Q 2550 3084 2163 3084 
Q 1697 3084 1428 2787 
Q 1159 2491 1159 1978 
L 1159 0 
L 581 0 
L 581 3500 
L 1159 3500 
L 1159 2956 
Q 1366 3272 1645 3428 
Q 1925 3584 2291 3584 
Q 2894 3584 3203 3211 
Q 3513 2838 3513 2113 
z
" transform="scale(0.015625)"/>
       <path id="DejaVuSans-5f" d="M 3263 -1063 
L 3263 -1509 
L -63 -1509 
L -63 -1063 
L 3263 -1063 
z
" transform="scale(0.015625)"/>
      </defs>
      <use xlink:href="#DejaVuSans-69"/>
      <use xlink:href="#DejaVuSans-72" x="27.783203"/>
      <use xlink:href="#DejaVuSans-69" x="68.896484"/>
      <use xlink:href="#DejaVuSans-73" x="96.679688"/>
      <use xlink:href="#DejaVuSans-2d" x="148.779297"/>
      <use xlink:href="#DejaVuSans-68" x="184.863281"/>
      <use xlink:href="#DejaVuSans-65" x="248.242188"/>
      <use xlink:href="#DejaVuSans-70" x="309.765625"/>
      <use xlink:href="#DejaVuSans-2f" x="373.242188"/>
      <use xlink:href="#DejaVuSans-66" x="406.933594"/>
      <use xlink:href="#DejaVuSans-75" x="442.138672"/>
      <use xlink:href="#DejaVuSans-6e" x="505.517578"/>
      <use xlink:href="#DejaVuSans-63" x="568.896484"/>
      <use xlink:href="#DejaVuSans-5f" x="623.876953"/>
      <use xlink:href="#DejaVuSans-61" x="673.876953"/>
      <use xlink:href="#DejaVuSans-64" x="735.15625"/>
      <use xlink:href="#DejaVuSans-6c" x="798.632812"/>
     </g>
    </g>
    <g id="line2d_51">
     <path d="M 885.021875 107.245312 
L 895.021875 107.245312 
L 905.021875 107.245312 
" style="fill: none; stroke: #e377c2; stroke-width: 3; stroke-linecap: square"/>
    </g>
    <g id="text_24">
     <!-- scikit-hep/pyhf -->
     <g transform="translate(913.021875 110.745312) scale(0.1 -0.1)">
      <defs>
       <path id="DejaVuSans-79" d="M 2059 -325 
Q 1816 -950 1584 -1140 
Q 1353 -1331 966 -1331 
L 506 -1331 
L 506 -850 
L 844 -850 
Q 1081 -850 1212 -737 
Q 1344 -625 1503 -206 
L 1606 56 
L 191 3500 
L 800 3500 
L 1894 763 
L 2988 3500 
L 3597 3500 
L 2059 -325 
z
" transform="scale(0.015625)"/>
      </defs>
      <use xlink:href="#DejaVuSans-73"/>
      <use xlink:href="#DejaVuSans-63" x="52.099609"/>
      <use xlink:href="#DejaVuSans-69" x="107.080078"/>
      <use xlink:href="#DejaVuSans-6b" x="134.863281"/>
      <use xlink:href="#DejaVuSans-69" x="192.773438"/>
      <use xlink:href="#DejaVuSans-74" x="220.556641"/>
      <use xlink:href="#DejaVuSans-2d" x="259.765625"/>
      <use xlink:href="#DejaVuSans-68" x="295.849609"/>
      <use xlink:href="#DejaVuSans-65" x="359.228516"/>
      <use xlink:href="#DejaVuSans-70" x="420.751953"/>
      <use xlink:href="#DejaVuSans-2f" x="484.228516"/>
      <use xlink:href="#DejaVuSans-70" x="517.919922"/>
      <use xlink:href="#DejaVuSans-79" x="581.396484"/>
      <use xlink:href="#DejaVuSans-68" x="640.576172"/>
      <use xlink:href="#DejaVuSans-66" x="703.955078"/>
     </g>
    </g>
    <g id="line2d_52">
     <path d="M 885.021875 121.923437 
L 895.021875 121.923437 
L 905.021875 121.923437 
" style="fill: none; stroke: #7f7f7f; stroke-width: 3; stroke-linecap: square"/>
    </g>
    <g id="text_25">
     <!-- diana-hep/madminer -->
     <g transform="translate(913.021875 125.423437) scale(0.1 -0.1)">
      <use xlink:href="#DejaVuSans-64"/>
      <use xlink:href="#DejaVuSans-69" x="63.476562"/>
      <use xlink:href="#DejaVuSans-61" x="91.259766"/>
      <use xlink:href="#DejaVuSans-6e" x="152.539062"/>
      <use xlink:href="#DejaVuSans-61" x="215.917969"/>
      <use xlink:href="#DejaVuSans-2d" x="277.197266"/>
      <use xlink:href="#DejaVuSans-68" x="313.28125"/>
      <use xlink:href="#DejaVuSans-65" x="376.660156"/>
      <use xlink:href="#DejaVuSans-70" x="438.183594"/>
      <use xlink:href="#DejaVuSans-2f" x="501.660156"/>
      <use xlink:href="#DejaVuSans-6d" x="535.351562"/>
      <use xlink:href="#DejaVuSans-61" x="632.763672"/>
      <use xlink:href="#DejaVuSans-64" x="694.042969"/>
      <use xlink:href="#DejaVuSans-6d" x="757.519531"/>
      <use xlink:href="#DejaVuSans-69" x="854.931641"/>
      <use xlink:href="#DejaVuSans-6e" x="882.714844"/>
      <use xlink:href="#DejaVuSans-65" x="946.09375"/>
      <use xlink:href="#DejaVuSans-72" x="1007.617188"/>
     </g>
    </g>
    <g id="line2d_53">
     <path d="M 885.021875 136.601562 
L 895.021875 136.601562 
L 905.021875 136.601562 
" style="fill: none; stroke: #bcbd22; stroke-width: 3; stroke-linecap: square"/>
    </g>
    <g id="text_26">
     <!-- scikit-hep/particle -->
     <g transform="translate(913.021875 140.101562) scale(0.1 -0.1)">
      <use xlink:href="#DejaVuSans-73"/>
      <use xlink:href="#DejaVuSans-63" x="52.099609"/>
      <use xlink:href="#DejaVuSans-69" x="107.080078"/>
      <use xlink:href="#DejaVuSans-6b" x="134.863281"/>
      <use xlink:href="#DejaVuSans-69" x="192.773438"/>
      <use xlink:href="#DejaVuSans-74" x="220.556641"/>
      <use xlink:href="#DejaVuSans-2d" x="259.765625"/>
      <use xlink:href="#DejaVuSans-68" x="295.849609"/>
      <use xlink:href="#DejaVuSans-65" x="359.228516"/>
      <use xlink:href="#DejaVuSans-70" x="420.751953"/>
      <use xlink:href="#DejaVuSans-2f" x="484.228516"/>
      <use xlink:href="#DejaVuSans-70" x="517.919922"/>
      <use xlink:href="#DejaVuSans-61" x="581.396484"/>
      <use xlink:href="#DejaVuSans-72" x="642.675781"/>
      <use xlink:href="#DejaVuSans-74" x="683.789062"/>
      <use xlink:href="#DejaVuSans-69" x="722.998047"/>
      <use xlink:href="#DejaVuSans-63" x="750.78125"/>
      <use xlink:href="#DejaVuSans-6c" x="805.761719"/>
      <use xlink:href="#DejaVuSans-65" x="833.544922"/>
     </g>
    </g>
    <g id="line2d_54">
     <path d="M 885.021875 151.279687 
L 895.021875 151.279687 
L 905.021875 151.279687 
" style="fill: none; stroke: #17becf; stroke-width: 3; stroke-linecap: square"/>
    </g>
    <g id="text_27">
     <!-- scikit-hep/decaylanguage -->
     <g transform="translate(913.021875 154.779687) scale(0.1 -0.1)">
      <use xlink:href="#DejaVuSans-73"/>
      <use xlink:href="#DejaVuSans-63" x="52.099609"/>
      <use xlink:href="#DejaVuSans-69" x="107.080078"/>
      <use xlink:href="#DejaVuSans-6b" x="134.863281"/>
      <use xlink:href="#DejaVuSans-69" x="192.773438"/>
      <use xlink:href="#DejaVuSans-74" x="220.556641"/>
      <use xlink:href="#DejaVuSans-2d" x="259.765625"/>
      <use xlink:href="#DejaVuSans-68" x="295.849609"/>
      <use xlink:href="#DejaVuSans-65" x="359.228516"/>
      <use xlink:href="#DejaVuSans-70" x="420.751953"/>
      <use xlink:href="#DejaVuSans-2f" x="484.228516"/>
      <use xlink:href="#DejaVuSans-64" x="517.919922"/>
      <use xlink:href="#DejaVuSans-65" x="581.396484"/>
      <use xlink:href="#DejaVuSans-63" x="642.919922"/>
      <use xlink:href="#DejaVuSans-61" x="697.900391"/>
      <use xlink:href="#DejaVuSans-79" x="759.179688"/>
      <use xlink:href="#DejaVuSans-6c" x="818.359375"/>
      <use xlink:href="#DejaVuSans-61" x="846.142578"/>
      <use xlink:href="#DejaVuSans-6e" x="907.421875"/>
      <use xlink:href="#DejaVuSans-67" x="970.800781"/>
      <use xlink:href="#DejaVuSans-75" x="1034.277344"/>
      <use xlink:href="#DejaVuSans-61" x="1097.65625"/>
      <use xlink:href="#DejaVuSans-67" x="1158.935547"/>
      <use xlink:href="#DejaVuSans-65" x="1222.412109"/>
     </g>
    </g>
    <g id="line2d_55">
     <path d="M 885.021875 165.957812 
L 895.021875 165.957812 
L 905.021875 165.957812 
" style="fill: none; stroke: #1f77b4; stroke-width: 3; stroke-linecap: square"/>
    </g>
    <g id="text_28">
     <!-- reanahub/reana -->
     <g transform="translate(913.021875 169.457812) scale(0.1 -0.1)">
      <use xlink:href="#DejaVuSans-72"/>
      <use xlink:href="#DejaVuSans-65" x="38.863281"/>
      <use xlink:href="#DejaVuSans-61" x="100.386719"/>
      <use xlink:href="#DejaVuSans-6e" x="161.666016"/>
      <use xlink:href="#DejaVuSans-61" x="225.044922"/>
      <use xlink:href="#DejaVuSans-68" x="286.324219"/>
      <use xlink:href="#DejaVuSans-75" x="349.703125"/>
      <use xlink:href="#DejaVuSans-62" x="413.082031"/>
      <use xlink:href="#DejaVuSans-2f" x="476.558594"/>
      <use xlink:href="#DejaVuSans-72" x="510.25"/>
      <use xlink:href="#DejaVuSans-65" x="549.113281"/>
      <use xlink:href="#DejaVuSans-61" x="610.636719"/>
      <use xlink:href="#DejaVuSans-6e" x="671.916016"/>
      <use xlink:href="#DejaVuSans-61" x="735.294922"/>
     </g>
    </g>
    <g id="line2d_56">
     <path d="M 885.021875 180.635937 
L 895.021875 180.635937 
L 905.021875 180.635937 
" style="fill: none; stroke: #ff7f0e; stroke-width: 3; stroke-linecap: square"/>
    </g>
    <g id="text_29">
     <!-- iris-hep/func_adl_xAOD -->
     <g transform="translate(913.021875 184.135937) scale(0.1 -0.1)">
      <defs>
       <path id="DejaVuSans-41" d="M 2188 4044 
L 1331 1722 
L 3047 1722 
L 2188 4044 
z
M 1831 4666 
L 2547 4666 
L 4325 0 
L 3669 0 
L 3244 1197 
L 1141 1197 
L 716 0 
L 50 0 
L 1831 4666 
z
" transform="scale(0.015625)"/>
       <path id="DejaVuSans-4f" d="M 2522 4238 
Q 1834 4238 1429 3725 
Q 1025 3213 1025 2328 
Q 1025 1447 1429 934 
Q 1834 422 2522 422 
Q 3209 422 3611 934 
Q 4013 1447 4013 2328 
Q 4013 3213 3611 3725 
Q 3209 4238 2522 4238 
z
M 2522 4750 
Q 3503 4750 4090 4092 
Q 4678 3434 4678 2328 
Q 4678 1225 4090 567 
Q 3503 -91 2522 -91 
Q 1538 -91 948 565 
Q 359 1222 359 2328 
Q 359 3434 948 4092 
Q 1538 4750 2522 4750 
z
" transform="scale(0.015625)"/>
      </defs>
      <use xlink:href="#DejaVuSans-69"/>
      <use xlink:href="#DejaVuSans-72" x="27.783203"/>
      <use xlink:href="#DejaVuSans-69" x="68.896484"/>
      <use xlink:href="#DejaVuSans-73" x="96.679688"/>
      <use xlink:href="#DejaVuSans-2d" x="148.779297"/>
      <use xlink:href="#DejaVuSans-68" x="184.863281"/>
      <use xlink:href="#DejaVuSans-65" x="248.242188"/>
      <use xlink:href="#DejaVuSans-70" x="309.765625"/>
      <use xlink:href="#DejaVuSans-2f" x="373.242188"/>
      <use xlink:href="#DejaVuSans-66" x="406.933594"/>
      <use xlink:href="#DejaVuSans-75" x="442.138672"/>
      <use xlink:href="#DejaVuSans-6e" x="505.517578"/>
      <use xlink:href="#DejaVuSans-63" x="568.896484"/>
      <use xlink:href="#DejaVuSans-5f" x="623.876953"/>
      <use xlink:href="#DejaVuSans-61" x="673.876953"/>
      <use xlink:href="#DejaVuSans-64" x="735.15625"/>
      <use xlink:href="#DejaVuSans-6c" x="798.632812"/>
      <use xlink:href="#DejaVuSans-5f" x="826.416016"/>
      <use xlink:href="#DejaVuSans-78" x="876.416016"/>
      <use xlink:href="#DejaVuSans-41" x="935.595703"/>
      <use xlink:href="#DejaVuSans-4f" x="1002.253906"/>
      <use xlink:href="#DejaVuSans-44" x="1080.964844"/>
     </g>
    </g>
    <g id="line2d_57">
     <path d="M 885.021875 195.592187 
L 895.021875 195.592187 
L 905.021875 195.592187 
" style="fill: none; stroke: #2ca02c; stroke-width: 3; stroke-linecap: square"/>
    </g>
    <g id="text_30">
     <!-- iris-hep/func_adl_uproot -->
     <g transform="translate(913.021875 199.092187) scale(0.1 -0.1)">
      <use xlink:href="#DejaVuSans-69"/>
      <use xlink:href="#DejaVuSans-72" x="27.783203"/>
      <use xlink:href="#DejaVuSans-69" x="68.896484"/>
      <use xlink:href="#DejaVuSans-73" x="96.679688"/>
      <use xlink:href="#DejaVuSans-2d" x="148.779297"/>
      <use xlink:href="#DejaVuSans-68" x="184.863281"/>
      <use xlink:href="#DejaVuSans-65" x="248.242188"/>
      <use xlink:href="#DejaVuSans-70" x="309.765625"/>
      <use xlink:href="#DejaVuSans-2f" x="373.242188"/>
      <use xlink:href="#DejaVuSans-66" x="406.933594"/>
      <use xlink:href="#DejaVuSans-75" x="442.138672"/>
      <use xlink:href="#DejaVuSans-6e" x="505.517578"/>
      <use xlink:href="#DejaVuSans-63" x="568.896484"/>
      <use xlink:href="#DejaVuSans-5f" x="623.876953"/>
      <use xlink:href="#DejaVuSans-61" x="673.876953"/>
      <use xlink:href="#DejaVuSans-64" x="735.15625"/>
      <use xlink:href="#DejaVuSans-6c" x="798.632812"/>
      <use xlink:href="#DejaVuSans-5f" x="826.416016"/>
      <use xlink:href="#DejaVuSans-75" x="876.416016"/>
      <use xlink:href="#DejaVuSans-70" x="939.794922"/>
      <use xlink:href="#DejaVuSans-72" x="1003.271484"/>
      <use xlink:href="#DejaVuSans-6f" x="1042.134766"/>
      <use xlink:href="#DejaVuSans-6f" x="1103.316406"/>
      <use xlink:href="#DejaVuSans-74" x="1164.498047"/>
     </g>
    </g>
    <g id="line2d_58">
     <path d="M 885.021875 210.548437 
L 895.021875 210.548437 
L 905.021875 210.548437 
" style="fill: none; stroke: #d62728; stroke-width: 3; stroke-linecap: square"/>
    </g>
    <g id="text_31">
     <!-- iris-hep/func_adl_servicex -->
     <g transform="translate(913.021875 214.048437) scale(0.1 -0.1)">
      <defs>
       <path id="DejaVuSans-76" d="M 191 3500 
L 800 3500 
L 1894 563 
L 2988 3500 
L 3597 3500 
L 2284 0 
L 1503 0 
L 191 3500 
z
" transform="scale(0.015625)"/>
      </defs>
      <use xlink:href="#DejaVuSans-69"/>
      <use xlink:href="#DejaVuSans-72" x="27.783203"/>
      <use xlink:href="#DejaVuSans-69" x="68.896484"/>
      <use xlink:href="#DejaVuSans-73" x="96.679688"/>
      <use xlink:href="#DejaVuSans-2d" x="148.779297"/>
      <use xlink:href="#DejaVuSans-68" x="184.863281"/>
      <use xlink:href="#DejaVuSans-65" x="248.242188"/>
      <use xlink:href="#DejaVuSans-70" x="309.765625"/>
      <use xlink:href="#DejaVuSans-2f" x="373.242188"/>
      <use xlink:href="#DejaVuSans-66" x="406.933594"/>
      <use xlink:href="#DejaVuSans-75" x="442.138672"/>
      <use xlink:href="#DejaVuSans-6e" x="505.517578"/>
      <use xlink:href="#DejaVuSans-63" x="568.896484"/>
      <use xlink:href="#DejaVuSans-5f" x="623.876953"/>
      <use xlink:href="#DejaVuSans-61" x="673.876953"/>
      <use xlink:href="#DejaVuSans-64" x="735.15625"/>
      <use xlink:href="#DejaVuSans-6c" x="798.632812"/>
      <use xlink:href="#DejaVuSans-5f" x="826.416016"/>
      <use xlink:href="#DejaVuSans-73" x="876.416016"/>
      <use xlink:href="#DejaVuSans-65" x="928.515625"/>
      <use xlink:href="#DejaVuSans-72" x="990.039062"/>
      <use xlink:href="#DejaVuSans-76" x="1031.152344"/>
      <use xlink:href="#DejaVuSans-69" x="1090.332031"/>
      <use xlink:href="#DejaVuSans-63" x="1118.115234"/>
      <use xlink:href="#DejaVuSans-65" x="1173.095703"/>
      <use xlink:href="#DejaVuSans-78" x="1232.869141"/>
     </g>
    </g>
    <g id="line2d_59">
     <path d="M 885.021875 225.504687 
L 895.021875 225.504687 
L 905.021875 225.504687 
" style="fill: none; stroke: #9467bd; stroke-width: 3; stroke-linecap: square"/>
    </g>
    <g id="text_32">
     <!-- scikit-hep/boost-histogram -->
     <g transform="translate(913.021875 229.004687) scale(0.1 -0.1)">
      <use xlink:href="#DejaVuSans-73"/>
      <use xlink:href="#DejaVuSans-63" x="52.099609"/>
      <use xlink:href="#DejaVuSans-69" x="107.080078"/>
      <use xlink:href="#DejaVuSans-6b" x="134.863281"/>
      <use xlink:href="#DejaVuSans-69" x="192.773438"/>
      <use xlink:href="#DejaVuSans-74" x="220.556641"/>
      <use xlink:href="#DejaVuSans-2d" x="259.765625"/>
      <use xlink:href="#DejaVuSans-68" x="295.849609"/>
      <use xlink:href="#DejaVuSans-65" x="359.228516"/>
      <use xlink:href="#DejaVuSans-70" x="420.751953"/>
      <use xlink:href="#DejaVuSans-2f" x="484.228516"/>
      <use xlink:href="#DejaVuSans-62" x="517.919922"/>
      <use xlink:href="#DejaVuSans-6f" x="581.396484"/>
      <use xlink:href="#DejaVuSans-6f" x="642.578125"/>
      <use xlink:href="#DejaVuSans-73" x="703.759766"/>
      <use xlink:href="#DejaVuSans-74" x="755.859375"/>
      <use xlink:href="#DejaVuSans-2d" x="795.068359"/>
      <use xlink:href="#DejaVuSans-68" x="831.152344"/>
      <use xlink:href="#DejaVuSans-69" x="894.53125"/>
      <use xlink:href="#DejaVuSans-73" x="922.314453"/>
      <use xlink:href="#DejaVuSans-74" x="974.414062"/>
      <use xlink:href="#DejaVuSans-6f" x="1013.623047"/>
      <use xlink:href="#DejaVuSans-67" x="1074.804688"/>
      <use xlink:href="#DejaVuSans-72" x="1138.28125"/>
      <use xlink:href="#DejaVuSans-61" x="1179.394531"/>
      <use xlink:href="#DejaVuSans-6d" x="1240.673828"/>
     </g>
    </g>
    <g id="line2d_60">
     <path d="M 885.021875 240.182812 
L 895.021875 240.182812 
L 905.021875 240.182812 
" style="fill: none; stroke: #000000; stroke-width: 3; stroke-linecap: square"/>
    </g>
    <g id="text_33">
     <!-- scikit-hep/cabinetry -->
     <g transform="translate(913.021875 243.682812) scale(0.1 -0.1)">
      <use xlink:href="#DejaVuSans-73"/>
      <use xlink:href="#DejaVuSans-63" x="52.099609"/>
      <use xlink:href="#DejaVuSans-69" x="107.080078"/>
      <use xlink:href="#DejaVuSans-6b" x="134.863281"/>
      <use xlink:href="#DejaVuSans-69" x="192.773438"/>
      <use xlink:href="#DejaVuSans-74" x="220.556641"/>
      <use xlink:href="#DejaVuSans-2d" x="259.765625"/>
      <use xlink:href="#DejaVuSans-68" x="295.849609"/>
      <use xlink:href="#DejaVuSans-65" x="359.228516"/>
      <use xlink:href="#DejaVuSans-70" x="420.751953"/>
      <use xlink:href="#DejaVuSans-2f" x="484.228516"/>
      <use xlink:href="#DejaVuSans-63" x="517.919922"/>
      <use xlink:href="#DejaVuSans-61" x="572.900391"/>
      <use xlink:href="#DejaVuSans-62" x="634.179688"/>
      <use xlink:href="#DejaVuSans-69" x="697.65625"/>
      <use xlink:href="#DejaVuSans-6e" x="725.439453"/>
      <use xlink:href="#DejaVuSans-65" x="788.818359"/>
      <use xlink:href="#DejaVuSans-74" x="850.341797"/>
      <use xlink:href="#DejaVuSans-72" x="889.550781"/>
      <use xlink:href="#DejaVuSans-79" x="930.664062"/>
     </g>
    </g>
    <g id="line2d_61">
     <path d="M 885.021875 254.860937 
L 895.021875 254.860937 
L 905.021875 254.860937 
" style="fill: none; stroke: #000000; stroke-width: 3; stroke-linecap: square"/>
    </g>
    <g id="text_34">
     <!-- scikit-hep/fastjet -->
     <g transform="translate(913.021875 258.360937) scale(0.1 -0.1)">
      <defs>
       <path id="DejaVuSans-6a" d="M 603 3500 
L 1178 3500 
L 1178 -63 
Q 1178 -731 923 -1031 
Q 669 -1331 103 -1331 
L -116 -1331 
L -116 -844 
L 38 -844 
Q 366 -844 484 -692 
Q 603 -541 603 -63 
L 603 3500 
z
M 603 4863 
L 1178 4863 
L 1178 4134 
L 603 4134 
L 603 4863 
z
" transform="scale(0.015625)"/>
      </defs>
      <use xlink:href="#DejaVuSans-73"/>
      <use xlink:href="#DejaVuSans-63" x="52.099609"/>
      <use xlink:href="#DejaVuSans-69" x="107.080078"/>
      <use xlink:href="#DejaVuSans-6b" x="134.863281"/>
      <use xlink:href="#DejaVuSans-69" x="192.773438"/>
      <use xlink:href="#DejaVuSans-74" x="220.556641"/>
      <use xlink:href="#DejaVuSans-2d" x="259.765625"/>
      <use xlink:href="#DejaVuSans-68" x="295.849609"/>
      <use xlink:href="#DejaVuSans-65" x="359.228516"/>
      <use xlink:href="#DejaVuSans-70" x="420.751953"/>
      <use xlink:href="#DejaVuSans-2f" x="484.228516"/>
      <use xlink:href="#DejaVuSans-66" x="517.919922"/>
      <use xlink:href="#DejaVuSans-61" x="553.125"/>
      <use xlink:href="#DejaVuSans-73" x="614.404297"/>
      <use xlink:href="#DejaVuSans-74" x="666.503906"/>
      <use xlink:href="#DejaVuSans-6a" x="705.712891"/>
      <use xlink:href="#DejaVuSans-65" x="733.496094"/>
      <use xlink:href="#DejaVuSans-74" x="795.019531"/>
     </g>
    </g>
    <g id="line2d_62">
     <path d="M 885.021875 269.539062 
L 895.021875 269.539062 
L 905.021875 269.539062 
" style="fill: none; stroke: #000000; stroke-width: 3; stroke-linecap: square"/>
    </g>
    <g id="text_35">
     <!-- scikit-hep/hist -->
     <g transform="translate(913.021875 273.039062) scale(0.1 -0.1)">
      <use xlink:href="#DejaVuSans-73"/>
      <use xlink:href="#DejaVuSans-63" x="52.099609"/>
      <use xlink:href="#DejaVuSans-69" x="107.080078"/>
      <use xlink:href="#DejaVuSans-6b" x="134.863281"/>
      <use xlink:href="#DejaVuSans-69" x="192.773438"/>
      <use xlink:href="#DejaVuSans-74" x="220.556641"/>
      <use xlink:href="#DejaVuSans-2d" x="259.765625"/>
      <use xlink:href="#DejaVuSans-68" x="295.849609"/>
      <use xlink:href="#DejaVuSans-65" x="359.228516"/>
      <use xlink:href="#DejaVuSans-70" x="420.751953"/>
      <use xlink:href="#DejaVuSans-2f" x="484.228516"/>
      <use xlink:href="#DejaVuSans-68" x="517.919922"/>
      <use xlink:href="#DejaVuSans-69" x="581.298828"/>
      <use xlink:href="#DejaVuSans-73" x="609.082031"/>
      <use xlink:href="#DejaVuSans-74" x="661.181641"/>
     </g>
    </g>
    <g id="line2d_63">
     <path d="M 885.021875 284.217187 
L 895.021875 284.217187 
L 905.021875 284.217187 
" style="fill: none; stroke: #000000; stroke-width: 3; stroke-linecap: square"/>
    </g>
    <g id="text_36">
     <!-- iris-hep/qastle -->
     <g transform="translate(913.021875 287.717187) scale(0.1 -0.1)">
      <defs>
       <path id="DejaVuSans-71" d="M 947 1747 
Q 947 1113 1208 752 
Q 1469 391 1925 391 
Q 2381 391 2643 752 
Q 2906 1113 2906 1747 
Q 2906 2381 2643 2742 
Q 2381 3103 1925 3103 
Q 1469 3103 1208 2742 
Q 947 2381 947 1747 
z
M 2906 525 
Q 2725 213 2448 61 
Q 2172 -91 1784 -91 
Q 1150 -91 751 415 
Q 353 922 353 1747 
Q 353 2572 751 3078 
Q 1150 3584 1784 3584 
Q 2172 3584 2448 3432 
Q 2725 3281 2906 2969 
L 2906 3500 
L 3481 3500 
L 3481 -1331 
L 2906 -1331 
L 2906 525 
z
" transform="scale(0.015625)"/>
      </defs>
      <use xlink:href="#DejaVuSans-69"/>
      <use xlink:href="#DejaVuSans-72" x="27.783203"/>
      <use xlink:href="#DejaVuSans-69" x="68.896484"/>
      <use xlink:href="#DejaVuSans-73" x="96.679688"/>
      <use xlink:href="#DejaVuSans-2d" x="148.779297"/>
      <use xlink:href="#DejaVuSans-68" x="184.863281"/>
      <use xlink:href="#DejaVuSans-65" x="248.242188"/>
      <use xlink:href="#DejaVuSans-70" x="309.765625"/>
      <use xlink:href="#DejaVuSans-2f" x="373.242188"/>
      <use xlink:href="#DejaVuSans-71" x="406.933594"/>
      <use xlink:href="#DejaVuSans-61" x="470.410156"/>
      <use xlink:href="#DejaVuSans-73" x="531.689453"/>
      <use xlink:href="#DejaVuSans-74" x="583.789062"/>
      <use xlink:href="#DejaVuSans-6c" x="622.998047"/>
      <use xlink:href="#DejaVuSans-65" x="650.78125"/>
     </g>
    </g>
    <g id="line2d_64">
     <path d="M 885.021875 298.895312 
L 895.021875 298.895312 
L 905.021875 298.895312 
" style="fill: none; stroke: #000000; stroke-width: 3; stroke-linecap: square"/>
    </g>
    <g id="text_37">
     <!-- scikit-hep/vector -->
     <g transform="translate(913.021875 302.395312) scale(0.1 -0.1)">
      <use xlink:href="#DejaVuSans-73"/>
      <use xlink:href="#DejaVuSans-63" x="52.099609"/>
      <use xlink:href="#DejaVuSans-69" x="107.080078"/>
      <use xlink:href="#DejaVuSans-6b" x="134.863281"/>
      <use xlink:href="#DejaVuSans-69" x="192.773438"/>
      <use xlink:href="#DejaVuSans-74" x="220.556641"/>
      <use xlink:href="#DejaVuSans-2d" x="259.765625"/>
      <use xlink:href="#DejaVuSans-68" x="295.849609"/>
      <use xlink:href="#DejaVuSans-65" x="359.228516"/>
      <use xlink:href="#DejaVuSans-70" x="420.751953"/>
      <use xlink:href="#DejaVuSans-2f" x="484.228516"/>
      <use xlink:href="#DejaVuSans-76" x="517.919922"/>
      <use xlink:href="#DejaVuSans-65" x="577.099609"/>
      <use xlink:href="#DejaVuSans-63" x="638.623047"/>
      <use xlink:href="#DejaVuSans-74" x="693.603516"/>
      <use xlink:href="#DejaVuSans-6f" x="732.8125"/>
      <use xlink:href="#DejaVuSans-72" x="793.994141"/>
     </g>
    </g>
    <g id="line2d_65">
     <path d="M 885.021875 313.573437 
L 895.021875 313.573437 
L 905.021875 313.573437 
" style="fill: none; stroke: #000000; stroke-width: 3; stroke-linecap: square"/>
    </g>
    <g id="text_38">
     <!-- GooFit/GooFit -->
     <g transform="translate(913.021875 317.073437) scale(0.1 -0.1)">
      <defs>
       <path id="DejaVuSans-47" d="M 3809 666 
L 3809 1919 
L 2778 1919 
L 2778 2438 
L 4434 2438 
L 4434 434 
Q 4069 175 3628 42 
Q 3188 -91 2688 -91 
Q 1594 -91 976 548 
Q 359 1188 359 2328 
Q 359 3472 976 4111 
Q 1594 4750 2688 4750 
Q 3144 4750 3555 4637 
Q 3966 4525 4313 4306 
L 4313 3634 
Q 3963 3931 3569 4081 
Q 3175 4231 2741 4231 
Q 1884 4231 1454 3753 
Q 1025 3275 1025 2328 
Q 1025 1384 1454 906 
Q 1884 428 2741 428 
Q 3075 428 3337 486 
Q 3600 544 3809 666 
z
" transform="scale(0.015625)"/>
       <path id="DejaVuSans-46" d="M 628 4666 
L 3309 4666 
L 3309 4134 
L 1259 4134 
L 1259 2759 
L 3109 2759 
L 3109 2228 
L 1259 2228 
L 1259 0 
L 628 0 
L 628 4666 
z
" transform="scale(0.015625)"/>
      </defs>
      <use xlink:href="#DejaVuSans-47"/>
      <use xlink:href="#DejaVuSans-6f" x="77.490234"/>
      <use xlink:href="#DejaVuSans-6f" x="138.671875"/>
      <use xlink:href="#DejaVuSans-46" x="199.853516"/>
      <use xlink:href="#DejaVuSans-69" x="250.123047"/>
      <use xlink:href="#DejaVuSans-74" x="277.90625"/>
      <use xlink:href="#DejaVuSans-2f" x="317.115234"/>
      <use xlink:href="#DejaVuSans-47" x="350.806641"/>
      <use xlink:href="#DejaVuSans-6f" x="428.296875"/>
      <use xlink:href="#DejaVuSans-6f" x="489.478516"/>
      <use xlink:href="#DejaVuSans-46" x="550.660156"/>
      <use xlink:href="#DejaVuSans-69" x="600.929688"/>
      <use xlink:href="#DejaVuSans-74" x="628.712891"/>
     </g>
    </g>
    <g id="line2d_66">
     <path d="M 885.021875 328.251562 
L 895.021875 328.251562 
L 905.021875 328.251562 
" style="fill: none; stroke: #000000; stroke-width: 3; stroke-linecap: square"/>
    </g>
    <g id="text_39">
     <!-- scikit-hep/cookie -->
     <g transform="translate(913.021875 331.751562) scale(0.1 -0.1)">
      <use xlink:href="#DejaVuSans-73"/>
      <use xlink:href="#DejaVuSans-63" x="52.099609"/>
      <use xlink:href="#DejaVuSans-69" x="107.080078"/>
      <use xlink:href="#DejaVuSans-6b" x="134.863281"/>
      <use xlink:href="#DejaVuSans-69" x="192.773438"/>
      <use xlink:href="#DejaVuSans-74" x="220.556641"/>
      <use xlink:href="#DejaVuSans-2d" x="259.765625"/>
      <use xlink:href="#DejaVuSans-68" x="295.849609"/>
      <use xlink:href="#DejaVuSans-65" x="359.228516"/>
      <use xlink:href="#DejaVuSans-70" x="420.751953"/>
      <use xlink:href="#DejaVuSans-2f" x="484.228516"/>
      <use xlink:href="#DejaVuSans-63" x="517.919922"/>
      <use xlink:href="#DejaVuSans-6f" x="572.900391"/>
      <use xlink:href="#DejaVuSans-6f" x="634.082031"/>
      <use xlink:href="#DejaVuSans-6b" x="695.263672"/>
      <use xlink:href="#DejaVuSans-69" x="753.173828"/>
      <use xlink:href="#DejaVuSans-65" x="780.957031"/>
     </g>
    </g>
    <g id="line2d_67">
     <path d="M 885.021875 342.929688 
L 895.021875 342.929688 
L 905.021875 342.929688 
" style="fill: none; stroke: #000000; stroke-width: 3; stroke-linecap: square"/>
    </g>
    <g id="text_40">
     <!-- scikit-hep/uhi -->
     <g transform="translate(913.021875 346.429688) scale(0.1 -0.1)">
      <use xlink:href="#DejaVuSans-73"/>
      <use xlink:href="#DejaVuSans-63" x="52.099609"/>
      <use xlink:href="#DejaVuSans-69" x="107.080078"/>
      <use xlink:href="#DejaVuSans-6b" x="134.863281"/>
      <use xlink:href="#DejaVuSans-69" x="192.773438"/>
      <use xlink:href="#DejaVuSans-74" x="220.556641"/>
      <use xlink:href="#DejaVuSans-2d" x="259.765625"/>
      <use xlink:href="#DejaVuSans-68" x="295.849609"/>
      <use xlink:href="#DejaVuSans-65" x="359.228516"/>
      <use xlink:href="#DejaVuSans-70" x="420.751953"/>
      <use xlink:href="#DejaVuSans-2f" x="484.228516"/>
      <use xlink:href="#DejaVuSans-75" x="517.919922"/>
      <use xlink:href="#DejaVuSans-68" x="581.298828"/>
      <use xlink:href="#DejaVuSans-69" x="644.677734"/>
     </g>
    </g>
    <g id="line2d_68">
     <path d="M 885.021875 357.607813 
L 895.021875 357.607813 
L 905.021875 357.607813 
" style="fill: none; stroke: #000000; stroke-width: 3; stroke-linecap: square"/>
    </g>
    <g id="text_41">
     <!-- GooFit/AmpGen -->
     <g transform="translate(913.021875 361.107813) scale(0.1 -0.1)">
      <use xlink:href="#DejaVuSans-47"/>
      <use xlink:href="#DejaVuSans-6f" x="77.490234"/>
      <use xlink:href="#DejaVuSans-6f" x="138.671875"/>
      <use xlink:href="#DejaVuSans-46" x="199.853516"/>
      <use xlink:href="#DejaVuSans-69" x="250.123047"/>
      <use xlink:href="#DejaVuSans-74" x="277.90625"/>
      <use xlink:href="#DejaVuSans-2f" x="317.115234"/>
      <use xlink:href="#DejaVuSans-41" x="350.806641"/>
      <use xlink:href="#DejaVuSans-6d" x="419.214844"/>
      <use xlink:href="#DejaVuSans-70" x="516.626953"/>
      <use xlink:href="#DejaVuSans-47" x="580.103516"/>
      <use xlink:href="#DejaVuSans-65" x="657.59375"/>
      <use xlink:href="#DejaVuSans-6e" x="719.117188"/>
     </g>
    </g>
    <g id="line2d_69">
     <path d="M 885.021875 372.285938 
L 895.021875 372.285938 
L 905.021875 372.285938 
" style="fill: none; stroke: #000000; stroke-width: 3; stroke-linecap: square"/>
    </g>
    <g id="text_42">
     <!-- diana-hep/excursion -->
     <g transform="translate(913.021875 375.785938) scale(0.1 -0.1)">
      <use xlink:href="#DejaVuSans-64"/>
      <use xlink:href="#DejaVuSans-69" x="63.476562"/>
      <use xlink:href="#DejaVuSans-61" x="91.259766"/>
      <use xlink:href="#DejaVuSans-6e" x="152.539062"/>
      <use xlink:href="#DejaVuSans-61" x="215.917969"/>
      <use xlink:href="#DejaVuSans-2d" x="277.197266"/>
      <use xlink:href="#DejaVuSans-68" x="313.28125"/>
      <use xlink:href="#DejaVuSans-65" x="376.660156"/>
      <use xlink:href="#DejaVuSans-70" x="438.183594"/>
      <use xlink:href="#DejaVuSans-2f" x="501.660156"/>
      <use xlink:href="#DejaVuSans-65" x="535.351562"/>
      <use xlink:href="#DejaVuSans-78" x="595.125"/>
      <use xlink:href="#DejaVuSans-63" x="652.554688"/>
      <use xlink:href="#DejaVuSans-75" x="707.535156"/>
      <use xlink:href="#DejaVuSans-72" x="770.914062"/>
      <use xlink:href="#DejaVuSans-73" x="812.027344"/>
      <use xlink:href="#DejaVuSans-69" x="864.126953"/>
      <use xlink:href="#DejaVuSans-6f" x="891.910156"/>
      <use xlink:href="#DejaVuSans-6e" x="953.091797"/>
     </g>
    </g>
    <g id="line2d_70">
     <path d="M 885.021875 386.964063 
L 895.021875 386.964063 
L 905.021875 386.964063 
" style="fill: none; stroke: #000000; stroke-width: 3; stroke-linecap: square"/>
    </g>
    <g id="text_43">
     <!-- iris-hep/adl-benchmarks-index -->
     <g transform="translate(913.021875 390.464063) scale(0.1 -0.1)">
      <use xlink:href="#DejaVuSans-69"/>
      <use xlink:href="#DejaVuSans-72" x="27.783203"/>
      <use xlink:href="#DejaVuSans-69" x="68.896484"/>
      <use xlink:href="#DejaVuSans-73" x="96.679688"/>
      <use xlink:href="#DejaVuSans-2d" x="148.779297"/>
      <use xlink:href="#DejaVuSans-68" x="184.863281"/>
      <use xlink:href="#DejaVuSans-65" x="248.242188"/>
      <use xlink:href="#DejaVuSans-70" x="309.765625"/>
      <use xlink:href="#DejaVuSans-2f" x="373.242188"/>
      <use xlink:href="#DejaVuSans-61" x="406.933594"/>
      <use xlink:href="#DejaVuSans-64" x="468.212891"/>
      <use xlink:href="#DejaVuSans-6c" x="531.689453"/>
      <use xlink:href="#DejaVuSans-2d" x="559.472656"/>
      <use xlink:href="#DejaVuSans-62" x="595.556641"/>
      <use xlink:href="#DejaVuSans-65" x="659.033203"/>
      <use xlink:href="#DejaVuSans-6e" x="720.556641"/>
      <use xlink:href="#DejaVuSans-63" x="783.935547"/>
      <use xlink:href="#DejaVuSans-68" x="838.916016"/>
      <use xlink:href="#DejaVuSans-6d" x="902.294922"/>
      <use xlink:href="#DejaVuSans-61" x="999.707031"/>
      <use xlink:href="#DejaVuSans-72" x="1060.986328"/>
      <use xlink:href="#DejaVuSans-6b" x="1102.099609"/>
      <use xlink:href="#DejaVuSans-73" x="1160.009766"/>
      <use xlink:href="#DejaVuSans-2d" x="1212.109375"/>
      <use xlink:href="#DejaVuSans-69" x="1248.193359"/>
      <use xlink:href="#DejaVuSans-6e" x="1275.976562"/>
      <use xlink:href="#DejaVuSans-64" x="1339.355469"/>
      <use xlink:href="#DejaVuSans-65" x="1402.832031"/>
      <use xlink:href="#DejaVuSans-78" x="1462.605469"/>
     </g>
    </g>
    <g id="line2d_71">
     <path d="M 885.021875 401.642188 
L 895.021875 401.642188 
L 905.021875 401.642188 
" style="fill: none; stroke: #000000; stroke-width: 3; stroke-linecap: square"/>
    </g>
    <g id="text_44">
     <!-- scailfin/madminer-workflow -->
     <g transform="translate(913.021875 405.142188) scale(0.1 -0.1)">
      <use xlink:href="#DejaVuSans-73"/>
      <use xlink:href="#DejaVuSans-63" x="52.099609"/>
      <use xlink:href="#DejaVuSans-61" x="107.080078"/>
      <use xlink:href="#DejaVuSans-69" x="168.359375"/>
      <use xlink:href="#DejaVuSans-6c" x="196.142578"/>
      <use xlink:href="#DejaVuSans-66" x="223.925781"/>
      <use xlink:href="#DejaVuSans-69" x="259.130859"/>
      <use xlink:href="#DejaVuSans-6e" x="286.914062"/>
      <use xlink:href="#DejaVuSans-2f" x="350.292969"/>
      <use xlink:href="#DejaVuSans-6d" x="383.984375"/>
      <use xlink:href="#DejaVuSans-61" x="481.396484"/>
      <use xlink:href="#DejaVuSans-64" x="542.675781"/>
      <use xlink:href="#DejaVuSans-6d" x="606.152344"/>
      <use xlink:href="#DejaVuSans-69" x="703.564453"/>
      <use xlink:href="#DejaVuSans-6e" x="731.347656"/>
      <use xlink:href="#DejaVuSans-65" x="794.726562"/>
      <use xlink:href="#DejaVuSans-72" x="856.25"/>
      <use xlink:href="#DejaVuSans-2d" x="890.988281"/>
      <use xlink:href="#DejaVuSans-77" x="927.072266"/>
      <use xlink:href="#DejaVuSans-6f" x="1008.859375"/>
      <use xlink:href="#DejaVuSans-72" x="1070.041016"/>
      <use xlink:href="#DejaVuSans-6b" x="1111.154297"/>
      <use xlink:href="#DejaVuSans-66" x="1169.064453"/>
      <use xlink:href="#DejaVuSans-6c" x="1204.269531"/>
      <use xlink:href="#DejaVuSans-6f" x="1232.052734"/>
      <use xlink:href="#DejaVuSans-77" x="1293.234375"/>
     </g>
    </g>
    <g id="line2d_72">
     <path d="M 885.021875 416.320313 
L 895.021875 416.320313 
L 905.021875 416.320313 
" style="fill: none; stroke: #000000; stroke-width: 3; stroke-linecap: square"/>
    </g>
    <g id="text_45">
     <!-- gordonwatts/hep_tables -->
     <g transform="translate(913.021875 419.820313) scale(0.1 -0.1)">
      <use xlink:href="#DejaVuSans-67"/>
      <use xlink:href="#DejaVuSans-6f" x="63.476562"/>
      <use xlink:href="#DejaVuSans-72" x="124.658203"/>
      <use xlink:href="#DejaVuSans-64" x="164.021484"/>
      <use xlink:href="#DejaVuSans-6f" x="227.498047"/>
      <use xlink:href="#DejaVuSans-6e" x="288.679688"/>
      <use xlink:href="#DejaVuSans-77" x="352.058594"/>
      <use xlink:href="#DejaVuSans-61" x="433.845703"/>
      <use xlink:href="#DejaVuSans-74" x="495.125"/>
      <use xlink:href="#DejaVuSans-74" x="534.333984"/>
      <use xlink:href="#DejaVuSans-73" x="573.542969"/>
      <use xlink:href="#DejaVuSans-2f" x="625.642578"/>
      <use xlink:href="#DejaVuSans-68" x="659.333984"/>
      <use xlink:href="#DejaVuSans-65" x="722.712891"/>
      <use xlink:href="#DejaVuSans-70" x="784.236328"/>
      <use xlink:href="#DejaVuSans-5f" x="847.712891"/>
      <use xlink:href="#DejaVuSans-74" x="897.712891"/>
      <use xlink:href="#DejaVuSans-61" x="936.921875"/>
      <use xlink:href="#DejaVuSans-62" x="998.201172"/>
      <use xlink:href="#DejaVuSans-6c" x="1061.677734"/>
      <use xlink:href="#DejaVuSans-65" x="1089.460938"/>
      <use xlink:href="#DejaVuSans-73" x="1150.984375"/>
     </g>
    </g>
   </g>
  </g>
 </g>
 <defs>
  <clipPath id="p9ed1c2d49a">
   <rect x="54.47" y="10.8" width="774.553455" height="663.64"/>
  </clipPath>
 </defs>
</svg>
